<?xml version="1.0" standalone="no"?>
<!DOCTYPE svg PUBLIC "-//W3C//DTD SVG 1.1//EN" "http://www.w3.org/Graphics/SVG/1.1/DTD/svg11.dtd" >
<svg xmlns="http://www.w3.org/2000/svg">
<metadata></metadata>
<defs>
<font id="taun_elango_panchaliregular" horiz-adv-x="645" >
<font-face units-per-em="1000" ascent="800" descent="-200" />
<missing-glyph horiz-adv-x="500" />
<glyph unicode="&#xd;" horiz-adv-x="5" />
<glyph unicode=" "  horiz-adv-x="500" />
<glyph unicode="&#x09;" horiz-adv-x="500" />
<glyph unicode="&#xa0;" horiz-adv-x="500" />
<glyph unicode="!" horiz-adv-x="300" d="M240 478q0 -62 -17 -197l-3 -23l-9 -52q-3 -21 -9 -34l-26 -3q-34 218 -34 298q0 96 27 137q9 13 23 13q10 0 23 -13q25 -29 25 -126zM242 46q0 -21 -16 -37t-34 -16q-17 0 -34 16q-16 16 -16 38q0 20 16 36.5t34 16.5q17 0 35 -16q15 -16 15 -38z" />
<glyph unicode="&#x22;" horiz-adv-x="319" d="M277 539l-21 -123h-48l-21 123v105h90v-105zM131 539l-20 -123h-48l-22 123v105h90v-105z" />
<glyph unicode="#" horiz-adv-x="481" d="M450 125h-114l-30 -141h-43l30 141h-149l-29 -141h-43l29 141h-70v43h79l27 131h-106v43h115l27 119h43l-27 -119h148l26 119h43l-26 -119h70v-43h-78l-28 -131h106v-43zM329 299h-149l-27 -131h148z" />
<glyph unicode="$" horiz-adv-x="500" d="M458 184q0 -82 -52 -138q-55 -59 -135 -59v-80h-47v80q-58 5 -92 23q-38 20 -69 65q-25 35 -31 104l79 15q8 -57 33 -94q32 -41 80 -47v252l-25 4q-9 1 -24 9q-68 25 -110 83l-14 40q-5 22 -5 45q0 81 59 137q34 31 119 43v38h47v-38q19 0 27 -2q38 -2 81 -38 q47 -40 63 -119l-81 -12q-6 43 -30 70q-19 22 -60 34v-228q66 -15 79 -24q62 -18 93 -92q15 -34 15 -71zM224 381v219q-44 -5 -71.5 -36t-27.5 -72q0 -36 21 -68q22 -26 78 -43zM377 178q0 40 -20 65t-86 51v-241q46 6 76 42t30 83z" />
<glyph unicode="%" horiz-adv-x="801" d="M746 147q0 -70 -35 -117q-38 -53 -106 -53q-58 0 -97 43q-11 12 -29 54l-7 34l-3 43q-3 64 35 118q35 48 101 48q70 0 107 -52q34 -46 34 -118zM607 655l-351 -678h-66l353 678h64zM328 485q0 -69 -34 -117q-39 -53 -105 -53q-59 0 -98 43q-10 12 -28 54l-8 34l-2 44 q-4 63 35 117q34 48 100 48q69 0 107 -52q33 -46 33 -118zM676 149q0 62 -20.5 88t-48.5 26q-68 0 -68 -120q0 -56 19 -87q19 -25 49 -25q69 0 69 118zM260 488q0 112 -70 112q-68 0 -68 -118q0 -58 19 -88q20 -25 49 -25q70 0 70 119z" />
<glyph unicode="&#x26;" horiz-adv-x="601" d="M580 48l-53 -63q-46 29 -99 91q-76 -87 -185 -87q-100 0 -157 67q-47 55 -47 121q0 122 153 193q-37 44 -58 79q-14 38 -14 62q0 63 50 105q45 39 110 39q59 0 104 -38q46 -42 46 -99q0 -92 -122 -157l115 -148q15 31 31 90l83 -18q-22 -83 -58 -138q41 -54 101 -99z M349 516q0 32 -20.5 53t-52.5 21q-31 0 -52 -20q-25 -23 -23 -51l1 -14l5 -14l10 -19l15 -19l35 -41q82 46 82 104zM378 139l-145 180q-65 -39 -86 -72l-16 -34q-5 -15 -6 -30q0 -50 35 -87t84 -37q37 0 75.5 23.5t58.5 56.5z" />
<glyph unicode="'" horiz-adv-x="184" d="M173 581q0 -57 -44 -105l-15 -13l-21 -16l-47 -23v23l42 28l13 12l13 16l9 19l4 25q0 10 -2 14l-4 8l-6 6l-6 2l-7 -1l-7 -3l-12 -3l-9 -1l-19 3q-8 3 -16 11l-11 17l-4 20l3 21q8 20 30 29l31 7q16 0 27 -7l32 -21q13 -8 19 -31l5 -18z" />
<glyph unicode="(" horiz-adv-x="220" d="M247 -202h-79q-48 68 -68 105l-24 46l-22 48q-42 91 -42 227q0 124 42 233q35 93 114 206h79q-66 -106 -95 -210q-17 -59 -21 -105l-5 -59l-2 -65q-7 -217 123 -426z" />
<glyph unicode=")" horiz-adv-x="228" d="M168 224q6 -104 -41 -227q-10 -26 -20 -44l-25 -49q-25 -47 -70 -106h-79q123 209 123 433q0 231 -123 432h79q79 -115 115 -206q24 -65 30 -115l9 -56z" />
<glyph unicode="*" horiz-adv-x="332" d="M279 328l-1 -11q-2 -33 -82 -33q52 -34 52 -61q0 -18 -17 -29t-35 -11q-32 0 -52 72q-26 -72 -61 -72q-42 7 -42 39q0 28 53 62q-83 19 -83 43q0 25 21 40q7 6 18 6q25 0 63 -26q-14 34 -14 60q0 42 44 42q17 0 30.5 -9.5t13.5 -33.5t-13 -59q39 26 64 26q12 0 19 -6 q24 -18 22 -39z" />
<glyph unicode="+" horiz-adv-x="477" d="M463 204h-184v-184h-81v184h-185v80h185v186h80v-186h185v-80z" />
<glyph unicode="," horiz-adv-x="207" d="M149 9q0 -60 -27 -100q-29 -44 -86 -53v26q72 19 72 118h-72v102h113v-93z" />
<glyph unicode="-" horiz-adv-x="589" d="M533 269l-2 -84l-470 -3v86z" />
<glyph unicode="." horiz-adv-x="239" d="M200 50q0 -31 -23.5 -54t-52.5 -23t-55 24q-21 24 -21 53q0 30 23 52t54 22t53 -21.5t22 -52.5z" />
<glyph unicode="/" horiz-adv-x="224" d="M243 639l-195 -814l-69 1l194 815z" />
<glyph unicode="0" horiz-adv-x="518" d="M457 340q0 -352 -231 -352q-212 0 -212 328q0 184 51.5 269t160.5 85q231 0 231 -330zM353 316q4 128 -19 197q-30 89 -108 89q-66 0 -98 -93q-13 -72 -13 -202q0 -125 31 -195.5t83 -70.5q74 0 102 72q11 27 15 79l5 58z" />
<glyph unicode="1" horiz-adv-x="365" d="M278 -5h-112v474l-149 3v53q76 0 118 25q42 20 70 103h73v-658z" />
<glyph unicode="2" horiz-adv-x="506" d="M440 0h-426q0 42 22 87q24 52 61 84l156 133q37 31 63 78q21 38 21 81q0 50 -26 83.5t-85 33.5q-51 0 -83 -33q-26 -36 -26 -102h-89v26q0 6 -1 16t0 13v20l8 19q16 39 48 67q53 55 141 55q86 0 149 -55q67 -58 67 -143t-60 -151q-29 -32 -127 -110q-26 -16 -42 -29 q-58 -50 -94 -98h323v-75z" />
<glyph unicode="3" horiz-adv-x="506" d="M445 179q-17 -191 -216 -191q-84 0 -143 53.5t-72 137.5h92q15 -112 123 -112q33 0 82 35q33 41 33 86q0 52 -35 94q-12 9 -50 21q-31 10 -66 10v53q58 0 100 27q39 25 39 87q0 35 -34 75q-41 33 -79 33q-80 0 -101 -114h-93l1 40q0 11 7 27q3 10 9 21q12 20 31 40 q53 68 155 68q80 0 139 -47q67 -54 67 -132q0 -71 -89 -128q100 -58 100 -184z" />
<glyph unicode="4" horiz-adv-x="529" d="M490 149l-68 -3l1 -146h-107l-3 146l-297 3l-2 121l264 376h144v-411l68 -2v-84zM321 229v369l-259 -369h259z" />
<glyph unicode="5" horiz-adv-x="506" d="M457 227q0 -56 -15 -98q-14 -37 -49 -76q-59 -65 -167 -65q-82 0 -138 38q-59 42 -74 120h92q20 -77 107 -77q55 0 99 36t44 98q0 58 -43 102q-40 41 -97 41q-49 0 -101 -45l-83 12l50 333h340v-77l-280 -3l-24 -181q66 44 146 44q88 0 139 -65q54 -52 54 -137z" />
<glyph unicode="6" horiz-adv-x="506" d="M449 211q0 -105 -60 -165q-31 -31 -65 -43q-39 -15 -88 -15q-170 0 -208 174q-14 58 -14 139q0 356 222 356q141 0 187 -145h-88q-27 67 -99 67q-107 0 -136 -241q74 80 159 80q84 0 137 -60.5t53 -146.5zM345 199q3 38 -17 71.5t-54 50.5q-22 9 -52 9q-45 0 -82 -39 q-29 -39 -29 -93q0 -56 28 -91q30 -40 83 -40q51 0 92 39q16 19 24 41l5 24z" />
<glyph unicode="7" horiz-adv-x="545" d="M477 569q-247 -273 -247 -569h-106q32 276 268 569h-358v77h443v-77z" />
<glyph unicode="8" horiz-adv-x="506" d="M452 186q0 -78 -64.5 -138t-163.5 -60q-98 0 -154 53t-56 136q0 61 35 106q28 37 89 71q-106 37 -106 135q0 79 65 130q53 42 133 42q84 0 138 -45q62 -51 62 -127q0 -75 -111 -138q133 -67 133 -165zM338 489q0 34 -36 70q-30 22 -74 22q-38 0 -70 -21q-32 -28 -32 -71 q0 -39 30 -78q32 -33 68 -33q41 0 79 33q35 37 35 78zM352 186q0 35 -24 67.5t-57 47.5q-21 9 -47 9q-42 0 -83 -36q-26 -35 -26 -83q0 -51 26 -86q39 -40 83 -40q46 0 87 38t41 83z" />
<glyph unicode="9" horiz-adv-x="518" d="M451 350q0 -182 -59 -274q-56 -88 -176 -88q-126 0 -185 144h100q19 -64 85 -64q71 0 108 78q14 29 21 59l6 31l13 66q-72 -72 -160 -72q-91 0 -142 59q-48 56 -48 149q0 111 58 167q49 56 154 56q225 0 225 -311zM347 443q0 54 -31 96.5t-90 42.5q-56 0 -82.5 -41 t-26.5 -98q0 -55 25 -91q26 -46 84 -46t93 45q28 37 28 92z" />
<glyph unicode=":" horiz-adv-x="230" d="M175 363h-125v114h125v-114zM175 0h-125v113h125v-113z" />
<glyph unicode=";" horiz-adv-x="230" d="M175 363h-125v114h125v-114zM175 10q0 -151 -125 -170v35q80 21 80 125h-80v125h125v-115z" />
<glyph unicode="&#x3c;" horiz-adv-x="463" d="M430 551v-89l-291 -120l291 -117v-91l-391 173v71z" />
<glyph unicode="=" horiz-adv-x="566" d="M544 408l-530 -1v66h530v-65zM544 227h-530v66h530v-66z" />
<glyph unicode="&#x3e;" horiz-adv-x="463" d="M430 378v-71l-391 -173v91l291 117l-291 120v89z" />
<glyph unicode="?" horiz-adv-x="477" d="M429 452q8 -71 -26 -108l-72 -64q-59 -34 -60 -133h-77q0 81 18 116q11 23 60.5 63.5t67.5 62.5l9 22l4 36q0 47 -35.5 82t-88.5 40q-119 -5 -119 -118h-76v8q6 89 51 123q42 49 128 51q110 1 161 -53q56 -53 55 -128zM282 37q0 -20 -14.5 -34.5t-34.5 -14.5t-35 15 t-15 35q0 19 15 34t35 15q16 0 34 -16q15 -13 15 -34z" />
<glyph unicode="@" horiz-adv-x="1015" d="M979 9q-45 -113 -229 -188l-92 -23l-50 -6l-60 -2q-94 -3 -185 24q-99 29 -166 85q-139 117 -143 330q-2 122 56 241q126 258 428 259q71 0 114 -12l52 -15q8 -2 24 -10q110 -46 173 -150q53 -89 54 -194q1 -136 -100 -251q-87 -99 -194 -99h-13l-19 2q-30 3 -53 38 q-6 9 -9 42q-61 -79 -150 -81q-96 -2 -150 103q-27 53 -27 116q0 76 37.5 150.5t99 117t117.5 43.5q89 1 147 -90l17 76h87l-85 -403q0 -26 34 -32q47 0 106 63q82 87 83 207q1 85 -46 156q-43 66 -121 109q-25 14 -86 32l-45 8l-51 3q-102 6 -209 -52q-94 -51 -148 -157 q-50 -98 -51 -212q-1 -113 47 -198q52 -91 153.5 -133.5t220.5 -43.5q232 -2 344 147h88zM613 317q0 56 -28 95q-31 45 -85 45q-57 0 -104 -57q-35 -42 -55 -111q-9 -32 -10 -77q-1 -55 24 -94q28 -46 80 -47q53 -2 100 48q39 41 60 99q18 50 18 99z" />
<glyph unicode="A" horiz-adv-x="613" d="M-1 0l253 659h94l269 -659h-99l-77 199h-275l-72 -199h-93zM189 270h223l-68 183q-32 83 -47 136q-13 -63 -36 -125z" />
<glyph unicode="B" horiz-adv-x="612" d="M67 0v659h247q76 0 121.5 -20t71 -62t25.5 -87q0 -42 -22.5 -79.5t-69.5 -60.5q60 -17 92 -59.5t32 -99.5q0 -46 -19.5 -86t-48 -61.5t-72 -32.5t-106.5 -11h-251zM154 382h143q58 0 83 7q33 10 50 33t17 58q0 33 -16 57.5t-45 34t-100 9.5h-132v-199zM154 78h164 q42 0 59 3q31 5 51 17.5t33 36.5t13 56q0 37 -19 64t-52.5 38t-96.5 11h-152v-226z" />
<glyph unicode="C" horiz-adv-x="664" d="M540 231l87 -22q-27 -107 -98.5 -163.5t-173.5 -56.5q-107 0 -173.5 43t-101.5 125.5t-35 176.5q0 103 39.5 179.5t112 116.5t159.5 40q99 0 166 -50.5t94 -141.5l-86 -20q-23 72 -66.5 104.5t-109.5 32.5q-76 0 -127 -36.5t-71.5 -97.5t-20.5 -126q0 -84 24.5 -147 t76 -94t111.5 -31q74 0 124.5 42.5t68.5 125.5z" />
<glyph unicode="D" horiz-adv-x="664" d="M71 0v659h227q77 0 117 -10q57 -13 97 -47q52 -44 77.5 -112.5t25.5 -156.5q0 -75 -17.5 -133t-44.5 -96t-60 -60t-79 -33t-105 -11h-238zM158 78h141q65 0 102 12t59 34q31 31 48.5 83.5t17.5 126.5q0 104 -34 159t-83 74q-35 14 -112 14h-139v-503z" />
<glyph unicode="E" horiz-adv-x="613" d="M73 0v659h476v-78h-389v-202h364v-77h-364v-224h404v-78h-491z" />
<glyph unicode="F" horiz-adv-x="561" d="M75 0v659h444v-78h-357v-204h309v-78h-309v-299h-87z" />
<glyph unicode="G" horiz-adv-x="715" d="M379 258v78h279v-244q-64 -52 -132.5 -77.5t-140.5 -25.5q-97 0 -176 41.5t-119.5 120t-40.5 175.5q0 96 40 179.5t115.5 124t174.5 40.5q71 0 129 -23t90.5 -64.5t49.5 -108.5l-78 -21q-15 50 -37 79t-63 46t-91 17q-60 0 -103.5 -18t-70 -47.5t-41.5 -65.5 q-25 -61 -25 -132q0 -89 30 -148t88 -88t124 -29q56 0 110 22t82 47v122h-194z" />
<glyph unicode="H" horiz-adv-x="664" d="M74 0v659h87v-271h342v271h88v-659h-88v310h-342v-310h-87z" />
<glyph unicode="I" horiz-adv-x="255" d="M86 0v659h87v-659h-87z" />
<glyph unicode="J" horiz-adv-x="460" d="M26 187l78 11q4 -76 29 -104t69 -28q33 0 57 15.5t33 41t9 82.5v454h87v-449q0 -83 -20 -128.5t-63.5 -69t-101.5 -23.5q-87 0 -133 49.5t-44 148.5z" />
<glyph unicode="K" horiz-adv-x="612" d="M67 0v659h87v-327l327 327h118l-276 -267l288 -392h-115l-234 333l-108 -105v-228h-87z" />
<glyph unicode="L" horiz-adv-x="512" d="M67 0v659h87v-581h324v-78h-411z" />
<glyph unicode="M" horiz-adv-x="766" d="M68 0v659h131l156 -467q22 -65 31 -97q12 36 36 105l157 459h117v-659h-84v551l-191 -551h-79l-190 561v-561h-84z" />
<glyph unicode="N" horiz-adv-x="664" d="M70 0v659h89l346 -517v517h84v-659h-90l-345 518v-518h-84z" />
<glyph unicode="O" horiz-adv-x="714" d="M44 321q0 164 88 256.5t227 92.5q92 0 165 -43.5t111.5 -121.5t38.5 -177q0 -100 -40.5 -179t-114.5 -119.5t-160 -40.5q-93 0 -166.5 45t-111 122.5t-37.5 164.5zM134 319q0 -119 64 -187.5t160 -68.5q99 0 162.5 69.5t63.5 196.5q0 80 -27 140t-79.5 93t-117.5 33 q-93 0 -159.5 -63.5t-66.5 -212.5z" />
<glyph unicode="P" horiz-adv-x="613" d="M71 0v659h248q66 0 101 -7q48 -8 81 -30.5t53 -63.5t20 -90q0 -84 -53.5 -142t-193.5 -58h-169v-268h-87zM158 345h170q85 0 120.5 31.5t35.5 88.5q0 42 -21 71.5t-55 38.5q-22 6 -81 6h-169v-236z" />
<glyph unicode="Q" horiz-adv-x="715" d="M570 71q60 -42 111 -62l-25 -60q-71 25 -142 81q-73 -41 -161 -41q-90 0 -162.5 43t-112 121t-39.5 176t39.5 178t112.5 121.5t163 41.5q92 0 165 -43t111.5 -121t38.5 -176q0 -82 -25 -146.5t-74 -112.5zM378 182q75 -21 124 -63q77 70 77 211q0 80 -27 139.5 t-79.5 92.5t-117.5 33q-98 0 -162 -66.5t-64 -199.5q0 -128 63.5 -197t162.5 -69q47 0 88 18q-41 26 -86 38z" />
<glyph unicode="R" horiz-adv-x="664" d="M72 0v659h292q88 0 134 -18t73 -63t27 -99q0 -70 -45 -118t-140 -61q35 -17 53 -33q38 -35 72 -88l114 -179h-109l-87 137q-39 59 -63.5 90.5t-44 44t-39.5 17.5q-15 3 -49 3h-101v-292h-87zM159 368h187q60 0 94 12.5t51.5 39.5t17.5 59q0 47 -34 77t-107 30h-209v-218z " />
<glyph unicode="S" horiz-adv-x="612" d="M40 212l82 7q6 -50 27.5 -81.5t66.5 -51t101 -19.5q50 0 88 15t56.5 40.5t18.5 56.5t-18 54t-59 39q-27 10 -117.5 32t-126.5 41q-48 25 -71 61.5t-23 81.5q0 50 28.5 93.5t82.5 66t121 22.5q73 0 129 -23.5t86 -69.5t32 -104l-83 -6q-7 62 -46 94t-114 32 q-80 0 -116 -29t-36 -70q0 -35 26 -58q25 -23 131 -47t146 -42q57 -27 84.5 -67.5t27.5 -93.5t-30 -99.5t-86.5 -72t-126.5 -25.5q-90 0 -150 26t-94.5 78.5t-36.5 118.5z" />
<glyph unicode="T" horiz-adv-x="561" d="M238 0v581h-217v78h522v-78h-218v-581h-87z" />
<glyph unicode="U" horiz-adv-x="664" d="M503 659h87v-381q0 -99 -22.5 -157.5t-81 -95t-153.5 -36.5q-93 0 -152 32t-84 92t-25 165v381h87v-380q0 -86 16 -127t55 -63t95 -22q96 0 137 44t41 168v380z" />
<glyph unicode="V" horiz-adv-x="613" d="M259 0l-255 659h94l171 -479q21 -57 35 -108q15 54 36 108l177 479h89l-257 -659h-90z" />
<glyph unicode="W" horiz-adv-x="868" d="M186 0l-175 659h89l101 -432q16 -68 27 -135q26 106 30 122l125 445h106l94 -334q35 -124 51 -233q13 63 33 143l103 424h88l-181 -659h-84l-139 502q-17 63 -20 77q-11 -45 -20 -77l-139 -502h-89z" />
<glyph unicode="X" horiz-adv-x="613" d="M4 0l255 343l-225 316h104l119 -169q38 -53 53 -81q22 36 52 75l133 175h95l-232 -311l250 -348h-108l-166 235q-14 20 -29 44q-22 -36 -31 -49l-165 -230h-105z" />
<glyph unicode="Y" horiz-adv-x="613" d="M256 0v279l-254 380h106l130 -199q36 -56 67 -111q29 51 72 116l127 194h102l-263 -380v-279h-87z" />
<glyph unicode="Z" horiz-adv-x="561" d="M18 0v81l337 422q36 45 69 78h-368v78h472v-78l-370 -457l-40 -46h421v-78h-521z" />
<glyph unicode="[" horiz-adv-x="278" d="M262 -199h-194v915h194v-73h-106v-769h106v-73z" />
<glyph unicode="\" horiz-adv-x="278" d="M278 -12h-70l-208 740h71z" />
<glyph unicode="]" horiz-adv-x="278" d="M213 -199h-194v73h106v769h-106v73h194v-915z" />
<glyph unicode="^" horiz-adv-x="469" d="M443 337h-89l-120 291l-117 -291h-91l173 391h71z" />
<glyph unicode="_" horiz-adv-x="556" d="M567 -199h-582v64h582v-64z" />
<glyph unicode="`" horiz-adv-x="187" d="M169 481q0 -25 -15 -40l-23 -13l-26 -4l-15 1l-18 6q-12 6 -23 17l-23 35q-6 17 -6 37q0 60 43 105l35 29l48 23v-21l-42 -30l-26 -26l-10 -21l-3 -24l1 -14q2 -7 5 -9l5 -6l8 -2l5 1l8 3l12 3l10 1q21 0 34 -13q6 -3 12 -18z" />
<glyph unicode="a" horiz-adv-x="507" d="M368 58q-44 -38 -85 -53.5t-89 -15.5q-77 0 -119 38t-42 98q0 34 16 63t41.5 46t57.5 26q23 6 71 12q97 12 143 28v21q0 49 -23 69q-30 27 -91 27q-56 0 -83 -20t-40 -70l-78 11q10 50 34.5 81t71 47.5t107.5 16.5q60 0 98 -14t55.5 -36t25.5 -55q4 -20 4 -73v-107 q0 -112 5 -141.5t20 -56.5h-84q-12 25 -16 58zM362 237q-44 -18 -131 -30q-49 -7 -69.5 -16t-32 -26t-11.5 -38q0 -32 24.5 -53.5t71.5 -21.5q46 0 82 20.5t53 55.5q13 27 13 80v29z" />
<glyph unicode="b" horiz-adv-x="505" d="M133 0h-74v652h80v-233q51 64 129 64q44 0 83 -17.5t64 -49.5t39.5 -77t14.5 -96q0 -121 -60 -187.5t-145 -66.5q-83 0 -131 70v-59zM132 240q0 -85 24 -123q37 -62 102 -62q52 0 90.5 45.5t38.5 136.5q0 92 -37 136t-89 44t-90.5 -45.5t-38.5 -131.5z" />
<glyph unicode="c" horiz-adv-x="455" d="M369 173l78 -10q-13 -82 -66 -128t-130 -46q-97 0 -156 63.5t-59 181.5q0 77 25.5 134.5t77 86t112.5 28.5q77 0 126 -39t63 -110l-78 -12q-11 47 -39.5 71t-68.5 24q-60 0 -98 -43.5t-38 -136.5q0 -96 36.5 -139t95.5 -43q47 0 78.5 29t40.5 89z" />
<glyph unicode="d" horiz-adv-x="506" d="M366 0v60q-45 -71 -132 -71q-56 0 -103.5 31.5t-73.5 87t-26 128.5q0 70 23.5 128t70.5 88.5t106 30.5q42 0 75.5 -18t54.5 -47v234h80v-652h-75zM113 236q0 -91 38.5 -136t90.5 -45t89 43t37 131q0 97 -37.5 142.5t-92.5 45.5q-53 0 -89 -43.5t-36 -137.5z" />
<glyph unicode="e" horiz-adv-x="506" d="M383 152l83 -10q-20 -73 -73 -113t-135 -40q-104 0 -164.5 64t-60.5 179q0 119 61.5 185t159.5 66q94 0 154 -64.5t60 -181.5v-21h-352q4 -78 43.5 -119.5t98.5 -41.5q45 0 76 23t49 74zM120 282h264q-5 59 -30 89q-39 46 -100 46q-55 0 -92.5 -37t-41.5 -98z" />
<glyph unicode="f" horiz-adv-x="252" d="M79 0v410h-71v62h71v51q0 47 8 70q12 31 41 50.5t81 19.5q34 0 75 -8l-12 -70q-25 5 -47 5q-36 0 -51.5 -15.5t-15.5 -58.5v-44h92v-62h-92v-410h-79z" />
<glyph unicode="g" horiz-adv-x="507" d="M45 -39l78 -12q5 -36 27 -52q30 -22 81 -22q56 0 86 22t41 62q6 25 6 103q-53 -62 -131 -62q-97 0 -150.5 70.5t-53.5 168.5q0 67 24.5 124.5t71 88.5t109.5 31q83 0 137 -68v57h74v-408q0 -110 -22.5 -156t-71 -73t-119.5 -27q-85 0 -137 38t-50 115zM111 245 q0 -93 37 -136t93 -43q55 0 92.5 42.5t37.5 133.5q0 87 -38.5 131t-93.5 44q-53 0 -90.5 -43.5t-37.5 -128.5z" />
<glyph unicode="h" horiz-adv-x="506" d="M59 0v652h80v-234q56 65 141 65q53 0 91.5 -20.5t55.5 -57t17 -106.5v-299h-80v299q0 60 -26 87.5t-74 27.5q-36 0 -67 -18.5t-44.5 -50t-13.5 -87.5v-258h-80z" />
<glyph unicode="i" horiz-adv-x="201" d="M60 560v92h80v-92h-80zM60 0v472h80v-472h-80z" />
<glyph unicode="j" horiz-adv-x="203" d="M60 559v93h80v-93h-80zM-41 -183l15 68q24 -6 38 -6q24 0 36 16t12 81v496h80v-498q0 -87 -22 -121q-29 -45 -96 -45q-33 0 -63 9z" />
<glyph unicode="k" horiz-adv-x="455" d="M60 0v652h80v-372l190 192h103l-180 -175l198 -297h-98l-156 241l-57 -54v-187h-80z" />
<glyph unicode="l" horiz-adv-x="201" d="M57 0v652h80v-652h-80z" />
<glyph unicode="m" horiz-adv-x="758" d="M59 0v472h72v-66q22 35 59 56t84 21q52 0 85.5 -22t47.5 -61q56 83 146 83q70 0 108 -39t38 -120v-324h-80v298q0 48 -7.5 69t-28 34t-48.5 13q-50 0 -82.5 -33.5t-32.5 -106.5v-274h-80v307q0 53 -20 80t-64 27q-34 0 -62.5 -18t-41.5 -52t-13 -99v-245h-80z" />
<glyph unicode="n" horiz-adv-x="506" d="M59 0v472h72v-67q52 78 150 78q43 0 79 -15.5t53.5 -40.5t24.5 -59q5 -22 5 -78v-290h-80v287q0 49 -9.5 73.5t-33.5 39t-56 14.5q-51 0 -88 -32.5t-37 -123.5v-258h-80z" />
<glyph unicode="o" horiz-adv-x="506" d="M30 236q0 131 73 194q61 53 148 53q98 0 160 -64t62 -176q0 -91 -27.5 -143.5t-80 -81.5t-114.5 -29q-99 0 -160 64t-61 183zM112 236q0 -91 39.5 -136t99.5 -45t99.5 45.5t39.5 138.5q0 87 -39.5 132.5t-99.5 45.5t-99.5 -45t-39.5 -136z" />
<glyph unicode="p" horiz-adv-x="507" d="M59 -181v653h73v-61q26 36 58.5 54t78.5 18q60 0 106.5 -31t70 -88t23.5 -124q0 -73 -26 -131t-75.5 -89t-104.5 -31q-40 0 -71.5 17t-52.5 43v-230h-80zM131 233q0 -91 37 -134.5t90 -43.5t91 45t38 140q0 90 -37 135t-89 45q-51 0 -90.5 -47.5t-39.5 -139.5z" />
<glyph unicode="q" horiz-adv-x="507" d="M361 -181v231q-19 -26 -52.5 -43.5t-71.5 -17.5q-84 0 -144.5 67.5t-60.5 184.5q0 71 24.5 127.5t71.5 85.5t103 29q88 0 138 -74v63h72v-653h-80zM114 237q0 -91 38.5 -136.5t91.5 -45.5q51 0 88 43.5t37 131.5q0 95 -39 142.5t-91 47.5t-88.5 -44.5t-36.5 -138.5z" />
<glyph unicode="r" horiz-adv-x="303" d="M58 0v472h72v-71q28 50 51 66t51 16q41 0 83 -26l-28 -74q-29 17 -59 17q-26 0 -47 -15.5t-30 -43.5q-13 -43 -13 -94v-247h-80z" />
<glyph unicode="s" horiz-adv-x="456" d="M28 141l79 12q7 -47 37.5 -72.5t84.5 -25.5q56 0 82.5 22.5t26.5 52.5q0 27 -24 43q-16 11 -81 27q-88 22 -122.5 38.5t-52 45t-17.5 63.5q0 31 14.5 58t39.5 45q19 14 51 23.5t69 9.5q56 0 98 -16t62 -43.5t27 -73.5l-78 -10q-5 36 -30.5 56.5t-72.5 20.5 q-55 0 -78.5 -18t-23.5 -43q0 -15 10 -28q9 -13 30 -21q12 -5 71 -21q85 -22 118.5 -36.5t52.5 -42t19 -68.5q0 -40 -23 -75.5t-67.5 -55t-99.5 -19.5q-92 0 -140.5 38.5t-61.5 113.5z" />
<glyph unicode="t" horiz-adv-x="252" d="M235 72l11 -71q-33 -7 -60 -7q-44 0 -68 13.5t-33.5 36t-9.5 94.5v272h-59v62h59v117l79 48v-165h81v-62h-81v-276q0 -34 4.5 -44t14 -16t27.5 -6q13 0 35 4z" />
<glyph unicode="u" horiz-adv-x="506" d="M368 0v69q-55 -80 -150 -80q-41 0 -77.5 16t-54 40.5t-24.5 59.5q-5 24 -5 75v292h80v-262q0 -62 5 -84q8 -32 32 -50t60 -18t68 18.5t45 50.5t13 92v253h80v-472h-72z" />
<glyph unicode="v" horiz-adv-x="455" d="M191 0l-180 472h84l102 -283q16 -45 30 -95q11 38 30 90l105 288h82l-179 -472h-74z" />
<glyph unicode="w" horiz-adv-x="658" d="M147 0l-145 472h83l75 -272l28 -102q2 8 24 98l76 276h82l71 -274l23 -90l27 91l81 273h78l-148 -472h-83l-75 283l-18 80l-96 -363h-83z" />
<glyph unicode="x" horiz-adv-x="455" d="M6 0l173 245l-160 227h100l72 -110q21 -32 33 -53q20 29 36 52l80 111h96l-164 -222l176 -250h-98l-97 147l-26 39l-124 -186h-97z" />
<glyph unicode="y" horiz-adv-x="456" d="M57 -182l-9 75q26 -7 46 -7q26 0 42 9t27 25q7 12 24 60q2 6 7 19l-179 473h86l99 -273q19 -52 34 -110q14 56 33 108l101 275h80l-180 -480q-29 -78 -45 -107q-21 -40 -48.5 -58.5t-66.5 -18.5q-23 0 -51 10z" />
<glyph unicode="z" horiz-adv-x="456" d="M17 0v65l301 345q-52 -3 -91 -3h-192v65h386v-53l-256 -299l-49 -55q54 4 101 4h218v-69h-418z" />
<glyph unicode="{" horiz-adv-x="334" d="M311 -210h-28q-53 0 -70 8q-23 6 -49 35q-9 10 -29 64q-6 39 -6 127q0 99 -8 122q-12 67 -93 73v80q74 0 93 73l5 55l3 60q0 30 3 113q2 58 42 98q12 12 49 25l35 4l25 1h28v-77h-16q-48 0 -68 -19q-16 -19 -16 -81l-1 -139q0 -16 -4 -22q-9 -49 -32 -78q-19 -25 -65 -53 q66 -24 87 -90q13 -41 15 -130l2 -113q1 -30 20 -47l20 -8q25 -5 42 -5h16v-76z" />
<glyph unicode="|" horiz-adv-x="260" d="M168 -210h-76v938h76v-938z" />
<glyph unicode="}" horiz-adv-x="334" d="M306 219q-75 0 -94 -74l-5 -45l-2 -117q0 -26 -3 -60q-2 -40 -15.5 -64t-30.5 -41l-18 -11l-27 -12l-23 -4l-38 -1h-27v76h15q53 0 70 25q13 19 14 76l1 95l3 60q2 47 32 86q25 34 66 51q-64 28 -87 90q-15 41 -15 130v60l-3 61q-3 51 -81 51h-15v77h27q52 0 75 -10 q48 -15 73 -98l5 -51l2 -75q1 -46 7 -125q7 -43 60 -65l16 -4l18 -1v-80z" />
<glyph unicode="~" horiz-adv-x="584" d="M542 329q-30 -27 -62 -43q-49 -14 -73 -13l-28 1h-16l-11 4q-19 5 -90 36q-54 24 -92 24q-32 0 -59 -13l-30 -19l-13 -10l-26 -24v100q51 56 136 59q12 0 62 -9q13 -6 92 -34l50 -18l21 -5h13q58 0 126 67v-103z" />
<glyph unicode="&#xa3;" horiz-adv-x="556" d="M113 280h-92v66h73l-17 60q-10 41 -10 75q0 87 59 136.5t146 49.5q74 0 129.5 -43t67.5 -127l-81 -12q-5 51 -38.5 83t-81.5 32q-52 0 -83.5 -33.5t-31.5 -74.5q0 -26 12 -86l15 -60h139v-66h-125q1 -3 1 -6l-2 -66q-15 -65 -72 -124q34 10 63 10q39 0 85 -11 q76 -18 107 -18t84 25l26 -74q-66 -28 -107 -28q-33 0 -98 19q-67 21 -99 21q-74 0 -138 -42l-31 78q87 50 101 144v66q0 2 -1 6z" />
<glyph unicode="&#xa9;" horiz-adv-x="789" d="M390 728q92 0 180.5 -47.5t138 -136t49.5 -185.5q0 -95 -48.5 -183t-136.5 -136.5t-183 -48.5q-96 0 -183.5 48.5t-136.5 136.5t-49 183q0 97 49.5 185.5t138 136t181.5 47.5zM390 667q-78 0 -151.5 -40t-115 -114t-41.5 -154q0 -79 41 -152t114 -114t153 -41 q79 0 152.5 41t114 114t40.5 152q0 80 -41.5 154t-115 114t-150.5 40zM508 300l60 -18q-15 -61 -62.5 -97.5t-115.5 -36.5q-86 0 -139.5 56t-53.5 154q0 65 24.5 112.5t69.5 71.5t103 24q65 0 108 -31t59 -84l-59 -14q-14 36 -42.5 55.5t-67.5 19.5q-56 0 -92.5 -40 t-36.5 -115t34.5 -113t89.5 -38q44 0 77 25t44 69z" />
<glyph unicode="&#xad;" horiz-adv-x="380" d="M340 250l-10 -50h-290l10 50h290z" />
<glyph unicode="&#xae;" horiz-adv-x="784" d="M390 728q92 0 180.5 -47.5t138 -136t49.5 -185.5q0 -95 -48.5 -183t-136.5 -136.5t-183 -48.5q-96 0 -183.5 48.5t-136.5 136.5t-49 183q0 97 49.5 185.5t138 136t181.5 47.5zM390 667q-78 0 -151.5 -40t-115 -114t-41.5 -154q0 -79 41 -152t114 -114t153 -41 q79 0 152.5 41t114 114t40.5 152q0 80 -41.5 154t-115 114t-150.5 40zM228 156v396h136q70 0 101.5 -11t50 -38t18.5 -58q0 -44 -31 -76t-83 -36q21 -9 34 -21q24 -23 59 -79l48 -77h-78l-35 62q-42 74 -67 93q-18 13 -51 13h-38v-168h-64zM292 379h78q55 0 75.5 16.5 t20.5 43.5q0 18 -10 32t-27 21t-64 7h-73v-120z" />
<glyph unicode="&#xb0;" horiz-adv-x="295" d="M229 714q0 -45 -31 -76t-75 -31q-45 0 -76 31t-31 76q0 44 31 75t76 31q44 0 75 -31t31 -75zM179 714q0 23 -16.5 39.5t-39.5 16.5q-24 0 -40.5 -16.5t-16.5 -39.5q0 -24 16.5 -40.5t40.5 -16.5q23 0 39.5 16.5t16.5 40.5z" />
<glyph unicode="&#xb1;" horiz-adv-x="500" d="M445 342h-164v-164h-73v164h-165v72h165v166h72v-166h165v-72zM445 133l-1 -70h-403v70h404z" />
<glyph unicode="&#xba;" horiz-adv-x="602" />
<glyph unicode="&#xbc;" horiz-adv-x="595" d="M419 672l-235 -671h-41l236 671h40zM559 75h-36v-77h-61v77l-158 1v68l140 199h79v-217h36v-51zM466 123v187l-131 -187h131zM162 296h-63v249l-78 1v32q41 0 63 13q21 10 37 54h41v-349z" />
<glyph unicode="&#xbd;" horiz-adv-x="629" d="M399 672l-235 -671h-41l236 671h40zM142 296h-63v249l-78 1v32q41 0 63 13q21 10 37 54h41v-349zM575 -2h-231q0 25 12 49q13 28 33 46l83 71q19 16 33 40q11 20 11 42q0 26 -13.5 43.5t-43.5 17.5q-26 0 -42 -17q-14 -19 -14 -55h-52v16v9q-1 6 0 7v10l4 11q9 21 27 36 q28 30 76 30q47 0 80 -29q37 -32 37 -79q0 -46 -33 -81q-15 -17 -68 -59q-14 -9 -22 -16q-31 -25 -47 -48h170v-44z" />
<glyph unicode="&#xbe;" horiz-adv-x="604" d="M429 672l-234 -671h-41l235 671h40zM560 75h-36l-1 -77h-61v77l-158 1v68l141 199h78l1 -217h36v-51zM466 123v187l-130 -187h130zM233 402q-9 -104 -117 -104q-44 0 -76.5 29t-39.5 77h53q8 -60 63 -60q18 0 43 18q17 22 17 44q0 27 -18 49q-6 4 -26 11q-16 5 -37 5v32 q33 0 55 15q19 12 19 44q0 18 -17 39q-21 16 -41 16q-40 0 -52 -60h-53v23q0 6 4 15q2 6 6 12q6 10 16 21q29 37 84 37q43 0 76 -25q36 -30 36 -72q0 -39 -46 -68q51 -30 51 -98z" />
<glyph unicode="&#xd7;" horiz-adv-x="621" d="M506 200l-43 -43l-148 147l-148 -147l-43 43l147 148l-147 147l44 44l147 -147l147 147l44 -44l-147 -147z" />
<glyph unicode="&#xd8;" horiz-adv-x="778" d="M733 357q0 -103 -39 -186q-43 -93 -126.5 -138t-176.5 -45q-45 0 -86 10l-19 -64h-74l26 87q-100 48 -148 146q-42 85 -42 181q0 167 87 270q92 111 256 111q30 0 57 -4l31 100h73l-36 -117q108 -39 165 -139q52 -91 52 -212zM653 357q1 218 -156 287l-174 -585 q31 -8 67 -8q128 -1 199 91q63 82 64 215zM430 662q-19 3 -38 3q-134 1 -203 -95q-60 -83 -61 -223q-1 -125 67 -208q27 -33 62 -54z" />
<glyph unicode="&#xf7;" horiz-adv-x="611" d="M370 493q0 -22 -14.5 -38.5t-35.5 -16.5q-24 0 -42 13.5t-18 36.5t16 39t39 16q22 0 38.5 -14.5t16.5 -35.5zM526 315h-419v62h419v-62zM370 204q0 -22 -14.5 -38.5t-35.5 -16.5q-24 0 -42 13.5t-18 36.5t16 39t39 16q22 0 38.5 -14.5t16.5 -35.5z" />
<glyph unicode="&#xb82;" horiz-adv-x="247" d="M216 437q0 -37 -26.5 -63t-63.5 -26q-38 0 -64.5 25.5t-26.5 63.5t26.5 63.5t64.5 25.5q37 0 63.5 -26t26.5 -63zM184 437q0 25 -17 41.5t-42 16.5q-24 0 -41 -17t-17 -41t17 -41t41 -17q25 0 42 16.5t17 41.5z" />
<glyph unicode="&#xb83;" horiz-adv-x="865" d="M584 488q0 -47 -45.5 -91.5t-100.5 -44.5h-24q-57 0 -101 39q-47 41 -47 97v22q0 51 48 92q39 33 100 33h24q56 0 99 -34q47 -36 47 -91v-22zM801 135q0 -54 -47 -94.5t-102 -40.5h-23q-56 0 -100 39q-47 41 -47 96v23q0 53 48 91q44 34 99 34h23l29 -1q13 0 25 -7 q22 -6 49 -27q46 -35 46 -90v-23zM334 135q0 -51 -47.5 -93t-98.5 -42h-24q-56 0 -102 39.5t-46 95.5v23q0 52 48 91q42 34 100 34h24q56 0 99 -34q47 -36 47 -91v-23zM500 495q0 35 -20 59t-54 24q-36 0 -57 -24t-21 -61q0 -36 20.5 -60.5t57.5 -24.5q34 0 54 26t20 61z M717 142q0 37 -20 61t-56 24q-31 0 -56 -25q-17 -22 -20 -58q0 -36 20 -60q21 -27 56 -27t55.5 25t20.5 60zM250 143q0 28 -18 58q-21 26 -56 26q-36 0 -57 -24t-21 -61q0 -36 20.5 -60.5t57.5 -24.5q34 0 55 27q19 24 19 59z" />
<glyph unicode="&#xb85;" horiz-adv-x="945" d="M881 -262h-80v272h-113q-36 -84 -131 -139t-200 -55h-56q-96 0 -176 39q-97 48 -107 133v22q0 56 89 56h516l6 32l2 27v33q0 107 -52 190q-45 72 -85 72q16 -16 27 -44l8 -36v-69q0 -45 -40 -76q-42 -25 -87 -25q-52 0 -85 24q-38 27 -38 77v81q0 53 40.5 89t94.5 36h57 q115 0 182 -99q58 -85 58 -208v-57q0 -17 -6 -47h96v411h80v-739zM449 260v115q0 41 -46 41t-46 -41v-115q0 -32 44 -32q48 0 48 32zM600 10h-504v-22q0 -55 80 -87q62 -26 125 -26h56q74 0 141 36t102 99z" />
<glyph unicode="&#xb86;" horiz-adv-x="1132" d="M1066 -129q0 -77 -70 -139t-148 -62h-80q-59 0 -114.5 30.5t-55.5 70.5v24q0 32 24 57t56 33l45 -33q-45 -15 -45 -69q0 -20 30.5 -38t59.5 -18h56q77 0 124 56q38 46 38 98v56q0 37 -17 63q-11 21 -40 29q-19 0 -29 -10l-19 -19v-160h-78v170h-115q-37 -87 -136 -142 q-93 -52 -193 -52h-56q-96 0 -176 39q-98 48 -109 133v22q0 56 91 56h516q6 27 6 59v33q0 105 -51 190q-43 72 -84 72q15 -15 25 -44l4 -19l4 -17v-69q0 -48 -40 -77q-36 -25 -86 -25t-85 26q-39 28 -39 76v81q0 53 41.5 89t95.5 36h57q112 0 181 -99q57 -82 57 -208v-57 l-4 -47h96v411h78v-411q20 20 60 20q59 0 94 -51q31 -45 31 -107v-57zM449 260v115q0 15 -15 30t-30 15q-13 0 -27.5 -15.5t-17.5 -29.5v-115q0 -32 43 -32q47 0 47 32zM600 10h-502v-22q0 -55 80 -87q62 -26 125 -26h56q73 0 139.5 36.5t101.5 98.5z" />
<glyph unicode="&#xb87;" horiz-adv-x="854" d="M789 0h-80v453q0 107 -91 172q-80 57 -192 57h-69q-106 0 -186 -97q-75 -91 -75 -200v-135q0 -111 45 -205q23 17 81 37t91 20h101q39 0 80 -24l7 41l3 51v45q0 79 -28.5 137t-73.5 68q36 -36 36 -80v-80q0 -41 -42 -71q-40 -19 -83 -19q-49 0 -88 24q-37 28 -37 77v81 q0 53 40 89t94 36h57q95 0 153 -80q52 -71 52 -170v-57q0 -18 -21 -104q101 -54 101 -125v-66q0 -59 -52 -99q-48 -38 -108 -38h-90q-36 0 -125 45q-87 -45 -125 -45h-92q-38 0 -64 27t-26 63v47q0 63 90 135q-56 121 -56 240v146q0 128 94 233q98 109 224 109h125 q124 0 224 -79q106 -84 106 -206v-453zM357 260v115q0 41 -45 41q-46 0 -46 -41v-115q0 -34 47 -34q44 0 44 34zM584 -125v45l-3 25q-2 10 -11 26q-15 28 -31 39q-58 -99 -193 -203q38 -12 80 -12h45q37 0 73 21q40 24 40 59zM471 33q-66 12 -80 12h-78q-54 0 -149 -45 q53 -104 125 -160q44 27 98 83q57 60 84 110zM221 -172q-79 70 -114 125q-44 -49 -44 -78q0 -35 12 -62q8 -18 21 -18h45q9 0 39.5 15.5t40.5 17.5z" />
<glyph unicode="&#xb88;" horiz-adv-x="588" d="M549 227q0 -57 -57 -57q-47 0 -47 68q0 53 50 53q18 0 38 -18q16 -19 16 -46zM525 420h-136v-420h-78v420h-217v-420h-80v477h511v-57zM252 227q0 -57 -57 -57q-46 0 -46 56q0 26 13.5 47.5t38.5 21.5q18 0 35 -17q16 -22 16 -51z" />
<glyph unicode="&#xb89;" horiz-adv-x="830" d="M777 0h-726q-12 0 -22 8.5t-13 24.5v33q0 36 23 36q137 0 220 46q75 41 75 123v45q0 41 -41.5 72.5t-83.5 31.5q19 -6 41 -37l12 -28l4 -27v-33q0 -48 -42.5 -80.5t-92.5 -32.5t-81 25q-34 27 -34 76v45q0 67 65 111q58 38 128 38h45q68 0 114 -46.5t46 -114.5v-56 q0 -154 -262 -203h625v-57zM188 271v69q0 34 -46 34t-46 -34v-69q5 -33 45 -33q13 0 34 12q7 5 13 21z" />
<glyph unicode="&#xb8a;" horiz-adv-x="1164" d="M1133 432h-113v-307h-69v307h-45q-21 0 -39.5 -13.5t-18.5 -33.5v-260h-67v238q0 21 -19 43t-39 26h-57q-37 0 -71 -33q-27 -26 -31 -59q20 15 52 15q36 0 64 -18q33 -20 33 -54v-80q0 -33 -34.5 -55.5t-69.5 -22.5q-34 0 -71 22q-42 25 -42 56v113q0 68 51 114.5 t119 46.5h47q63 0 90 -36q26 36 92 36h238v-45zM1133 0h-1080q-27 0 -33 33v33q0 36 21 36q137 0 221 46q76 42 76 123v45q0 38 -45 74q-37 30 -80 30q24 -9 40.5 -37t16.5 -55v-33q0 -48 -42.5 -80.5t-92.5 -32.5t-81 25q-34 27 -34 76v45q0 68 65 111q57 38 128 38h45 q67 0 112.5 -46.5t45.5 -114.5v-56q0 -154 -260 -203h977v-57zM645 191v69q0 34 -39 34q-42 0 -42 -34v-69q0 -32 42 -32q39 0 39 32zM189 271v69q0 13 -15 24t-29 11q-36 0 -47 -35v-69q9 -33 53 -33q38 0 38 33z" />
<glyph unicode="&#xb8e;" horiz-adv-x="646" d="M617 420h-137v-420h-78v420h-160q-67 0 -112 -46q-36 -37 -36 -79q24 24 61 24q43 0 77 -30.5t34 -73.5v-102q0 -40 -42.5 -76.5t-82.5 -36.5q-53 0 -89 31t-36 82v147q0 87 58.5 152t144.5 65h398v-57zM186 102v89q0 44 -46 44t-46 -44v-89q0 -44 46 -44t46 44z" />
<glyph unicode="&#xb8f;" d="M617 420h-137v-420l-125 -148l-44 44l89 104v420h-158q-68 0 -113 -46q-35 -35 -35 -79q24 24 62 24q42 0 75 -31.5t33 -72.5v-102q0 -40 -42.5 -76.5t-82.5 -36.5q-53 0 -89 31t-36 82v147q0 90 58 153.5t147 63.5h398v-57zM186 102v89q0 44 -47 44q-18 0 -31.5 -13.5 t-13.5 -30.5v-89q0 -44 45 -44q47 0 47 44z" />
<glyph unicode="&#xb90;" horiz-adv-x="727" d="M662 -160q0 -56 -39.5 -90.5t-95.5 -34.5h-47q-75 0 -113 68q-50 -68 -148 -68h-45q-63 0 -109 37q-49 39 -49 100v56q0 70 75 117q65 41 151 41h217q49 0 87 38t38 87v116q0 30 -19 69q-22 44 -49 44h-24q-23 0 -52 -27q-28 -34 -28 -86v-182h-78v170q0 46 -23 82 q-26 43 -69 43h-33q-17 0 -37 -14.5t-20 -30.5q48 0 81 -28t33 -76v-33q0 -50 -36 -81.5t-89 -31.5q-48 0 -86.5 38.5t-38.5 86.5v45q0 77 52 129.5t129 52.5h33q40 0 77.5 -23t59.5 -58q44 81 125 81h35q69 0 104 -47q31 -42 31 -114v-125q0 -78 -57 -129.5t-136 -51.5 h-239q-44 0 -87 -29q-49 -32 -49 -73v-45q0 -32 35.5 -62t67.5 -30h33q34 0 69 40t35 74v56h78v-89q0 -27 26.5 -54t53.5 -27h12q28 0 54 26.5t26 54.5v33q0 42 -23 68l44 47q15 -9 38 -41q19 -36 19 -63v-56zM186 215v68q0 31 -46 31t-46 -31v-68l21 -22q7 -5 26 -11l7 3 l19 9q13 10 19 21z" />
<glyph unicode="&#xb92;" horiz-adv-x="727" d="M662 146q0 -47 -33.5 -86t-79.5 -39h-33q-40 0 -68 42q-26 39 -26 91q0 25 2 28q-45 -51 -45 -92q0 -47 39 -86t86 -39h125v-57h-92q-26 0 -52 -21.5t-26 -46.5v-24q0 -27 -39 -56q-25 -13 -69 -20q-13 -2 -29 -2h-56q-54 0 -99 29q-50 34 -50 85v68l80 -45l-2 -17 q0 -63 82 -63h22q70 0 92 68q0 52 45 78q-37 10 -74 49q-19 19 -30 47l-7 24l-3 29v23q0 44 39 94q34 43 63 43h56q37 0 42 -1t5 -11v-11q-10 0 -32 -25q-15 -24 -15 -44v-23q0 -11 18 -37q14 -16 29 -20h10q22 0 36 37q11 29 11 55v33q0 102 -77 164q-66 53 -163 53h-57 q-84 0 -143 -46q-50 -39 -50 -79q24 24 61 24q43 0 77 -30.5t34 -73.5v-102q0 -50 -39 -82q-35 -29 -87 -29q-53 0 -88.5 29.5t-35.5 81.5v158q0 81 92 146q84 60 169 60h90q126 0 215 -78q80 -70 80 -172v-81zM186 102v89q0 45 -47 45q-12 0 -32 -12q-13 -13 -13 -33v-89 q0 -44 46 -44t46 44z" />
<glyph unicode="&#xb93;" horiz-adv-x="727" d="M662 146q0 -47 -33.5 -86t-79.5 -39h-33q-40 0 -68 42q-26 39 -26 91q0 25 2 28q-45 -51 -45 -92q0 -47 39 -86t86 -39h125v-57h-92q-26 0 -52 -21.5t-26 -46.5v-24q0 -27 -39 -56q-25 -13 -69 -20q-13 -2 -29 -2h-56q-58 0 -100 27q-49 32 -49 87v33q0 21 18 38.5 t39 17.5h35q22 0 43 -12q25 -13 25 -33v-44q0 -36 -58 -57l46 -4q106 -9 126 72q0 52 45 78q-37 10 -74 49q-19 19 -30 47l-7 24l-3 29v23q0 44 39 94q34 43 63 43h56q37 0 42 -1t5 -11v-11q-10 0 -32 -25q-15 -24 -15 -44v-23q0 -11 18 -37q14 -16 29 -20h10q22 0 36 37 q11 29 11 55v33q0 102 -77 164q-66 53 -163 53h-57q-84 0 -143 -46q-50 -39 -50 -79q24 24 61 24q43 0 77 -30.5t34 -73.5v-102q0 -50 -39 -82q-35 -29 -87 -29q-53 0 -88.5 29.5t-35.5 81.5v158q0 81 92 146q84 60 169 60h90q126 0 215 -78q80 -70 80 -172v-81zM186 102v89 q0 45 -47 45q-12 0 -32 -12q-13 -13 -13 -33v-89q0 -44 46 -44t46 44zM242 -137q0 32 -34 32t-34 -32t34 -32t34 32z" />
<glyph unicode="&#xb94;" horiz-adv-x="1519" d="M1487 420h-136v-420h-78v420h-59q-29 0 -47.5 -19.5t-18.5 -48.5v-352h-81v328q0 28 -20 58q-21 34 -48 34h-68q-56 0 -90.5 -40t-34.5 -97q31 31 73 31q39 0 68 -30t29 -69v-102q0 -50 -37.5 -80t-89.5 -30t-86 29q-37 30 -37 81v147q0 82 62 149.5t143 67.5h56 q64 0 112 -57q39 57 105 57h283v-57zM662 146q0 -47 -33.5 -86t-79.5 -39h-33q-40 0 -68 42q-26 39 -26 91q0 25 2 28q-45 -51 -45 -92q0 -47 39 -86t86 -39h125v-57h-92q-26 0 -52 -21.5t-26 -46.5v-24q0 -27 -39 -56q-25 -13 -69 -20q-13 -2 -29 -2h-56q-54 0 -99 29 q-50 34 -50 85v68l80 -45l-2 -17q0 -63 82 -63h22q70 0 92 68q0 52 45 78q-37 10 -74 49q-19 19 -30 47l-7 24l-3 29v23q0 44 39 94q34 43 63 43h56q37 0 42 -1t5 -11v-11q-10 0 -32 -25q-15 -24 -15 -44v-23q0 -11 18 -37q14 -16 29 -20h10q22 0 36 37q11 29 11 55v33 q0 102 -77 164q-66 53 -163 53h-57q-84 0 -143 -46q-50 -39 -50 -79q24 24 61 24q43 0 77 -30.5t34 -73.5v-102q0 -50 -39 -82q-35 -29 -87 -29q-53 0 -88.5 29.5t-35.5 81.5v158q0 81 92 146q84 60 169 60h90q126 0 215 -78q80 -70 80 -172v-81zM898 102v89q0 13 -15 31 l-13 10q-8 6 -19 6q-15 0 -30 -16t-15 -31v-89q0 -44 45 -44q47 0 47 44zM186 102v89q0 45 -47 45q-12 0 -32 -12q-13 -13 -13 -33v-89q0 -44 46 -44t46 44z" />
<glyph unicode="&#xb95;" horiz-adv-x="675" d="M605 125q0 -53 -42 -92q-48 -45 -109 -40l-36 3l29 61l12 -2q25 0 46.5 26t21.5 54v47q0 56 -68 56h-57v-92q0 -146 -205 -146q-69 0 -121 32q-60 38 -60 103v92q0 19 18 46l18 16q9 6 20 6h45v182h420v-57h-135v-125h67q136 0 136 -104v-66zM322 295v125h-125v-125h125z M322 135v103h-193q-24 0 -24 -23v-90q0 -20 33 -47q33 -21 71 -21q36 0 72 20q41 24 41 58z" />
<glyph unicode="&#xb99;" horiz-adv-x="760" d="M697 0h-500v57h147q80 29 80 146q0 29 -16 52q-17 27 -45 27q-41 0 -64 -44v-103h-80v285h-125v-420h-78v477h408v-57h-125v-113q36 33 103 33q48 0 77 -46q25 -40 25 -91q0 -98 -57 -146h170v420h80v-477z" />
<glyph unicode="&#xb9a;" horiz-adv-x="576" d="M537 420h-137v-125h125v-57h-125v-92q0 -146 -205 -146q-69 0 -121 32q-60 38 -60 103v92q0 19 18 46l18 16q9 6 20 6h47v182h420v-57zM320 295v125h-125v-125h125zM320 135v103h-193q-22 0 -22 -23v-90q0 -18 33 -47q33 -21 69 -21t72 20q41 24 41 58z" />
<glyph unicode="&#xb9c;" horiz-adv-x="727" d="M662 -184q0 -49 -39 -77q-35 -24 -86 -24h-90q-28 0 -48 14q-16 7 -32 31l35 47q4 -12 27 -26q25 -10 40 -10h35q21 0 49 19t31 38v24q0 17 -24 40l-24 13l-20 3h-57q-39 0 -81 -50l-78 -93q-50 -50 -103 -50h-23q-59 0 -105 30q-53 35 -53 95v68q0 70 75 117 q65 41 151 41h217q49 0 87 38t38 87v116q0 35 -17 70q-20 43 -51 43h-24q-23 0 -52 -27q-28 -34 -28 -86v-182h-78v170q0 59 -28 96q-22 29 -52 29h-45q-69 0 -92 -45l33 4q44 0 80 -32t36 -76v-33q0 -45 -39 -83q-37 -28 -85 -28q-53 0 -88 28q-38 31 -38 83v69 q0 66 52 118t118 52h44q40 0 77.5 -23t59.5 -58q44 81 125 81h45q58 0 94 -53q31 -47 31 -108v-125q0 -32 -12 -67l-15 -29l-11 -14l-12 -14q-49 -57 -143 -57h-239q-44 0 -87 -29q-49 -32 -49 -73v-56q0 -81 92 -81h23q21 0 63 50q64 75 86 94q59 50 111 50h68q43 0 82 -29 q43 -32 43 -73v-47zM186 215v68q0 34 -46 34t-46 -34v-68l16 -23q11 -5 31 -10q13 0 29 10.5t16 22.5z" />
<glyph unicode="&#xb9e;" horiz-adv-x="922" d="M857 102q0 -182 -122 -272q-108 -80 -297 -80q-176 0 -300 125q-56 56 -89 119q-22 42 -29 96q-1 10 -2 35l-1 39q-3 134 90 277l36 -45q-71 -128 -71 -239q0 -140 116 -241q101 -88 250 -109q77 0 161 28q122 41 164 138q18 43 18 115v46l-2 12q0 24 -21 42t-45 18 q-23 0 -49 -24v-182h-78v420h-182q-48 0 -86.5 -38.5t-38.5 -86.5q28 25 60 25q43 0 76.5 -31.5t33.5 -73.5v-102q0 -50 -39 -82q-35 -29 -87 -29q-53 0 -88.5 29.5t-35.5 81.5v147q0 86 59.5 151.5t145.5 65.5h397v-57h-137v-160q33 15 61 15q60 0 98 -59q34 -51 34 -114z M369 102v89q0 18 -13.5 32.5t-31.5 14.5q-15 0 -30 -16t-15 -31v-89q0 -44 45 -44t45 44z" />
<glyph unicode="&#xb9f;" d="M582 0h-568v477h80v-420h488v-57z" />
<glyph unicode="&#xba3;" horiz-adv-x="1256" d="M1223 420h-135v-420h-80v420h-92q-39 0 -68 -12q31 -29 42 -63l12 -38l4 -36v-158q0 -50 -37 -83q-33 -30 -89 -30q-53 0 -87 30q-37 31 -37 83v158q0 69 67 137q-21 12 -78 12h-47q-40 0 -67 -12q21 -21 41 -64q10 -21 12 -38l4 -35v-158q0 -53 -39 -84q-35 -28 -87 -28 q-54 0 -89 29.5t-35 82.5v158q0 72 68 137q-23 12 -80 12h-103q-53 0 -89 -42t-36 -95q31 31 71 31q43 0 72 -33.5t29 -77.5v-90q0 -50 -37.5 -80t-89.5 -30t-86 29q-37 30 -37 81v147q0 87 58.5 152t144.5 65h125l29 -3q7 -1 36 -11q36 -13 50 -22q63 36 78 36h125l29 -3 q7 -1 36 -11q36 -13 50 -22q66 36 90 36h352v-57zM826 102v181q0 41 -45 41q-47 0 -47 -41v-181q0 -42 45 -42q47 0 47 42zM508 102v181q0 42 -45 42q-47 0 -47 -42v-181q0 -42 45 -42q47 0 47 42zM189 102v89q0 43 -45 43q-46 0 -46 -43v-89q0 -18 13.5 -30.5t32.5 -12.5 q18 0 31.5 12t13.5 31z" />
<glyph unicode="&#xba4;" d="M605 78q0 -94 -79 -153q-67 -50 -147 -50h-217q-22 0 -39.5 -13t-17.5 -34v-90h-78v90q0 104 135 104h217q51 0 99.5 42t48.5 92v104q0 68 -68 68h-57v-92q0 -146 -205 -146q-69 0 -121 32q-60 38 -60 103v92q0 19 18 46l18 16q9 6 20 6h45v182h420v-57h-135v-125h67 q57 0 93 -23q43 -28 43 -81v-113zM322 295v125h-125v-125h125zM322 135v103h-193q-24 0 -24 -23v-90q0 -20 33 -47q33 -21 71 -21q36 0 72 20q41 24 41 58z" />
<glyph unicode="&#xba8;" horiz-adv-x="564" d="M502 0q0 -125 -193 -125h-205q-69 0 -69 -47v-90h-66v90q0 104 125 104h226q42 0 77 24q25 22 25 54v92q0 77 -56 77q-40 0 -69 -44v-135h-78v420h-125v-420h-80v477h420v-57h-137v-217q32 32 81 32q52 0 88 -35t36 -87v-113z" />
<glyph unicode="&#xba9;" horiz-adv-x="934" d="M902 420h-136v-420h-78v420h-92q-45 0 -69 -24q57 -51 57 -125v-158q0 -51 -36.5 -80.5t-89.5 -29.5q-48 0 -86 27.5t-38 82.5v158q0 57 68 125q-33 24 -89 24h-92q-52 0 -88.5 -42.5t-36.5 -94.5q31 31 73 31q39 0 68 -30t29 -69v-102q0 -51 -36.5 -80.5t-89.5 -29.5 q-48 0 -86 27.5t-38 82.5v147q0 79 63.5 148t141.5 69h113l29 -3l20 -4l21 -7q24 -8 55 -22l40 23l40 13h363v-57zM504 102v181q0 44 -43 44q-19 0 -33 -12.5t-14 -31.5v-181q0 -44 46 -44q44 0 44 44zM188 102v89q-24 47 -47 47q-15 0 -30 -16t-15 -31v-89q0 -44 45 -44 q47 0 47 44z" />
<glyph unicode="&#xbaa;" horiz-adv-x="541" d="M480 0h-455v477h80v-420h295v420h80v-477z" />
<glyph unicode="&#xbae;" horiz-adv-x="633" d="M570 90q0 -90 -78 -90h-478v477h80v-420h193v328q0 38 35.5 65t101.5 27q146 0 146 -161v-226zM492 113v203q0 104 -68 104q-21 0 -44 -21q-13 -16 -13 -36v-306h90q35 0 35 56z" />
<glyph unicode="&#xbaf;" horiz-adv-x="668" d="M605 0h-386v66q-22 -29 -60 -47.5t-75 -18.5t-51 10q-17 12 -17 47v420h78v-399q6 -25 41 -25q32 0 56.5 25t27.5 57v342h80v-420l221 1v420l85 -1v-477z" />
<glyph unicode="&#xbb0;" horiz-adv-x="461" d="M434 420h-137v-420l-125 -137l-45 45l92 102v410h-125v-420h-80v477h420v-57z" />
<glyph unicode="&#xbb1;" horiz-adv-x="600" d="M537 78q0 -203 -217 -203h-203q-22 0 -39 -12.5t-17 -34.5v-90h-81v90q0 52 44 80q38 24 93 24h215q125 0 125 170v214q0 33 -22 66q-25 38 -58 38q-27 0 -56 -30q-22 -31 -22 -74v-316h-80v340q0 25 -17 52.5t-40 27.5q-22 0 -45 -23.5t-23 -44.5v-352h-80v352 q0 40 26 72q25 29 64 43q28 10 46 10q52 0 93 -36q26 -22 32 -45q30 81 114 81q66 0 107 -47t41 -114v-238z" />
<glyph unicode="&#xbb2;" horiz-adv-x="715" d="M652 146q0 -63 -48 -104.5t-112 -41.5q-69 0 -111 32q-47 36 -47 103v181q0 33 -23 67q-26 37 -57 37h-35q-53 0 -89 -42t-36 -95q30 32 75 32q22 0 33 -5l19 -9l15 -12q30 -29 30 -74v-102q0 -40 -42.5 -76.5t-82.5 -36.5q-53 0 -89 31t-36 82v147q0 79 62.5 148 t140.5 69h47q67 0 108 -48q38 -45 38 -113v-181q0 -30 24 -56q25 -20 57 -20q34 0 56.5 21t22.5 55v181q0 46 -25 84t-67 53l36 47q62 -20 99 -69.5t37 -114.5v-170zM186 102v89q0 44 -46 44t-46 -44v-89q0 -18 13.5 -30.5t32.5 -12.5t32.5 12t13.5 31z" />
<glyph unicode="&#xbb3;" horiz-adv-x="807" d="M777 420h-136v-420h-78v420h-59q-29 0 -47.5 -19.5t-18.5 -48.5v-352h-81v328q0 28 -20 58q-21 34 -48 34h-68q-56 0 -90.5 -40t-34.5 -97q31 31 73 31q39 0 68 -30t29 -69v-102q0 -50 -37.5 -80t-89.5 -30t-86 29q-37 30 -37 81v147q0 82 62 149.5t143 67.5h56 q64 0 112 -57q39 57 105 57h283v-57zM188 102v89q0 13 -15 31l-13 10q-8 6 -19 6q-15 0 -30 -16t-15 -31v-89q0 -44 45 -44q47 0 47 44z" />
<glyph unicode="&#xbb4;" horiz-adv-x="633" d="M570 90q0 -90 -78 -90h-478v477h80v-420h193v328q0 38 35.5 65t101.5 27q146 0 146 -161v-226zM549 -125h-182q-18 -160 -205 -160q-53 0 -97 30q-51 33 -51 83v24q0 26 18 49q19 19 38 19l35 -45l-11 -12q-10 -11 -10 -29q0 -19 25 -44q25 -19 53 -19q59 0 86 26 q11 11 27 52t36 59q-24 24 -24 92h80q0 -53 22 -68h160v-57zM492 113v203q0 104 -68 104q-21 0 -44 -21q-13 -16 -13 -36v-306h90q35 0 35 56z" />
<glyph unicode="&#xbb5;" horiz-adv-x="783" d="M721 0h-399v66q31 20 56 78q24 54 24 94q0 67 -28 119q-35 63 -97 63h-56q-48 0 -86.5 -38.5t-38.5 -86.5q24 24 61 24q42 0 75.5 -31t33.5 -73v-102q0 -40 -42.5 -76.5t-82.5 -36.5q-53 0 -89 31t-36 82v147q0 84 61 150.5t144 66.5h68q95 0 147 -75q46 -65 46 -164 q0 -101 -80 -181h239v420h80v-477zM188 102v89q0 22 -13 33.5t-32 11.5q-47 0 -47 -45v-89q0 -44 45 -44q47 0 47 44z" />
<glyph unicode="&#xbb6;" horiz-adv-x="966" d="M813 423h-90v-306q0 -20 13 -36q23 -21 44 -21q68 0 68 104v203q0 56 -35 56zM370 60v420h478q78 0 78 -90v-226q0 -161 -146 -161q-66 0 -101.5 27t-35.5 65v328h-193v-420h-410v477h80v-420h250z" />
<glyph unicode="&#xbb7;" horiz-adv-x="922" d="M857 10q0 -9 -11 -10h-170l-125 -273l-69 23l114 250h-274v57q31 22 55.5 76t24.5 94q0 67 -29 123q-35 70 -96 70h-56q-48 0 -86.5 -44t-38.5 -93q31 31 73 31q39 0 68 -30t29 -69v-102q0 -48 -46 -82q-41 -31 -91 -31q-46 0 -79.5 33.5t-33.5 79.5v147q0 84 61 150.5 t144 66.5h68q84 0 143 -76q51 -66 51 -164q0 -120 -81 -180h217l57 113q-57 8 -94 38q-43 34 -43 87v80q0 41 34 74q29 28 68 28h56q33 0 62.5 -28.5t29.5 -63.5v-114q0 -42 -23 -68q41 -24 66 -64q13 -25 19 -42t6 -31v-56zM709 271v114q0 34 -45 34t-45 -34v-114 q0 -15 14 -24t33 -9q43 0 43 33zM780 78q0 36 -36 68l-47 -89h80zM188 102v89q0 44 -47 44q-18 0 -31.5 -13.5t-13.5 -30.5v-89q0 -15 16 -31q10 -8 29 -14q14 0 30.5 15.5t16.5 29.5z" />
<glyph unicode="&#xbb8;" horiz-adv-x="957" d="M893 146q0 -67 -52 -107q-48 -38 -116 -38q-63 0 -107 36t-44 98v193q0 30 -18 59q-21 33 -50 33h-24q-23 0 -45.5 -27t-22.5 -53v-340h-78v307q0 34 -23 71q-25 42 -57 42h-35q-44 0 -84.5 -40.5t-40.5 -84.5q23 21 92 21q33 0 58 -35q22 -32 22 -66v-102q0 -50 -39 -82 q-35 -29 -87 -29q-53 0 -88.5 29.5t-35.5 81.5v147q0 87 58.5 152t144.5 65h47q54 0 101 -81q15 31 53 56t72 25h35q53 0 89 -41.5t36 -95.5v-215q0 -26 21 -50q22 -17 50 -17q33 0 60.5 22.5t27.5 54.5v181q0 46 -25 84t-67 53l35 47q63 -19 100 -68.5t37 -115.5v-170z M188 102v89q0 44 -46 44t-46 -44v-89q0 -18 15 -31.5t32 -13.5t31 14t14 31z" />
<glyph unicode="&#xbb9;" horiz-adv-x="1154" d="M1088 78q0 -203 -217 -203h-637q-42 0 -56 -47v-90h-80v90q0 52 44 80q37 24 92 24h649q66 0 99 54q26 45 26 116v214q0 38 -21 69q-23 35 -59 35q-80 0 -80 -104v-316h-78v340q0 80 -57 80q-30 0 -52 -25l-9 -15l-7 -28v-352h-319v57q30 21 55 75t25 95q0 67 -29 123 q-35 70 -96 70h-58q-49 0 -87 -43.5t-38 -93.5q31 31 74 31q40 0 69 -29.5t29 -69.5v-90q0 -51 -42 -86.5t-93 -35.5t-83 30t-32 80v147q0 86 59 151.5t144 65.5h58q84 0 143.5 -62.5t59.5 -176.5q0 -51 -19 -100q-21 -55 -59 -81h158v295q0 50 43 87.5t94 37.5q57 0 96 -36 q29 -27 29 -45l12 22q11 20 34 38q27 21 67 21q68 0 110 -47q39 -45 39 -114v-238zM189 102v89q0 44 -45 44q-46 0 -46 -44v-89q0 -44 44 -44q17 0 32 13.5t15 30.5z" />
<glyph unicode="&#xbbe;" horiz-adv-x="461" d="M434 420h-137v-420h-78v420h-125v-420h-80v477h420v-57z" />
<glyph unicode="&#xbbf;" horiz-adv-x="150" d="M90 0h-80v500q0 71 -44 120.5t-114 49.5h-45q-41 0 -83 -36.5t-42 -76.5v-24q0 -30 21 -56h-78q-23 21 -23 56v24q0 75 71 125q65 45 143 45h47q94 0 160.5 -66.5t66.5 -160.5v-500z" />
<glyph unicode="&#xbc0;" horiz-adv-x="50" d="M33 602q0 -23 -24 -46t-56 -23h-45q-40 0 -64 27t-24 67q0 19 2 23l6 20q-28 0 -53 -26t-25 -54v-24q0 -35 33 -89h-80l-22 44l-7 25l-4 20v36q0 57 52 93q47 32 106 32h63q55 0 93 -19q49 -24 49 -73v-33zM-47 625v21q0 33 -33 33q-35 0 -35 -33v-21q0 -35 35 -35 q33 0 33 35z" />
<glyph unicode="&#xbc1;" horiz-adv-x="395" d="M344 221h-284v193h-256v57h540v-250zM266 277v137h-125v-137h125z" />
<glyph unicode="&#xbc2;" horiz-adv-x="640" d="M574 290q0 -295 -342 -295q-69 0 -148 49q-74 47 -113 109l35 33q81 -125 226 -125q159 0 219 71q12 15 32 60l8 38l3 48v125q0 79 -50 145q-55 72 -132 72q-66 0 -113 -42.5t-47 -107.5h205v-250h-283v193h-268v57h268q0 105 74 163q68 53 176 53q107 0 178.5 -76 t71.5 -183v-137zM277 276v137h-125v-137h125z" />
<glyph unicode="&#xbc6;" horiz-adv-x="691" d="M629 0h-80v488q0 87 -72 143q-66 51 -155 51q-95 0 -164 -91q-64 -85 -64 -183q0 -131 48 -232q40 -84 112 -119l-16 37l-6 29l-2 23v69q0 46 29.5 79.5t74.5 33.5h33q47 0 80 -33t33 -80v-80q0 -135 -181 -135q-283 0 -283 408q0 143 81 234q84 96 225 96q131 0 213 -58 q94 -66 94 -192v-488zM402 102v125q0 41 -46 41q-45 0 -45 -41v-125q0 -44 45 -44q46 0 46 44z" />
<glyph unicode="&#xbc7;" horiz-adv-x="564" d="M502 135q0 -60 -55 -101q-46 -34 -115 -34h-45q-112 0 -196 117q-77 107 -77 223v80q0 141 94 229.5t236 88.5h45q47 0 80 -35t33 -78v-47q0 -58 -27 -95q-30 -42 -86 -42h-34q-46 0 -74.5 32.5t-28.5 83.5v56q0 46 23 69q-85 -22 -135 -106q-46 -76 -46 -168v-68 q0 -90 53 -178q58 -94 140 -117q-6 6 -22 44l-13 57v69q0 46 29 79.5t74 33.5h34q47 0 80 -33t33 -80v-80zM424 545v90q0 19 -14 30.5t-33 11.5q-45 0 -45 -42v-90q0 -14 15.5 -28t29.5 -17q15 0 29.5 15t17.5 30zM424 102v125q0 41 -47 41q-45 0 -45 -41v-125q0 -44 45 -44 q47 0 47 44z" />
<glyph unicode="&#xbc8;" horiz-adv-x="854" d="M789 191q0 -28 -7 -62q-5 -21 -22 -55q-28 -55 -72 -74q-19 0 -39 13.5t-20 31.5q33 22 56.5 61t23.5 76v89q0 39 -31 92q-35 57 -71 57h-11q-45 0 -69 -12q16 -16 41 -63l12 -38l4 -36v-158q0 -53 -39 -84q-35 -28 -87 -28q-54 0 -89 29.5t-35 82.5v158q0 69 68 137 q-23 12 -80 12h-90q-52 0 -94 -36.5t-42 -88.5q24 24 62 24q42 0 75 -31.5t33 -72.5v-102q0 -38 -43.5 -75.5t-81.5 -37.5q-53 0 -89 31t-36 82v147q0 80 62.5 148.5t142.5 68.5h125l26 -3l16 -4l21 -7q34 -11 50 -22l40 23l40 13h33q217 0 217 -217v-69zM504 102v181 q0 42 -44 42q-46 0 -46 -42v-181q0 -18 13.5 -30.5t31.5 -12.5q45 0 45 43zM188 102v89q0 44 -47 44q-18 0 -31.5 -13.5t-13.5 -30.5v-89q0 -15 16 -31q10 -8 29 -14q14 0 30.5 15.5t16.5 29.5z" />
<glyph unicode="&#xbca;" horiz-adv-x="1136" d="M1114 420h-137v-420h-78v420h-125v-420h-80v477h420v-57zM629 0h-80v488q0 87 -72 143q-66 51 -155 51q-95 0 -164 -91q-64 -85 -64 -183q0 -131 48 -232q40 -84 112 -119l-16 37l-6 29l-2 23v69q0 46 29.5 79.5t74.5 33.5h33q47 0 80 -33t33 -80v-80q0 -135 -181 -135 q-283 0 -283 408q0 143 81 234q84 96 225 96q131 0 213 -58q94 -66 94 -192v-488zM402 102v125q0 41 -46 41q-45 0 -45 -41v-125q0 -44 45 -44q46 0 46 44z" />
<glyph unicode="&#xbcb;" horiz-adv-x="1014" d="M984 420h-137v-420h-78v420h-125v-420h-80v477h420v-57zM502 135q0 -60 -55 -101q-46 -34 -115 -34h-45q-112 0 -196 117q-77 107 -77 223v80q0 141 94 229.5t236 88.5h45q47 0 80 -35t33 -78v-47q0 -58 -27 -95q-30 -42 -86 -42h-34q-46 0 -74.5 32.5t-28.5 83.5v56 q0 46 23 69q-85 -22 -135 -106q-46 -76 -46 -168v-68q0 -90 53 -178q58 -94 140 -117q-6 6 -22 44l-13 57v69q0 46 29 79.5t74 33.5h34q47 0 80 -33t33 -80v-80zM424 545v90q0 19 -14 30.5t-33 11.5q-45 0 -45 -42v-90q0 -14 15.5 -28t29.5 -17q15 0 29.5 15t17.5 30z M424 102v125q0 41 -47 41q-45 0 -45 -41v-125q0 -44 45 -44q47 0 47 44z" />
<glyph unicode="&#xbcc;" horiz-adv-x="1494" d="M1457 420h-136v-420h-78v420h-59q-29 0 -47.5 -19.5t-18.5 -48.5v-352h-81v328q0 28 -20 58q-21 34 -48 34h-68q-56 0 -90.5 -40t-34.5 -97q31 31 73 31q39 0 68 -30t29 -69v-102q0 -50 -37.5 -80t-89.5 -30t-86 29q-37 30 -37 81v147q0 82 62 149.5t143 67.5h56 q64 0 112 -57q39 57 105 57h283v-57zM629 0h-80v488q0 87 -72 143q-66 51 -155 51q-95 0 -164 -91q-64 -85 -64 -183q0 -131 48 -232q40 -84 112 -119l-16 37l-6 29l-2 23v69q0 46 29.5 79.5t74.5 33.5h33q47 0 80 -33t33 -80v-80q0 -135 -181 -135q-283 0 -283 408 q0 143 81 234q84 96 225 96q131 0 213 -58q94 -66 94 -192v-488zM868 102v89q0 13 -15 31l-13 10q-8 6 -19 6q-15 0 -30 -16t-15 -31v-89q0 -44 45 -44q47 0 47 44zM402 102v125q0 41 -46 41q-45 0 -45 -41v-125q0 -44 45 -44q46 0 46 44z" />
<glyph unicode="&#xbcd;" horiz-adv-x="10" d="M-170 670q0 -31 -24 -58q-24 -21 -57 -21q-31 0 -55 20t-24 59q0 34 22.5 55.5t56.5 21.5q35 0 58 -21t23 -56z" />
<glyph unicode="&#xbd7;" horiz-adv-x="807" d="M777 420h-136v-420h-78v420h-59q-29 0 -47.5 -19.5t-18.5 -48.5v-352h-81v328q0 28 -20 58q-21 34 -48 34h-68q-56 0 -90.5 -40t-34.5 -97q31 31 73 31q39 0 68 -30t29 -69v-102q0 -50 -37.5 -80t-89.5 -30t-86 29q-37 30 -37 81v147q0 82 62 149.5t143 67.5h56 q64 0 112 -57q39 57 105 57h283v-57zM188 102v89q0 13 -15 31l-13 10q-8 6 -19 6q-15 0 -30 -16t-15 -31v-89q0 -44 45 -44q47 0 47 44z" />
<glyph unicode="&#xbe6;" horiz-adv-x="523" d="M483 300q0 -312 -231 -312q-212 0 -212 288q0 134 51.5 219t160.5 85q231 0 231 -280zM379 276q4 78 -19 147q-30 89 -108 89q-66 0 -98 -93q-13 -72 -13 -152q0 -85 31 -155.5t83 -70.5q74 0 102 72q11 27 15 79l5 28z" />
<glyph unicode="&#xbe7;" horiz-adv-x="669" d="M629 125q0 -53 -42 -92q-48 -45 -109 -40l-36 3l29 61l12 -2q25 0 46.5 26t21.5 54v47q0 56 -68 56h-57v-92q0 -146 -205 -146q-69 0 -121 32q-60 38 -60 103v92q0 19 18 46l18 16q9 6 20 6h45v182h420v-57h-135v-125h67q136 0 136 -104v-66zM346 295v125h-125v-125h125z M346 135v103h-193q-24 0 -24 -23v-90q0 -20 33 -47q33 -21 71 -21q36 0 72 20q41 24 41 58z" />
<glyph unicode="&#xbe8;" horiz-adv-x="841" d="M164 109q69 11 119 39q75 41 75 123v45q0 41 -41.5 72.5t-83.5 31.5q-115 -27 -113 -80q-19 -139 45 -182zM125 105q-30 5 -51 22q-47 61 -43 160q9 108 74 152q58 38 128 38h45q68 0 114 -46.5t46 -114.5v-56q0 -154 -262 -203h625v-57h-726q-12 0 -22 8.5t-13 24.5v33 q0 36 23 36q32 0 62 3z" />
<glyph unicode="&#xbe9;" horiz-adv-x="731" d="M691 0h-470v57h147q80 29 80 146q0 29 -16 52q-17 27 -45 27q-41 0 -64 -44v-103h-80v285h-125v-420h-78v477h408v-57h-125v-113q36 33 103 33q48 0 77 -46q25 -40 25 -91q0 -98 -57 -146h170l50 -51v-6z" />
<glyph unicode="&#xbea;" horiz-adv-x="661" d="M346 295v125h-125v-125h125zM346 135v103h-193q-22 0 -22 -23v-90q0 -18 33 -47q33 -21 69 -21t72 20q41 24 41 58zM620 272v-34h-194v-92q0 -146 -205 -146q-69 0 -121 32q-60 38 -60 103v92q0 19 18 46l18 16q9 6 20 6h47v182h350v-57h-67v-125h114v185h81v-208h-1z " />
<glyph unicode="&#xbeb;" horiz-adv-x="830" d="M790 66q0 -161 -109 -253q-102 -86 -266 -86q-155 0 -265 104.5t-110 258.5q0 114 54 224q41 84 106 139l45 -33q-47 -47 -79 -122q-46 -108 -46 -208q0 -120 88 -213.5t207 -93.5q137 0 221 86q76 77 76 188q0 44 -16 79q-21 44 -60 44q-27 0 -49 -22v-158h-81v420h-125 v-420h-80v477h420v-57h-134v-205q31 25 70 25q66 0 102 -56q31 -48 31 -118z" />
<glyph unicode="&#xbec;" horiz-adv-x="1064" d="M346 295v125h-125v-125h125zM346 135v103h-193q-24 0 -24 -23v-90q0 -20 33 -47q33 -21 71 -21q36 0 72 20q41 24 41 58zM604 133l-29 52q-41 53 -92 53h-57v-92q0 -146 -205 -146q-69 0 -121 32q-60 38 -60 103v92q0 19 18 46l18 16q9 6 20 6h45v182h420v-57h-135v-125 h67q78 0 111 -34v66h420v-57h-137v-270h-78v270h-125v-270h-80v133z" />
<glyph unicode="&#xbed;" horiz-adv-x="681" d="M641 420h-137v-420h-78v420h-160q-67 0 -112 -46q-36 -37 -36 -79q24 24 61 24q43 0 77 -30.5t34 -73.5v-102q0 -40 -42.5 -76.5t-82.5 -36.5q-53 0 -89 31t-36 82v147q0 87 58.5 152t144.5 65h398v-57zM210 102v89q0 44 -46 44t-46 -44v-89q0 -44 46 -44t46 44z" />
<glyph unicode="&#xbee;" horiz-adv-x="945" d="M529 292v-93q0 -60 -54 -102q-57 -34 -117 -34q-70 0 -115 33q-51 36 -51 103v110q0 71 54.5 119.5t127.5 48.5h98l21 -56q38 -35 36 -129zM653 378q58 -85 58 -208v-57q0 -17 -6 -47h96v411h80v-739h-80v272h-113q-36 -84 -131 -139t-200 -55h-56q-96 0 -176 39 q-97 48 -107 133v22q0 56 89 56h516l6 32l2 27v33q0 107 -52 190q-45 72 -85 72l-23 57q115 0 182 -99zM458 162v180q0 64 -98 64t-98 -64v-180q0 -51 94 -51q102 0 102 51zM600 10h-504v-22q0 -55 80 -87q62 -26 125 -26h56q74 0 141 36t102 99z" />
<glyph unicode="&#xbef;" horiz-adv-x="908" d="M820 0h-155v66q43 37 43 97q0 24 -10 47q-12 28 -33 28q-30 0 -49.5 -19t-19.5 -49v-170h-78v170q0 68 -47 68h-45v-92q0 -146 -205 -146q-69 0 -121 32q-60 38 -60 103v92q0 19 18 46l18 16q9 6 20 6h47v182h420v-57h-137v-125h57q75 0 102 -57q38 55 105 55 q46 0 73 -28t27 -74q0 -63 -69 -134h99v-57zM346 295v125h-125v-125h125zM346 135v103h-193q-22 0 -22 -23v-90q0 -18 33 -47q33 -21 69 -21t72 20q41 24 41 58z" />
<glyph unicode="&#xbf0;" horiz-adv-x="673" d="M633 156q0 -67 -41 -114t-107 -47q-154 0 -184 81q-6 -23 -32 -45q-41 -36 -93 -36q-18 0 -46 10q-39 14 -64 43q-26 32 -26 72v352h80v-352q0 -21 23 -44.5t45 -23.5q23 0 40 27.5t17 52.5v340h80v-316q0 -43 22 -74q72 -49 126 -30q33 0 58 38q22 33 22 66v214 q0 170 -125 170h-125v57h113q217 0 217 -203v-238z" />
<glyph unicode="&#xbf1;" horiz-adv-x="705" d="M245 398v79h420v-57h-137v-420h-78v420h-125v-420h-80v296l-1 -1q-4 18 -16 38q-17 27 -40 27q-22 0 -45 -23.5t-23 -44.5v-292h-80v292q0 40 26 72q25 29 64 43q28 10 46 10q37 0 69 -19z" />
<glyph unicode="&#xbf2;" horiz-adv-x="862" d="M307 295v125h-125v-125h125zM617 44v71h-132q-16 0 -16 -16v-62q0 -13 22 -32q23 -14 49 -14q24 0 49 14q28 16 28 39zM307 135v103h-193q-24 0 -24 -23v-90q0 -20 33 -47q33 -21 71 -21q36 0 72 20q41 24 41 58zM617 238h-230v-92q0 -146 -205 -146q-69 0 -121 32 q-61 38 -61 103v92q0 21 18 44.5t39 23.5h45v182h420v-57h-135v-125h393v-57h-108v-84h46q38 0 63 -16q29 -19 29 -55v-78q0 -64 -54 -104q-45 -34 -100 -34h-148q-15 0 -27 -9t-12 -24v-61h-53v61q0 72 92 72h148q35 0 68 28.5t33 62.5v71q0 47 -46 47h-39v-63 q0 -100 -140 -100q-47 0 -83 22q-41 26 -41 70v63q0 13 12 32l13 10q6 5 13 5h171v84z" />
<glyph unicode="&#xbf3;" horiz-adv-x="705" d="M665 0h-319v66q31 20 56 78q24 54 24 94q0 67 -28 119q-35 63 -97 63h-56q-48 0 -86.5 -38.5t-38.5 -86.5q24 24 61 24q42 0 75.5 -31t33.5 -73v-102q0 -40 -42.5 -76.5t-82.5 -36.5q-53 0 -89 31t-36 82v147q0 84 61 150.5t144 66.5h68q95 0 147 -75q46 -65 46 -164 q0 -101 -80 -181h239v1v-58zM212 102v89q0 22 -13 33.5t-32 11.5q-47 0 -47 -45v-89q0 -44 45 -44q47 0 47 44z" />
<glyph unicode="&#xbf4;" horiz-adv-x="965" d="M605 625v21q0 33 -33 33q-35 0 -35 -33v-21q0 -35 34 -35t34 35zM492 113v203q0 104 -68 104q-21 0 -44 -21q-13 -16 -13 -36v-306h92q33 0 33 56zM524 727q29 17 69 26h9q12 1 25 1q8 0 15 -1q83 4 130 -56q24 -19 30 -74q2 -17 2 -35q0 -65 -52 -117h154v-37h-206v43 q20 13 36 51q16 35 16 60q0 39 -11 56t-42 35q-21 11 -44 17q31 -24 31 -61v-33q0 -27 -27 -48t-54 -21h-44q-40 0 -65.5 27t-23.5 67l1 16l6 27q-27 0 -52 -26t-25 -54v-24q0 -45 34 -91q136 0 136 -159v-226q0 -38 -21.5 -64t-58.5 -26h-476v477h78v-420h193v328 q0 52 72 82q-9 14 -24 48l-13 51v36q0 56 53 92q47 33 105 33h44z" />
<glyph unicode="&#xbf5;" horiz-adv-x="1562" d="M329 102v89q0 22 -13 33.5t-32 11.5q-47 0 -47 -45v-89q0 -44 45 -44q47 0 47 44zM1256 412q-24 118 -157 172q-217 86 -597 67q-134 0 -276 -114q-77 -63 -121 -143q-27 -54 -27 -143v-45q0 -121 133 -239q130 -114 253 -114q348 -19 547 67q145 82 145 239v24 q0 28 -20 62q-22 39 -48 39h-16v-284h-78v420h-125l-7 -2v-418h-399v66q31 20 56 78q24 54 24 94q0 67 -28 119q-35 63 -97 63h-56q-48 0 -86.5 -38.5t-38.5 -86.5q24 24 61 24q42 0 75.5 -31t33.5 -73v-102q0 -40 -42.5 -76.5t-82.5 -36.5q-53 0 -89 31t-36 82v147 q0 84 61 150.5t144 66.5h68q95 0 147 -75q46 -65 46 -164q0 -101 -80 -181h239v420h427v-57h-137v-67h16q63 0 105.5 -41.5t42.5 -105.5v-47q0 -196 -160 -289q-209 -93 -600 -74q-105 0 -216 56t-177 140q-83 105 -83 226v45q0 68 25 146l4 12h-2q3 7 7 14q23 62 87 117 q55 52 159 100q121 56 236 56q426 19 609 -71q140 -54 188 -167q1 -10 1 -21v-133q0 -22 18 -42q18 -14 42 -14q25 0 41.5 15.5t16.5 40.5v133q0 34 -18.5 62t-49.5 39l27 35q45 -15 72.5 -51.5t27.5 -84.5v-125q0 -47 -35.5 -77.5t-82.5 -30.5q-51 0 -82 24q-35 26 -35 76 v96z" />
<glyph unicode="&#xbf6;" horiz-adv-x="730" d="M248 -207v137h-125v-137h125zM244 0h-1v66q-22 -29 -60 -47.5t-75 -18.5t-51 10q-17 12 -17 47v420h78v-399q6 -25 41 -25q32 0 56.5 25t27.5 57v342h80v-389v-101h289v487h78v-547h-364v-190h-283v250h199q1 6 2 13z" />
<glyph unicode="&#xbf7;" horiz-adv-x="1237" d="M210 102v89q0 44 -46 44t-46 -44v-89q0 -44 46 -44t46 44zM781 188v49q0 24 -33 24q-32 0 -32 -24v-49q3 -23 31 -23q9 0 24 9q5 3 10 14zM659 229q-113 43 -155 -19v-210h-78v420h-160q-67 0 -112 -46q-36 -37 -36 -79q24 24 61 24q43 0 77 -30.5t34 -73.5v-102 q0 -40 -42.5 -76.5t-82.5 -36.5q-53 0 -89 31t-36 82v147q0 87 58.5 152t144.5 65h398v-57h-137v-105q44 24 160 -56q10 27 41 48q41 27 90 27h32q48 0 80.5 -33t32.5 -81v-39q0 -109 -121 -144h378v-40h-428q-9 0 -16 6t-9 17v24q0 25 16 25q25 0 71 33q53 29 53 86v32 q0 29 -29.5 51.5t-59.5 22.5q14 -5 29 -26l9 -20l3 -19v-24q0 -33 -30 -56t-66 -23q-35 0 -57 17q-24 19 -24 54v32z" />
<glyph unicode="&#xbf8;" horiz-adv-x="1400" d="M386 102v125q0 41 -46 41q-45 0 -45 -41v-125q0 -44 45 -44q46 0 46 44zM1165 271v114q0 34 -45 34t-45 -34v-114q0 -15 14 -24t33 -9q43 0 43 33zM1236 78q0 36 -36 68l-47 -89h80zM644 365l-1 -2v51q-28 -10 -52 -38q-39 -44 -39 -93v-181q0 -15 16 -31q10 -8 29 -14 q14 0 30.5 15.5t16.5 29.5v263zM722 420v-307q0 -48 -46 -82q-41 -31 -91 -31q-46 0 -79.5 33.5t-33.5 79.5l1 250q34 54 83 84q37 23 87 28v13q-10 87 -82 143q-66 51 -155 51q-195 0 -264 -91q-64 -85 -64 -183q0 -131 48 -232q40 -84 112 -119l-16 37l-6 29l-2 23v69 q0 46 29.5 79.5t74.5 33.5h33q47 0 80 -33t33 -80v-80q0 -135 -181 -135q-283 0 -283 408q0 143 81 234q84 96 325 96q131 0 213 -58q94 -66 94 -192v-10l-1 -1h33q84 0 143 -76q51 -66 51 -164q0 -120 -81 -180h217l57 113q-57 8 -94 38q-43 34 -43 87v80q0 41 34 74 q29 28 68 28h56q33 0 62.5 -28.5t29.5 -63.5v-114q0 -42 -23 -68q41 -24 66 -64q13 -25 19 -42t6 -31v-56q0 -9 -11 -10h-170l-125 -273l-69 23l114 250h-274v57q31 22 55.5 76t24.5 94q0 67 -29 123q-35 70 -96 70h-11z" />
<glyph unicode="&#xbf9;" horiz-adv-x="1073" d="M677 606q-200 5 -344 -8q-188 -37 -220 -171q-56 -204 -41 -357q16 -100 104 -193.5t207 -93.5q137 0 221 86q76 77 76 188q0 44 -16 79q-21 44 -60 44q-27 0 -49 -22v-158h-81v420h-125v-420h-80v477h420v-57h-134v-205q31 25 70 25q66 0 102 -56q31 -48 31 -118 q0 -161 -109 -253q-102 -86 -266 -86q-155 0 -265 104.5t-113 256.5q-12 64 2.5 199t96 234t218.5 126q141 5 366 9q-6 25 24 57q34 38 81 38h39q54 0 84 -43q26 -37 26 -93q0 -57 -46 -103h136v-32h-181v37q17 12 32 45q13 30 13 53q0 38 -16 68q-20 36 -55 36h-32 q-27 0 -49 -22t-22 -49q43 -127 -1 -130t-44 26v62z" />
<glyph unicode="&#xbfa;" horiz-adv-x="921" d="M519 661q-19 9 -43 9h-45q-42 0 -83.5 -35.5t-41.5 -77.5v-24q0 -27 24 -56h137v-57h-137v-217q32 32 80 32q52 0 87.5 -35t35.5 -87v-113q0 -125 -191 -125h-206q-68 0 -68 -47v-90h-68v90q0 104 125 104h226q41 0 70 18q34 21 34 60v92q0 77 -57 77q-39 0 -68 -44v-135 h-80v420h-125v-420h-80v477h205q-24 21 -24 56v24q0 73 68 123q62 47 137 47h57q20 0 38 -4q8 23 27 43q33 36 78 36h38q52 0 80 -41q26 -36 26 -90q0 -56 -44 -100h131v-31h-175v36q17 11 31 43q13 30 13 52q0 37 -16 65q-19 35 -53 35h-31q-26 0 -47 -21.5t-21 -47.5 q13 13 28 -49.5t-28.5 -70.5t-43.5 20v59z" />
<glyph unicode="&#x200c;" horiz-adv-x="0" d="M180 700l-199 -995h-40l199 995h40z" />
<glyph unicode="&#x2013;" horiz-adv-x="0" />
<glyph unicode="&#x2014;" horiz-adv-x="1000" d="M966 250l-10 -50h-916l10 50h916z" />
<glyph unicode="&#x2018;" horiz-adv-x="187" d="M169 481q0 -25 -15 -40l-23 -13l-26 -4l-15 1l-18 6q-12 6 -23 17l-23 35q-6 17 -6 37q0 60 43 105l35 29l48 23v-21l-42 -30l-26 -26l-10 -21l-3 -24l1 -14q2 -7 5 -9l5 -6l8 -2l5 1l8 3l12 3l10 1q21 0 34 -13q6 -3 12 -18z" />
<glyph unicode="&#x2019;" horiz-adv-x="187" d="M20 620q0 25 15 40l23 13l26 4l15 -1l18 -6q12 -6 23 -17l23 -35q6 -17 6 -37q0 -60 -43 -105l-35 -29l-48 -23v21l42 30l26 26l10 21l3 24l-1 14q-2 7 -5 9l-5 6l-8 2l-5 -1l-8 -3l-12 -3l-10 -1q-21 0 -34 13q-6 3 -12 18z" />
<glyph unicode="&#x201c;" horiz-adv-x="443" d="M415 484q0 -12 -4 -21l-5 -11l-10 -10l-21 -13l-25 -4l-15 1l-17 6q-12 6 -23 17l-23 35q-7 19 -6 38l1 26q1 23 29.5 63t95.5 64v-18l-19 -12l-22 -15q-27 -19 -36 -49l-4 -28l1 -12l4 -8l6 -6l6 -1l6 1l20 6l11 1q22 0 35 -15l11 -16zM181 482q0 -13 -4 -22.5 t-14 -17.5l-20 -13l-25 -4l-15 1l-7 1l-13 6l-23 19l-21 33l-5 18l-2 20v18l1 13q1 8 2 9l6 12q25 50 63 76l25 13l30 13v-20l-21 -11l-16 -12l-25 -24l-14 -26l-4 -27l1 -15q0 -6 3 -9l5 -6l6 -1l7 1l20 6l10 1q22 0 35 -15l11 -17z" />
<glyph unicode="&#x201d;" horiz-adv-x="443" d="M32 618q0 12 4 21l5 11l10 10l21 13l25 4l15 -1l17 -6q12 -6 23 -17l23 -35q7 -19 6 -38l-1 -26q-1 -23 -29.5 -63t-95.5 -64v18l19 12l22 15q27 19 36 49l4 28l-1 12l-4 8l-6 6l-6 1l-6 -1l-20 -6l-11 -1q-22 0 -35 15l-11 16zM266 620q0 13 4 22.5t14 17.5l20 13l25 4 l15 -1l7 -1l13 -6l23 -19l21 -33l5 -18l2 -20v-18l-1 -13q-1 -8 -2 -9l-6 -12q-25 -50 -63 -76l-25 -13l-30 -13v20l21 11l16 12l25 24l14 26l4 27l-1 15q0 6 -3 9l-5 6l-6 1l-7 -1l-20 -6l-10 -1q-22 0 -35 15l-11 17z" />
<glyph unicode="&#x2026;" horiz-adv-x="823" d="M728 60q0 -20 -15 -35t-36 -15t-35.5 15t-14.5 35q0 21 14.5 36t35.5 15t36 -15t15 -36zM468 60q0 -20 -15 -35t-36 -15t-35.5 15t-14.5 35q0 21 14.5 36t35.5 15t36 -15t15 -36zM208 60q0 -20 -15 -35t-36 -15t-35.5 15t-14.5 35q0 21 14.5 36t35.5 15t36 -15t15 -36z " />
<glyph unicode="&#x20a4;" horiz-adv-x="556" d="M195 274h124v-66h-126q-15 -65 -72 -124q34 10 63 10q39 0 85 -11q76 -18 107 -18t84 25l26 -74q-66 -28 -107 -28q-33 0 -98 19q-67 21 -99 21q-74 0 -138 -42l-31 78q87 50 101 144h-93v66h93q-2 14 -18 66h-75v66h56q-10 41 -10 75q0 87 59 136.5t146 49.5 q74 0 129.5 -43t67.5 -127l-81 -12q-5 51 -38.5 83t-81.5 32q-52 0 -83.5 -33.5t-31.5 -74.5q0 -26 12 -86h154v-66h-138q11 -47 14 -66z" />
<glyph unicode="&#x20a8;" horiz-adv-x="1085" d="M72 0v659h292q88 0 134 -18t73 -63t27 -99q0 -70 -45 -118t-140 -61q35 -17 53 -33q38 -35 72 -88l114 -179h-109l-87 137q-39 59 -63.5 90.5t-44 44t-39.5 17.5q-15 3 -49 3h-101v-292h-87zM159 368h187q60 0 94 12.5t51.5 39.5t17.5 59q0 47 -34 77t-107 30h-209v-218z M648 141l79 12q7 -47 37.5 -72.5t84.5 -25.5q56 0 82.5 22.5t26.5 52.5q0 27 -24 43q-16 11 -81 27q-88 22 -122.5 38.5t-52 45t-17.5 63.5q0 31 14.5 58t39.5 45q19 14 51 23.5t69 9.5q56 0 98 -16t62 -43.5t27 -73.5l-78 -10q-5 36 -30.5 56.5t-72.5 20.5q-55 0 -78.5 -18 t-23.5 -43q0 -15 10 -28q9 -13 30 -21q12 -5 71 -21q85 -22 118.5 -36.5t52.5 -42t19 -68.5q0 -40 -23 -75.5t-67.5 -55t-99.5 -19.5q-92 0 -140.5 38.5t-61.5 113.5z" />
<glyph unicode="&#x20ac;" horiz-adv-x="603" d="M396 597q-76 0 -127 -36q-31 -22 -56 -62q-25 -41 -29 -78h307l-12 -60h-303v-18v-42h291l-13 -60h-268q19 -104 91 -147q52 -31 112 -31q85 0 132 44v-93q-56 -26 -124 -26q-204 0 -276 169q-15 35 -25 84h-69l13 60h47q-1 19 -1 41v19h-59l13 60h52q28 147 146 211 q72 40 160 40q84 0 141 -37l-18 -83q-55 45 -125 45z" />
<glyph unicode="&#x20b9;" horiz-adv-x="468" d="M40 636l4 36h417l-4 -36h-198v-3q70 -19 84 -91h106l-4 -38h-100v-12q-9 -79 -66 -127q-53 -45 -139 -52v-4q33 -20 60 -68l51 -99q56 -108 149 -120l-2 -22h-87q-90 0 -131 76l-82 152q-38 73 -88 85l2 23q102 -1 162 36q66 41 73 119v13h-219l4 38h213q-15 94 -130 94 h-75z" />
<glyph unicode="&#x2122;" horiz-adv-x="1000" d="M238 318v339h-129v59h325v-59h-130v-339h-66zM479 318v398h97l101 -318l97 318h96v-398h-61v334l-102 -334h-60l-107 339v-339h-61z" />
<glyph unicode="&#x25cc;" horiz-adv-x="0" />
<glyph unicode="&#x25fc;" horiz-adv-x="470" d="M0 470h470v-470h-470v470z" />
<glyph unicode="&#xe201;" horiz-adv-x="945" d="M881 -262h-80v272h-113q-36 -84 -131 -139t-200 -55h-56q-96 0 -176 39q-97 48 -107 133v22q0 56 89 56h516l6 32l2 27v33q0 107 -52 190q-45 72 -85 72q16 -16 27 -44l8 -36v-69q0 -45 -40 -76q-42 -25 -87 -25q-52 0 -85 24q-38 27 -38 77v81q0 53 40.5 89t94.5 36h57 q115 0 182 -99q58 -85 58 -208v-57q0 -17 -6 -47h96v411h80v-739zM449 260v115q0 41 -46 41t-46 -41v-115q0 -32 44 -32q48 0 48 32zM600 10h-504v-22q0 -55 80 -87q62 -26 125 -26h56q74 0 141 36t102 99z" />
<glyph unicode="&#xe202;" horiz-adv-x="1132" d="M1066 -129q0 -77 -70 -139t-148 -62h-80q-59 0 -114.5 30.5t-55.5 70.5v24q0 32 24 57t56 33l45 -33q-45 -15 -45 -69q0 -20 30.5 -38t59.5 -18h56q77 0 124 56q38 46 38 98v56q0 37 -17 63q-11 21 -40 29q-19 0 -29 -10l-19 -19v-160h-78v170h-115q-37 -87 -136 -142 q-93 -52 -193 -52h-56q-96 0 -176 39q-98 48 -109 133v22q0 56 91 56h516q6 27 6 59v33q0 105 -51 190q-43 72 -84 72q15 -15 25 -44l4 -19l4 -17v-69q0 -48 -40 -77q-36 -25 -86 -25t-85 26q-39 28 -39 76v81q0 53 41.5 89t95.5 36h57q112 0 181 -99q57 -82 57 -208v-57 l-4 -47h96v411h78v-411q20 20 60 20q59 0 94 -51q31 -45 31 -107v-57zM449 260v115q0 15 -15 30t-30 15q-13 0 -27.5 -15.5t-17.5 -29.5v-115q0 -32 43 -32q47 0 47 32zM600 10h-502v-22q0 -55 80 -87q62 -26 125 -26h56q73 0 139.5 36.5t101.5 98.5z" />
<glyph unicode="&#xe203;" horiz-adv-x="854" d="M789 0h-80v453q0 107 -91 172q-80 57 -192 57h-69q-106 0 -186 -97q-75 -91 -75 -200v-135q0 -111 45 -205q23 17 81 37t91 20h101q39 0 80 -24l7 41l3 51v45q0 79 -28.5 137t-73.5 68q36 -36 36 -80v-80q0 -41 -42 -71q-40 -19 -83 -19q-49 0 -88 24q-37 28 -37 77v81 q0 53 40 89t94 36h57q95 0 153 -80q52 -71 52 -170v-57q0 -18 -21 -104q101 -54 101 -125v-66q0 -59 -52 -99q-48 -38 -108 -38h-90q-36 0 -125 45q-87 -45 -125 -45h-92q-38 0 -64 27t-26 63v47q0 63 90 135q-56 121 -56 240v146q0 128 94 233q98 109 224 109h125 q124 0 224 -79q106 -84 106 -206v-453zM357 260v115q0 41 -45 41q-46 0 -46 -41v-115q0 -34 47 -34q44 0 44 34zM584 -125v45l-3 25q-2 10 -11 26q-15 28 -31 39q-58 -99 -193 -203q38 -12 80 -12h45q37 0 73 21q40 24 40 59zM471 33q-66 12 -80 12h-78q-54 0 -149 -45 q53 -104 125 -160q44 27 98 83q57 60 84 110zM221 -172q-79 70 -114 125q-44 -49 -44 -78q0 -35 12 -62q8 -18 21 -18h45q9 0 39.5 15.5t40.5 17.5z" />
<glyph unicode="&#xe204;" horiz-adv-x="588" d="M549 227q0 -57 -57 -57q-47 0 -47 68q0 53 50 53q18 0 38 -18q16 -19 16 -46zM525 420h-136v-420h-78v420h-217v-420h-80v477h511v-57zM252 227q0 -57 -57 -57q-46 0 -46 56q0 26 13.5 47.5t38.5 21.5q18 0 35 -17q16 -22 16 -51z" />
<glyph unicode="&#xe205;" horiz-adv-x="830" d="M777 0h-726q-12 0 -22 8.5t-13 24.5v33q0 36 23 36q137 0 220 46q75 41 75 123v45q0 41 -41.5 72.5t-83.5 31.5q19 -6 41 -37l12 -28l4 -27v-33q0 -48 -42.5 -80.5t-92.5 -32.5t-81 25q-34 27 -34 76v45q0 67 65 111q58 38 128 38h45q68 0 114 -46.5t46 -114.5v-56 q0 -154 -262 -203h625v-57zM188 271v69q0 34 -46 34t-46 -34v-69q5 -33 45 -33q13 0 34 12q7 5 13 21z" />
<glyph unicode="&#xe206;" horiz-adv-x="1164" d="M1133 432h-113v-307h-69v307h-45q-21 0 -39.5 -13.5t-18.5 -33.5v-260h-67v238q0 21 -19 43t-39 26h-57q-37 0 -71 -33q-27 -26 -31 -59q20 15 52 15q36 0 64 -18q33 -20 33 -54v-80q0 -33 -34.5 -55.5t-69.5 -22.5q-34 0 -71 22q-42 25 -42 56v113q0 68 51 114.5 t119 46.5h47q63 0 90 -36q26 36 92 36h238v-45zM1133 0h-1080q-27 0 -33 33v33q0 36 21 36q137 0 221 46q76 42 76 123v45q0 38 -45 74q-37 30 -80 30q24 -9 40.5 -37t16.5 -55v-33q0 -48 -42.5 -80.5t-92.5 -32.5t-81 25q-34 27 -34 76v45q0 68 65 111q57 38 128 38h45 q67 0 112.5 -46.5t45.5 -114.5v-56q0 -154 -260 -203h977v-57zM645 191v69q0 34 -39 34q-42 0 -42 -34v-69q0 -32 42 -32q39 0 39 32zM189 271v69q0 13 -15 24t-29 11q-36 0 -47 -35v-69q9 -33 53 -33q38 0 38 33z" />
<glyph unicode="&#xe207;" horiz-adv-x="646" d="M617 420h-137v-420h-78v420h-160q-67 0 -112 -46q-36 -37 -36 -79q24 24 61 24q43 0 77 -30.5t34 -73.5v-102q0 -40 -42.5 -76.5t-82.5 -36.5q-53 0 -89 31t-36 82v147q0 87 58.5 152t144.5 65h398v-57zM186 102v89q0 44 -46 44t-46 -44v-89q0 -44 46 -44t46 44z" />
<glyph unicode="&#xe208;" d="M617 420h-137v-420l-125 -148l-44 44l89 104v420h-158q-68 0 -113 -46q-35 -35 -35 -79q24 24 62 24q42 0 75 -31.5t33 -72.5v-102q0 -40 -42.5 -76.5t-82.5 -36.5q-53 0 -89 31t-36 82v147q0 90 58 153.5t147 63.5h398v-57zM186 102v89q0 44 -47 44q-18 0 -31.5 -13.5 t-13.5 -30.5v-89q0 -44 45 -44q47 0 47 44z" />
<glyph unicode="&#xe209;" horiz-adv-x="727" d="M662 -160q0 -56 -39.5 -90.5t-95.5 -34.5h-47q-75 0 -113 68q-50 -68 -148 -68h-45q-63 0 -109 37q-49 39 -49 100v56q0 70 75 117q65 41 151 41h217q49 0 87 38t38 87v116q0 30 -19 69q-22 44 -49 44h-24q-23 0 -52 -27q-28 -34 -28 -86v-182h-78v170q0 46 -23 82 q-26 43 -69 43h-33q-17 0 -37 -14.5t-20 -30.5q48 0 81 -28t33 -76v-33q0 -50 -36 -81.5t-89 -31.5q-48 0 -86.5 38.5t-38.5 86.5v45q0 77 52 129.5t129 52.5h33q40 0 77.5 -23t59.5 -58q44 81 125 81h35q69 0 104 -47q31 -42 31 -114v-125q0 -78 -57 -129.5t-136 -51.5 h-239q-44 0 -87 -29q-49 -32 -49 -73v-45q0 -32 35.5 -62t67.5 -30h33q34 0 69 40t35 74v56h78v-89q0 -27 26.5 -54t53.5 -27h12q28 0 54 26.5t26 54.5v33q0 42 -23 68l44 47q15 -9 38 -41q19 -36 19 -63v-56zM186 215v68q0 31 -46 31t-46 -31v-68l21 -22q7 -5 26 -11l7 3 l19 9q13 10 19 21z" />
<glyph unicode="&#xe20a;" horiz-adv-x="727" d="M662 146q0 -47 -33.5 -86t-79.5 -39h-33q-40 0 -68 42q-26 39 -26 91q0 25 2 28q-45 -51 -45 -92q0 -47 39 -86t86 -39h125v-57h-92q-26 0 -52 -21.5t-26 -46.5v-24q0 -27 -39 -56q-25 -13 -69 -20q-13 -2 -29 -2h-56q-54 0 -99 29q-50 34 -50 85v68l80 -45l-2 -17 q0 -63 82 -63h22q70 0 92 68q0 52 45 78q-37 10 -74 49q-19 19 -30 47l-7 24l-3 29v23q0 44 39 94q34 43 63 43h56q37 0 42 -1t5 -11v-11q-10 0 -32 -25q-15 -24 -15 -44v-23q0 -11 18 -37q14 -16 29 -20h10q22 0 36 37q11 29 11 55v33q0 102 -77 164q-66 53 -163 53h-57 q-84 0 -143 -46q-50 -39 -50 -79q24 24 61 24q43 0 77 -30.5t34 -73.5v-102q0 -50 -39 -82q-35 -29 -87 -29q-53 0 -88.5 29.5t-35.5 81.5v158q0 81 92 146q84 60 169 60h90q126 0 215 -78q80 -70 80 -172v-81zM186 102v89q0 45 -47 45q-12 0 -32 -12q-13 -13 -13 -33v-89 q0 -44 46 -44t46 44z" />
<glyph unicode="&#xe20b;" horiz-adv-x="727" d="M662 146q0 -47 -33.5 -86t-79.5 -39h-33q-40 0 -68 42q-26 39 -26 91q0 25 2 28q-45 -51 -45 -92q0 -47 39 -86t86 -39h125v-57h-92q-26 0 -52 -21.5t-26 -46.5v-24q0 -27 -39 -56q-25 -13 -69 -20q-13 -2 -29 -2h-56q-58 0 -100 27q-49 32 -49 87v33q0 21 18 38.5 t39 17.5h35q22 0 43 -12q25 -13 25 -33v-44q0 -36 -58 -57l46 -4q106 -9 126 72q0 52 45 78q-37 10 -74 49q-19 19 -30 47l-7 24l-3 29v23q0 44 39 94q34 43 63 43h56q37 0 42 -1t5 -11v-11q-10 0 -32 -25q-15 -24 -15 -44v-23q0 -11 18 -37q14 -16 29 -20h10q22 0 36 37 q11 29 11 55v33q0 102 -77 164q-66 53 -163 53h-57q-84 0 -143 -46q-50 -39 -50 -79q24 24 61 24q43 0 77 -30.5t34 -73.5v-102q0 -50 -39 -82q-35 -29 -87 -29q-53 0 -88.5 29.5t-35.5 81.5v158q0 81 92 146q84 60 169 60h90q126 0 215 -78q80 -70 80 -172v-81zM186 102v89 q0 45 -47 45q-12 0 -32 -12q-13 -13 -13 -33v-89q0 -44 46 -44t46 44zM242 -137q0 32 -34 32t-34 -32t34 -32t34 32z" />
<glyph unicode="&#xe20c;" horiz-adv-x="1519" d="M1487 420h-136v-420h-78v420h-59q-29 0 -47.5 -19.5t-18.5 -48.5v-352h-81v328q0 28 -20 58q-21 34 -48 34h-68q-56 0 -90.5 -40t-34.5 -97q31 31 73 31q39 0 68 -30t29 -69v-102q0 -50 -37.5 -80t-89.5 -30t-86 29q-37 30 -37 81v147q0 82 62 149.5t143 67.5h56 q64 0 112 -57q39 57 105 57h283v-57zM662 146q0 -47 -33.5 -86t-79.5 -39h-33q-40 0 -68 42q-26 39 -26 91q0 25 2 28q-45 -51 -45 -92q0 -47 39 -86t86 -39h125v-57h-92q-26 0 -52 -21.5t-26 -46.5v-24q0 -27 -39 -56q-25 -13 -69 -20q-13 -2 -29 -2h-56q-54 0 -99 29 q-50 34 -50 85v68l80 -45l-2 -17q0 -63 82 -63h22q70 0 92 68q0 52 45 78q-37 10 -74 49q-19 19 -30 47l-7 24l-3 29v23q0 44 39 94q34 43 63 43h56q37 0 42 -1t5 -11v-11q-10 0 -32 -25q-15 -24 -15 -44v-23q0 -11 18 -37q14 -16 29 -20h10q22 0 36 37q11 29 11 55v33 q0 102 -77 164q-66 53 -163 53h-57q-84 0 -143 -46q-50 -39 -50 -79q24 24 61 24q43 0 77 -30.5t34 -73.5v-102q0 -50 -39 -82q-35 -29 -87 -29q-53 0 -88.5 29.5t-35.5 81.5v158q0 81 92 146q84 60 169 60h90q126 0 215 -78q80 -70 80 -172v-81zM898 102v89q0 13 -15 31 l-13 10q-8 6 -19 6q-15 0 -30 -16t-15 -31v-89q0 -44 45 -44q47 0 47 44zM186 102v89q0 45 -47 45q-12 0 -32 -12q-13 -13 -13 -33v-89q0 -44 46 -44t46 44z" />
<glyph unicode="&#xe20d;" horiz-adv-x="865" d="M584 488q0 -47 -45.5 -91.5t-100.5 -44.5h-24q-57 0 -101 39q-47 41 -47 97v22q0 51 48 92q39 33 100 33h24q56 0 99 -34q47 -36 47 -91v-22zM801 135q0 -54 -47 -94.5t-102 -40.5h-23q-56 0 -100 39q-47 41 -47 96v23q0 53 48 91q44 34 99 34h23l29 -1q13 0 25 -7 q22 -6 49 -27q46 -35 46 -90v-23zM334 135q0 -51 -47.5 -93t-98.5 -42h-24q-56 0 -102 39.5t-46 95.5v23q0 52 48 91q42 34 100 34h24q56 0 99 -34q47 -36 47 -91v-23zM500 495q0 35 -20 59t-54 24q-36 0 -57 -24t-21 -61q0 -36 20.5 -60.5t57.5 -24.5q34 0 54 26t20 61z M717 142q0 37 -20 61t-56 24q-31 0 -56 -25q-17 -22 -20 -58q0 -36 20 -60q21 -27 56 -27t55.5 25t20.5 60zM250 143q0 28 -18 58q-21 26 -56 26q-36 0 -57 -24t-21 -61q0 -36 20.5 -60.5t57.5 -24.5q34 0 55 27q19 24 19 59z" />
<glyph unicode="&#xe210;" horiz-adv-x="668" d="M388 669q0 -33 -22.5 -56t-54.5 -23q-34 0 -56.5 23.5t-22.5 55.5q0 35 22 58t57 23q38 0 57.5 -24t19.5 -57zM605 125q0 -53 -42 -92q-48 -45 -109 -40l-36 3l29 61l12 -2q25 0 46.5 26t21.5 54v47q0 56 -68 56h-57v-92q0 -146 -205 -146q-69 0 -121 32q-60 38 -60 103 v92q0 19 18 46l18 16q9 6 20 6h45v182h420v-57h-135v-125h67q136 0 136 -104v-66zM322 295v125h-125v-125h125zM322 135v103h-193q-24 0 -24 -23v-90q0 -20 33 -47q33 -21 71 -21q36 0 72 20q41 24 41 58z" />
<glyph unicode="&#xe211;" horiz-adv-x="675" d="M605 125q0 -53 -42 -92q-48 -45 -109 -40l-36 3l29 61l12 -2q25 0 46.5 26t21.5 54v47q0 56 -68 56h-57v-92q0 -146 -205 -146q-69 0 -121 32q-60 38 -60 103v92q0 19 18 46l18 16q9 6 20 6h45v182h420v-57h-135v-125h67q136 0 136 -104v-66zM322 295v125h-125v-125h125z M322 135v103h-193q-24 0 -24 -23v-90q0 -20 33 -47q33 -21 71 -21q36 0 72 20q41 24 41 58z" />
<glyph unicode="&#xe212;" horiz-adv-x="1086" d="M595 125q0 -53 -42 -92q-48 -45 -109 -40l-36 3l29 61l12 -2q25 0 46.5 26t21.5 54v47q0 56 -68 56h-57v-92q0 -146 -205 -146q-69 0 -121 32q-60 38 -60 103v92q0 19 18 46l18 16q9 6 20 6h45v182h420v-57h-135v-125h67q136 0 136 -104v-66zM312 295v125h-125v-125h125z M312 135v103h-193q-24 0 -24 -23v-90q0 -20 33 -47q33 -21 71 -21q36 0 72 20q41 24 41 58zM1074 420h-137v-420h-78v420h-125v-420h-80v477h420v-57z" />
<glyph unicode="&#xe213;" horiz-adv-x="818" d="M754 0h-78v500q0 63 -30 112q-36 58 -95 58h-47q-42 0 -83.5 -35.5t-41.5 -77.5v-24q0 -33 23 -56h137v-57h-137v-125h69q136 0 136 -104v-66q0 -53 -42 -92q-49 -45 -110 -40l-35 3l27 61l13 -2q27 0 47 26t20 54v47q0 56 -68 56h-57v-92q0 -146 -205 -146 q-69 0 -121 32q-60 38 -60 103v92q0 19 18 46l18 16q9 6 20 6h47v182h203q-21 26 -21 56v24q0 73 66 123q62 47 137 47h59q83 0 139 -74q52 -68 52 -153v-500zM322 295v125h-125v-125h125zM322 135v103h-193q-22 0 -22 -23v-90q0 -18 33 -47q33 -21 69 -21t72 20 q41 24 41 58z" />
<glyph unicode="&#xe214;" horiz-adv-x="668" d="M641 602q0 -26 -26.5 -47.5t-53.5 -21.5h-45q-40 0 -64.5 26t-24.5 66q0 24 9 45q-28 0 -54.5 -26t-26.5 -54v-24q0 -39 36 -89h146v-57h-135v-125h67q136 0 136 -104v-66q0 -53 -42 -92q-48 -45 -109 -40l-36 3l29 61l12 -2q25 0 46.5 26t21.5 54v47q0 56 -68 56h-57 v-92q0 -146 -205 -146q-69 0 -121 32q-60 38 -60 103v92q0 19 18 46l18 16q9 6 20 6h45v182h194q-5 6 -23 44l-8 25l-3 20v36q0 56 53 93q48 32 106 32h62q54 0 93 -19q50 -25 50 -73v-33zM561 625v21q0 33 -34 33q-35 0 -35 -33v-21q0 -35 34 -35q35 0 35 35zM322 295v125 h-125v-125h125zM322 135v103h-193q-24 0 -24 -23v-90q0 -20 33 -47q33 -21 71 -21q36 0 72 20q41 24 41 58z" />
<glyph unicode="&#xe215;" horiz-adv-x="865" d="M801 45q0 -118 -97 -205q-90 -80 -200 -80h-113q-156 0 -265.5 109.5t-109.5 265.5v92q0 171 160 250l21 -45q-50 -31 -81 -106q-14 -32 -18 -57q-2 -13 -2 -31v-103q0 -127 90 -223t216 -96h69q91 0 170.5 70t79.5 159v68q0 125 -80 125h-57v-92q0 -146 -205 -146 q-69 0 -121 32q-61 38 -61 103v92q0 21 18 44.5t39 23.5h47v182h420v-57h-137v-125h68q69 0 109 -45t40 -115v-90zM504 295v125h-125v-125h125zM504 135v103h-191q-24 0 -24 -23v-90q0 -18 33 -47q33 -21 69 -21t72 20q41 24 41 58z" />
<glyph unicode="&#xe216;" horiz-adv-x="1072" d="M1018 0h-375v66q43 37 43 97q0 24 -10 47q-12 28 -33 28q-30 0 -49.5 -19t-19.5 -49v-170h-78v170q0 68 -47 68h-45v-92q0 -146 -205 -146q-69 0 -121 32q-60 38 -60 103v92q0 19 18 46l18 16q9 6 20 6h47v182h420v-57h-137v-125h57q75 0 102 -57q38 55 105 55 q46 0 73 -28t27 -74q0 -63 -69 -134h319v-57zM324 295v125h-125v-125h125zM324 135v103h-193q-22 0 -22 -23v-90q0 -18 33 -47q33 -21 69 -21t72 20q41 24 41 58z" />
<glyph unicode="&#xe217;" horiz-adv-x="1264" d="M629 3h-80v488q0 87 -72 143q-66 51 -155 51q-95 0 -164 -91q-64 -85 -64 -183q0 -131 48 -232q40 -84 112 -119l-16 37l-6 29l-2 23v69q0 46 29.5 79.5t74.5 33.5h33q47 0 80 -33t33 -80v-80q0 -135 -181 -135q-283 0 -283 408q0 143 81 234q84 96 225 96q131 0 213 -58 q94 -66 94 -192v-488zM402 105v125q0 41 -46 41q-45 0 -45 -41v-125q0 -44 45 -44q46 0 46 44zM1265 117q0 -53 -42 -92q-48 -45 -109 -40l-36 3l29 61l12 -2q25 0 46.5 26t21.5 54v47q0 56 -68 56h-57v-92q0 -146 -205 -146q-69 0 -121 32q-60 38 -60 103v92q0 19 18 46 l18 16q9 6 20 6h45v182h420v-57h-135v-125h67q136 0 136 -104v-66zM982 287v125h-125v-125h125zM982 127v103h-193q-24 0 -24 -23v-90q0 -20 33 -47q33 -21 71 -21q36 0 72 20q41 24 41 58z" />
<glyph unicode="&#xe218;" horiz-adv-x="1162" d="M502 135q0 -60 -55 -101q-46 -34 -115 -34h-45q-112 0 -196 117q-77 107 -77 223v80q0 141 94 229.5t236 88.5h45q47 0 80 -35t33 -78v-47q0 -58 -27 -95q-30 -42 -86 -42h-34q-46 0 -74.5 32.5t-28.5 83.5v56q0 46 23 69q-85 -22 -135 -106q-46 -76 -46 -168v-68 q0 -90 53 -178q58 -94 140 -117q-6 6 -22 44l-13 57v69q0 46 29 79.5t74 33.5h34q47 0 80 -33t33 -80v-80zM424 545v90q0 19 -14 30.5t-33 11.5q-45 0 -45 -42v-90q0 -14 15.5 -28t29.5 -17q15 0 29.5 15t17.5 30zM424 102v125q0 41 -47 41q-45 0 -45 -41v-125q0 -44 45 -44 q47 0 47 44zM1145 125q0 -53 -42 -92q-48 -45 -109 -40l-36 3l29 61l12 -2q25 0 46.5 26t21.5 54v47q0 56 -68 56h-57v-92q0 -146 -205 -146q-69 0 -121 32q-60 38 -60 103v92q0 19 18 46l18 16q9 6 20 6h45v182h420v-57h-135v-125h67q136 0 136 -104v-66zM862 295v125h-125 v-125h125zM862 135v103h-193q-24 0 -24 -23v-90q0 -20 33 -47q33 -21 71 -21q36 0 72 20q41 24 41 58z" />
<glyph unicode="&#xe219;" horiz-adv-x="1456" d="M789 191q0 -28 -7 -62q-5 -21 -22 -55q-28 -55 -72 -74q-19 0 -39 13.5t-20 31.5q33 22 56.5 61t23.5 76v89q0 39 -31 92q-35 57 -71 57h-11q-45 0 -69 -12q16 -16 41 -63l12 -38l4 -36v-158q0 -53 -39 -84q-35 -28 -87 -28q-54 0 -89 29.5t-35 82.5v158q0 69 68 137 q-23 12 -80 12h-90q-52 0 -94 -36.5t-42 -88.5q24 24 62 24q42 0 75 -31.5t33 -72.5v-102q0 -38 -43.5 -75.5t-81.5 -37.5q-53 0 -89 31t-36 82v147q0 80 62.5 148.5t142.5 68.5h125l26 -3l16 -4l21 -7q34 -11 50 -22l40 23l40 13h33q217 0 217 -217v-69zM504 102v181 q0 42 -44 42q-46 0 -46 -42v-181q0 -18 13.5 -30.5t31.5 -12.5q45 0 45 43zM188 102v89q0 44 -47 44q-18 0 -31.5 -13.5t-13.5 -30.5v-89q0 -15 16 -31q10 -8 29 -14q14 0 30.5 15.5t16.5 29.5zM1445 125q0 -53 -42 -92q-48 -45 -109 -40l-36 3l29 61l12 -2q25 0 46.5 26 t21.5 54v47q0 56 -68 56h-57v-92q0 -146 -205 -146q-69 0 -121 32q-60 38 -60 103v92q0 19 18 46l18 16q9 6 20 6h45v182h420v-57h-135v-125h67q136 0 136 -104v-66zM1162 295v125h-125v-125h125zM1162 135v103h-193q-24 0 -24 -23v-90q0 -20 33 -47q33 -21 71 -21 q36 0 72 20q41 24 41 58z" />
<glyph unicode="&#xe21a;" horiz-adv-x="1775" d="M629 3h-80v488q0 87 -72 143q-66 51 -155 51q-95 0 -164 -91q-64 -85 -64 -183q0 -131 48 -232q40 -84 112 -119l-16 37l-6 29l-2 23v69q0 46 29.5 79.5t74.5 33.5h33q47 0 80 -33t33 -80v-80q0 -135 -181 -135q-283 0 -283 408q0 143 81 234q84 96 225 96q131 0 213 -58 q94 -66 94 -192v-488zM402 105v125q0 41 -46 41q-45 0 -45 -41v-125q0 -44 45 -44q46 0 46 44zM1275 117q0 -53 -42 -92q-48 -45 -109 -40l-36 3l29 61l12 -2q25 0 46.5 26t21.5 54v47q0 56 -68 56h-57v-92q0 -146 -205 -146q-69 0 -121 32q-60 38 -60 103v92q0 19 18 46 l18 16q9 6 20 6h45v182h420v-57h-135v-125h67q136 0 136 -104v-66zM992 287v125h-125v-125h125zM992 127v103h-193q-24 0 -24 -23v-90q0 -20 33 -47q33 -21 71 -21q36 0 72 20q41 24 41 58zM1744 420h-137v-420h-78v420h-125v-420h-80v477h420v-57z" />
<glyph unicode="&#xe21b;" horiz-adv-x="1617" d="M502 135q0 -60 -55 -101q-46 -34 -115 -34h-45q-112 0 -196 117q-77 107 -77 223v80q0 141 94 229.5t236 88.5h45q47 0 80 -35t33 -78v-47q0 -58 -27 -95q-30 -42 -86 -42h-34q-46 0 -74.5 32.5t-28.5 83.5v56q0 46 23 69q-85 -22 -135 -106q-46 -76 -46 -168v-68 q0 -90 53 -178q58 -94 140 -117q-6 6 -22 44l-13 57v69q0 46 29 79.5t74 33.5h34q47 0 80 -33t33 -80v-80zM424 545v90q0 19 -14 30.5t-33 11.5q-45 0 -45 -42v-90q0 -14 15.5 -28t29.5 -17q15 0 29.5 15t17.5 30zM424 102v125q0 41 -47 41q-45 0 -45 -41v-125q0 -44 45 -44 q47 0 47 44zM1145 125q0 -53 -42 -92q-48 -45 -109 -40l-36 3l29 61l12 -2q25 0 46.5 26t21.5 54v47q0 56 -68 56h-57v-92q0 -146 -205 -146q-69 0 -121 32q-60 38 -60 103v92q0 19 18 46l18 16q9 6 20 6h45v182h420v-57h-135v-125h67q136 0 136 -104v-66zM862 295v125h-125 v-125h125zM862 135v103h-193q-24 0 -24 -23v-90q0 -20 33 -47q33 -21 71 -21q36 0 72 20q41 24 41 58zM1604 420h-137v-420h-78v420h-125v-420h-80v477h420v-57z" />
<glyph unicode="&#xe21c;" horiz-adv-x="2092" d="M629 3h-80v488q0 87 -72 143q-66 51 -155 51q-95 0 -164 -91q-64 -85 -64 -183q0 -131 48 -232q40 -84 112 -119l-16 37l-6 29l-2 23v69q0 46 29.5 79.5t74.5 33.5h33q47 0 80 -33t33 -80v-80q0 -135 -181 -135q-283 0 -283 408q0 143 81 234q84 96 225 96q131 0 213 -58 q94 -66 94 -192v-488zM402 105v125q0 41 -46 41q-45 0 -45 -41v-125q0 -44 45 -44q46 0 46 44zM1275 117q0 -53 -42 -92q-48 -45 -109 -40l-36 3l29 61l12 -2q25 0 46.5 26t21.5 54v47q0 56 -68 56h-57v-92q0 -146 -205 -146q-69 0 -121 32q-60 38 -60 103v92q0 19 18 46 l18 16q9 6 20 6h45v182h420v-57h-135v-125h67q136 0 136 -104v-66zM992 287v125h-125v-125h125zM992 127v103h-193q-24 0 -24 -23v-90q0 -20 33 -47q33 -21 71 -21q36 0 72 20q41 24 41 58zM2092 420h-136v-420h-78v420h-59q-29 0 -47.5 -19.5t-18.5 -48.5v-352h-81v328 q0 28 -20 58q-21 34 -48 34h-68q-56 0 -90.5 -40t-34.5 -97q31 31 73 31q39 0 68 -30t29 -69v-102q0 -50 -37.5 -80t-89.5 -30t-86 29q-37 30 -37 81v147q0 82 62 149.5t143 67.5h56q64 0 112 -57q39 57 105 57h283v-57zM1503 102v89q0 13 -15 31l-13 10q-8 6 -19 6 q-15 0 -30 -16t-15 -31v-89q0 -44 45 -44q47 0 47 44z" />
<glyph unicode="&#xe220;" horiz-adv-x="760" d="M436 670q0 -31 -24 -58q-24 -21 -56 -21q-31 0 -55 20t-24 59q0 34 22.5 55.5t56.5 21.5q33 0 56.5 -22.5t23.5 -54.5zM697 0h-500v57h147q80 29 80 146q0 29 -16 52q-17 27 -45 27q-41 0 -64 -44v-103h-80v285h-125v-420h-78v477h408v-57h-125v-113q36 33 103 33 q48 0 77 -46q25 -40 25 -91q0 -98 -57 -146h170v420h80v-477z" />
<glyph unicode="&#xe221;" horiz-adv-x="760" d="M697 0h-500v57h147q80 29 80 146q0 29 -16 52q-17 27 -45 27q-41 0 -64 -44v-103h-80v285h-125v-420h-78v477h408v-57h-125v-113q36 33 103 33q48 0 77 -46q25 -40 25 -91q0 -98 -57 -146h170v420h80v-477z" />
<glyph unicode="&#xe222;" horiz-adv-x="1148" d="M685 0h-500v57h147q80 29 80 146q0 29 -16 52q-17 27 -45 27q-41 0 -64 -44v-103h-80v285h-125v-420h-78v477h408v-57h-125v-113q36 33 103 33q48 0 77 -46q25 -40 25 -91q0 -98 -57 -146h170v420h80v-477zM1138 420h-137v-420h-78v420h-125v-420h-80v477h420v-57z" />
<glyph unicode="&#xe223;" horiz-adv-x="957" d="M893 0h-80v533q0 55 -35 100q-37 49 -90 49q-56 0 -90.5 -34.5t-34.5 -90.5v-80q0 -92 56 -92v92h80v-477h-500v57h147q80 29 80 146q0 29 -16 52q-17 27 -45 27q-41 0 -64 -44v-103h-80v285h-125v-420h-78v477h408v-57h-125v-113q36 33 103 33q48 0 77 -46 q25 -40 25 -91q0 -98 -57 -146h170v271q-51 0 -94 45t-43 115v90q0 74 62 119q56 41 132 41q100 0 158.5 -53t58.5 -152v-533z" />
<glyph unicode="&#xe224;" horiz-adv-x="760" d="M801 635q0 -50 -31 -76t-82 -26q-92 0 -92 92q-33 -15 -33 -68v-69q0 -103 56 -103v92h78v-477h-500v57h149q80 30 80 146q0 29 -17 54t-45 25q-42 0 -63 -44v-103h-80v285h-125v-420h-80v477h410v-57h-125v-113q33 33 101 33q48 0 77 -46q25 -40 25 -91q0 -99 -57 -146 h172v271q-58 0 -99 52q-38 49 -38 108v90q0 58 50 106q56 54 144 54q125 0 125 -103zM730 634q0 19 -12 33.5t-30 14.5q-35 0 -35 -47q0 -45 35 -45q42 0 42 44z" />
<glyph unicode="&#xe225;" horiz-adv-x="760" d="M697 -184h-80v184h-420v57h147q80 29 80 146q0 29 -16 52q-17 27 -45 27q-41 0 -64 -44v-103h-80v285h-125v-420h-78v477h408v-57h-125v-113q36 33 103 33q48 0 77 -46q25 -40 25 -91q0 -98 -57 -146h170v420h80v-661z" />
<glyph unicode="&#xe226;" horiz-adv-x="910" d="M697 -115h-78v115h-422v57h149q80 30 80 146q0 29 -17 54t-45 25q-42 0 -63 -44v-103h-80v285h-125v-420h-80v477h410v-57h-125v-113q33 33 101 33q48 0 77 -46q25 -40 25 -91q0 -99 -57 -146h172v420h78v-592zM869 -68q0 -121 -93 -190q-81 -60 -237 -60h-217 q-120 0 -207 26q-133 40 -133 132q0 41 54 76q52 25 105 25h125v-56h-102q-38 0 -73 -15q-28 -16 -28 -42q0 -41 98 -63q67 -15 128 -15h250q95 0 162 32q88 42 88 126v57q0 7 -1 14t-10 27q-12 27 -34 27q-33 0 -47 -23v47q18 33 57 33h12q51 0 79 -45q24 -38 24 -92v-21z " />
<glyph unicode="&#xe227;" horiz-adv-x="1380" d="M629 0h-80v488q0 87 -72 143q-66 51 -155 51q-95 0 -164 -91q-64 -85 -64 -183q0 -131 48 -232q40 -84 112 -119l-16 37l-6 29l-2 23v69q0 46 29.5 79.5t74.5 33.5h33q47 0 80 -33t33 -80v-80q0 -135 -181 -135q-283 0 -283 408q0 143 81 234q84 96 225 96q131 0 213 -58 q94 -66 94 -192v-488zM402 102v125q0 41 -46 41q-45 0 -45 -41v-125q0 -44 45 -44q46 0 46 44zM1351 0h-500v57h147q80 29 80 146q0 29 -16 52q-17 27 -45 27q-41 0 -64 -44v-103h-80v285h-125v-420h-78v477h408v-57h-125v-113q36 33 103 33q48 0 77 -46q25 -40 25 -91 q0 -98 -57 -146h170v420h80v-477z" />
<glyph unicode="&#xe228;" horiz-adv-x="1242" d="M502 135q0 -60 -55 -101q-46 -34 -115 -34h-45q-112 0 -196 117q-77 107 -77 223v80q0 141 94 229.5t236 88.5h45q47 0 80 -35t33 -78v-47q0 -58 -27 -95q-30 -42 -86 -42h-34q-46 0 -74.5 32.5t-28.5 83.5v56q0 46 23 69q-85 -22 -135 -106q-46 -76 -46 -168v-68 q0 -90 53 -178q58 -94 140 -117q-6 6 -22 44l-13 57v69q0 46 29 79.5t74 33.5h34q47 0 80 -33t33 -80v-80zM424 545v90q0 19 -14 30.5t-33 11.5q-45 0 -45 -42v-90q0 -14 15.5 -28t29.5 -17q15 0 29.5 15t17.5 30zM424 102v125q0 41 -47 41q-45 0 -45 -41v-125q0 -44 45 -44 q47 0 47 44zM1237 5h-500v57h147q80 29 80 146q0 29 -16 52q-17 27 -45 27q-41 0 -64 -44v-103h-80v285h-125v-420h-78v477h408v-57h-125v-113q36 33 103 33q48 0 77 -46q25 -40 25 -91q0 -98 -57 -146h170v420h80v-477z" />
<glyph unicode="&#xe229;" horiz-adv-x="1545" d="M789 191q0 -28 -7 -62q-5 -21 -22 -55q-28 -55 -72 -74q-19 0 -39 13.5t-20 31.5q33 22 56.5 61t23.5 76v89q0 39 -31 92q-35 57 -71 57h-11q-45 0 -69 -12q16 -16 41 -63l12 -38l4 -36v-158q0 -53 -39 -84q-35 -28 -87 -28q-54 0 -89 29.5t-35 82.5v158q0 69 68 137 q-23 12 -80 12h-90q-52 0 -94 -36.5t-42 -88.5q24 24 62 24q42 0 75 -31.5t33 -72.5v-102q0 -38 -43.5 -75.5t-81.5 -37.5q-53 0 -89 31t-36 82v147q0 80 62.5 148.5t142.5 68.5h125l26 -3l16 -4l21 -7q34 -11 50 -22l40 23l40 13h33q217 0 217 -217v-69zM504 102v181 q0 42 -44 42q-46 0 -46 -42v-181q0 -18 13.5 -30.5t31.5 -12.5q45 0 45 43zM188 102v89q0 44 -47 44q-18 0 -31.5 -13.5t-13.5 -30.5v-89q0 -15 16 -31q10 -8 29 -14q14 0 30.5 15.5t16.5 29.5zM1527 0h-500v57h147q80 29 80 146q0 29 -16 52q-17 27 -45 27q-41 0 -64 -44 v-103h-80v285h-125v-420h-78v477h408v-57h-125v-113q36 33 103 33q48 0 77 -46q25 -40 25 -91q0 -98 -57 -146h170v420h80v-477z" />
<glyph unicode="&#xe22a;" horiz-adv-x="1877" d="M629 0h-80v488q0 87 -72 143q-66 51 -155 51q-95 0 -164 -91q-64 -85 -64 -183q0 -131 48 -232q40 -84 112 -119l-16 37l-6 29l-2 23v69q0 46 29.5 79.5t74.5 33.5h33q47 0 80 -33t33 -80v-80q0 -135 -181 -135q-283 0 -283 408q0 143 81 234q84 96 225 96q131 0 213 -58 q94 -66 94 -192v-488zM402 102v125q0 41 -46 41q-45 0 -45 -41v-125q0 -44 45 -44q46 0 46 44zM1372 0h-500v57h147q80 29 80 146q0 29 -16 52q-17 27 -45 27q-41 0 -64 -44v-103h-80v285h-125v-420h-78v477h408v-57h-125v-113q36 33 103 33q48 0 77 -46q25 -40 25 -91 q0 -98 -57 -146h170v420h80v-477zM1854 420h-137v-420h-78v420h-125v-420h-80v477h420v-57z" />
<glyph unicode="&#xe22b;" horiz-adv-x="1707" d="M502 135q0 -60 -55 -101q-46 -34 -115 -34h-45q-112 0 -196 117q-77 107 -77 223v80q0 141 94 229.5t236 88.5h45q47 0 80 -35t33 -78v-47q0 -58 -27 -95q-30 -42 -86 -42h-34q-46 0 -74.5 32.5t-28.5 83.5v56q0 46 23 69q-85 -22 -135 -106q-46 -76 -46 -168v-68 q0 -90 53 -178q58 -94 140 -117q-6 6 -22 44l-13 57v69q0 46 29 79.5t74 33.5h34q47 0 80 -33t33 -80v-80zM424 545v90q0 19 -14 30.5t-33 11.5q-45 0 -45 -42v-90q0 -14 15.5 -28t29.5 -17q15 0 29.5 15t17.5 30zM424 102v125q0 41 -47 41q-45 0 -45 -41v-125q0 -44 45 -44 q47 0 47 44zM1227 0h-500v57h147q80 29 80 146q0 29 -16 52q-17 27 -45 27q-41 0 -64 -44v-103h-80v285h-125v-420h-78v477h408v-57h-125v-113q36 33 103 33q48 0 77 -46q25 -40 25 -91q0 -98 -57 -146h170v420h80v-477zM1690 417h-137v-420h-78v420h-125v-420h-80v477h420 v-57z" />
<glyph unicode="&#xe22c;" horiz-adv-x="2192" d="M629 0h-80v488q0 87 -72 143q-66 51 -155 51q-95 0 -164 -91q-64 -85 -64 -183q0 -131 48 -232q40 -84 112 -119l-16 37l-6 29l-2 23v69q0 46 29.5 79.5t74.5 33.5h33q47 0 80 -33t33 -80v-80q0 -135 -181 -135q-283 0 -283 408q0 143 81 234q84 96 225 96q131 0 213 -58 q94 -66 94 -192v-488zM402 102v125q0 41 -46 41q-45 0 -45 -41v-125q0 -44 45 -44q46 0 46 44zM1371 0h-500v57h147q80 29 80 146q0 29 -16 52q-17 27 -45 27q-41 0 -64 -44v-103h-80v285h-125v-420h-78v477h408v-57h-125v-113q36 33 103 33q48 0 77 -46q25 -40 25 -91 q0 -98 -57 -146h170v420h80v-477zM2187 420h-136v-420h-78v420h-59q-29 0 -47.5 -19.5t-18.5 -48.5v-352h-81v328q0 28 -20 58q-21 34 -48 34h-68q-56 0 -90.5 -40t-34.5 -97q31 31 73 31q39 0 68 -30t29 -69v-102q0 -50 -37.5 -80t-89.5 -30t-86 29q-37 30 -37 81v147 q0 82 62 149.5t143 67.5h56q64 0 112 -57q39 57 105 57h283v-57zM1598 102v89q0 13 -15 31l-13 10q-8 6 -19 6q-15 0 -30 -16t-15 -31v-89q0 -44 45 -44q47 0 47 44z" />
<glyph unicode="&#xe230;" horiz-adv-x="576" d="M352 669q0 -33 -22.5 -56t-54.5 -23q-36 0 -57 24t-21 55q0 36 21 58.5t57 22.5q38 0 57.5 -24t19.5 -57zM537 420h-137v-125h125v-57h-125v-92q0 -146 -205 -146q-69 0 -121 32q-60 38 -60 103v92q0 19 18 46l18 16q9 6 20 6h47v182h420v-57zM320 295v125h-125v-125h125 zM320 135v103h-193q-22 0 -22 -23v-90q0 -18 33 -47q33 -21 69 -21t72 20q41 24 41 58z" />
<glyph unicode="&#xe231;" horiz-adv-x="576" d="M537 420h-137v-125h125v-57h-125v-92q0 -146 -205 -146q-69 0 -121 32q-60 38 -60 103v92q0 19 18 46l18 16q9 6 20 6h47v182h420v-57zM320 295v125h-125v-125h125zM320 135v103h-193q-22 0 -22 -23v-90q0 -18 33 -47q33 -21 69 -21t72 20q41 24 41 58z" />
<glyph unicode="&#xe232;" horiz-adv-x="1008" d="M527 420h-137v-125h125v-57h-125v-92q0 -146 -205 -146q-69 0 -121 32q-60 38 -60 103v92q0 19 18 46l18 16q9 6 20 6h47v182h420v-57zM310 295v125h-125v-125h125zM310 135v103h-193q-22 0 -22 -23v-90q0 -18 33 -47q33 -21 69 -21t72 20q41 24 41 58zM994 420h-137 v-420h-78v420h-125v-420h-80v477h420v-57z" />
<glyph unicode="&#xe233;" horiz-adv-x="762" d="M697 0h-78v500q0 170 -103 170h-34q-44 0 -73.5 -34t-29.5 -79v-24q0 -33 23 -56h137v-57h-137v-125h125v-57h-125v-92q0 -146 -205 -146q-69 0 -121 32q-60 38 -60 103v92q0 19 18 46l18 16q9 6 20 6h47v182h203q-21 26 -21 56v24q0 77 51.5 123.5t129.5 46.5h34 q87 0 137 -72q44 -64 44 -155v-500zM322 295v125h-125v-125h125zM322 135v103h-193q-22 0 -22 -23v-90q0 -18 33 -47q33 -21 69 -21t72 20q41 24 41 58z" />
<glyph unicode="&#xe234;" horiz-adv-x="587" d="M631 602q0 -18 -21 -47q-22 -22 -49 -22h-45q-40 0 -64.5 26t-24.5 66q0 24 9 45q-28 0 -54.5 -26t-26.5 -54v-24q0 -39 36 -89h146v-57h-135v-125h125v-57h-125v-92q0 -146 -205 -146q-69 0 -121 32q-60 38 -60 103v92q0 19 18 46l18 16q9 6 20 6h45v182h194 q-5 6 -23 44l-8 25l-3 20v36q0 56 53 93q48 32 106 32h62q133 0 133 -92v-33zM561 625v21q0 33 -34 33q-35 0 -35 -33v-21q0 -35 34 -35q35 0 35 35zM322 295v125h-125v-125h125zM322 135v103h-193q-24 0 -24 -23v-90q0 -20 33 -47q33 -21 71 -21q36 0 72 20q41 24 41 58z " />
<glyph unicode="&#xe235;" d="M594 238h-33v-238h-81v238h-80v-92q0 -146 -205 -146q-69 0 -121 32q-60 38 -60 103v92q0 19 18 46l18 16q9 6 20 6h47v182h420v-57h-137v-125h194v-57zM320 295v125h-125v-125h125zM320 135v103h-193q-22 0 -22 -23v-90q0 -18 33 -47q33 -21 69 -21t72 20q41 24 41 58z " />
<glyph unicode="&#xe236;" horiz-adv-x="1016" d="M974 57q0 -138 -98 -224q-108 -95 -310 -95q-242 0 -360 101q-62 53 -95 111q-21 37 -59 138l-15 70l-7 77v33q0 143 41 205q47 90 119 90h45q13 0 25 -8q26 -13 45 -47l10 -35v-35q0 -48 -31 -79l-34 -26q-19 -8 -39 -8h-63q-13 0 -16 2l-13 3l-9 7l-14 -121 q-3 -28 13 -84q15 -51 31 -80l54 -96q14 -26 52 -60q110 -101 320 -101q169 0 259 87q71 68 71 175q0 53 -43 53q-23 0 -49 -20v-90h-80v238h-78v-92q0 -146 -205 -146q-69 0 -121 32q-61 38 -61 103v92q0 21 18 44.5t39 23.5h45v182h420v-57h-135v-125h193v-57h-35v-92 q39 27 78 27q44 0 70 -37q22 -33 22 -79zM566 295v125h-125v-125h125zM235 417v56q0 15 -14 23l-16 7l-17 2q-16 0 -18 -2l-14 -6q-13 -6 -13 -24v-56l3 -15l10 -11l15 -7l17 -2q13 0 17 2l15 7q6 3 11 11zM566 135v103h-193q-24 0 -24 -23v-90q0 -20 33 -47q33 -21 71 -21 q36 0 72 20q41 24 41 58z" />
<glyph unicode="&#xe237;" horiz-adv-x="1209" d="M629 0h-80v488q0 87 -72 143q-66 51 -155 51q-95 0 -164 -91q-64 -85 -64 -183q0 -131 48 -232q40 -84 112 -119l-16 37l-6 29l-2 23v69q0 46 29.5 79.5t74.5 33.5h33q47 0 80 -33t33 -80v-80q0 -135 -181 -135q-283 0 -283 408q0 143 81 234q84 96 225 96q131 0 213 -58 q94 -66 94 -192v-488zM402 102v125q0 41 -46 41q-45 0 -45 -41v-125q0 -44 45 -44q46 0 46 44zM1197 423h-137v-125h125v-57h-125v-92q0 -146 -205 -146q-69 0 -121 32q-60 38 -60 103v92q0 19 18 46l18 16q9 6 20 6h47v182h420v-57zM980 298v125h-125v-125h125zM980 138 v103h-193q-22 0 -22 -23v-90q0 -18 33 -47q33 -21 69 -21t72 20q41 24 41 58z" />
<glyph unicode="&#xe238;" horiz-adv-x="1099" d="M502 135q0 -60 -55 -101q-46 -34 -115 -34h-45q-112 0 -196 117q-77 107 -77 223v80q0 141 94 229.5t236 88.5h45q47 0 80 -35t33 -78v-47q0 -58 -27 -95q-30 -42 -86 -42h-34q-46 0 -74.5 32.5t-28.5 83.5v56q0 46 23 69q-85 -22 -135 -106q-46 -76 -46 -168v-68 q0 -90 53 -178q58 -94 140 -117q-6 6 -22 44l-13 57v69q0 46 29 79.5t74 33.5h34q47 0 80 -33t33 -80v-80zM424 545v90q0 19 -14 30.5t-33 11.5q-45 0 -45 -42v-90q0 -14 15.5 -28t29.5 -17q15 0 29.5 15t17.5 30zM424 102v125q0 41 -47 41q-45 0 -45 -41v-125q0 -44 45 -44 q47 0 47 44zM1077 420h-137v-125h125v-57h-125v-92q0 -146 -205 -146q-69 0 -121 32q-60 38 -60 103v92q0 19 18 46l18 16q9 6 20 6h47v182h420v-57zM860 295v125h-125v-125h125zM860 135v103h-193q-22 0 -22 -23v-90q0 -18 33 -47q33 -21 69 -21t72 20q41 24 41 58z" />
<glyph unicode="&#xe239;" horiz-adv-x="1373" d="M789 191q0 -28 -7 -62q-5 -21 -22 -55q-28 -55 -72 -74q-19 0 -39 13.5t-20 31.5q33 22 56.5 61t23.5 76v89q0 39 -31 92q-35 57 -71 57h-11q-45 0 -69 -12q16 -16 41 -63l12 -38l4 -36v-158q0 -53 -39 -84q-35 -28 -87 -28q-54 0 -89 29.5t-35 82.5v158q0 69 68 137 q-23 12 -80 12h-90q-52 0 -94 -36.5t-42 -88.5q24 24 62 24q42 0 75 -31.5t33 -72.5v-102q0 -38 -43.5 -75.5t-81.5 -37.5q-53 0 -89 31t-36 82v147q0 80 62.5 148.5t142.5 68.5h125l26 -3l16 -4l21 -7q34 -11 50 -22l40 23l40 13h33q217 0 217 -217v-69zM504 102v181 q0 42 -44 42q-46 0 -46 -42v-181q0 -18 13.5 -30.5t31.5 -12.5q45 0 45 43zM188 102v89q0 44 -47 44q-18 0 -31.5 -13.5t-13.5 -30.5v-89q0 -15 16 -31q10 -8 29 -14q14 0 30.5 15.5t16.5 29.5zM1357 420h-137v-125h125v-57h-125v-92q0 -146 -205 -146q-69 0 -121 32 q-60 38 -60 103v92q0 19 18 46l18 16q9 6 20 6h47v182h420v-57zM1140 295v125h-125v-125h125zM1140 135v103h-193q-22 0 -22 -23v-90q0 -18 33 -47q33 -21 69 -21t72 20q41 24 41 58z" />
<glyph unicode="&#xe23a;" horiz-adv-x="1699" d="M629 0h-80v488q0 87 -72 143q-66 51 -155 51q-95 0 -164 -91q-64 -85 -64 -183q0 -131 48 -232q40 -84 112 -119l-16 37l-6 29l-2 23v69q0 46 29.5 79.5t74.5 33.5h33q47 0 80 -33t33 -80v-80q0 -135 -181 -135q-283 0 -283 408q0 143 81 234q84 96 225 96q131 0 213 -58 q94 -66 94 -192v-488zM402 102v125q0 41 -46 41q-45 0 -45 -41v-125q0 -44 45 -44q46 0 46 44zM1207 420h-137v-125h125v-57h-125v-92q0 -146 -205 -146q-69 0 -121 32q-60 38 -60 103v92q0 19 18 46l18 16q9 6 20 6h47v182h420v-57zM990 295v125h-125v-125h125zM990 135 v103h-193q-22 0 -22 -23v-90q0 -18 33 -47q33 -21 69 -21t72 20q41 24 41 58zM1684 420h-137v-420h-78v420h-125v-420h-80v477h420v-57z" />
<glyph unicode="&#xe23b;" horiz-adv-x="1559" d="M502 135q0 -60 -55 -101q-46 -34 -115 -34h-45q-112 0 -196 117q-77 107 -77 223v80q0 141 94 229.5t236 88.5h45q47 0 80 -35t33 -78v-47q0 -58 -27 -95q-30 -42 -86 -42h-34q-46 0 -74.5 32.5t-28.5 83.5v56q0 46 23 69q-85 -22 -135 -106q-46 -76 -46 -168v-68 q0 -90 53 -178q58 -94 140 -117q-6 6 -22 44l-13 57v69q0 46 29 79.5t74 33.5h34q47 0 80 -33t33 -80v-80zM424 545v90q0 19 -14 30.5t-33 11.5q-45 0 -45 -42v-90q0 -14 15.5 -28t29.5 -17q15 0 29.5 15t17.5 30zM424 102v125q0 41 -47 41q-45 0 -45 -41v-125q0 -44 45 -44 q47 0 47 44zM1067 420h-137v-125h125v-57h-125v-92q0 -146 -205 -146q-69 0 -121 32q-60 38 -60 103v92q0 19 18 46l18 16q9 6 20 6h47v182h420v-57zM850 295v125h-125v-125h125zM850 135v103h-193q-22 0 -22 -23v-90q0 -18 33 -47q33 -21 69 -21t72 20q41 24 41 58z M1544 420h-137v-420h-78v420h-125v-420h-80v477h420v-57z" />
<glyph unicode="&#xe23c;" horiz-adv-x="2048" d="M629 0h-80v488q0 87 -72 143q-66 51 -155 51q-95 0 -164 -91q-64 -85 -64 -183q0 -131 48 -232q40 -84 112 -119l-16 37l-6 29l-2 23v69q0 46 29.5 79.5t74.5 33.5h33q47 0 80 -33t33 -80v-80q0 -135 -181 -135q-283 0 -283 408q0 143 81 234q84 96 225 96q131 0 213 -58 q94 -66 94 -192v-488zM402 102v125q0 41 -46 41q-45 0 -45 -41v-125q0 -44 45 -44q46 0 46 44zM1217 420h-137v-125h125v-57h-125v-92q0 -146 -205 -146q-69 0 -121 32q-60 38 -60 103v92q0 19 18 46l18 16q9 6 20 6h47v182h420v-57zM1000 295v125h-125v-125h125zM1000 135 v103h-193q-22 0 -22 -23v-90q0 -18 33 -47q33 -21 69 -21t72 20q41 24 41 58zM2037 420h-136v-420h-78v420h-59q-29 0 -47.5 -19.5t-18.5 -48.5v-352h-81v328q0 28 -20 58q-21 34 -48 34h-68q-56 0 -90.5 -40t-34.5 -97q31 31 73 31q39 0 68 -30t29 -69v-102 q0 -50 -37.5 -80t-89.5 -30t-86 29q-37 30 -37 81v147q0 82 62 149.5t143 67.5h56q64 0 112 -57q39 57 105 57h283v-57zM1448 102v89q0 13 -15 31l-13 10q-8 6 -19 6q-15 0 -30 -16t-15 -31v-89q0 -44 45 -44q47 0 47 44z" />
<glyph unicode="&#xe240;" horiz-adv-x="922" d="M521 670q0 -34 -23.5 -56.5t-57.5 -22.5l-31 3q-13 3 -24 17q-25 22 -25 59q0 38 24 57.5t56 19.5q35 0 58 -21t23 -56zM860 102q0 -182 -122 -272q-108 -80 -297 -80q-176 0 -300 125q-56 56 -89 119q-22 42 -29 96q-1 10 -2 35l-1 39q-3 134 90 277l36 -45 q-71 -128 -71 -239q0 -140 116 -241q101 -88 250 -109q77 0 161 28q122 41 164 138q18 43 18 115v46l-2 12q0 24 -21 42t-45 18q-23 0 -49 -24v-182h-78v420h-182q-48 0 -86.5 -38.5t-38.5 -86.5q28 25 60 25q43 0 76.5 -31.5t33.5 -73.5v-102q0 -50 -39 -82 q-35 -29 -87 -29q-53 0 -88.5 29.5t-35.5 81.5v147q0 86 59.5 151.5t145.5 65.5h397v-57h-137v-160q33 15 61 15q60 0 98 -59q34 -51 34 -114zM372 102v89q0 21 -13 32.5t-33 11.5q-44 0 -44 -44v-89q0 -18 14 -32q11 -8 31 -13q18 0 31.5 13.5t13.5 31.5z" />
<glyph unicode="&#xe241;" horiz-adv-x="922" d="M860 102q0 -182 -122 -272q-108 -80 -297 -80q-176 0 -300 125q-56 56 -89 119q-22 42 -29 96q-1 10 -2 35l-1 39q-3 134 90 277l36 -45q-71 -128 -71 -239q0 -140 116 -241q101 -88 250 -109q77 0 161 28q122 41 164 138q18 43 18 115v46l-2 12q0 24 -21 42t-45 18 q-23 0 -49 -24v-182h-78v420h-182q-48 0 -86.5 -38.5t-38.5 -86.5q28 25 60 25q43 0 76.5 -31.5t33.5 -73.5v-102q0 -50 -39 -82q-35 -29 -87 -29q-53 0 -88.5 29.5t-35.5 81.5v147q0 86 59.5 151.5t145.5 65.5h397v-57h-137v-160q33 15 61 15q60 0 98 -59q34 -51 34 -114z M372 102v89q0 18 -13.5 32.5t-31.5 14.5q-15 0 -30 -16t-15 -31v-89q0 -44 45 -44t45 44z" />
<glyph unicode="&#xe242;" horiz-adv-x="1343" d="M860 102q0 -182 -122 -272q-108 -80 -297 -80q-176 0 -300 125q-56 56 -89 119q-22 42 -29 96q-1 10 -2 35l-1 39q-3 134 90 277l36 -45q-71 -128 -71 -239q0 -140 116 -241q101 -88 250 -109q77 0 161 28q122 41 164 138q18 43 18 115v46l-2 12q0 24 -21 42t-45 18 q-23 0 -49 -24v-182h-78v420h-182q-48 0 -86.5 -38.5t-38.5 -86.5q28 25 60 25q43 0 76.5 -31.5t33.5 -73.5v-102q0 -50 -39 -82q-35 -29 -87 -29q-53 0 -88.5 29.5t-35.5 81.5v147q0 86 59.5 151.5t145.5 65.5h397v-57h-137v-160q33 15 61 15q60 0 98 -59q34 -51 34 -114z M372 102v89q0 18 -13.5 32.5t-31.5 14.5q-15 0 -30 -16t-15 -31v-89q0 -44 45 -44t45 44zM1337 420h-137v-420h-78v420h-125v-420h-80v477h420v-57z" />
<glyph unicode="&#xe243;" horiz-adv-x="1084" d="M1022 0h-80v500q0 63 -30 112q-36 58 -95 58h-45q-42 0 -83.5 -35.5t-41.5 -77.5v-24q0 -33 23 -56h137v-57h-137v-160q33 15 61 15q60 0 98 -59q34 -51 34 -114q0 -183 -123 -273q-108 -79 -298 -79q-176 0 -300 125q-56 56 -89 119q-22 42 -29 96q-1 10 -2 35l-1 37 q-4 137 92 279l34 -45q-71 -134 -71 -240q0 -26 2 -31q15 -130 131 -224q97 -78 233 -94q75 0 161 28q122 40 166 137q20 47 17 112l-3 62q-1 25 -20.5 42.5t-44.5 17.5q-30 0 -48 -24v-182h-80v420h-182q-47 0 -86 -39t-39 -86q27 24 62 24q43 0 75.5 -30.5t32.5 -73.5 v-102q0 -50 -39 -82q-35 -29 -87 -29q-53 0 -88.5 29.5t-35.5 81.5v147q0 85 60 151t145 66h182q-23 21 -23 56v24q0 76 66 125q61 45 139 45h56q84 0 141 -73q53 -67 53 -154v-500zM375 102v89q0 44 -47 44q-18 0 -31.5 -13.5t-13.5 -30.5v-89q0 -18 14 -32q10 -7 31 -13 q18 0 32.5 13.5t14.5 31.5z" />
<glyph unicode="&#xe244;" horiz-adv-x="922" d="M917 602q0 -23 -24 -46t-54 -23h-47q-38 0 -64 27q-22 28 -22 66q0 25 8 44q-27 0 -53.5 -26t-26.5 -54v-24q0 -38 33 -89h137v-57h-137v-160q33 15 61 15q60 0 98 -59q34 -51 34 -114q0 -182 -122 -272q-108 -80 -297 -80q-176 0 -300 125q-56 56 -89 119q-22 42 -29 96 q-1 10 -2 35l-1 39q-3 134 90 277l36 -45q-71 -128 -71 -239q0 -140 116 -241q101 -88 250 -109q77 0 161 28q122 41 164 138q18 43 18 115v46l-2 12q0 24 -21 42t-45 18q-23 0 -49 -24v-182h-78v420h-182q-48 0 -86.5 -38.5t-38.5 -86.5q28 25 60 25q43 0 76.5 -31.5 t33.5 -73.5v-102q0 -50 -39 -82q-35 -29 -87 -29q-53 0 -88.5 29.5t-35.5 81.5v147q0 86 59.5 151.5t145.5 65.5h182q-16 19 -24 43l-8 25l-3 21v36q0 56 54 93q47 32 106 32h62q65 0 103 -26t38 -66v-33zM839 625v21q0 33 -35 33q-33 0 -33 -33v-21q0 -35 33 -35 q35 0 35 35zM372 102v89q0 21 -13 32.5t-33 11.5q-44 0 -44 -44v-89q0 -44 45 -44t45 44z" />
<glyph unicode="&#xe245;" horiz-adv-x="898" d="M619 420h-137v-420h-80v420h-158q-68 0 -113 -46q-35 -35 -35 -79q24 24 62 24q42 0 75 -31.5t33 -72.5v-102q0 -40 -42.5 -76.5t-82.5 -36.5q-53 0 -89 31t-36 82v147q0 90 58 153.5t147 63.5h398v-57zM834 -115h-193q-84 -147 -284 -147h-125q-78 0 -146 26 q-92 34 -92 99v33q0 45 113 45h481q8 13 8 59v102q0 30 -14 56q-16 33 -43 33h-57v69h69q58 0 91.5 -38t33.5 -97v-115q0 -45 -12 -69h90v536h80v-592zM188 102v89q0 44 -47 44q-18 0 -31.5 -13.5t-13.5 -30.5v-89q0 -44 45 -44q47 0 47 44zM563 -115h-512q0 -42 75 -77 q75 -25 151 -25h69q62 0 127.5 29t89.5 73z" />
<glyph unicode="&#xe246;" horiz-adv-x="1211" d="M1178 420h-137v-535h-78v535h-125v-535h-193q-89 -147 -286 -147h-125q-78 0 -146 26q-92 34 -92 99v33q0 45 113 45h481q9 9 9 34v13l-1 12v102q0 29 -19 57q-21 32 -48 32h-47v69h69q59 0 92 -37.5t33 -97.5v-115q0 -45 -12 -69h92v536h420v-57zM621 420h-137v-420h-78 v420h-160q-67 0 -112 -46q-36 -37 -36 -79q24 24 61 24q43 0 77 -30.5t34 -73.5v-102q0 -40 -42.5 -76.5t-82.5 -36.5q-53 0 -89 31t-36 82v147q0 87 58.5 152t144.5 65h398v-57zM189 102v89q0 44 -45 44q-46 0 -46 -44v-89q0 -44 46 -44q18 0 31.5 12t13.5 32zM564 -115 h-511q0 -42 75 -77q78 -25 153 -25h67q58 0 121 26q72 30 95 76z" />
<glyph unicode="&#xe247;" horiz-adv-x="1561" d="M629 0h-80v488q0 87 -72 143q-66 51 -155 51q-95 0 -164 -91q-64 -85 -64 -183q0 -131 48 -232q40 -84 112 -119l-16 37l-6 29l-2 23v69q0 46 29.5 79.5t74.5 33.5h33q47 0 80 -33t33 -80v-80q0 -135 -181 -135q-283 0 -283 408q0 143 81 234q84 96 225 96q131 0 213 -58 q94 -66 94 -192v-488zM402 102v125q0 41 -46 41q-45 0 -45 -41v-125q0 -44 45 -44q46 0 46 44zM1524 102q0 -182 -122 -272q-108 -80 -297 -80q-176 0 -300 125q-56 56 -89 119q-22 42 -29 96q-1 10 -2 35l-1 39q-3 134 90 277l36 -45q-71 -128 -71 -239q0 -140 116 -241 q101 -88 250 -109q77 0 161 28q122 41 164 138q18 43 18 115v46l-2 12q0 24 -21 42t-45 18q-23 0 -49 -24v-182h-78v420h-182q-48 0 -86.5 -38.5t-38.5 -86.5q28 25 60 25q43 0 76.5 -31.5t33.5 -73.5v-102q0 -50 -39 -82q-35 -29 -87 -29q-53 0 -88.5 29.5t-35.5 81.5v147 q0 86 59.5 151.5t145.5 65.5h397v-57h-137v-160q33 15 61 15q60 0 98 -59q34 -51 34 -114zM1036 102v89q0 18 -13.5 32.5t-31.5 14.5q-15 0 -30 -16t-15 -31v-89q0 -44 45 -44t45 44z" />
<glyph unicode="&#xe248;" horiz-adv-x="1431" d="M502 135q0 -60 -55 -101q-46 -34 -115 -34h-45q-112 0 -196 117q-77 107 -77 223v80q0 141 94 229.5t236 88.5h45q47 0 80 -35t33 -78v-47q0 -58 -27 -95q-30 -42 -86 -42h-34q-46 0 -74.5 32.5t-28.5 83.5v56q0 46 23 69q-85 -22 -135 -106q-46 -76 -46 -168v-68 q0 -90 53 -178q58 -94 140 -117q-6 6 -22 44l-13 57v69q0 46 29 79.5t74 33.5h34q47 0 80 -33t33 -80v-80zM424 545v90q0 19 -14 30.5t-33 11.5q-45 0 -45 -42v-90q0 -14 15.5 -28t29.5 -17q15 0 29.5 15t17.5 30zM424 102v125q0 41 -47 41q-45 0 -45 -41v-125q0 -44 45 -44 q47 0 47 44zM1417 102q0 -182 -122 -272q-108 -80 -297 -80q-176 0 -300 125q-56 56 -89 119q-22 42 -29 96q-1 10 -2 35l-1 39q-3 134 90 277l36 -45q-71 -128 -71 -239q0 -140 116 -241q101 -88 250 -109q77 0 161 28q122 41 164 138q18 43 18 115v46l-2 12q0 24 -21 42 t-45 18q-23 0 -49 -24v-182h-78v420h-182q-48 0 -86.5 -38.5t-38.5 -86.5q28 25 60 25q43 0 76.5 -31.5t33.5 -73.5v-102q0 -50 -39 -82q-35 -29 -87 -29q-53 0 -88.5 29.5t-35.5 81.5v147q0 86 59.5 151.5t145.5 65.5h397v-57h-137v-160q33 15 61 15q60 0 98 -59 q34 -51 34 -114zM929 102v89q0 18 -13.5 32.5t-31.5 14.5q-15 0 -30 -16t-15 -31v-89q0 -44 45 -44t45 44z" />
<glyph unicode="&#xe249;" horiz-adv-x="1722" d="M789 191q0 -28 -7 -62q-5 -21 -22 -55q-28 -55 -72 -74q-19 0 -39 13.5t-20 31.5q33 22 56.5 61t23.5 76v89q0 39 -31 92q-35 57 -71 57h-11q-45 0 -69 -12q16 -16 41 -63l12 -38l4 -36v-158q0 -53 -39 -84q-35 -28 -87 -28q-54 0 -89 29.5t-35 82.5v158q0 69 68 137 q-23 12 -80 12h-90q-52 0 -94 -36.5t-42 -88.5q24 24 62 24q42 0 75 -31.5t33 -72.5v-102q0 -38 -43.5 -75.5t-81.5 -37.5q-53 0 -89 31t-36 82v147q0 80 62.5 148.5t142.5 68.5h125l26 -3l16 -4l21 -7q34 -11 50 -22l40 23l40 13h33q217 0 217 -217v-69zM504 102v181 q0 42 -44 42q-46 0 -46 -42v-181q0 -18 13.5 -30.5t31.5 -12.5q45 0 45 43zM188 102v89q0 44 -47 44q-18 0 -31.5 -13.5t-13.5 -30.5v-89q0 -15 16 -31q10 -8 29 -14q14 0 30.5 15.5t16.5 29.5zM1707 102q0 -182 -122 -272q-108 -80 -297 -80q-176 0 -300 125 q-56 56 -89 119q-22 42 -29 96q-1 10 -2 35l-1 39q-3 134 90 277l36 -45q-71 -128 -71 -239q0 -140 116 -241q101 -88 250 -109q77 0 161 28q122 41 164 138q18 43 18 115v46l-2 12q0 24 -21 42t-45 18q-23 0 -49 -24v-182h-78v420h-182q-48 0 -86.5 -38.5t-38.5 -86.5 q28 25 60 25q43 0 76.5 -31.5t33.5 -73.5v-102q0 -50 -39 -82q-35 -29 -87 -29q-53 0 -88.5 29.5t-35.5 81.5v147q0 86 59.5 151.5t145.5 65.5h397v-57h-137v-160q33 15 61 15q60 0 98 -59q34 -51 34 -114zM1219 102v89q0 18 -13.5 32.5t-31.5 14.5q-15 0 -30 -16t-15 -31 v-89q0 -44 45 -44t45 44z" />
<glyph unicode="&#xe24a;" horiz-adv-x="2006" d="M629 0h-80v488q0 87 -72 143q-66 51 -155 51q-95 0 -164 -91q-64 -85 -64 -183q0 -131 48 -232q40 -84 112 -119l-16 37l-6 29l-2 23v69q0 46 29.5 79.5t74.5 33.5h33q47 0 80 -33t33 -80v-80q0 -135 -181 -135q-283 0 -283 408q0 143 81 234q84 96 225 96q131 0 213 -58 q94 -66 94 -192v-488zM402 102v125q0 41 -46 41q-45 0 -45 -41v-125q0 -44 45 -44q46 0 46 44zM1537 102q0 -182 -122 -272q-108 -80 -297 -80q-176 0 -300 125q-56 56 -89 119q-22 42 -29 96q-1 10 -2 35l-1 39q-3 134 90 277l36 -45q-71 -128 -71 -239q0 -140 116 -241 q101 -88 250 -109q77 0 161 28q122 41 164 138q18 43 18 115v46l-2 12q0 24 -21 42t-45 18q-23 0 -49 -24v-182h-78v420h-182q-48 0 -86.5 -38.5t-38.5 -86.5q28 25 60 25q43 0 76.5 -31.5t33.5 -73.5v-102q0 -50 -39 -82q-35 -29 -87 -29q-53 0 -88.5 29.5t-35.5 81.5v147 q0 86 59.5 151.5t145.5 65.5h397v-57h-137v-160q33 15 61 15q60 0 98 -59q34 -51 34 -114zM1049 102v89q0 18 -13.5 32.5t-31.5 14.5q-15 0 -30 -16t-15 -31v-89q0 -44 45 -44t45 44zM2024 420h-137v-420h-78v420h-125v-420h-80v477h420v-57z" />
<glyph unicode="&#xe24b;" horiz-adv-x="1906" d="M502 135q0 -60 -55 -101q-46 -34 -115 -34h-45q-112 0 -196 117q-77 107 -77 223v80q0 141 94 229.5t236 88.5h45q47 0 80 -35t33 -78v-47q0 -58 -27 -95q-30 -42 -86 -42h-34q-46 0 -74.5 32.5t-28.5 83.5v56q0 46 23 69q-85 -22 -135 -106q-46 -76 -46 -168v-68 q0 -90 53 -178q58 -94 140 -117q-6 6 -22 44l-13 57v69q0 46 29 79.5t74 33.5h34q47 0 80 -33t33 -80v-80zM424 545v90q0 19 -14 30.5t-33 11.5q-45 0 -45 -42v-90q0 -14 15.5 -28t29.5 -17q15 0 29.5 15t17.5 30zM424 102v125q0 41 -47 41q-45 0 -45 -41v-125q0 -44 45 -44 q47 0 47 44zM1407 102q0 -182 -122 -272q-108 -80 -297 -80q-176 0 -300 125q-56 56 -89 119q-22 42 -29 96q-1 10 -2 35l-1 39q-3 134 90 277l36 -45q-71 -128 -71 -239q0 -140 116 -241q101 -88 250 -109q77 0 161 28q122 41 164 138q18 43 18 115v46l-2 12q0 24 -21 42 t-45 18q-23 0 -49 -24v-182h-78v420h-182q-48 0 -86.5 -38.5t-38.5 -86.5q28 25 60 25q43 0 76.5 -31.5t33.5 -73.5v-102q0 -50 -39 -82q-35 -29 -87 -29q-53 0 -88.5 29.5t-35.5 81.5v147q0 86 59.5 151.5t145.5 65.5h397v-57h-137v-160q33 15 61 15q60 0 98 -59 q34 -51 34 -114zM919 102v89q0 18 -13.5 32.5t-31.5 14.5q-15 0 -30 -16t-15 -31v-89q0 -44 45 -44t45 44zM1894 420h-137v-420h-78v420h-125v-420h-80v477h420v-57z" />
<glyph unicode="&#xe24c;" horiz-adv-x="2377" d="M629 0h-80v488q0 87 -72 143q-66 51 -155 51q-95 0 -164 -91q-64 -85 -64 -183q0 -131 48 -232q40 -84 112 -119l-16 37l-6 29l-2 23v69q0 46 29.5 79.5t74.5 33.5h33q47 0 80 -33t33 -80v-80q0 -135 -181 -135q-283 0 -283 408q0 143 81 234q84 96 225 96q131 0 213 -58 q94 -66 94 -192v-488zM402 102v125q0 41 -46 41q-45 0 -45 -41v-125q0 -44 45 -44q46 0 46 44zM1527 102q0 -182 -122 -272q-108 -80 -297 -80q-176 0 -300 125q-56 56 -89 119q-22 42 -29 96q-1 10 -2 35l-1 39q-3 134 90 277l36 -45q-71 -128 -71 -239q0 -140 116 -241 q101 -88 250 -109q77 0 161 28q122 41 164 138q18 43 18 115v46l-2 12q0 24 -21 42t-45 18q-23 0 -49 -24v-182h-78v420h-182q-48 0 -86.5 -38.5t-38.5 -86.5q28 25 60 25q43 0 76.5 -31.5t33.5 -73.5v-102q0 -50 -39 -82q-35 -29 -87 -29q-53 0 -88.5 29.5t-35.5 81.5v147 q0 86 59.5 151.5t145.5 65.5h397v-57h-137v-160q33 15 61 15q60 0 98 -59q34 -51 34 -114zM1039 102v89q0 18 -13.5 32.5t-31.5 14.5q-15 0 -30 -16t-15 -31v-89q0 -44 45 -44t45 44zM2367 420h-136v-420h-78v420h-59q-29 0 -47.5 -19.5t-18.5 -48.5v-352h-81v328 q0 28 -20 58q-21 34 -48 34h-68q-56 0 -90.5 -40t-34.5 -97q31 31 73 31q39 0 68 -30t29 -69v-102q0 -50 -37.5 -80t-89.5 -30t-86 29q-37 30 -37 81v147q0 82 62 149.5t143 67.5h56q64 0 112 -57q39 57 105 57h283v-57zM1778 102v89q0 13 -15 31l-13 10q-8 6 -19 6 q-15 0 -30 -16t-15 -31v-89q0 -44 45 -44q47 0 47 44z" />
<glyph unicode="&#xe250;" d="M374 669q0 -32 -22 -55.5t-53 -23.5q-34 0 -56.5 23.5t-22.5 55.5q0 35 22 58t57 23q33 0 54 -24t21 -57zM582 0h-568v477h80v-420h488v-57z" />
<glyph unicode="&#xe251;" d="M582 0h-568v477h80v-420h488v-57z" />
<glyph unicode="&#xe252;" horiz-adv-x="1052" d="M562 0h-568v477h80v-420h488v-57zM1034 420h-137v-420h-78v420h-125v-420h-80v477h420v-57z" />
<glyph unicode="&#xe253;" d="M582 0h-193l-114 -262h-89l113 262h-285v477h80v-420h205q-113 65 -113 146v24q0 50 49 89q45 36 97 36h35q44 0 84.5 -30t40.5 -72v-35l-68 -158h158v-57zM403 250q0 19 -14.5 32t-33.5 13h-23q-23 0 -45.5 -24t-22.5 -44v-24q0 -60 76 -115l60 150z" />
<glyph unicode="&#xe254;" d="M570 182q0 -23 -24 -46t-54 -23h-47q-37 0 -64 27q-22 28 -22 65q0 31 8 45q-27 0 -53.5 -26t-26.5 -54v-24q0 -35 33 -89h-78l-22 42q-10 28 -13 47v36q0 58 52 100q49 39 109 39h63q52 0 93 -26q46 -30 46 -80v-33zM582 0h-568v477h80v-420h488v-57zM492 203v24 q0 32 -35 32q-33 0 -33 -32v-24q0 -33 33 -33q35 0 35 33z" />
<glyph unicode="&#xe255;" horiz-adv-x="818" d="M754 0h-78v396q0 102 -74 170.5t-176 68.5h-57q-117 0 -199 -121q-74 -109 -74 -231v-92q0 -101 45 -193q56 -113 148 -113h57q67 0 124 57t57 124v59q0 39 -19 76q-6 17 -18 27q-8 10 -19 10h-24l-10 -1l-20 -7q-13 -5 -26 -15v-215h-78v477h78v-217q9 9 29 22l27 13h35 q49 0 84 -45q41 -53 41 -148v-36q0 -101 -79.5 -169.5t-181.5 -68.5h-57q-119 0 -201 126q-72 111 -72 237v104q0 163 94 276q99 120 259 120h57q130 0 227 -81q101 -86 101 -214v-396z" />
<glyph unicode="&#xe256;" horiz-adv-x="691" d="M674 465q0 -44 -27 -82q-28 -31 -63 -31h-35q-34 0 -57 31q-6 8 -14.5 32t-8.5 38v35q0 28 20.5 55t47.5 35l-14 13l-40 25q-51 19 -81 19h-35q-117 0 -199 -121q-74 -109 -74 -231v-92q0 -127 67 -221q60 -85 126 -85h57q69 0 126 56t57 125v59q0 29 -15 67 q-19 46 -43 46h-22q-10 0 -29.5 -8t-26.5 -15v-215h-80v477h80v-206l25 14l31 10h33q49 0 84 -45q41 -53 41 -148v-36q0 -101 -79.5 -169.5t-181.5 -68.5h-57q-124 0 -202 124q-69 108 -69 239v104q0 179 103 290q98 106 248 106h45q107 0 181 -59q81 -63 81 -167zM605 441 v69q-6 39 -42 39q-32 0 -47 -39v-69q9 -42 45 -42q30 0 44 42z" />
<glyph unicode="&#xe257;" horiz-adv-x="1279" d="M641 0h-80v488q0 87 -72 143q-66 51 -155 51q-95 0 -164 -91q-64 -85 -64 -183q0 -131 48 -232q40 -84 112 -119l-16 37l-6 29l-2 23v69q0 46 29.5 79.5t74.5 33.5h33q47 0 80 -33t33 -80v-80q0 -135 -181 -135q-283 0 -283 408q0 143 81 234q84 96 225 96q131 0 213 -58 q94 -66 94 -192v-488zM414 102v125q0 41 -46 41q-45 0 -45 -41v-125q0 -44 45 -44q46 0 46 44zM1266 0h-568v477h80v-420h488v-57z" />
<glyph unicode="&#xe258;" horiz-adv-x="1141" d="M512 135q0 -60 -55 -101q-46 -34 -115 -34h-45q-112 0 -196 117q-77 107 -77 223v80q0 141 94 229.5t236 88.5h45q47 0 80 -35t33 -78v-47q0 -58 -27 -95q-30 -42 -86 -42h-34q-46 0 -74.5 32.5t-28.5 83.5v56q0 46 23 69q-85 -22 -135 -106q-46 -76 -46 -168v-68 q0 -90 53 -178q58 -94 140 -117q-6 6 -22 44l-13 57v69q0 46 29 79.5t74 33.5h34q47 0 80 -33t33 -80v-80zM434 545v90q0 19 -14 30.5t-33 11.5q-45 0 -45 -42v-90q0 -14 15.5 -28t29.5 -17q15 0 29.5 15t17.5 30zM434 102v125q0 41 -47 41q-45 0 -45 -41v-125q0 -44 45 -44 q47 0 47 44zM1134 0h-568v477h80v-420h488v-57z" />
<glyph unicode="&#xe259;" horiz-adv-x="1438" d="M789 191q0 -28 -7 -62q-5 -21 -22 -55q-28 -55 -72 -74q-19 0 -39 13.5t-20 31.5q33 22 56.5 61t23.5 76v89q0 39 -31 92q-35 57 -71 57h-11q-45 0 -69 -12q16 -16 41 -63l12 -38l4 -36v-158q0 -53 -39 -84q-35 -28 -87 -28q-54 0 -89 29.5t-35 82.5v158q0 69 68 137 q-23 12 -80 12h-90q-52 0 -94 -36.5t-42 -88.5q24 24 62 24q42 0 75 -31.5t33 -72.5v-102q0 -38 -43.5 -75.5t-81.5 -37.5q-53 0 -89 31t-36 82v147q0 80 62.5 148.5t142.5 68.5h125l26 -3l16 -4l21 -7q34 -11 50 -22l40 23l40 13h33q217 0 217 -217v-69zM504 102v181 q0 42 -44 42q-46 0 -46 -42v-181q0 -18 13.5 -30.5t31.5 -12.5q45 0 45 43zM188 102v89q0 44 -47 44q-18 0 -31.5 -13.5t-13.5 -30.5v-89q0 -15 16 -31q10 -8 29 -14q14 0 30.5 15.5t16.5 29.5zM1422 0h-568v477h80v-420h488v-57z" />
<glyph unicode="&#xe25a;" horiz-adv-x="1778" d="M629 0h-80v488q0 87 -72 143q-66 51 -155 51q-95 0 -164 -91q-64 -85 -64 -183q0 -131 48 -232q40 -84 112 -119l-16 37l-6 29l-2 23v69q0 46 29.5 79.5t74.5 33.5h33q47 0 80 -33t33 -80v-80q0 -135 -181 -135q-283 0 -283 408q0 143 81 234q84 96 225 96q131 0 213 -58 q94 -66 94 -192v-488zM402 102v125q0 41 -46 41q-45 0 -45 -41v-125q0 -44 45 -44q46 0 46 44zM1252 0h-568v477h80v-420h488v-57zM1754 420h-137v-420h-78v420h-125v-420h-80v477h420v-57z" />
<glyph unicode="&#xe25b;" horiz-adv-x="1625" d="M502 135q0 -60 -55 -101q-46 -34 -115 -34h-45q-112 0 -196 117q-77 107 -77 223v80q0 141 94 229.5t236 88.5h45q47 0 80 -35t33 -78v-47q0 -58 -27 -95q-30 -42 -86 -42h-34q-46 0 -74.5 32.5t-28.5 83.5v56q0 46 23 69q-85 -22 -135 -106q-46 -76 -46 -168v-68 q0 -90 53 -178q58 -94 140 -117q-6 6 -22 44l-13 57v69q0 46 29 79.5t74 33.5h34q47 0 80 -33t33 -80v-80zM424 545v90q0 19 -14 30.5t-33 11.5q-45 0 -45 -42v-90q0 -14 15.5 -28t29.5 -17q15 0 29.5 15t17.5 30zM424 102v125q0 41 -47 41q-45 0 -45 -41v-125q0 -44 45 -44 q47 0 47 44zM1132 0h-568v477h80v-420h488v-57zM1610 420h-137v-420h-78v420h-125v-420h-80v477h420v-57z" />
<glyph unicode="&#xe25c;" horiz-adv-x="2086" d="M629 0h-80v488q0 87 -72 143q-66 51 -155 51q-95 0 -164 -91q-64 -85 -64 -183q0 -131 48 -232q40 -84 112 -119l-16 37l-6 29l-2 23v69q0 46 29.5 79.5t74.5 33.5h33q47 0 80 -33t33 -80v-80q0 -135 -181 -135q-283 0 -283 408q0 143 81 234q84 96 225 96q131 0 213 -58 q94 -66 94 -192v-488zM402 102v125q0 41 -46 41q-45 0 -45 -41v-125q0 -44 45 -44q46 0 46 44zM1279 0h-568v477h80v-420h488v-57zM2087 420h-136v-420h-78v420h-59q-29 0 -47.5 -19.5t-18.5 -48.5v-352h-81v328q0 28 -20 58q-21 34 -48 34h-68q-56 0 -90.5 -40t-34.5 -97 q31 31 73 31q39 0 68 -30t29 -69v-102q0 -50 -37.5 -80t-89.5 -30t-86 29q-37 30 -37 81v147q0 82 62 149.5t143 67.5h56q64 0 112 -57q39 57 105 57h283v-57zM1498 102v89q0 13 -15 31l-13 10q-8 6 -19 6q-15 0 -30 -16t-15 -31v-89q0 -44 45 -44q47 0 47 44z" />
<glyph unicode="&#xe260;" horiz-adv-x="1256" d="M689 670q0 -31 -24 -58q-24 -21 -56 -21q-26 0 -55 21q-23 21 -23 58q0 31 24 58q22 19 54 19q33 0 56.5 -22.5t23.5 -54.5zM1223 420h-135v-420h-80v420h-92q-39 0 -68 -12q31 -29 42 -63l12 -38l4 -36v-158q0 -50 -37 -83q-33 -30 -89 -30q-53 0 -87 30q-37 31 -37 83 v158q0 69 67 137q-21 12 -78 12h-47q-40 0 -67 -12q21 -21 41 -64q10 -21 12 -38l4 -35v-158q0 -53 -39 -84q-35 -28 -87 -28q-54 0 -89 29.5t-35 82.5v158q0 72 68 137q-23 12 -80 12h-103q-53 0 -89 -42t-36 -95q31 31 71 31q43 0 72 -33.5t29 -77.5v-90q0 -50 -37.5 -80 t-89.5 -30t-86 29q-37 30 -37 81v147q0 87 58.5 152t144.5 65h125l29 -3q7 -1 36 -11q36 -13 50 -22q63 36 78 36h125l29 -3q7 -1 36 -11q36 -13 50 -22q66 36 90 36h352v-57zM826 102v181q0 41 -45 41q-47 0 -47 -41v-181q0 -30 47 -45q14 0 28 15t17 30zM508 102v181 q0 42 -45 42q-47 0 -47 -42v-181q0 -8 15 -29l12 -10q9 -6 20 -6q14 0 28 15t17 30zM189 102v89q0 43 -45 43q-46 0 -46 -43v-89q0 -18 13.5 -30.5t32.5 -12.5q18 0 31.5 12t13.5 31z" />
<glyph unicode="&#xe261;" horiz-adv-x="1256" d="M1223 420h-135v-420h-80v420h-92q-39 0 -68 -12q31 -29 42 -63l12 -38l4 -36v-158q0 -50 -37 -83q-33 -30 -89 -30q-53 0 -87 30q-37 31 -37 83v158q0 69 67 137q-21 12 -78 12h-47q-40 0 -67 -12q21 -21 41 -64q10 -21 12 -38l4 -35v-158q0 -53 -39 -84q-35 -28 -87 -28 q-54 0 -89 29.5t-35 82.5v158q0 72 68 137q-23 12 -80 12h-103q-53 0 -89 -42t-36 -95q31 31 71 31q43 0 72 -33.5t29 -77.5v-90q0 -50 -37.5 -80t-89.5 -30t-86 29q-37 30 -37 81v147q0 87 58.5 152t144.5 65h125l29 -3q7 -1 36 -11q36 -13 50 -22q63 36 78 36h125l29 -3 q7 -1 36 -11q36 -13 50 -22q66 36 90 36h352v-57zM826 102v181q0 41 -45 41q-47 0 -47 -41v-181q0 -42 45 -42q47 0 47 42zM508 102v181q0 42 -45 42q-47 0 -47 -42v-181q0 -42 45 -42q47 0 47 42zM189 102v89q0 43 -45 43q-46 0 -46 -43v-89q0 -18 13.5 -30.5t32.5 -12.5 q18 0 31.5 12t13.5 31z" />
<glyph unicode="&#xe262;" horiz-adv-x="1711" d="M1223 420h-135v-420h-80v420h-92q-39 0 -68 -12q31 -29 42 -63l12 -38l4 -36v-158q0 -50 -37 -83q-33 -30 -89 -30q-53 0 -87 30q-37 31 -37 83v158q0 69 67 137q-21 12 -78 12h-47q-40 0 -67 -12q21 -21 41 -64q10 -21 12 -38l4 -35v-158q0 -53 -39 -84q-35 -28 -87 -28 q-54 0 -89 29.5t-35 82.5v158q0 72 68 137q-23 12 -80 12h-103q-53 0 -89 -42t-36 -95q31 31 71 31q43 0 72 -33.5t29 -77.5v-90q0 -50 -37.5 -80t-89.5 -30t-86 29q-37 30 -37 81v147q0 87 58.5 152t144.5 65h125l29 -3q7 -1 36 -11q36 -13 50 -22q63 36 78 36h125l29 -3 q7 -1 36 -11q36 -13 50 -22q66 36 90 36h352v-57zM826 102v181q0 41 -45 41q-47 0 -47 -41v-181q0 -42 45 -42q47 0 47 42zM508 102v181q0 42 -45 42q-47 0 -47 -42v-181q0 -42 45 -42q47 0 47 42zM189 102v89q0 43 -45 43q-46 0 -46 -43v-89q0 -18 13.5 -30.5t32.5 -12.5 q18 0 31.5 12t13.5 31zM1699 420h-137v-420h-78v420h-125v-420h-80v477h420v-57z" />
<glyph unicode="&#xe263;" horiz-adv-x="1475" d="M1383 0h-80v500q0 170 -102 170h-35q-37 0 -73 -33q-29 -34 -29 -80v-24q0 -27 24 -56h135v-57h-135v-420h-80v420h-92q-39 0 -68 -12q31 -29 42 -63l12 -38l4 -36v-158q0 -50 -37 -83q-33 -30 -89 -30q-53 0 -87 30q-37 31 -37 83v158q0 69 67 137q-21 12 -78 12h-47 q-40 0 -67 -12q21 -21 41 -64q10 -21 12 -38l4 -35v-158q0 -53 -39 -84q-35 -28 -87 -28q-54 0 -89 29.5t-35 82.5v158q0 72 68 137q-23 12 -80 12h-103q-53 0 -89 -42t-36 -95q31 31 71 31q43 0 72 -33.5t29 -77.5v-90q0 -50 -37.5 -80t-89.5 -30t-86 29q-37 30 -37 81v147 q0 87 58.5 152t144.5 65h125l29 -3q7 -1 36 -11q36 -13 50 -22q63 36 78 36h125l29 -3q7 -1 36 -11q36 -13 50 -22q66 36 90 36h137q-24 21 -24 56v24q0 75 53 122.5t129 47.5h35q85 0 136 -73q46 -66 46 -154v-500zM826 102v181q0 41 -45 41q-47 0 -47 -41v-181 q0 -30 47 -45q14 0 28 15t17 30zM508 102v181q0 42 -45 42q-47 0 -47 -42v-181q0 -8 15 -29l12 -10q9 -6 20 -6q14 0 28 15t17 30zM189 102v89q0 43 -45 43q-46 0 -46 -43v-89q0 -18 13.5 -30.5t32.5 -12.5q18 0 31.5 12t13.5 31z" />
<glyph unicode="&#xe264;" horiz-adv-x="1256" d="M1326 602q0 -26 -26.5 -47.5t-53.5 -21.5h-45q-41 0 -64.5 26t-23.5 67q0 25 8 44q-27 0 -53.5 -26t-26.5 -54v-24q0 -38 35 -89h147v-57h-135v-420h-80v420h-92q-39 0 -68 -12q31 -29 42 -63l12 -38l4 -36v-158q0 -50 -37 -83q-33 -30 -89 -30q-53 0 -87 30 q-37 31 -37 83v158q0 69 67 137q-21 12 -78 12h-47q-40 0 -67 -12q21 -21 41 -64q10 -21 12 -38l4 -35v-158q0 -53 -39 -84q-35 -28 -87 -28q-54 0 -89 29.5t-35 82.5v158q0 72 68 137q-23 12 -80 12h-103q-53 0 -89 -42t-36 -95q31 31 71 31q43 0 72 -33.5t29 -77.5v-90 q0 -50 -37.5 -80t-89.5 -30t-86 29q-37 30 -37 81v147q0 87 58.5 152t144.5 65h125l29 -3q7 -1 36 -11q36 -13 50 -22q63 36 78 36h125l29 -3q7 -1 36 -11q36 -13 50 -22q66 36 90 36h125q-6 8 -23 44l-10 45v36q0 56 53 92q47 33 105 33h63q54 0 92 -19q50 -25 50 -73v-33z M1246 625v21q0 33 -33 33q-35 0 -35 -33v-21q0 -35 33 -35q35 0 35 35zM826 102v181q0 31 -45 45q-12 0 -30 -15q-10 -10 -17 -30v-181q0 -42 45 -42q47 0 47 42zM508 102v181q0 42 -45 42q-47 0 -47 -42v-181q0 -42 45 -42q47 0 47 42zM189 102v89q0 43 -45 43 q-46 0 -46 -43v-89q0 -18 13.5 -30.5t32.5 -12.5q18 0 31.5 12t13.5 31z" />
<glyph unicode="&#xe265;" horiz-adv-x="1314" d="M1248 -115h-285q-131 -147 -387 -147h-340q-95 0 -165 32q-73 33 -73 82v33q0 56 102 56h818q80 106 80 194v115q0 170 -92 170q-27 0 -56 -12q23 -20 40 -64q5 -14 12 -38l4 -35v-158q0 -53 -39 -84q-35 -28 -87 -28q-54 0 -89 29.5t-35 82.5v158q0 62 69 137 q-24 12 -80 12h-45q-45 0 -69 -12q21 -21 41 -64q10 -21 12 -38l4 -35v-158q0 -53 -39 -84q-35 -28 -87 -28q-54 0 -89 29.5t-35 82.5v158q0 69 68 137q-23 12 -80 12h-101q-53 0 -89 -41.5t-36 -95.5q32 32 71 32q44 0 71.5 -34t27.5 -78v-90q0 -50 -37.5 -80t-89.5 -30 t-86 29q-37 30 -37 81v147q0 90 58 153.5t147 63.5h125l26 -3l16 -4l21 -7q34 -11 50 -22l40 23l40 13h125q27 0 63 -14q20 -8 50 -22q72 36 92 36h45q76 0 121 -74q37 -62 37 -143v-125q0 -86 -68 -194h160v536h80v-592zM826 102v181q0 42 -44 42q-46 0 -46 -42v-181 q0 -42 44 -42q46 0 46 42zM508 102v181q0 31 -45 45q-11 0 -31 -15q-8 -8 -14 -30v-181q0 -42 44 -42q46 0 46 42zM861 -115h-806q0 -38 48 -68q24 -11 46 -15l30 -5l34 -2h363q67 0 150 24q95 27 135 66zM189 102v89q0 42 -45 42q-44 0 -44 -42v-89q0 -44 44 -44 q18 0 31.5 12t13.5 32z" />
<glyph unicode="&#xe266;" horiz-adv-x="1615" d="M1582 420h-129v-535h-78v535h-125v-535h-285q-131 -147 -387 -147h-340q-95 0 -165 32q-73 33 -73 82v33q0 56 102 56h818q80 106 80 194v115q0 170 -92 170q-27 0 -56 -12q23 -20 40 -64q5 -14 12 -38l4 -35v-158q0 -53 -39 -84q-35 -28 -87 -28q-54 0 -89 29.5 t-35 82.5v158q0 62 69 137q-24 12 -81 12h-44q-45 0 -69 -12q21 -21 41 -64q10 -21 12 -38l4 -35v-158q0 -53 -39 -84q-35 -28 -87 -28q-54 0 -89 29.5t-35 82.5v158q0 69 68 137q-23 12 -80 12h-101q-53 0 -89 -41.5t-36 -95.5q32 32 71 32q44 0 71 -33.5t27 -78.5v-90 q0 -50 -37.5 -80t-89.5 -30t-86 29q-37 30 -37 81v147q0 90 58.5 153.5t147.5 63.5h125l26 -3l16 -4l21 -7q34 -11 50 -22l40 23l40 13h125l26 -3l16 -4l21 -7q34 -11 50 -22q72 36 92 36h45q76 0 121 -74q37 -62 37 -143v-125q0 -86 -68 -194h160v536h412v-57zM828 102v181 q0 42 -44 42q-46 0 -46 -42v-181q0 -42 44 -42q46 0 46 42zM510 102v181q0 42 -44 42q-46 0 -46 -42v-181q0 -42 44 -42q46 0 46 42zM863 -115h-806q0 -38 48 -68q24 -11 46 -15l30 -5l34 -2h363q67 0 150 24q95 27 135 66zM191 102v89q0 14 -18 33q-8 8 -27 14 q-14 0 -29 -16.5t-15 -30.5v-89q0 -44 44 -44q18 0 31.5 12t13.5 32z" />
<glyph unicode="&#xe267;" horiz-adv-x="1928" d="M629 0h-80v488q0 87 -72 143q-66 51 -155 51q-95 0 -164 -91q-64 -85 -64 -183q0 -131 48 -232q40 -84 112 -119l-16 37l-6 29l-2 23v69q0 46 29.5 79.5t74.5 33.5h33q47 0 80 -33t33 -80v-80q0 -135 -181 -135q-283 0 -283 408q0 143 81 234q84 96 225 96q131 0 213 -58 q94 -66 94 -192v-488zM402 102v125q0 41 -46 41q-45 0 -45 -41v-125q0 -44 45 -44q46 0 46 44zM1893 420h-135v-420h-80v420h-92q-39 0 -68 -12q31 -29 42 -63l12 -38l4 -36v-158q0 -50 -37 -83q-33 -30 -89 -30q-53 0 -87 30q-37 31 -37 83v158q0 69 67 137q-21 12 -78 12 h-47q-40 0 -67 -12q21 -21 41 -64q10 -21 12 -38l4 -35v-158q0 -53 -39 -84q-35 -28 -87 -28q-54 0 -89 29.5t-35 82.5v158q0 72 68 137q-23 12 -80 12h-103q-53 0 -89 -42t-36 -95q31 31 71 31q43 0 72 -33.5t29 -77.5v-90q0 -50 -37.5 -80t-89.5 -30t-86 29q-37 30 -37 81 v147q0 87 58.5 152t144.5 65h125l29 -3q7 -1 36 -11q36 -13 50 -22q63 36 78 36h125l29 -3q7 -1 36 -11q36 -13 50 -22q66 36 90 36h352v-57zM1496 102v181q0 41 -45 41q-47 0 -47 -41v-181q0 -42 45 -42q47 0 47 42zM1178 102v181q0 42 -45 42q-47 0 -47 -42v-181 q0 -42 45 -42q47 0 47 42zM859 102v89q0 43 -45 43q-46 0 -46 -43v-89q0 -18 13.5 -30.5t32.5 -12.5q18 0 31.5 12t13.5 31z" />
<glyph unicode="&#xe268;" horiz-adv-x="1792" d="M502 135q0 -60 -55 -101q-46 -34 -115 -34h-45q-112 0 -196 117q-77 107 -77 223v80q0 141 94 229.5t236 88.5h45q47 0 80 -35t33 -78v-47q0 -58 -27 -95q-30 -42 -86 -42h-34q-46 0 -74.5 32.5t-28.5 83.5v56q0 46 23 69q-85 -22 -135 -106q-46 -76 -46 -168v-68 q0 -90 53 -178q58 -94 140 -117q-6 6 -22 44l-13 57v69q0 46 29 79.5t74 33.5h34q47 0 80 -33t33 -80v-80zM424 545v90q0 19 -14 30.5t-33 11.5q-45 0 -45 -42v-90q0 -14 15.5 -28t29.5 -17q15 0 29.5 15t17.5 30zM424 102v125q0 41 -47 41q-45 0 -45 -41v-125q0 -44 45 -44 q47 0 47 44zM1773 420h-135v-420h-80v420h-92q-39 0 -68 -12q31 -29 42 -63l12 -38l4 -36v-158q0 -50 -37 -83q-33 -30 -89 -30q-53 0 -87 30q-37 31 -37 83v158q0 69 67 137q-21 12 -78 12h-47q-40 0 -67 -12q21 -21 41 -64q10 -21 12 -38l4 -35v-158q0 -53 -39 -84 q-35 -28 -87 -28q-54 0 -89 29.5t-35 82.5v158q0 72 68 137q-23 12 -80 12h-103q-53 0 -89 -42t-36 -95q31 31 71 31q43 0 72 -33.5t29 -77.5v-90q0 -50 -37.5 -80t-89.5 -30t-86 29q-37 30 -37 81v147q0 87 58.5 152t144.5 65h125l29 -3q7 -1 36 -11q36 -13 50 -22 q63 36 78 36h125l29 -3q7 -1 36 -11q36 -13 50 -22q66 36 90 36h352v-57zM1376 102v181q0 41 -45 41q-47 0 -47 -41v-181q0 -42 45 -42q47 0 47 42zM1058 102v181q0 42 -45 42q-47 0 -47 -42v-181q0 -42 45 -42q47 0 47 42zM739 102v89q0 43 -45 43q-46 0 -46 -43v-89 q0 -18 13.5 -30.5t32.5 -12.5q18 0 31.5 12t13.5 31z" />
<glyph unicode="&#xe269;" horiz-adv-x="2080" d="M789 191q0 -28 -7 -62q-5 -21 -22 -55q-28 -55 -72 -74q-19 0 -39 13.5t-20 31.5q33 22 56.5 61t23.5 76v89q0 39 -31 92q-35 57 -71 57h-11q-45 0 -69 -12q16 -16 41 -63l12 -38l4 -36v-158q0 -53 -39 -84q-35 -28 -87 -28q-54 0 -89 29.5t-35 82.5v158q0 69 68 137 q-23 12 -80 12h-90q-52 0 -94 -36.5t-42 -88.5q24 24 62 24q42 0 75 -31.5t33 -72.5v-102q0 -38 -43.5 -75.5t-81.5 -37.5q-53 0 -89 31t-36 82v147q0 80 62.5 148.5t142.5 68.5h125l26 -3l16 -4l21 -7q34 -11 50 -22l40 23l40 13h33q217 0 217 -217v-69zM504 102v181 q0 42 -44 42q-46 0 -46 -42v-181q0 -18 13.5 -30.5t31.5 -12.5q45 0 45 43zM188 102v89q0 44 -47 44q-18 0 -31.5 -13.5t-13.5 -30.5v-89q0 -15 16 -31q10 -8 29 -14q14 0 30.5 15.5t16.5 29.5zM2063 420h-135v-420h-80v420h-92q-39 0 -68 -12q31 -29 42 -63l12 -38l4 -36 v-158q0 -50 -37 -83q-33 -30 -89 -30q-53 0 -87 30q-37 31 -37 83v158q0 69 67 137q-21 12 -78 12h-47q-40 0 -67 -12q21 -21 41 -64q10 -21 12 -38l4 -35v-158q0 -53 -39 -84q-35 -28 -87 -28q-54 0 -89 29.5t-35 82.5v158q0 72 68 137q-23 12 -80 12h-103q-53 0 -89 -42 t-36 -95q31 31 71 31q43 0 72 -33.5t29 -77.5v-90q0 -50 -37.5 -80t-89.5 -30t-86 29q-37 30 -37 81v147q0 87 58.5 152t144.5 65h125l29 -3q7 -1 36 -11q36 -13 50 -22q63 36 78 36h125l29 -3q7 -1 36 -11q36 -13 50 -22q66 36 90 36h352v-57zM1666 102v181q0 41 -45 41 q-47 0 -47 -41v-181q0 -42 45 -42q47 0 47 42zM1348 102v181q0 42 -45 42q-47 0 -47 -42v-181q0 -42 45 -42q47 0 47 42zM1029 102v89q0 43 -45 43q-46 0 -46 -43v-89q0 -18 13.5 -30.5t32.5 -12.5q18 0 31.5 12t13.5 31z" />
<glyph unicode="&#xe26a;" horiz-adv-x="2377" d="M629 0h-80v488q0 87 -72 143q-66 51 -155 51q-95 0 -164 -91q-64 -85 -64 -183q0 -131 48 -232q40 -84 112 -119l-16 37l-6 29l-2 23v69q0 46 29.5 79.5t74.5 33.5h33q47 0 80 -33t33 -80v-80q0 -135 -181 -135q-283 0 -283 408q0 143 81 234q84 96 225 96q131 0 213 -58 q94 -66 94 -192v-488zM402 102v125q0 41 -46 41q-45 0 -45 -41v-125q0 -44 45 -44q46 0 46 44zM1893 420h-135v-420h-80v420h-92q-39 0 -68 -12q31 -29 42 -63l12 -38l4 -36v-158q0 -50 -37 -83q-33 -30 -89 -30q-53 0 -87 30q-37 31 -37 83v158q0 69 67 137q-21 12 -78 12 h-47q-40 0 -67 -12q21 -21 41 -64q10 -21 12 -38l4 -35v-158q0 -53 -39 -84q-35 -28 -87 -28q-54 0 -89 29.5t-35 82.5v158q0 72 68 137q-23 12 -80 12h-103q-53 0 -89 -42t-36 -95q31 31 71 31q43 0 72 -33.5t29 -77.5v-90q0 -50 -37.5 -80t-89.5 -30t-86 29q-37 30 -37 81 v147q0 87 58.5 152t144.5 65h125l29 -3q7 -1 36 -11q36 -13 50 -22q63 36 78 36h125l29 -3q7 -1 36 -11q36 -13 50 -22q66 36 90 36h352v-57zM1496 102v181q0 41 -45 41q-47 0 -47 -41v-181q0 -42 45 -42q47 0 47 42zM1178 102v181q0 42 -45 42q-47 0 -47 -42v-181 q0 -42 45 -42q47 0 47 42zM859 102v89q0 43 -45 43q-46 0 -46 -43v-89q0 -18 13.5 -30.5t32.5 -12.5q18 0 31.5 12t13.5 31zM2364 420h-137v-420h-78v420h-125v-420h-80v477h420v-57z" />
<glyph unicode="&#xe26b;" horiz-adv-x="2264" d="M502 135q0 -60 -55 -101q-46 -34 -115 -34h-45q-112 0 -196 117q-77 107 -77 223v80q0 141 94 229.5t236 88.5h45q47 0 80 -35t33 -78v-47q0 -58 -27 -95q-30 -42 -86 -42h-34q-46 0 -74.5 32.5t-28.5 83.5v56q0 46 23 69q-85 -22 -135 -106q-46 -76 -46 -168v-68 q0 -90 53 -178q58 -94 140 -117q-6 6 -22 44l-13 57v69q0 46 29 79.5t74 33.5h34q47 0 80 -33t33 -80v-80zM424 545v90q0 19 -14 30.5t-33 11.5q-45 0 -45 -42v-90q0 -14 15.5 -28t29.5 -17q15 0 29.5 15t17.5 30zM424 102v125q0 41 -47 41q-45 0 -45 -41v-125q0 -44 45 -44 q47 0 47 44zM1767 420h-135v-420h-80v420h-92q-39 0 -68 -12q31 -29 42 -63l12 -38l4 -36v-158q0 -50 -37 -83q-33 -30 -89 -30q-53 0 -87 30q-37 31 -37 83v158q0 69 67 137q-21 12 -78 12h-47q-40 0 -67 -12q21 -21 41 -64q10 -21 12 -38l4 -35v-158q0 -53 -39 -84 q-35 -28 -87 -28q-54 0 -89 29.5t-35 82.5v158q0 72 68 137q-23 12 -80 12h-103q-53 0 -89 -42t-36 -95q31 31 71 31q43 0 72 -33.5t29 -77.5v-90q0 -50 -37.5 -80t-89.5 -30t-86 29q-37 30 -37 81v147q0 87 58.5 152t144.5 65h125l29 -3q7 -1 36 -11q36 -13 50 -22 q63 36 78 36h125l29 -3q7 -1 36 -11q36 -13 50 -22q66 36 90 36h352v-57zM1370 102v181q0 41 -45 41q-47 0 -47 -41v-181q0 -42 45 -42q47 0 47 42zM1052 102v181q0 42 -45 42q-47 0 -47 -42v-181q0 -42 45 -42q47 0 47 42zM733 102v89q0 43 -45 43q-46 0 -46 -43v-89 q0 -18 13.5 -30.5t32.5 -12.5q18 0 31.5 12t13.5 31zM2244 420h-137v-420h-78v420h-125v-420h-80v477h420v-57z" />
<glyph unicode="&#xe26c;" horiz-adv-x="2767" d="M629 0h-80v488q0 87 -72 143q-66 51 -155 51q-95 0 -164 -91q-64 -85 -64 -183q0 -131 48 -232q40 -84 112 -119l-16 37l-6 29l-2 23v69q0 46 29.5 79.5t74.5 33.5h33q47 0 80 -33t33 -80v-80q0 -135 -181 -135q-283 0 -283 408q0 143 81 234q84 96 225 96q131 0 213 -58 q94 -66 94 -192v-488zM402 102v125q0 41 -46 41q-45 0 -45 -41v-125q0 -44 45 -44q46 0 46 44zM1915 420h-135v-420h-80v420h-92q-39 0 -68 -12q31 -29 42 -63l12 -38l4 -36v-158q0 -50 -37 -83q-33 -30 -89 -30q-53 0 -87 30q-37 31 -37 83v158q0 69 67 137q-21 12 -78 12 h-47q-40 0 -67 -12q21 -21 41 -64q10 -21 12 -38l4 -35v-158q0 -53 -39 -84q-35 -28 -87 -28q-54 0 -89 29.5t-35 82.5v158q0 72 68 137q-23 12 -80 12h-103q-53 0 -89 -42t-36 -95q31 31 71 31q43 0 72 -33.5t29 -77.5v-90q0 -50 -37.5 -80t-89.5 -30t-86 29q-37 30 -37 81 v147q0 87 58.5 152t144.5 65h125l29 -3q7 -1 36 -11q36 -13 50 -22q63 36 78 36h125l29 -3q7 -1 36 -11q36 -13 50 -22q66 36 90 36h352v-57zM1518 102v181q0 41 -45 41q-47 0 -47 -41v-181q0 -42 45 -42q47 0 47 42zM1200 102v181q0 42 -45 42q-47 0 -47 -42v-181 q0 -42 45 -42q47 0 47 42zM881 102v89q0 43 -45 43q-46 0 -46 -43v-89q0 -18 13.5 -30.5t32.5 -12.5q18 0 31.5 12t13.5 31zM2727 420h-136v-420h-78v420h-59q-29 0 -47.5 -19.5t-18.5 -48.5v-352h-81v328q0 28 -20 58q-21 34 -48 34h-68q-56 0 -90.5 -40t-34.5 -97 q31 31 73 31q39 0 68 -30t29 -69v-102q0 -50 -37.5 -80t-89.5 -30t-86 29q-37 30 -37 81v147q0 82 62 149.5t143 67.5h56q64 0 112 -57q39 57 105 57h283v-57zM2138 102v89q0 13 -15 31l-13 10q-8 6 -19 6q-15 0 -30 -16t-15 -31v-89q0 -44 45 -44q47 0 47 44z" />
<glyph unicode="&#xe270;" horiz-adv-x="656" d="M388 669q0 -33 -22.5 -56t-54.5 -23q-34 0 -56.5 23.5t-22.5 55.5q0 35 22 58t57 23q38 0 57.5 -24t19.5 -57zM605 78q0 -94 -79 -153q-67 -50 -147 -50h-217q-22 0 -39.5 -13t-17.5 -34v-90h-78v90q0 104 135 104h217q51 0 99.5 42t48.5 92v104q0 68 -68 68h-57v-92 q0 -146 -205 -146q-69 0 -121 32q-60 38 -60 103v92q0 19 18 46l18 16q9 6 20 6h45v182h420v-57h-135v-125h67q57 0 93 -23q43 -28 43 -81v-113zM322 295v125h-125v-125h125zM322 135v103h-193q-24 0 -24 -23v-90q0 -20 33 -47q33 -21 71 -21q36 0 72 20q41 24 41 58z" />
<glyph unicode="&#xe271;" d="M605 78q0 -94 -79 -153q-67 -50 -147 -50h-217q-22 0 -39.5 -13t-17.5 -34v-90h-78v90q0 104 135 104h217q51 0 99.5 42t48.5 92v104q0 68 -68 68h-57v-92q0 -146 -205 -146q-69 0 -121 32q-60 38 -60 103v92q0 19 18 46l18 16q9 6 20 6h45v182h420v-57h-135v-125h67 q57 0 93 -23q43 -28 43 -81v-113zM322 295v125h-125v-125h125zM322 135v103h-193q-24 0 -24 -23v-90q0 -20 33 -47q33 -21 71 -21q36 0 72 20q41 24 41 58z" />
<glyph unicode="&#xe272;" horiz-adv-x="1094" d="M551 78q0 -94 -79 -153q-67 -50 -147 -50h-217q-22 0 -39.5 -13t-17.5 -34v-90h-78v90q0 104 135 104h217q51 0 99.5 42t48.5 92v104q0 68 -68 68h-57v-92q0 -146 -205 -146q-69 0 -121 32q-60 38 -60 103v92q0 19 18 46l18 16q9 6 20 6h45v182h420v-57h-135v-125h67 q57 0 93 -23q43 -28 43 -81v-113zM268 295v125h-125v-125h125zM268 135v103h-193q-24 0 -24 -23v-90q0 -20 33 -47q33 -21 71 -21q36 0 72 20q41 24 41 58zM1025 420h-137v-420h-78v420h-125v-420h-80v477h420v-57z" />
<glyph unicode="&#xe273;" horiz-adv-x="840" d="M754 0h-78v500q0 63 -30 112q-36 58 -95 58h-47q-42 0 -83.5 -35.5t-41.5 -77.5v-24q0 -33 23 -56h137v-57h-137v-125h69q56 0 93 -24q43 -27 43 -80v-113q0 -94 -79 -153q-67 -50 -149 -50h-215q-22 0 -39.5 -13t-17.5 -34v-90h-80v90q0 104 137 104h215q51 0 99.5 42 t48.5 92v104q0 68 -68 68h-57v-92q0 -146 -205 -146q-69 0 -121 32q-60 38 -60 103v92q0 19 18 46l18 16q9 6 20 6h47v182h203q-21 26 -21 56v24q0 73 66 123q62 47 137 47h59q83 0 139 -74q52 -68 52 -153v-500zM322 295v125h-125v-125h125zM322 135v103h-193 q-22 0 -22 -23v-90q0 -18 33 -47q33 -21 69 -21t72 20q41 24 41 58z" />
<glyph unicode="&#xe274;" horiz-adv-x="668" d="M641 602q0 -26 -26.5 -47.5t-53.5 -21.5h-45q-40 0 -64.5 26t-24.5 66q0 24 9 45q-28 0 -54.5 -26t-26.5 -54v-24q0 -39 36 -89h146v-57h-135v-125h67q57 0 93 -23q43 -28 43 -81v-113q0 -94 -79 -153q-67 -50 -147 -50h-217q-22 0 -39.5 -13t-17.5 -34v-90h-78v90 q0 104 135 104h217q51 0 99.5 42t48.5 92v104q0 68 -68 68h-57v-92q0 -146 -205 -146q-69 0 -121 32q-60 38 -60 103v92q0 19 18 46l18 16q9 6 20 6h45v182h194q-34 49 -34 89v36q0 56 53 93q48 32 106 32h62q54 0 93 -19q50 -25 50 -73v-33zM561 625v21q0 33 -34 33 q-35 0 -35 -33v-21q0 -35 34 -35q35 0 35 35zM322 295v125h-125v-125h125zM322 135v103h-193q-24 0 -24 -23v-90q0 -20 33 -47q33 -21 71 -21q36 0 72 20q41 24 41 58z" />
<glyph unicode="&#xe275;" horiz-adv-x="865" d="M784 -115h-215q-107 -147 -262 -147h-68q-74 0 -143 33q-83 40 -95 104v33q0 33 92 33h419q22 66 22 149v92q0 56 -57 56h-45v-92q0 -146 -205 -146q-69 0 -121 32q-60 38 -60 103v92q0 19 18 46l18 16q9 6 20 6h47v182h420v-57h-137v-125h80q47 0 74.5 -32.5t27.5 -80.5 v-92l1 -24q2 -51 -22 -125h113v536h78v-592zM352 295v125h-125v-125h125zM352 135v103h-193q-22 0 -22 -23v-90q0 -18 33 -47q33 -21 69 -21t72 20q41 24 41 58zM477 -115h-408q0 -50 65 -73q45 -17 105 -17h57q122 0 181 90z" />
<glyph unicode="&#xe276;" horiz-adv-x="1129" d="M1096 420h-135v-535h-80v535h-125v-535h-217q-107 -147 -260 -147h-68q-74 0 -144 33q-83 39 -96 104v33q0 33 92 33h419q24 62 24 149v92q0 56 -57 56h-45v-92q0 -146 -205 -146q-69 0 -121 32q-60 38 -60 103v92q0 19 18 46l18 16q9 6 20 6h45v182h420v-57h-135v-125 h78q41 0 70 -26q34 -31 34 -87v-92l-1 -39l-1 -20q-1 -13 -3 -22.5t-2 -18.5q-3 -8 -4 -10l-12 -39h113v536h420v-57zM324 295v125h-125v-125h125zM324 135v103h-193q-24 0 -24 -23v-90q0 -20 33 -47q33 -21 71 -21q36 0 72 20q41 24 41 58zM449 -115h-410q0 -32 39 -62 q28 -17 55 -21l35 -5l43 -2h57q112 0 181 90z" />
<glyph unicode="&#xe277;" horiz-adv-x="1291" d="M629 0h-80v488q0 87 -72 143q-66 51 -155 51q-95 0 -164 -91q-64 -85 -64 -183q0 -131 48 -232q40 -84 112 -119l-16 37l-6 29l-2 23v69q0 46 29.5 79.5t74.5 33.5h33q47 0 80 -33t33 -80v-80q0 -135 -181 -135q-283 0 -283 408q0 143 81 234q84 96 225 96q131 0 213 -58 q94 -66 94 -192v-488zM402 102v125q0 41 -46 41q-45 0 -45 -41v-125q0 -44 45 -44q46 0 46 44zM1275 78q0 -94 -79 -153q-67 -50 -147 -50h-217q-22 0 -39.5 -13t-17.5 -34v-90h-78v90q0 104 135 104h217q51 0 99.5 42t48.5 92v104q0 68 -68 68h-57v-92q0 -146 -205 -146 q-69 0 -121 32q-60 38 -60 103v92q0 19 18 46l18 16q9 6 20 6h45v182h420v-57h-135v-125h67q57 0 93 -23q43 -28 43 -81v-113zM992 295v125h-125v-125h125zM992 135v103h-193q-24 0 -24 -23v-90q0 -20 33 -47q33 -21 71 -21q36 0 72 20q41 24 41 58z" />
<glyph unicode="&#xe278;" horiz-adv-x="1138" d="M502 135q0 -60 -55 -101q-46 -34 -115 -34h-45q-112 0 -196 117q-77 107 -77 223v80q0 141 94 229.5t236 88.5h45q47 0 80 -35t33 -78v-47q0 -58 -27 -95q-30 -42 -86 -42h-34q-46 0 -74.5 32.5t-28.5 83.5v56q0 46 23 69q-85 -22 -135 -106q-46 -76 -46 -168v-68 q0 -90 53 -178q58 -94 140 -117q-6 6 -22 44l-13 57v69q0 46 29 79.5t74 33.5h34q47 0 80 -33t33 -80v-80zM424 545v90q0 19 -14 30.5t-33 11.5q-45 0 -45 -42v-90q0 -14 15.5 -28t29.5 -17q15 0 29.5 15t17.5 30zM424 102v125q0 41 -47 41q-45 0 -45 -41v-125q0 -44 45 -44 q47 0 47 44zM1135 78q0 -94 -79 -153q-67 -50 -147 -50h-217q-22 0 -39.5 -13t-17.5 -34v-90h-78v90q0 104 135 104h217q51 0 99.5 42t48.5 92v104q0 68 -68 68h-57v-92q0 -146 -205 -146q-69 0 -121 32q-60 38 -60 103v92q0 19 18 46l18 16q9 6 20 6h45v182h420v-57h-135 v-125h67q57 0 93 -23q43 -28 43 -81v-113zM852 295v125h-125v-125h125zM852 135v103h-193q-24 0 -24 -23v-90q0 -20 33 -47q33 -21 71 -21q36 0 72 20q41 24 41 58z" />
<glyph unicode="&#xe279;" horiz-adv-x="1455" d="M789 191q0 -28 -7 -62q-5 -21 -22 -55q-28 -55 -72 -74q-19 0 -39 13.5t-20 31.5q33 22 56.5 61t23.5 76v89q0 39 -31 92q-35 57 -71 57h-11q-45 0 -69 -12q16 -16 41 -63l12 -38l4 -36v-158q0 -53 -39 -84q-35 -28 -87 -28q-54 0 -89 29.5t-35 82.5v158q0 69 68 137 q-23 12 -80 12h-90q-52 0 -94 -36.5t-42 -88.5q24 24 62 24q42 0 75 -31.5t33 -72.5v-102q0 -38 -43.5 -75.5t-81.5 -37.5q-53 0 -89 31t-36 82v147q0 80 62.5 148.5t142.5 68.5h125l26 -3l16 -4l21 -7q34 -11 50 -22l40 23l40 13h33q217 0 217 -217v-69zM504 102v181 q0 42 -44 42q-46 0 -46 -42v-181q0 -18 13.5 -30.5t31.5 -12.5q45 0 45 43zM188 102v89q0 44 -47 44q-18 0 -31.5 -13.5t-13.5 -30.5v-89q0 -15 16 -31q10 -8 29 -14q14 0 30.5 15.5t16.5 29.5zM1435 78q0 -94 -79 -153q-67 -50 -147 -50h-217q-22 0 -39.5 -13t-17.5 -34 v-90h-78v90q0 104 135 104h217q51 0 99.5 42t48.5 92v104q0 68 -68 68h-57v-92q0 -146 -205 -146q-69 0 -121 32q-60 38 -60 103v92q0 19 18 46l18 16q9 6 20 6h45v182h420v-57h-135v-125h67q57 0 93 -23q43 -28 43 -81v-113zM1152 295v125h-125v-125h125zM1152 135v103 h-193q-24 0 -24 -23v-90q0 -20 33 -47q33 -21 71 -21q36 0 72 20q41 24 41 58z" />
<glyph unicode="&#xe27a;" horiz-adv-x="1797" d="M629 0h-80v488q0 87 -72 143q-66 51 -155 51q-95 0 -164 -91q-64 -85 -64 -183q0 -131 48 -232q40 -84 112 -119l-16 37l-6 29l-2 23v69q0 46 29.5 79.5t74.5 33.5h33q47 0 80 -33t33 -80v-80q0 -135 -181 -135q-283 0 -283 408q0 143 81 234q84 96 225 96q131 0 213 -58 q94 -66 94 -192v-488zM402 102v125q0 41 -46 41q-45 0 -45 -41v-125q0 -44 45 -44q46 0 46 44zM1285 78q0 -94 -79 -153q-67 -50 -147 -50h-217q-22 0 -39.5 -13t-17.5 -34v-90h-78v90q0 104 135 104h217q51 0 99.5 42t48.5 92v104q0 68 -68 68h-57v-92q0 -146 -205 -146 q-69 0 -121 32q-60 38 -60 103v92q0 19 18 46l18 16q9 6 20 6h45v182h420v-57h-135v-125h67q57 0 93 -23q43 -28 43 -81v-113zM1002 295v125h-125v-125h125zM1002 135v103h-193q-24 0 -24 -23v-90q0 -20 33 -47q33 -21 71 -21q36 0 72 20q41 24 41 58zM1774 420h-137v-420 h-78v420h-125v-420h-80v477h420v-57z" />
<glyph unicode="&#xe27b;" horiz-adv-x="1638" d="M502 135q0 -60 -55 -101q-46 -34 -115 -34h-45q-112 0 -196 117q-77 107 -77 223v80q0 141 94 229.5t236 88.5h45q47 0 80 -35t33 -78v-47q0 -58 -27 -95q-30 -42 -86 -42h-34q-46 0 -74.5 32.5t-28.5 83.5v56q0 46 23 69q-85 -22 -135 -106q-46 -76 -46 -168v-68 q0 -90 53 -178q58 -94 140 -117q-6 6 -22 44l-13 57v69q0 46 29 79.5t74 33.5h34q47 0 80 -33t33 -80v-80zM424 545v90q0 19 -14 30.5t-33 11.5q-45 0 -45 -42v-90q0 -14 15.5 -28t29.5 -17q15 0 29.5 15t17.5 30zM424 102v125q0 41 -47 41q-45 0 -45 -41v-125q0 -44 45 -44 q47 0 47 44zM1145 78q0 -94 -79 -153q-67 -50 -147 -50h-217q-22 0 -39.5 -13t-17.5 -34v-90h-78v90q0 104 135 104h217q51 0 99.5 42t48.5 92v104q0 68 -68 68h-57v-92q0 -146 -205 -146q-69 0 -121 32q-60 38 -60 103v92q0 19 18 46l18 16q9 6 20 6h45v182h420v-57h-135 v-125h67q57 0 93 -23q43 -28 43 -81v-113zM862 295v125h-125v-125h125zM862 135v103h-193q-24 0 -24 -23v-90q0 -20 33 -47q33 -21 71 -21q36 0 72 20q41 24 41 58zM1624 420h-137v-420h-78v420h-125v-420h-80v477h420v-57z" />
<glyph unicode="&#xe27c;" horiz-adv-x="2124" d="M629 0h-80v488q0 87 -72 143q-66 51 -155 51q-95 0 -164 -91q-64 -85 -64 -183q0 -131 48 -232q40 -84 112 -119l-16 37l-6 29l-2 23v69q0 46 29.5 79.5t74.5 33.5h33q47 0 80 -33t33 -80v-80q0 -135 -181 -135q-283 0 -283 408q0 143 81 234q84 96 225 96q131 0 213 -58 q94 -66 94 -192v-488zM402 102v125q0 41 -46 41q-45 0 -45 -41v-125q0 -44 45 -44q46 0 46 44zM1285 78q0 -94 -79 -153q-67 -50 -147 -50h-217q-22 0 -39.5 -13t-17.5 -34v-90h-78v90q0 104 135 104h217q51 0 99.5 42t48.5 92v104q0 68 -68 68h-57v-92q0 -146 -205 -146 q-69 0 -121 32q-60 38 -60 103v92q0 19 18 46l18 16q9 6 20 6h45v182h420v-57h-135v-125h67q57 0 93 -23q43 -28 43 -81v-113zM1002 295v125h-125v-125h125zM1002 135v103h-193q-24 0 -24 -23v-90q0 -20 33 -47q33 -21 71 -21q36 0 72 20q41 24 41 58zM2112 420h-136v-420 h-78v420h-59q-29 0 -47.5 -19.5t-18.5 -48.5v-352h-81v328q0 28 -20 58q-21 34 -48 34h-68q-56 0 -90.5 -40t-34.5 -97q31 31 73 31q39 0 68 -30t29 -69v-102q0 -50 -37.5 -80t-89.5 -30t-86 29q-37 30 -37 81v147q0 82 62 149.5t143 67.5h56q64 0 112 -57q39 57 105 57h283 v-57zM1523 102v89q0 13 -15 31l-13 10q-8 6 -19 6q-15 0 -30 -16t-15 -31v-89q0 -44 45 -44q47 0 47 44z" />
<glyph unicode="&#xe280;" horiz-adv-x="564" d="M306 669q0 -33 -22.5 -56t-54.5 -23q-33 0 -55 23t-22 56q0 35 21 58t56 23q38 0 57.5 -24t19.5 -57zM502 0q0 -125 -193 -125h-205q-69 0 -69 -47v-90h-66v90q0 104 125 104h226q42 0 77 24q25 22 25 54v92q0 77 -56 77q-40 0 -69 -44v-135h-78v420h-125v-420h-80v477 h420v-57h-137v-217q32 32 81 32q52 0 88 -35t36 -87v-113z" />
<glyph unicode="&#xe281;" horiz-adv-x="564" d="M502 0q0 -125 -193 -125h-205q-69 0 -69 -47v-90h-66v90q0 104 125 104h226q42 0 77 24q25 22 25 54v92q0 77 -56 77q-40 0 -69 -44v-135h-78v420h-125v-420h-80v477h420v-57h-137v-217q32 32 81 32q52 0 88 -35t36 -87v-113z" />
<glyph unicode="&#xe282;" horiz-adv-x="990" d="M510 0q0 -125 -193 -125h-205q-69 0 -69 -47v-90h-66v90q0 104 125 104h226q42 0 77 24q25 22 25 54v92q0 77 -56 77q-40 0 -69 -44v-135h-78v420h-125v-420h-80v477h420v-57h-137v-217q32 32 81 32q52 0 88 -35t36 -87v-113zM982 420h-137v-420h-78v420h-125v-420h-80 v477h420v-57z" />
<glyph unicode="&#xe283;" horiz-adv-x="715" d="M650 19h-80v500q0 63 -30 112q-36 58 -95 58h-45q-42 0 -83.5 -35.5t-41.5 -77.5v-24q0 -27 24 -56h137v-57h-137v-217q32 32 80 32q52 0 87.5 -35t35.5 -87v-113q0 -125 -191 -125h-206q-68 0 -68 -47v-90h-68v90q0 104 125 104h226q41 0 70 18q34 21 34 60v92 q0 77 -57 77q-39 0 -68 -44v-135h-80v420h-125v-420h-80v477h205q-24 21 -24 56v24q0 73 68 123q62 47 137 47h57q84 0 141 -73q52 -67 52 -154v-500z" />
<glyph unicode="&#xe284;" horiz-adv-x="553" d="M525 602q0 -26 -26.5 -47.5t-53.5 -21.5h-45q-41 0 -64.5 26t-23.5 67q0 25 8 44q-27 0 -53.5 -26t-26.5 -54v-24q0 -45 35 -89h147v-57h-137v-217q32 32 81 32q52 0 88 -35t36 -87v-113q0 -125 -193 -125h-203q-69 0 -69 -47v-90h-68v90q0 104 125 104h227q40 0 68 19 q33 21 33 59v92q0 77 -56 77q-40 0 -69 -44v-135h-78v420h-125v-420h-80v477h193q-35 38 -35 89v36q0 56 54 93q47 32 106 32h63q54 0 92 -19q50 -25 50 -73v-33zM445 625v21q0 34 -34 34t-34 -34v-21q0 -35 33 -35q35 0 35 35z" />
<glyph unicode="&#xe285;" horiz-adv-x="800" d="M709 -115h-234q-84 -147 -289 -147q-112 0 -185 46q-65 41 -65 91q0 29 12 50q13 16 44 16h420q12 18 12 80v81q0 68 -53 68q-40 0 -72 -35v-135h-80v420h-125v-420h-78v477h420v-57h-137v-217q39 30 86 30q51 0 85 -34.5t34 -85.5v-103q0 -51 -12 -69h137v536h80v-592z M393 -115h-389q0 -74 182 -90q159 0 207 90z" />
<glyph unicode="&#xe286;" horiz-adv-x="1084" d="M1051 420h-137v-535h-78v535h-125v-535h-234q-84 -147 -289 -147q-78 0 -154 30q-97 40 -97 107q0 66 57 66h420q12 18 12 80v81q0 68 -53 68q-40 0 -72 -35v-135h-80v420h-125v-420h-78v477h420v-57h-137v-217q39 30 86 30q51 0 85 -34.5t34 -85.5v-103q0 -51 -12 -69 h137v536h420v-57zM395 -115h-389q0 -74 182 -90q159 0 207 90z" />
<glyph unicode="&#xe287;" horiz-adv-x="1243" d="M629 0h-80v488q0 87 -72 143q-66 51 -155 51q-95 0 -164 -91q-64 -85 -64 -183q0 -131 48 -232q40 -84 112 -119l-16 37l-6 29l-2 23v69q0 46 29.5 79.5t74.5 33.5h33q47 0 80 -33t33 -80v-80q0 -135 -181 -135q-283 0 -283 408q0 143 81 234q84 96 225 96q131 0 213 -58 q94 -66 94 -192v-488zM402 102v125q0 41 -46 41q-45 0 -45 -41v-125q0 -44 45 -44q46 0 46 44zM1212 0q0 -125 -193 -125h-205q-69 0 -69 -47v-90h-66v90q0 104 125 104h226q42 0 77 24q25 22 25 54v92q0 77 -56 77q-40 0 -69 -44v-135h-78v420h-125v-420h-80v477h420v-57 h-137v-217q32 32 81 32q52 0 88 -35t36 -87v-113z" />
<glyph unicode="&#xe288;" horiz-adv-x="1078" d="M502 135q0 -60 -55 -101q-46 -34 -115 -34h-45q-112 0 -196 117q-77 107 -77 223v80q0 141 94 229.5t236 88.5h45q47 0 80 -35t33 -78v-47q0 -58 -27 -95q-30 -42 -86 -42h-34q-46 0 -74.5 32.5t-28.5 83.5v56q0 46 23 69q-85 -22 -135 -106q-46 -76 -46 -168v-68 q0 -90 53 -178q58 -94 140 -117q-6 6 -22 44l-13 57v69q0 46 29 79.5t74 33.5h34q47 0 80 -33t33 -80v-80zM424 545v90q0 19 -14 30.5t-33 11.5q-45 0 -45 -42v-90q0 -14 15.5 -28t29.5 -17q15 0 29.5 15t17.5 30zM424 102v125q0 41 -47 41q-45 0 -45 -41v-125q0 -44 45 -44 q47 0 47 44zM1062 0q0 -125 -193 -125h-205q-69 0 -69 -47v-90h-66v90q0 104 125 104h226q42 0 77 24q25 22 25 54v92q0 77 -56 77q-40 0 -69 -44v-135h-78v420h-125v-420h-80v477h420v-57h-137v-217q32 32 81 32q52 0 88 -35t36 -87v-113z" />
<glyph unicode="&#xe289;" horiz-adv-x="1389" d="M789 191q0 -28 -7 -62q-5 -21 -22 -55q-28 -55 -72 -74q-19 0 -39 13.5t-20 31.5q33 22 56.5 61t23.5 76v89q0 39 -31 92q-35 57 -71 57h-11q-45 0 -69 -12q16 -16 41 -63l12 -38l4 -36v-158q0 -53 -39 -84q-35 -28 -87 -28q-54 0 -89 29.5t-35 82.5v158q0 69 68 137 q-23 12 -80 12h-90q-52 0 -94 -36.5t-42 -88.5q24 24 62 24q42 0 75 -31.5t33 -72.5v-102q0 -38 -43.5 -75.5t-81.5 -37.5q-53 0 -89 31t-36 82v147q0 80 62.5 148.5t142.5 68.5h125l26 -3l16 -4l21 -7q34 -11 50 -22l40 23l40 13h33q217 0 217 -217v-69zM504 102v181 q0 42 -44 42q-46 0 -46 -42v-181q0 -18 13.5 -30.5t31.5 -12.5q45 0 45 43zM188 102v89q0 44 -47 44q-18 0 -31.5 -13.5t-13.5 -30.5v-89q0 -15 16 -31q10 -8 29 -14q14 0 30.5 15.5t16.5 29.5zM1372 0q0 -125 -193 -125h-205q-69 0 -69 -47v-90h-66v90q0 104 125 104h226 q42 0 77 24q25 22 25 54v92q0 77 -56 77q-40 0 -69 -44v-135h-78v420h-125v-420h-80v477h420v-57h-137v-217q32 32 81 32q52 0 88 -35t36 -87v-113z" />
<glyph unicode="&#xe28a;" horiz-adv-x="1721" d="M629 0h-80v488q0 87 -72 143q-66 51 -155 51q-95 0 -164 -91q-64 -85 -64 -183q0 -131 48 -232q40 -84 112 -119l-16 37l-6 29l-2 23v69q0 46 29.5 79.5t74.5 33.5h33q47 0 80 -33t33 -80v-80q0 -135 -181 -135q-283 0 -283 408q0 143 81 234q84 96 225 96q131 0 213 -58 q94 -66 94 -192v-488zM402 102v125q0 41 -46 41q-45 0 -45 -41v-125q0 -44 45 -44q46 0 46 44zM1232 0q0 -125 -193 -125h-205q-69 0 -69 -47v-90h-66v90q0 104 125 104h226q42 0 77 24q25 22 25 54v92q0 77 -56 77q-40 0 -69 -44v-135h-78v420h-125v-420h-80v477h420v-57 h-137v-217q32 32 81 32q52 0 88 -35t36 -87v-113zM1704 420h-137v-420h-78v420h-125v-420h-80v477h420v-57z" />
<glyph unicode="&#xe28b;" horiz-adv-x="1570" d="M502 135q0 -60 -55 -101q-46 -34 -115 -34h-45q-112 0 -196 117q-77 107 -77 223v80q0 141 94 229.5t236 88.5h45q47 0 80 -35t33 -78v-47q0 -58 -27 -95q-30 -42 -86 -42h-34q-46 0 -74.5 32.5t-28.5 83.5v56q0 46 23 69q-85 -22 -135 -106q-46 -76 -46 -168v-68 q0 -90 53 -178q58 -94 140 -117q-6 6 -22 44l-13 57v69q0 46 29 79.5t74 33.5h34q47 0 80 -33t33 -80v-80zM424 545v90q0 19 -14 30.5t-33 11.5q-45 0 -45 -42v-90q0 -14 15.5 -28t29.5 -17q15 0 29.5 15t17.5 30zM424 102v125q0 41 -47 41q-45 0 -45 -41v-125q0 -44 45 -44 q47 0 47 44zM1082 0q0 -125 -193 -125h-205q-69 0 -69 -47v-90h-66v90q0 104 125 104h226q42 0 77 24q25 22 25 54v92q0 77 -56 77q-40 0 -69 -44v-135h-78v420h-125v-420h-80v477h420v-57h-137v-217q32 32 81 32q52 0 88 -35t36 -87v-113zM1564 420h-137v-420h-78v420h-125 v-420h-80v477h420v-57z" />
<glyph unicode="&#xe28c;" horiz-adv-x="2052" d="M629 0h-80v488q0 87 -72 143q-66 51 -155 51q-95 0 -164 -91q-64 -85 -64 -183q0 -131 48 -232q40 -84 112 -119l-16 37l-6 29l-2 23v69q0 46 29.5 79.5t74.5 33.5h33q47 0 80 -33t33 -80v-80q0 -135 -181 -135q-283 0 -283 408q0 143 81 234q84 96 225 96q131 0 213 -58 q94 -66 94 -192v-488zM402 102v125q0 41 -46 41q-45 0 -45 -41v-125q0 -44 45 -44q46 0 46 44zM1222 5q0 -125 -193 -125h-205q-69 0 -69 -47v-90h-66v90q0 104 125 104h226q42 0 77 24q25 22 25 54v92q0 77 -56 77q-40 0 -69 -44v-135h-78v420h-125v-420h-80v477h420v-57 h-137v-217q32 32 81 32q52 0 88 -35t36 -87v-113zM2042 420h-136v-420h-78v420h-59q-29 0 -47.5 -19.5t-18.5 -48.5v-352h-81v328q0 28 -20 58q-21 34 -48 34h-68q-56 0 -90.5 -40t-34.5 -97q31 31 73 31q39 0 68 -30t29 -69v-102q0 -50 -37.5 -80t-89.5 -30t-86 29 q-37 30 -37 81v147q0 82 62 149.5t143 67.5h56q64 0 112 -57q39 57 105 57h283v-57zM1453 102v89q0 13 -15 31l-13 10q-8 6 -19 6q-15 0 -30 -16t-15 -31v-89q0 -44 45 -44q47 0 47 44z" />
<glyph unicode="&#xe290;" horiz-adv-x="529" d="M320 670q0 -31 -24 -58q-24 -21 -57 -21q-31 0 -55 20t-24 59q0 34 22.5 55.5t56.5 21.5q35 0 58 -21t23 -56zM469 0h-455v477h80v-420h295v420h80v-477z" />
<glyph unicode="&#xe291;" horiz-adv-x="541" d="M480 0h-455v477h80v-420h295v420h80v-477z" />
<glyph unicode="&#xe292;" horiz-adv-x="948" d="M460 0h-455v477h80v-420h295v420h80v-477zM947 420h-137v-420h-78v420h-125v-420h-80v477h420v-57z" />
<glyph unicode="&#xe293;" horiz-adv-x="727" d="M662 0h-78v533q0 49 -33 96q-37 53 -92 53q-51 0 -92 -36q-33 -36 -33 -89v-80q0 -92 57 -92v92h78v-477h-453v477h78v-420h297v271q-51 0 -94 45t-43 115v90q0 73 61 119q56 41 132 41q108 0 167 -63q48 -51 48 -142v-533z" />
<glyph unicode="&#xe294;" horiz-adv-x="536" d="M570 635q0 -50 -31 -76t-82 -26q-90 0 -90 92q-12 -6 -25 -28q-8 -22 -10 -40v-69q0 -103 57 -103v92h80v-477h-455v477h80v-420h295v271q-59 0 -99 52q-38 47 -38 108v90q0 70 63 117q57 43 130 43q125 0 125 -103zM502 635q0 17 -11.5 29.5t-28.5 12.5q-38 0 -38 -42 q0 -44 38 -44q40 0 40 44z" />
<glyph unicode="&#xe295;" horiz-adv-x="529" d="M469 -184h-80v184h-375v477h80v-420h295v420h80v-661z" />
<glyph unicode="&#xe296;" horiz-adv-x="715" d="M662 -68q0 -97 -102 -160q-92 -57 -238 -57q-160 0 -229 20q-101 29 -101 105q0 39 52 70t108 31h125v-56h-125q-31 0 -58 -15q-22 -16 -22 -42q0 -57 239 -57q104 0 177 33q96 45 96 137v24q0 80 -47 80q-13 0 -35.5 -11.5t-32.5 -23.5v-125h-78v115h-375v477h78v-420 h297v420h78v-420q8 17 29 31t39 14h24q101 0 101 -125v-45z" />
<glyph unicode="&#xe297;" horiz-adv-x="1147" d="M629 0h-80v488q0 87 -72 143q-66 51 -155 51q-95 0 -164 -91q-64 -85 -64 -183q0 -131 48 -232q40 -84 112 -119l-16 37l-6 29l-2 23v69q0 46 29.5 79.5t74.5 33.5h33q47 0 80 -33t33 -80v-80q0 -135 -181 -135q-283 0 -283 408q0 143 81 234q84 96 225 96q131 0 213 -58 q94 -66 94 -192v-488zM402 102v125q0 41 -46 41q-45 0 -45 -41v-125q0 -44 45 -44q46 0 46 44zM1130 0h-455v477h80v-420h295v420h80v-477z" />
<glyph unicode="&#xe298;" horiz-adv-x="1016" d="M502 135q0 -60 -55 -101q-46 -34 -115 -34h-45q-112 0 -196 117q-77 107 -77 223v80q0 141 94 229.5t236 88.5h45q47 0 80 -35t33 -78v-47q0 -58 -27 -95q-30 -42 -86 -42h-34q-46 0 -74.5 32.5t-28.5 83.5v56q0 46 23 69q-85 -22 -135 -106q-46 -76 -46 -168v-68 q0 -90 53 -178q58 -94 140 -117q-6 6 -22 44l-13 57v69q0 46 29 79.5t74 33.5h34q47 0 80 -33t33 -80v-80zM424 545v90q0 19 -14 30.5t-33 11.5q-45 0 -45 -42v-90q0 -14 15.5 -28t29.5 -17q15 0 29.5 15t17.5 30zM424 102v125q0 41 -47 41q-45 0 -45 -41v-125q0 -44 45 -44 q47 0 47 44zM990 0h-455v477h80v-420h295v420h80v-477z" />
<glyph unicode="&#xe299;" horiz-adv-x="1321" d="M789 191q0 -28 -7 -62q-5 -21 -22 -55q-28 -55 -72 -74q-19 0 -39 13.5t-20 31.5q33 22 56.5 61t23.5 76v89q0 39 -31 92q-35 57 -71 57h-11q-45 0 -69 -12q16 -16 41 -63l12 -38l4 -36v-158q0 -53 -39 -84q-35 -28 -87 -28q-54 0 -89 29.5t-35 82.5v158q0 69 68 137 q-23 12 -80 12h-90q-52 0 -94 -36.5t-42 -88.5q24 24 62 24q42 0 75 -31.5t33 -72.5v-102q0 -38 -43.5 -75.5t-81.5 -37.5q-53 0 -89 31t-36 82v147q0 80 62.5 148.5t142.5 68.5h125l26 -3l16 -4l21 -7q34 -11 50 -22l40 23l40 13h33q217 0 217 -217v-69zM504 102v181 q0 42 -44 42q-46 0 -46 -42v-181q0 -18 13.5 -30.5t31.5 -12.5q45 0 45 43zM188 102v89q0 44 -47 44q-18 0 -31.5 -13.5t-13.5 -30.5v-89q0 -15 16 -31q10 -8 29 -14q14 0 30.5 15.5t16.5 29.5zM1300 0h-455v477h80v-420h295v420h80v-477z" />
<glyph unicode="&#xe29a;" horiz-adv-x="1659" d="M629 0h-80v488q0 87 -72 143q-66 51 -155 51q-95 0 -164 -91q-64 -85 -64 -183q0 -131 48 -232q40 -84 112 -119l-16 37l-6 29l-2 23v69q0 46 29.5 79.5t74.5 33.5h33q47 0 80 -33t33 -80v-80q0 -135 -181 -135q-283 0 -283 408q0 143 81 234q84 96 225 96q131 0 213 -58 q94 -66 94 -192v-488zM402 102v125q0 41 -46 41q-45 0 -45 -41v-125q0 -44 45 -44q46 0 46 44zM1150 0h-455v477h80v-420h295v420h80v-477zM1644 420h-137v-420h-78v420h-125v-420h-80v477h420v-57z" />
<glyph unicode="&#xe29b;" horiz-adv-x="1541" d="M502 135q0 -60 -55 -101q-46 -34 -115 -34h-45q-112 0 -196 117q-77 107 -77 223v80q0 141 94 229.5t236 88.5h45q47 0 80 -35t33 -78v-47q0 -58 -27 -95q-30 -42 -86 -42h-34q-46 0 -74.5 32.5t-28.5 83.5v56q0 46 23 69q-85 -22 -135 -106q-46 -76 -46 -168v-68 q0 -90 53 -178q58 -94 140 -117q-6 6 -22 44l-13 57v69q0 46 29 79.5t74 33.5h34q47 0 80 -33t33 -80v-80zM424 545v90q0 19 -14 30.5t-33 11.5q-45 0 -45 -42v-90q0 -14 15.5 -28t29.5 -17q15 0 29.5 15t17.5 30zM424 102v125q0 41 -47 41q-45 0 -45 -41v-125q0 -44 45 -44 q47 0 47 44zM1020 0h-455v477h80v-420h295v420h80v-477zM1514 420h-137v-420h-78v420h-125v-420h-80v477h420v-57z" />
<glyph unicode="&#xe29c;" horiz-adv-x="1992" d="M629 0h-80v488q0 87 -72 143q-66 51 -155 51q-95 0 -164 -91q-64 -85 -64 -183q0 -131 48 -232q40 -84 112 -119l-16 37l-6 29l-2 23v69q0 46 29.5 79.5t74.5 33.5h33q47 0 80 -33t33 -80v-80q0 -135 -181 -135q-283 0 -283 408q0 143 81 234q84 96 225 96q131 0 213 -58 q94 -66 94 -192v-488zM402 102v125q0 41 -46 41q-45 0 -45 -41v-125q0 -44 45 -44q46 0 46 44zM1150 0h-455v477h80v-420h295v420h80v-477zM1977 420h-136v-420h-78v420h-59q-29 0 -47.5 -19.5t-18.5 -48.5v-352h-81v328q0 28 -20 58q-21 34 -48 34h-68q-56 0 -90.5 -40 t-34.5 -97q31 31 73 31q39 0 68 -30t29 -69v-102q0 -50 -37.5 -80t-89.5 -30t-86 29q-37 30 -37 81v147q0 82 62 149.5t143 67.5h56q64 0 112 -57q39 57 105 57h283v-57zM1388 102v89q0 13 -15 31l-13 10q-8 6 -19 6q-15 0 -30 -16t-15 -31v-89q0 -44 45 -44q47 0 47 44z " />
<glyph unicode="&#xe2a0;" horiz-adv-x="633" d="M374 669q0 -32 -22 -55.5t-53 -23.5q-34 0 -56.5 23.5t-22.5 55.5q0 35 22 58t57 23q33 0 54 -24t21 -57zM570 90q0 -90 -78 -90h-478v477h80v-420h193v328q0 38 35.5 65t101.5 27q146 0 146 -161v-226zM492 113v203q0 104 -68 104q-21 0 -44 -21q-13 -16 -13 -36v-306 h90q35 0 35 56z" />
<glyph unicode="&#xe2a1;" horiz-adv-x="633" d="M570 90q0 -90 -78 -90h-478v477h80v-420h193v328q0 38 35.5 65t101.5 27q146 0 146 -161v-226zM492 113v203q0 104 -68 104q-21 0 -44 -21q-13 -16 -13 -36v-306h90q35 0 35 56z" />
<glyph unicode="&#xe2a2;" horiz-adv-x="1074" d="M560 90q0 -90 -78 -90h-478v477h80v-420h193v328q0 38 35.5 65t101.5 27q146 0 146 -161v-226zM482 113v203q0 104 -68 104q-21 0 -44 -21q-13 -16 -13 -36v-306h90q35 0 35 56zM1068 417h-137v-420h-78v420h-125v-420h-80v477h420v-57z" />
<glyph unicode="&#xe2a3;" horiz-adv-x="795" d="M732 -12h-80v500q0 170 -101 170h-35q-37 0 -73 -33q-29 -34 -29 -80v-24q0 -33 22 -56q136 0 136 -158v-229q0 -90 -78 -90h-478v477h80v-420h193v330q0 54 68 78q-23 32 -23 68v24q0 77 53 125q51 45 129 45h35q87 0 137 -72q44 -64 44 -155v-500zM494 102v205 q0 101 -68 101q-24 0 -40.5 -16t-16.5 -40v-307h90q35 0 35 57z" />
<glyph unicode="&#xe2a4;" d="M686 602q0 -27 -27 -48t-54 -21h-44q-40 0 -65.5 27t-23.5 67l1 23l7 20q-28 0 -53 -26t-25 -54v-24q0 -45 34 -91q136 0 136 -159v-226q0 -38 -21.5 -64t-58.5 -26h-476v477h78v-420h193v328q0 52 72 82q-9 14 -24 48l-13 51v36q0 56 53 92q47 33 105 33h63q54 0 93 -19 q50 -25 50 -73v-33zM605 625v21q0 33 -33 33q-35 0 -35 -33v-21q0 -35 34 -35t34 35zM492 113v203q0 104 -68 104q-21 0 -44 -21q-13 -16 -13 -36v-306h92q33 0 33 56z" />
<glyph unicode="&#xe2a5;" horiz-adv-x="887" d="M822 90q0 -90 -78 -90h-125l1 -32q8 -265 -274 -265q-128 0 -227 83q-103 88 -103 214v191q0 60 37 140q39 86 88 110l35 -45q-30 -30 -55 -90t-25 -103v-215q0 -95 79 -158q73 -59 171 -59q102 0 154 65q45 57 41 131l-2 33h-273v477h80v-420h193v328q0 38 35.5 65 t101.5 27q146 0 146 -161v-226zM744 113v203q0 104 -68 104q-21 0 -44 -21q-13 -16 -13 -36v-306h90q35 0 35 56z" />
<glyph unicode="&#xe2a6;" horiz-adv-x="992" d="M926 90q0 -32 -18 -62q-22 -28 -62 -28h-125v-68q0 -88 -78 -144q-70 -50 -161 -50h-101q-153 0 -263 124q-100 113 -100 263v33q0 101 31 183q42 112 127 112h45q32 0 56 -28.5t24 -61.5v-35q0 -39 -30 -80q-30 -33 -72 -33h-45q-41 0 -58 12v-125q0 -106 89 -205 q92 -102 196 -102h80q74 0 126 41q56 45 56 117v47h-274v477h80v-420h194v328q0 44 48 71q40 21 88 21q147 0 147 -161v-226zM846 113v203q0 104 -67 104q-21 0 -44 -21q-14 -17 -14 -36v-306h92q15 0 29 18l3 13zM221 307v56q0 32 -43 32q-47 0 -47 -32v-56q0 -35 44 -35 q46 0 46 35z" />
<glyph unicode="&#xe2a7;" horiz-adv-x="1247" d="M629 0h-80v488q0 87 -72 143q-66 51 -155 51q-95 0 -164 -91q-64 -85 -64 -183q0 -131 48 -232q40 -84 112 -119l-16 37l-6 29l-2 23v69q0 46 29.5 79.5t74.5 33.5h33q47 0 80 -33t33 -80v-80q0 -135 -181 -135q-283 0 -283 408q0 143 81 234q84 96 225 96q131 0 213 -58 q94 -66 94 -192v-488zM402 102v125q0 41 -46 41q-45 0 -45 -41v-125q0 -44 45 -44q46 0 46 44zM1230 90q0 -90 -78 -90h-478v477h80v-420h193v328q0 38 35.5 65t101.5 27q146 0 146 -161v-226zM1152 113v203q0 104 -68 104q-21 0 -44 -21q-13 -16 -13 -36v-306h90 q35 0 35 56z" />
<glyph unicode="&#xe2a8;" horiz-adv-x="1105" d="M502 135q0 -60 -55 -101q-46 -34 -115 -34h-45q-112 0 -196 117q-77 107 -77 223v80q0 141 94 229.5t236 88.5h45q47 0 80 -35t33 -78v-47q0 -58 -27 -95q-30 -42 -86 -42h-34q-46 0 -74.5 32.5t-28.5 83.5v56q0 46 23 69q-85 -22 -135 -106q-46 -76 -46 -168v-68 q0 -90 53 -178q58 -94 140 -117q-6 6 -22 44l-13 57v69q0 46 29 79.5t74 33.5h34q47 0 80 -33t33 -80v-80zM424 545v90q0 19 -14 30.5t-33 11.5q-45 0 -45 -42v-90q0 -14 15.5 -28t29.5 -17q15 0 29.5 15t17.5 30zM424 102v125q0 41 -47 41q-45 0 -45 -41v-125q0 -44 45 -44 q47 0 47 44zM1090 90q0 -90 -78 -90h-478v477h80v-420h193v328q0 38 35.5 65t101.5 27q146 0 146 -161v-226zM1012 113v203q0 104 -68 104q-21 0 -44 -21q-13 -16 -13 -36v-306h90q35 0 35 56z" />
<glyph unicode="&#xe2a9;" horiz-adv-x="1426" d="M789 191q0 -28 -7 -62q-5 -21 -22 -55q-28 -55 -72 -74q-19 0 -39 13.5t-20 31.5q33 22 56.5 61t23.5 76v89q0 39 -31 92q-35 57 -71 57h-11q-45 0 -69 -12q16 -16 41 -63l12 -38l4 -36v-158q0 -53 -39 -84q-35 -28 -87 -28q-54 0 -89 29.5t-35 82.5v158q0 69 68 137 q-23 12 -80 12h-90q-52 0 -94 -36.5t-42 -88.5q24 24 62 24q42 0 75 -31.5t33 -72.5v-102q0 -38 -43.5 -75.5t-81.5 -37.5q-53 0 -89 31t-36 82v147q0 80 62.5 148.5t142.5 68.5h125l26 -3l16 -4l21 -7q34 -11 50 -22l40 23l40 13h33q217 0 217 -217v-69zM504 102v181 q0 42 -44 42q-46 0 -46 -42v-181q0 -18 13.5 -30.5t31.5 -12.5q45 0 45 43zM188 102v89q0 44 -47 44q-18 0 -31.5 -13.5t-13.5 -30.5v-89q0 -15 16 -31q10 -8 29 -14q14 0 30.5 15.5t16.5 29.5zM1400 90q0 -90 -78 -90h-478v477h80v-420h193v328q0 38 35.5 65t101.5 27 q146 0 146 -161v-226zM1322 113v203q0 104 -68 104q-21 0 -44 -21q-13 -16 -13 -36v-306h90q35 0 35 56z" />
<glyph unicode="&#xe2aa;" horiz-adv-x="1773" d="M629 0h-80v488q0 87 -72 143q-66 51 -155 51q-95 0 -164 -91q-64 -85 -64 -183q0 -131 48 -232q40 -84 112 -119l-16 37l-6 29l-2 23v69q0 46 29.5 79.5t74.5 33.5h33q47 0 80 -33t33 -80v-80q0 -135 -181 -135q-283 0 -283 408q0 143 81 234q84 96 225 96q131 0 213 -58 q94 -66 94 -192v-488zM402 102v125q0 41 -46 41q-45 0 -45 -41v-125q0 -44 45 -44q46 0 46 44zM1250 90q0 -90 -78 -90h-478v477h80v-420h193v328q0 38 35.5 65t101.5 27q146 0 146 -161v-226zM1172 113v203q0 104 -68 104q-21 0 -44 -21q-13 -16 -13 -36v-306h90 q35 0 35 56zM1754 420h-137v-420h-78v420h-125v-420h-80v477h420v-57z" />
<glyph unicode="&#xe2ab;" horiz-adv-x="1638" d="M502 135q0 -60 -55 -101q-46 -34 -115 -34h-45q-112 0 -196 117q-77 107 -77 223v80q0 141 94 229.5t236 88.5h45q47 0 80 -35t33 -78v-47q0 -58 -27 -95q-30 -42 -86 -42h-34q-46 0 -74.5 32.5t-28.5 83.5v56q0 46 23 69q-85 -22 -135 -106q-46 -76 -46 -168v-68 q0 -90 53 -178q58 -94 140 -117q-6 6 -22 44l-13 57v69q0 46 29 79.5t74 33.5h34q47 0 80 -33t33 -80v-80zM424 545v90q0 19 -14 30.5t-33 11.5q-45 0 -45 -42v-90q0 -14 15.5 -28t29.5 -17q15 0 29.5 15t17.5 30zM424 102v125q0 41 -47 41q-45 0 -45 -41v-125q0 -44 45 -44 q47 0 47 44zM1130 90q0 -90 -78 -90h-478v477h80v-420h193v328q0 38 35.5 65t101.5 27q146 0 146 -161v-226zM1052 113v203q0 104 -68 104q-21 0 -44 -21q-13 -16 -13 -36v-306h90q35 0 35 56zM1625 420h-137v-420h-78v420h-125v-420h-80v477h420v-57z" />
<glyph unicode="&#xe2ac;" horiz-adv-x="2077" d="M629 0h-80v488q0 87 -72 143q-66 51 -155 51q-95 0 -164 -91q-64 -85 -64 -183q0 -131 48 -232q40 -84 112 -119l-16 37l-6 29l-2 23v69q0 46 29.5 79.5t74.5 33.5h33q47 0 80 -33t33 -80v-80q0 -135 -181 -135q-283 0 -283 408q0 143 81 234q84 96 225 96q131 0 213 -58 q94 -66 94 -192v-488zM402 102v125q0 41 -46 41q-45 0 -45 -41v-125q0 -44 45 -44q46 0 46 44zM1250 90q0 -90 -78 -90h-478v477h80v-420h193v328q0 38 35.5 65t101.5 27q146 0 146 -161v-226zM1172 113v203q0 104 -68 104q-21 0 -44 -21q-13 -16 -13 -36v-306h90 q35 0 35 56zM2067 420h-136v-420h-78v420h-59q-29 0 -47.5 -19.5t-18.5 -48.5v-352h-81v328q0 28 -20 58q-21 34 -48 34h-68q-56 0 -90.5 -40t-34.5 -97q31 31 73 31q39 0 68 -30t29 -69v-102q0 -50 -37.5 -80t-89.5 -30t-86 29q-37 30 -37 81v147q0 82 62 149.5t143 67.5 h56q64 0 112 -57q39 57 105 57h283v-57zM1478 102v89q0 13 -15 31l-13 10q-8 6 -19 6q-15 0 -30 -16t-15 -31v-89q0 -44 45 -44q47 0 47 44z" />
<glyph unicode="&#xe2b0;" horiz-adv-x="668" d="M388 669q0 -33 -22.5 -56t-54.5 -23q-34 0 -56.5 23.5t-22.5 55.5q0 35 22 58t57 23q38 0 57.5 -24t19.5 -57zM605 0h-386v66q-22 -29 -60 -47.5t-75 -18.5t-51 10q-17 12 -17 47v420h78v-399q6 -25 41 -25q32 0 56.5 25t27.5 57v342h80v-420h228v420h78v-477z" />
<glyph unicode="&#xe2b1;" horiz-adv-x="668" d="M605 0h-386v66q-22 -29 -60 -47.5t-75 -18.5t-51 10q-17 12 -17 47v420h78v-399q6 -25 41 -25q32 0 56.5 25t27.5 57v342h80v-420l221 1v420l85 -1v-477z" />
<glyph unicode="&#xe2b2;" horiz-adv-x="1095" d="M593 0h-386v66q-22 -29 -60 -47.5t-75 -18.5t-51 10q-17 12 -17 47v420h78v-399q6 -25 41 -25q32 0 56.5 25t27.5 57v342h80v-420l221 1v420l85 -1v-477zM1082 420h-137v-420h-78v420h-125v-420h-80v477h420v-57z" />
<glyph unicode="&#xe2b3;" horiz-adv-x="865" d="M801 0h-80v533q0 55 -35 100q-37 49 -90 49q-51 0 -92 -36q-33 -36 -33 -89v-80q0 -92 56 -92v92h80v-477h-386v66q-18 -26 -56 -46t-81 -20q-35 0 -50 11q-18 12 -18 46v420h80v-399q6 -25 40 -25q33 0 56.5 24t28.5 58v342h80v-420h226v271q-58 0 -98 52 q-38 49 -38 108v90q0 73 61 119q56 41 132 41q100 0 158.5 -53t58.5 -152v-533z" />
<glyph unicode="&#xe2b4;" horiz-adv-x="672" d="M709 635q0 -48 -32 -75t-83 -27q-90 0 -90 92q-35 -17 -35 -68v-69q0 -103 58 -103v92h78v-477h-386v66q-22 -29 -60 -47.5t-75 -18.5t-51 10q-17 12 -17 47v420h78v-399q6 -25 41 -25q32 0 56.5 25t27.5 57v342h80v-420h228v271q-58 0 -98 52q-38 49 -38 108v90 q0 70 63 117q57 43 130 43q125 0 125 -103zM638 634q0 20 -12 34t-32 14q-34 0 -34 -48q0 -44 34 -44q44 0 44 44z" />
<glyph unicode="&#xe2b5;" horiz-adv-x="668" d="M605 -184h-78v184h-308v66q-22 -29 -60 -47.5t-75 -18.5t-51 10q-17 12 -17 47v420h78v-399q6 -25 41 -25q32 0 56.5 25t27.5 57v342h80v-420h228v420h78v-661z" />
<glyph unicode="&#xe2b6;" horiz-adv-x="842" d="M607 -115h-80v115h-306v66q-18 -26 -56 -46t-81 -20q-35 0 -50 11q-18 12 -18 46v420h80v-399q6 -25 40 -25q33 0 56.5 24t28.5 58v342h80v-420h226v420h80v-592zM801 -68q0 -241 -330 -241h-125q-352 0 -352 149q0 41 54 76q52 25 104 25h125v-56h-101q-33 0 -64 -13 q-40 -16 -40 -44q0 -30 65 -49q16 -5 29 -7q66 -12 135 -12h137q283 0 283 160v33q0 31 -11 59q-13 33 -34 33q-51 0 -69 -35v56q18 36 81 36h21q48 0 73 -54q19 -41 19 -95v-21z" />
<glyph unicode="&#xe2b7;" horiz-adv-x="1273" d="M629 0h-80v488q0 87 -72 143q-66 51 -155 51q-95 0 -164 -91q-64 -85 -64 -183q0 -131 48 -232q40 -84 112 -119l-16 37l-6 29l-2 23v69q0 46 29.5 79.5t74.5 33.5h33q47 0 80 -33t33 -80v-80q0 -135 -181 -135q-283 0 -283 408q0 143 81 234q84 96 225 96q131 0 213 -58 q94 -66 94 -192v-488zM402 102v125q0 41 -46 41q-45 0 -45 -41v-125q0 -44 45 -44q46 0 46 44zM1255 0h-386v66q-22 -29 -60 -47.5t-75 -18.5t-51 10q-17 12 -17 47v420h78v-399q6 -25 41 -25q32 0 56.5 25t27.5 57v342h80v-420l221 1v420l85 -1v-477z" />
<glyph unicode="&#xe2b8;" horiz-adv-x="1156" d="M502 135q0 -60 -55 -101q-46 -34 -115 -34h-45q-112 0 -196 117q-77 107 -77 223v80q0 141 94 229.5t236 88.5h45q47 0 80 -35t33 -78v-47q0 -58 -27 -95q-30 -42 -86 -42h-34q-46 0 -74.5 32.5t-28.5 83.5v56q0 46 23 69q-85 -22 -135 -106q-46 -76 -46 -168v-68 q0 -90 53 -178q58 -94 140 -117q-6 6 -22 44l-13 57v69q0 46 29 79.5t74 33.5h34q47 0 80 -33t33 -80v-80zM424 545v90q0 19 -14 30.5t-33 11.5q-45 0 -45 -42v-90q0 -14 15.5 -28t29.5 -17q15 0 29.5 15t17.5 30zM424 102v125q0 41 -47 41q-45 0 -45 -41v-125q0 -44 45 -44 q47 0 47 44zM1140 0h-386v66q-22 -29 -60 -47.5t-75 -18.5t-51 10q-17 12 -17 47v420h78v-399q6 -25 41 -25q32 0 56.5 25t27.5 57v342h80v-420l221 1v420l85 -1v-477z" />
<glyph unicode="&#xe2b9;" horiz-adv-x="1432" d="M789 191q0 -28 -7 -62q-5 -21 -22 -55q-28 -55 -72 -74q-19 0 -39 13.5t-20 31.5q33 22 56.5 61t23.5 76v89q0 39 -31 92q-35 57 -71 57h-11q-45 0 -69 -12q16 -16 41 -63l12 -38l4 -36v-158q0 -53 -39 -84q-35 -28 -87 -28q-54 0 -89 29.5t-35 82.5v158q0 69 68 137 q-23 12 -80 12h-90q-52 0 -94 -36.5t-42 -88.5q24 24 62 24q42 0 75 -31.5t33 -72.5v-102q0 -38 -43.5 -75.5t-81.5 -37.5q-53 0 -89 31t-36 82v147q0 80 62.5 148.5t142.5 68.5h125l26 -3l16 -4l21 -7q34 -11 50 -22l40 23l40 13h33q217 0 217 -217v-69zM504 102v181 q0 42 -44 42q-46 0 -46 -42v-181q0 -18 13.5 -30.5t31.5 -12.5q45 0 45 43zM188 102v89q0 44 -47 44q-18 0 -31.5 -13.5t-13.5 -30.5v-89q0 -15 16 -31q10 -8 29 -14q14 0 30.5 15.5t16.5 29.5zM1425 0h-386v66q-22 -29 -60 -47.5t-75 -18.5t-51 10q-17 12 -17 47v420h78 v-399q6 -25 41 -25q32 0 56.5 25t27.5 57v342h80v-420l221 1v420l85 -1v-477z" />
<glyph unicode="&#xe2ba;" horiz-adv-x="1793" d="M629 0h-80v488q0 87 -72 143q-66 51 -155 51q-95 0 -164 -91q-64 -85 -64 -183q0 -131 48 -232q40 -84 112 -119l-16 37l-6 29l-2 23v69q0 46 29.5 79.5t74.5 33.5h33q47 0 80 -33t33 -80v-80q0 -135 -181 -135q-283 0 -283 408q0 143 81 234q84 96 225 96q131 0 213 -58 q94 -66 94 -192v-488zM402 102v125q0 41 -46 41q-45 0 -45 -41v-125q0 -44 45 -44q46 0 46 44zM1305 0h-386v66q-22 -29 -60 -47.5t-75 -18.5t-51 10q-17 12 -17 47v420h78v-399q6 -25 41 -25q32 0 56.5 25t27.5 57v342h80v-420l221 1v420l85 -1v-477zM1774 420h-137v-420 h-78v420h-125v-420h-80v477h420v-57z" />
<glyph unicode="&#xe2bb;" horiz-adv-x="1668" d="M502 135q0 -60 -55 -101q-46 -34 -115 -34h-45q-112 0 -196 117q-77 107 -77 223v80q0 141 94 229.5t236 88.5h45q47 0 80 -35t33 -78v-47q0 -58 -27 -95q-30 -42 -86 -42h-34q-46 0 -74.5 32.5t-28.5 83.5v56q0 46 23 69q-85 -22 -135 -106q-46 -76 -46 -168v-68 q0 -90 53 -178q58 -94 140 -117q-6 6 -22 44l-13 57v69q0 46 29 79.5t74 33.5h34q47 0 80 -33t33 -80v-80zM424 545v90q0 19 -14 30.5t-33 11.5q-45 0 -45 -42v-90q0 -14 15.5 -28t29.5 -17q15 0 29.5 15t17.5 30zM424 102v125q0 41 -47 41q-45 0 -45 -41v-125q0 -44 45 -44 q47 0 47 44zM1150 0h-386v66q-22 -29 -60 -47.5t-75 -18.5t-51 10q-17 12 -17 47v420h78v-399q6 -25 41 -25q32 0 56.5 25t27.5 57v342h80v-420l221 1v420l85 -1v-477zM1644 420h-137v-420h-78v420h-125v-420h-80v477h420v-57z" />
<glyph unicode="&#xe2bc;" horiz-adv-x="2112" d="M629 0h-80v488q0 87 -72 143q-66 51 -155 51q-95 0 -164 -91q-64 -85 -64 -183q0 -131 48 -232q40 -84 112 -119l-16 37l-6 29l-2 23v69q0 46 29.5 79.5t74.5 33.5h33q47 0 80 -33t33 -80v-80q0 -135 -181 -135q-283 0 -283 408q0 143 81 234q84 96 225 96q131 0 213 -58 q94 -66 94 -192v-488zM402 102v125q0 41 -46 41q-45 0 -45 -41v-125q0 -44 45 -44q46 0 46 44zM1285 0h-386v66q-22 -29 -60 -47.5t-75 -18.5t-51 10q-17 12 -17 47v420h78v-399q6 -25 41 -25q32 0 56.5 25t27.5 57v342h80v-420l221 1v420l85 -1v-477zM2107 420h-136v-420 h-78v420h-59q-29 0 -47.5 -19.5t-18.5 -48.5v-352h-81v328q0 28 -20 58q-21 34 -48 34h-68q-56 0 -90.5 -40t-34.5 -97q31 31 73 31q39 0 68 -30t29 -69v-102q0 -50 -37.5 -80t-89.5 -30t-86 29q-37 30 -37 81v147q0 82 62 149.5t143 67.5h56q64 0 112 -57q39 57 105 57h283 v-57zM1518 102v89q0 13 -15 31l-13 10q-8 6 -19 6q-15 0 -30 -16t-15 -31v-89q0 -44 45 -44q47 0 47 44z" />
<glyph unicode="&#xe2c0;" horiz-adv-x="461" d="M332 670q0 -31 -24 -58q-24 -21 -56 -21q-26 0 -55 21q-23 21 -23 58q0 31 24 58q22 19 54 19q33 0 56.5 -22.5t23.5 -54.5zM434 420h-137v-420l-125 -137l-45 45l92 102v410h-125v-420h-80v477h420v-57z" />
<glyph unicode="&#xe2c1;" horiz-adv-x="461" d="M434 420h-137v-420l-125 -137l-45 45l92 102v410h-125v-420h-80v477h420v-57z" />
<glyph unicode="&#xe2c2;" horiz-adv-x="909" d="M424 420h-137v-420l-125 -137l-45 45l92 102v410h-125v-420h-80v477h420v-57zM894 420h-137v-420h-78v420h-125v-420h-80v477h420v-57z" />
<glyph unicode="&#xe2c3;" horiz-adv-x="656" d="M594 0h-80v500q0 170 -102 170h-35q-37 0 -73 -33q-29 -34 -29 -80v-24q0 -29 17 -56h142v-57h-137v-420l-125 -137l-45 45l92 102v410h-125v-420h-80v477h196q-15 23 -15 56v24q0 75 53 122.5t129 47.5h35q85 0 136 -73q46 -66 46 -154v-500z" />
<glyph unicode="&#xe2c4;" horiz-adv-x="518" d="M537 602q0 -23 -24 -46t-56 -23h-45q-38 0 -64 28.5t-24 65.5l1 23l7 20q-27 0 -53.5 -26t-26.5 -54v-24q0 -44 28 -89h154v-57h-137v-420l-125 -137l-45 45l92 102v410h-125v-420h-80v477h189l-18 44l-8 25l-3 20v36q0 56 53 92q47 33 105 33h63q54 0 92 -19 q50 -25 50 -73v-33zM457 625v21q0 33 -33 33q-35 0 -35 -33v-21q0 -35 34 -35t34 35z" />
<glyph unicode="&#xe2c5;" horiz-adv-x="830" d="M766 66q0 -161 -109 -253q-102 -86 -266 -86q-155 0 -265 104.5t-110 258.5q0 114 54 224q41 84 106 139l45 -33q-47 -47 -79 -122q-46 -108 -46 -208q0 -120 88 -213.5t207 -93.5q137 0 221 86q76 77 76 188q0 44 -16 79q-21 44 -60 44q-27 0 -49 -22v-158h-81v420h-125 v-420h-80v477h420v-57h-134v-205q31 25 70 25q66 0 102 -56q31 -48 31 -118z" />
<glyph unicode="&#xe2c6;" horiz-adv-x="922" d="M857 57q0 -130 -104 -224.5t-235 -94.5h-57q-167 0 -298 103q-145 114 -145 284v33q0 106 29 184q41 111 129 111h45q32 0 56 -28.5t24 -61.5v-35q0 -39 -30 -80q-30 -33 -72 -33h-45q-35 0 -58 23v-148q0 -121 118 -211q110 -84 247 -84h57q104 0 182.5 79t78.5 183v45 q0 38 -15 66q-18 35 -53 35h-12q-21 0 -45 -21v-182h-80v420h-125v-420h-80v477h420v-57h-135v-182q5 5 22 12l35 10h21q52 0 90 -61q35 -54 35 -109v-33zM221 307v56q0 12 -16 22.5t-29 10.5q-11 0 -31 -12q-8 -5 -14 -21v-56q0 -35 45 -35t45 35z" />
<glyph unicode="&#xe2c7;" horiz-adv-x="1134" d="M639 0h-80v488q0 87 -72 143q-66 51 -155 51q-95 0 -164 -91q-64 -85 -64 -183q0 -131 48 -232q40 -84 112 -119l-16 37l-6 29l-2 23v69q0 46 29.5 79.5t74.5 33.5h33q47 0 80 -33t33 -80v-80q0 -135 -181 -135q-283 0 -283 408q0 143 81 234q84 96 225 96q131 0 213 -58 q94 -66 94 -192v-488zM412 102v125q0 41 -46 41q-45 0 -45 -41v-125q0 -44 45 -44q46 0 46 44zM1114 420h-137v-420l-125 -137l-45 45l92 102v410h-125v-420h-80v477h420v-57z" />
<glyph unicode="&#xe2c8;" horiz-adv-x="1004" d="M515 135q0 -60 -55 -101q-46 -34 -115 -34h-45q-112 0 -196 117q-77 107 -77 223v80q0 141 94 229.5t236 88.5h45q47 0 80 -35t33 -78v-47q0 -58 -27 -95q-30 -42 -86 -42h-34q-46 0 -74.5 32.5t-28.5 83.5v56q0 46 23 69q-85 -22 -135 -106q-46 -76 -46 -168v-68 q0 -90 53 -178q58 -94 140 -117q-6 6 -22 44l-13 57v69q0 46 29 79.5t74 33.5h34q47 0 80 -33t33 -80v-80zM437 545v90q0 19 -14 30.5t-33 11.5q-45 0 -45 -42v-90q0 -14 15.5 -28t29.5 -17q15 0 29.5 15t17.5 30zM437 102v125q0 41 -47 41q-45 0 -45 -41v-125q0 -44 45 -44 q47 0 47 44zM994 420h-137v-420l-125 -137l-45 45l92 102v410h-125v-420h-80v477h420v-57z" />
<glyph unicode="&#xe2c9;" horiz-adv-x="1286" d="M789 191q0 -28 -7 -62q-5 -21 -22 -55q-28 -55 -72 -74q-19 0 -39 13.5t-20 31.5q33 22 56.5 61t23.5 76v89q0 39 -31 92q-35 57 -71 57h-11q-45 0 -69 -12q16 -16 41 -63l12 -38l4 -36v-158q0 -53 -39 -84q-35 -28 -87 -28q-54 0 -89 29.5t-35 82.5v158q0 69 68 137 q-23 12 -80 12h-90q-52 0 -94 -36.5t-42 -88.5q24 24 62 24q42 0 75 -31.5t33 -72.5v-102q0 -38 -43.5 -75.5t-81.5 -37.5q-53 0 -89 31t-36 82v147q0 80 62.5 148.5t142.5 68.5h125l26 -3l16 -4l21 -7q34 -11 50 -22l40 23l40 13h33q217 0 217 -217v-69zM504 102v181 q0 42 -44 42q-46 0 -46 -42v-181q0 -18 13.5 -30.5t31.5 -12.5q45 0 45 43zM188 102v89q0 44 -47 44q-18 0 -31.5 -13.5t-13.5 -30.5v-89q0 -15 16 -31q10 -8 29 -14q14 0 30.5 15.5t16.5 29.5zM1274 420h-137v-420l-125 -137l-45 45l92 102v410h-125v-420h-80v477h420v-57z " />
<glyph unicode="&#xe2ca;" horiz-adv-x="1605" d="M642 0h-80v488q0 87 -72 143q-66 51 -155 51q-95 0 -164 -91q-64 -85 -64 -183q0 -131 48 -232q40 -84 112 -119l-16 37l-6 29l-2 23v69q0 46 29.5 79.5t74.5 33.5h33q47 0 80 -33t33 -80v-80q0 -135 -181 -135q-283 0 -283 408q0 143 81 234q84 96 225 96q131 0 213 -58 q94 -66 94 -192v-488zM415 102v125q0 41 -46 41q-45 0 -45 -41v-125q0 -44 45 -44q46 0 46 44zM1129 425h-137v-420l-125 -137l-45 45l92 102v410h-125v-420h-80v477h420v-57zM1594 420h-137v-420h-78v420h-125v-420h-80v477h420v-57z" />
<glyph unicode="&#xe2cb;" horiz-adv-x="1437" d="M512 135q0 -60 -55 -101q-46 -34 -115 -34h-45q-112 0 -196 117q-77 107 -77 223v80q0 141 94 229.5t236 88.5h45q47 0 80 -35t33 -78v-47q0 -58 -27 -95q-30 -42 -86 -42h-34q-46 0 -74.5 32.5t-28.5 83.5v56q0 46 23 69q-85 -22 -135 -106q-46 -76 -46 -168v-68 q0 -90 53 -178q58 -94 140 -117q-6 6 -22 44l-13 57v69q0 46 29 79.5t74 33.5h34q47 0 80 -33t33 -80v-80zM434 545v90q0 19 -14 30.5t-33 11.5q-45 0 -45 -42v-90q0 -14 15.5 -28t29.5 -17q15 0 29.5 15t17.5 30zM434 102v125q0 41 -47 41q-45 0 -45 -41v-125q0 -44 45 -44 q47 0 47 44zM984 420h-137v-420l-125 -137l-45 45l92 102v410h-125v-420h-80v477h420v-57zM1434 420h-137v-420h-78v420h-125v-420h-80v477h420v-57z" />
<glyph unicode="&#xe2cc;" horiz-adv-x="1893" d="M629 0h-80v488q0 87 -72 143q-66 51 -155 51q-95 0 -164 -91q-64 -85 -64 -183q0 -131 48 -232q40 -84 112 -119l-16 37l-6 29l-2 23v69q0 46 29.5 79.5t74.5 33.5h33q47 0 80 -33t33 -80v-80q0 -135 -181 -135q-283 0 -283 408q0 143 81 234q84 96 225 96q131 0 213 -58 q94 -66 94 -192v-488zM402 102v125q0 41 -46 41q-45 0 -45 -41v-125q0 -44 45 -44q46 0 46 44zM1104 420h-137v-420l-125 -137l-45 45l92 102v410h-125v-420h-80v477h420v-57zM1887 420h-136v-420h-78v420h-59q-29 0 -47.5 -19.5t-18.5 -48.5v-352h-81v328q0 28 -20 58 q-21 34 -48 34h-68q-56 0 -90.5 -40t-34.5 -97q31 31 73 31q39 0 68 -30t29 -69v-102q0 -50 -37.5 -80t-89.5 -30t-86 29q-37 30 -37 81v147q0 82 62 149.5t143 67.5h56q64 0 112 -57q39 57 105 57h283v-57zM1298 102v89q0 13 -15 31l-13 10q-8 6 -19 6q-15 0 -30 -16 t-15 -31v-89q0 -44 45 -44q47 0 47 44z" />
<glyph unicode="&#xe2d0;" horiz-adv-x="715" d="M424 670q0 -31 -24 -58q-24 -21 -56 -21q-26 0 -55 21q-23 21 -23 58q0 31 24 58q22 19 54 19q33 0 56.5 -22.5t23.5 -54.5zM652 146q0 -63 -48 -104.5t-112 -41.5q-69 0 -111 32q-47 36 -47 103v181q0 33 -23 67q-26 37 -57 37h-35q-53 0 -89 -42t-36 -95q30 32 75 32 q22 0 33 -5l19 -9l15 -12q30 -29 30 -74v-102q0 -40 -42.5 -76.5t-82.5 -36.5q-53 0 -89 31t-36 82v147q0 79 62.5 148t140.5 69h47q67 0 108 -48q38 -45 38 -113v-181q0 -30 24 -56q25 -20 57 -20q34 0 56.5 21t22.5 55v181q0 46 -25 84t-67 53l36 47q62 -20 99 -69.5 t37 -114.5v-170zM186 102v89q0 44 -46 44t-46 -44v-89q0 -18 13.5 -30.5t32.5 -12.5t32.5 12t13.5 31z" />
<glyph unicode="&#xe2d1;" horiz-adv-x="715" d="M652 146q0 -63 -48 -104.5t-112 -41.5q-69 0 -111 32q-47 36 -47 103v181q0 33 -23 67q-26 37 -57 37h-35q-53 0 -89 -42t-36 -95q30 32 75 32q22 0 33 -5l19 -9l15 -12q30 -29 30 -74v-102q0 -40 -42.5 -76.5t-82.5 -36.5q-53 0 -89 31t-36 82v147q0 79 62.5 148 t140.5 69h47q67 0 108 -48q38 -45 38 -113v-181q0 -30 24 -56q25 -20 57 -20q34 0 56.5 21t22.5 55v181q0 46 -25 84t-67 53l36 47q62 -20 99 -69.5t37 -114.5v-170zM186 102v89q0 44 -46 44t-46 -44v-89q0 -18 13.5 -30.5t32.5 -12.5t32.5 12t13.5 31z" />
<glyph unicode="&#xe2d2;" horiz-adv-x="1125" d="M642 146q0 -63 -48 -104.5t-112 -41.5q-69 0 -111 32q-47 36 -47 103v181q0 33 -23 67q-26 37 -57 37h-35q-53 0 -89 -42t-36 -95q30 32 75 32q22 0 33 -5l19 -9l15 -12q30 -29 30 -74v-102q0 -40 -42.5 -76.5t-82.5 -36.5q-53 0 -89 31t-36 82v147q0 79 62.5 148 t140.5 69h47q67 0 108 -48q38 -45 38 -113v-181q0 -30 24 -56q25 -20 57 -20q34 0 56.5 21t22.5 55v181q0 46 -25 84t-67 53l36 47q62 -20 99 -69.5t37 -114.5v-170zM176 102v89q0 44 -46 44t-46 -44v-89q0 -18 13.5 -30.5t32.5 -12.5t32.5 12t13.5 31zM1114 420h-137v-420 h-78v420h-125v-420h-80v477h420v-57z" />
<glyph unicode="&#xe2d3;" horiz-adv-x="900" d="M836 0h-80v533q0 48 -39 98.5t-86 50.5h-57q-37 0 -73 -36q-31 -37 -31 -76q0 -44 48 -70q62 -20 99 -69.5t37 -114.5v-170q0 -67 -53 -109q-47 -37 -116 -37q-63 0 -106 36.5t-43 98.5v181q0 33 -23 67q-26 37 -57 37h-35q-53 0 -89 -42t-36 -95q30 32 75 32q22 0 33 -5 l19 -9l15 -12q30 -29 30 -74v-102q0 -40 -42.5 -76.5t-82.5 -36.5q-53 0 -89 31t-36 82v147q0 79 62.5 148t140.5 69h47q67 0 108 -48q38 -45 38 -113v-181q0 -30 24 -56q25 -20 57 -20q34 0 56.5 21t22.5 55v181q0 48 -32.5 86t-80.5 51q-36 26 -52 53q-7 15 -12 33l-4 49 q-5 56 54 105q54 45 127 45h57q84 0 142 -48q63 -51 63 -133v-557zM188 102v89q0 44 -46 44t-46 -44v-89q0 -18 13.5 -30.5t32.5 -12.5t32.5 12t13.5 31z" />
<glyph unicode="&#xe2d4;" horiz-adv-x="715" d="M742 635q0 -102 -80 -102q-44 0 -72 23t-26 66l1 23l7 25q-34 0 -61 -30q-22 -31 -22 -69q0 -62 48 -83q115 -35 115 -172v-170q0 -67 -53 -109q-47 -37 -116 -37q-63 0 -106 36.5t-43 98.5v181q0 33 -23 67q-26 37 -57 37h-35q-53 0 -89 -42t-36 -95q30 32 75 32 q22 0 33 -5l19 -9l15 -12q30 -29 30 -74v-102q0 -40 -42.5 -76.5t-82.5 -36.5q-53 0 -89 31t-36 82v147q0 79 62.5 148t140.5 69h47q67 0 108 -48q38 -45 38 -113v-181q0 -30 24 -56q25 -20 57 -20q34 0 56.5 21t22.5 55v181q0 109 -92 137q-22 14 -40 68q-16 48 -16 81 q21 125 170 125q56 0 96 -18q52 -24 52 -74zM697 625q0 41 -33 41q-19 0 -33 -16.5t-14 -36.5q6 -33 36 -33q17 0 30.5 14t13.5 31zM186 102v89q0 44 -46 44t-46 -44v-89q0 -18 13.5 -30.5t32.5 -12.5t32.5 12t13.5 31z" />
<glyph unicode="&#xe2d5;" horiz-adv-x="898" d="M834 -115h-320q-75 -147 -270 -147q-117 0 -191 48q-47 30 -59 89q0 66 57 66h387v65q-104 24 -104 129v181q0 36 -22 68q-24 36 -58 36h-33q-53 0 -89 -41.5t-36 -95.5q31 31 73 31q39 0 68 -30t29 -69v-102q0 -40 -42.5 -76.5t-82.5 -36.5q-53 0 -89 31t-36 82v147 q0 80 62.5 148.5t142.5 68.5h45q69 0 108.5 -45.5t39.5 -115.5v-181q0 -30 25 -56q22 -19 54 -19q34 0 56.5 20.5t22.5 54.5v181q0 44 -27 88q-26 35 -63 49l34 47q62 -19 99 -69t37 -115v-170q0 -57 -39 -96.5t-97 -49.5v-59h238v536h80v-592zM188 102v89q0 44 -47 44 q-18 0 -31.5 -13.5t-13.5 -30.5v-89q0 -44 45 -44q47 0 47 44zM428 -115h-356q0 -27 39 -59l24 -12l32 -10l35 -7l42 -2q63 -3 121 28q46 25 63 62z" />
<glyph unicode="&#xe2d6;" horiz-adv-x="1211" d="M1178 420h-137v-535h-80v535h-125v-535h-320q-77 -147 -270 -147q-117 0 -191 48q-47 31 -59 89q0 66 57 66h385v65q-102 24 -102 129v181q0 36 -22 68q-24 36 -58 36h-33q-53 0 -89 -41.5t-36 -95.5q31 31 73 31q39 0 68 -30t29 -69v-102q0 -40 -42.5 -76.5t-82.5 -36.5 q-53 0 -89 31t-36 82v147q0 80 62.5 148.5t142.5 68.5h45q69 0 108.5 -45.5t39.5 -115.5v-181q0 -30 25 -56q22 -19 54 -19q34 0 56.5 20.5t22.5 54.5v181q0 44 -27 88q-26 35 -63 49l34 47q62 -19 99 -69t37 -115v-170q0 -57 -39 -96.5t-97 -49.5v-59h238v536h422v-57z M188 102v89q0 18 -13.5 32.5t-31.5 14.5q-17 0 -31 -15t-14 -32v-89q0 -18 13.5 -30.5t31.5 -12.5q45 0 45 43zM430 -115h-356l-2 -8q0 -42 71 -65q52 -17 103 -17q130 0 184 90z" />
<glyph unicode="&#xe2d7;" horiz-adv-x="1332" d="M629 0h-80v488q0 87 -72 143q-66 51 -155 51q-95 0 -164 -91q-64 -85 -64 -183q0 -131 48 -232q40 -84 112 -119l-16 37l-6 29l-2 23v69q0 46 29.5 79.5t74.5 33.5h33q47 0 80 -33t33 -80v-80q0 -135 -181 -135q-283 0 -283 408q0 143 81 234q84 96 225 96q131 0 213 -58 q94 -66 94 -192v-488zM402 102v125q0 41 -46 41q-45 0 -45 -41v-125q0 -44 45 -44q46 0 46 44zM1312 146q0 -63 -48 -104.5t-112 -41.5q-69 0 -111 32q-47 36 -47 103v181q0 33 -23 67q-26 37 -57 37h-35q-53 0 -89 -42t-36 -95q30 32 75 32q22 0 33 -5l19 -9l15 -12 q30 -29 30 -74v-102q0 -40 -42.5 -76.5t-82.5 -36.5q-53 0 -89 31t-36 82v147q0 79 62.5 148t140.5 69h47q67 0 108 -48q38 -45 38 -113v-181q0 -30 24 -56q25 -20 57 -20q34 0 56.5 21t22.5 55v181q0 46 -25 84t-67 53l36 47q62 -20 99 -69.5t37 -114.5v-170zM846 102v89 q0 44 -46 44t-46 -44v-89q0 -18 13.5 -30.5t32.5 -12.5t32.5 12t13.5 31z" />
<glyph unicode="&#xe2d8;" horiz-adv-x="1224" d="M502 135q0 -60 -55 -101q-46 -34 -115 -34h-45q-112 0 -196 117q-77 107 -77 223v80q0 141 94 229.5t236 88.5h45q47 0 80 -35t33 -78v-47q0 -58 -27 -95q-30 -42 -86 -42h-34q-46 0 -74.5 32.5t-28.5 83.5v56q0 46 23 69q-85 -22 -135 -106q-46 -76 -46 -168v-68 q0 -90 53 -178q58 -94 140 -117q-6 6 -22 44l-13 57v69q0 46 29 79.5t74 33.5h34q47 0 80 -33t33 -80v-80zM424 545v90q0 19 -14 30.5t-33 11.5q-45 0 -45 -42v-90q0 -14 15.5 -28t29.5 -17q15 0 29.5 15t17.5 30zM424 102v125q0 41 -47 41q-45 0 -45 -41v-125q0 -44 45 -44 q47 0 47 44zM1194 146q0 -63 -48 -104.5t-112 -41.5q-69 0 -111 32q-47 36 -47 103v181q0 33 -23 67q-26 37 -57 37h-35q-53 0 -89 -42t-36 -95q30 32 75 32q22 0 33 -5l19 -9l15 -12q30 -29 30 -74v-102q0 -40 -42.5 -76.5t-82.5 -36.5q-53 0 -89 31t-36 82v147 q0 79 62.5 148t140.5 69h47q67 0 108 -48q38 -45 38 -113v-181q0 -30 24 -56q25 -20 57 -20q34 0 56.5 21t22.5 55v181q0 46 -25 84t-67 53l36 47q62 -20 99 -69.5t37 -114.5v-170zM728 102v89q0 44 -46 44t-46 -44v-89q0 -18 13.5 -30.5t32.5 -12.5t32.5 12t13.5 31z" />
<glyph unicode="&#xe2d9;" horiz-adv-x="1517" d="M789 191q0 -28 -7 -62q-5 -21 -22 -55q-28 -55 -72 -74q-19 0 -39 13.5t-20 31.5q33 22 56.5 61t23.5 76v89q0 39 -31 92q-35 57 -71 57h-11q-45 0 -69 -12q16 -16 41 -63l12 -38l4 -36v-158q0 -53 -39 -84q-35 -28 -87 -28q-54 0 -89 29.5t-35 82.5v158q0 69 68 137 q-23 12 -80 12h-90q-52 0 -94 -36.5t-42 -88.5q24 24 62 24q42 0 75 -31.5t33 -72.5v-102q0 -38 -43.5 -75.5t-81.5 -37.5q-53 0 -89 31t-36 82v147q0 80 62.5 148.5t142.5 68.5h125l26 -3l16 -4l21 -7q34 -11 50 -22l40 23l40 13h33q217 0 217 -217v-69zM504 102v181 q0 42 -44 42q-46 0 -46 -42v-181q0 -18 13.5 -30.5t31.5 -12.5q45 0 45 43zM188 102v89q0 44 -47 44q-18 0 -31.5 -13.5t-13.5 -30.5v-89q0 -15 16 -31q10 -8 29 -14q14 0 30.5 15.5t16.5 29.5zM1492 146q0 -63 -48 -104.5t-112 -41.5q-69 0 -111 32q-47 36 -47 103v181 q0 33 -23 67q-26 37 -57 37h-35q-53 0 -89 -42t-36 -95q30 32 75 32q22 0 33 -5l19 -9l15 -12q30 -29 30 -74v-102q0 -40 -42.5 -76.5t-82.5 -36.5q-53 0 -89 31t-36 82v147q0 79 62.5 148t140.5 69h47q67 0 108 -48q38 -45 38 -113v-181q0 -30 24 -56q25 -20 57 -20 q34 0 56.5 21t22.5 55v181q0 46 -25 84t-67 53l36 47q62 -20 99 -69.5t37 -114.5v-170zM1026 102v89q0 44 -46 44t-46 -44v-89q0 -18 13.5 -30.5t32.5 -12.5t32.5 12t13.5 31z" />
<glyph unicode="&#xe2da;" horiz-adv-x="1853" d="M629 0h-80v488q0 87 -72 143q-66 51 -155 51q-95 0 -164 -91q-64 -85 -64 -183q0 -131 48 -232q40 -84 112 -119l-16 37l-6 29l-2 23v69q0 46 29.5 79.5t74.5 33.5h33q47 0 80 -33t33 -80v-80q0 -135 -181 -135q-283 0 -283 408q0 143 81 234q84 96 225 96q131 0 213 -58 q94 -66 94 -192v-488zM402 102v125q0 41 -46 41q-45 0 -45 -41v-125q0 -44 45 -44q46 0 46 44zM1352 146q0 -63 -48 -104.5t-112 -41.5q-69 0 -111 32q-47 36 -47 103v181q0 33 -23 67q-26 37 -57 37h-35q-53 0 -89 -42t-36 -95q30 32 75 32q22 0 33 -5l19 -9l15 -12 q30 -29 30 -74v-102q0 -40 -42.5 -76.5t-82.5 -36.5q-53 0 -89 31t-36 82v147q0 79 62.5 148t140.5 69h47q67 0 108 -48q38 -45 38 -113v-181q0 -30 24 -56q25 -20 57 -20q34 0 56.5 21t22.5 55v181q0 46 -25 84t-67 53l36 47q62 -20 99 -69.5t37 -114.5v-170zM886 102v89 q0 44 -46 44t-46 -44v-89q0 -18 13.5 -30.5t32.5 -12.5t32.5 12t13.5 31zM1843 420h-133v-418h-76v418h-121v-418h-78v475h408v-57z" />
<glyph unicode="&#xe2db;" horiz-adv-x="1686" d="M502 135q0 -60 -55 -101q-46 -34 -115 -34h-45q-112 0 -196 117q-77 107 -77 223v80q0 141 94 229.5t236 88.5h45q47 0 80 -35t33 -78v-47q0 -58 -27 -95q-30 -42 -86 -42h-34q-46 0 -74.5 32.5t-28.5 83.5v56q0 46 23 69q-85 -22 -135 -106q-46 -76 -46 -168v-68 q0 -90 53 -178q58 -94 140 -117q-6 6 -22 44l-13 57v69q0 46 29 79.5t74 33.5h34q47 0 80 -33t33 -80v-80zM424 545v90q0 19 -14 30.5t-33 11.5q-45 0 -45 -42v-90q0 -14 15.5 -28t29.5 -17q15 0 29.5 15t17.5 30zM424 102v125q0 41 -47 41q-45 0 -45 -41v-125q0 -44 45 -44 q47 0 47 44zM1192 146q0 -63 -48 -104.5t-112 -41.5q-69 0 -111 32q-47 36 -47 103v181q0 33 -23 67q-26 37 -57 37h-35q-53 0 -89 -42t-36 -95q30 32 75 32q22 0 33 -5l19 -9l15 -12q30 -29 30 -74v-102q0 -40 -42.5 -76.5t-82.5 -36.5q-53 0 -89 31t-36 82v147 q0 79 62.5 148t140.5 69h47q67 0 108 -48q38 -45 38 -113v-181q0 -30 24 -56q25 -20 57 -20q34 0 56.5 21t22.5 55v181q0 46 -25 84t-67 53l36 47q62 -20 99 -69.5t37 -114.5v-170zM726 102v89q0 44 -46 44t-46 -44v-89q0 -18 13.5 -30.5t32.5 -12.5t32.5 12t13.5 31z M1669 420h-137v-420h-78v420h-125v-420h-80v477h420v-57z" />
<glyph unicode="&#xe2dc;" horiz-adv-x="2162" d="M629 0h-80v488q0 87 -72 143q-66 51 -155 51q-95 0 -164 -91q-64 -85 -64 -183q0 -131 48 -232q40 -84 112 -119l-16 37l-6 29l-2 23v69q0 46 29.5 79.5t74.5 33.5h33q47 0 80 -33t33 -80v-80q0 -135 -181 -135q-283 0 -283 408q0 143 81 234q84 96 225 96q131 0 213 -58 q94 -66 94 -192v-488zM402 102v125q0 41 -46 41q-45 0 -45 -41v-125q0 -44 45 -44q46 0 46 44zM1332 146q0 -63 -48 -104.5t-112 -41.5q-69 0 -111 32q-47 36 -47 103v181q0 33 -23 67q-26 37 -57 37h-35q-53 0 -89 -42t-36 -95q30 32 75 32q22 0 33 -5l19 -9l15 -12 q30 -29 30 -74v-102q0 -40 -42.5 -76.5t-82.5 -36.5q-53 0 -89 31t-36 82v147q0 79 62.5 148t140.5 69h47q67 0 108 -48q38 -45 38 -113v-181q0 -30 24 -56q25 -20 57 -20q34 0 56.5 21t22.5 55v181q0 46 -25 84t-67 53l36 47q62 -20 99 -69.5t37 -114.5v-170zM866 102v89 q0 44 -46 44t-46 -44v-89q0 -18 13.5 -30.5t32.5 -12.5t32.5 12t13.5 31zM2147 420h-136v-420h-78v420h-59q-29 0 -47.5 -19.5t-18.5 -48.5v-352h-81v328q0 28 -20 58q-21 34 -48 34h-68q-56 0 -90.5 -40t-34.5 -97q31 31 73 31q39 0 68 -30t29 -69v-102q0 -50 -37.5 -80 t-89.5 -30t-86 29q-37 30 -37 81v147q0 82 62 149.5t143 67.5h56q64 0 112 -57q39 57 105 57h283v-57zM1558 102v89q0 13 -15 31l-13 10q-8 6 -19 6q-15 0 -30 -16t-15 -31v-89q0 -44 45 -44q47 0 47 44z" />
<glyph unicode="&#xe2e0;" horiz-adv-x="783" d="M445 669q0 -32 -22 -55.5t-54 -23.5q-36 0 -57 24t-21 55q0 36 21 58.5t57 22.5q32 0 54 -24.5t22 -56.5zM721 0h-399v66q31 20 56 78q24 54 24 94q0 67 -28 119q-35 63 -97 63h-56q-48 0 -86.5 -38.5t-38.5 -86.5q24 24 61 24q42 0 75.5 -31t33.5 -73v-102 q0 -40 -42.5 -76.5t-82.5 -36.5q-53 0 -89 31t-36 82v147q0 84 61 150.5t144 66.5h68q95 0 147 -75q46 -65 46 -164q0 -101 -80 -181h239v420h80v-477zM188 102v89q0 22 -13 33.5t-32 11.5q-47 0 -47 -45v-89q0 -44 45 -44q47 0 47 44z" />
<glyph unicode="&#xe2e1;" horiz-adv-x="783" d="M721 0h-399v66q31 20 56 78q24 54 24 94q0 67 -28 119q-35 63 -97 63h-56q-48 0 -86.5 -38.5t-38.5 -86.5q24 24 61 24q42 0 75.5 -31t33.5 -73v-102q0 -40 -42.5 -76.5t-82.5 -36.5q-53 0 -89 31t-36 82v147q0 84 61 150.5t144 66.5h68q95 0 147 -75q46 -65 46 -164 q0 -101 -80 -181h239v420h80v-477zM188 102v89q0 22 -13 33.5t-32 11.5q-47 0 -47 -45v-89q0 -44 45 -44q47 0 47 44z" />
<glyph unicode="&#xe2e2;" horiz-adv-x="1200" d="M711 0h-399v66q31 20 56 78q24 54 24 94q0 67 -28 119q-35 63 -97 63h-56q-48 0 -86.5 -38.5t-38.5 -86.5q24 24 61 24q42 0 75.5 -31t33.5 -73v-102q0 -40 -42.5 -76.5t-82.5 -36.5q-53 0 -89 31t-36 82v147q0 84 61 150.5t144 66.5h68q95 0 147 -75q46 -65 46 -164 q0 -101 -80 -181h239v420h80v-477zM178 102v89q0 22 -13 33.5t-32 11.5q-47 0 -47 -45v-89q0 -44 45 -44q47 0 47 44zM1190 420h-137v-420h-78v420h-125v-420h-80v477h420v-57z" />
<glyph unicode="&#xe2e3;" horiz-adv-x="1000" d="M914 0h-78v533q0 49 -33 96q-37 53 -92 53q-51 0 -92 -36q-33 -36 -33 -89v-80q0 -92 57 -92v92h78v-477h-397v66q30 19 56 78q24 55 24 94q0 67 -28 119q-35 63 -97 63h-58q-48 0 -86.5 -38.5t-38.5 -86.5q26 23 61 23q43 0 77 -30.5t34 -72.5v-102q0 -40 -42.5 -76.5 t-82.5 -36.5q-53 0 -89 31t-36 82v147q0 87 58.5 152t144.5 65h68q92 0 143 -66q47 -61 47 -155q0 -118 -75 -199h239v271q-51 0 -94 45t-43 115v90q0 73 61 119q56 41 132 41q108 0 167 -63q48 -51 48 -142v-533zM188 102v89q0 22 -13 33.5t-32 11.5q-47 0 -47 -45v-89 q0 -18 15 -31.5t32 -13.5t31 14t14 31z" />
<glyph unicode="&#xe2e4;" horiz-adv-x="789" d="M822 635q0 -50 -31 -76t-82 -26q-90 0 -90 92q-12 -6 -25 -28q-8 -22 -10 -40v-69q0 -103 57 -103v92h80v-477h-399v66q31 20 56 78q24 54 24 94q0 67 -28 119q-35 63 -97 63h-56q-48 0 -86.5 -38.5t-38.5 -86.5q24 24 61 24q42 0 75.5 -31t33.5 -73v-102 q0 -40 -42.5 -76.5t-82.5 -36.5q-53 0 -89 31t-36 82v147q0 84 61 150.5t144 66.5h68q95 0 147 -75q46 -65 46 -164q0 -101 -80 -181h239v271q-59 0 -99 52q-38 47 -38 108v90q0 70 63 117q57 43 130 43q125 0 125 -103zM754 635q0 17 -11.5 29.5t-28.5 12.5q-38 0 -38 -42 q0 -44 38 -44q40 0 40 44zM188 102v89q0 22 -13 33.5t-32 11.5q-47 0 -47 -45v-89q0 -44 45 -44q47 0 47 44z" />
<glyph unicode="&#xe2e5;" horiz-adv-x="783" d="M721 -184h-80v184h-319v66q31 20 56 78q24 54 24 94q0 67 -28 119q-35 63 -97 63h-56q-48 0 -86.5 -38.5t-38.5 -86.5q24 24 61 24q42 0 75.5 -31t33.5 -73v-102q0 -40 -42.5 -76.5t-82.5 -36.5q-53 0 -89 31t-36 82v147q0 84 61 150.5t144 66.5h68q95 0 147 -75 q46 -65 46 -164q0 -101 -80 -181h239v420h80v-661zM188 102v89q0 22 -13 33.5t-32 11.5q-47 0 -47 -45v-89q0 -44 45 -44q47 0 47 44z" />
<glyph unicode="&#xe2e6;" horiz-adv-x="957" d="M914 -68q0 -241 -328 -241h-229q-328 0 -328 149q0 41 54 76q52 25 105 25h125v-56h-102q-33 0 -64 -13q-40 -16 -40 -44q0 -39 100 -57q63 -11 129 -11h215q285 0 285 160v33q0 31 -9 57q-12 35 -38 35q-17 0 -38 -14.5t-30 -30.5v-115h-78v115h-319v66q30 19 56 78 q24 55 24 94q0 67 -28 119q-35 63 -97 63h-58q-48 0 -86.5 -38.5t-38.5 -86.5q26 23 61 23q43 0 77 -30.5t34 -72.5v-102q0 -40 -42.5 -76.5t-82.5 -36.5q-53 0 -89 31t-36 82v147q0 87 58.5 152t144.5 65h68q92 0 143 -66q47 -61 47 -155q0 -118 -75 -199h239v420h78v-411 q6 11 29 26l19 5l20 5h24q51 0 79 -52q22 -42 22 -97v-21zM188 102v89q0 22 -13 33.5t-32 11.5q-47 0 -47 -45v-89q0 -44 46 -44t46 44z" />
<glyph unicode="&#xe2e7;" horiz-adv-x="1427" d="M629 0h-80v488q0 87 -72 143q-66 51 -155 51q-95 0 -164 -91q-64 -85 -64 -183q0 -131 48 -232q40 -84 112 -119l-16 37l-6 29l-2 23v69q0 46 29.5 79.5t74.5 33.5h33q47 0 80 -33t33 -80v-80q0 -135 -181 -135q-283 0 -283 408q0 143 81 234q84 96 225 96q131 0 213 -58 q94 -66 94 -192v-488zM402 102v125q0 41 -46 41q-45 0 -45 -41v-125q0 -44 45 -44q46 0 46 44zM1381 0h-399v66q31 20 56 78q24 54 24 94q0 67 -28 119q-35 63 -97 63h-56q-48 0 -86.5 -38.5t-38.5 -86.5q24 24 61 24q42 0 75.5 -31t33.5 -73v-102q0 -40 -42.5 -76.5 t-82.5 -36.5q-53 0 -89 31t-36 82v147q0 84 61 150.5t144 66.5h68q95 0 147 -75q46 -65 46 -164q0 -101 -80 -181h239v420h80v-477zM848 102v89q0 22 -13 33.5t-32 11.5q-47 0 -47 -45v-89q0 -44 45 -44q47 0 47 44z" />
<glyph unicode="&#xe2e8;" horiz-adv-x="1284" d="M522 135q0 -60 -55 -101q-46 -34 -115 -34h-45q-112 0 -196 117q-77 107 -77 223v80q0 141 94 229.5t236 88.5h45q47 0 80 -35t33 -78v-47q0 -58 -27 -95q-30 -42 -86 -42h-34q-46 0 -74.5 32.5t-28.5 83.5v56q0 46 23 69q-85 -22 -135 -106q-46 -76 -46 -168v-68 q0 -90 53 -178q58 -94 140 -117q-6 6 -22 44l-13 57v69q0 46 29 79.5t74 33.5h34q47 0 80 -33t33 -80v-80zM444 545v90q0 19 -14 30.5t-33 11.5q-45 0 -45 -42v-90q0 -14 15.5 -28t29.5 -17q15 0 29.5 15t17.5 30zM444 102v125q0 41 -47 41q-45 0 -45 -41v-125q0 -44 45 -44 q47 0 47 44zM1261 0h-399v66q31 20 56 78q24 54 24 94q0 67 -28 119q-35 63 -97 63h-56q-48 0 -86.5 -38.5t-38.5 -86.5q24 24 61 24q42 0 75.5 -31t33.5 -73v-102q0 -40 -42.5 -76.5t-82.5 -36.5q-53 0 -89 31t-36 82v147q0 84 61 150.5t144 66.5h68q95 0 147 -75 q46 -65 46 -164q0 -101 -80 -181h239v420h80v-477zM728 102v89q0 22 -13 33.5t-32 11.5q-47 0 -47 -45v-89q0 -44 45 -44q47 0 47 44z" />
<glyph unicode="&#xe2e9;" horiz-adv-x="1585" d="M789 191q0 -28 -7 -62q-5 -21 -22 -55q-28 -55 -72 -74q-19 0 -39 13.5t-20 31.5q33 22 56.5 61t23.5 76v89q0 39 -31 92q-35 57 -71 57h-11q-45 0 -69 -12q16 -16 41 -63l12 -38l4 -36v-158q0 -53 -39 -84q-35 -28 -87 -28q-54 0 -89 29.5t-35 82.5v158q0 69 68 137 q-23 12 -80 12h-90q-52 0 -94 -36.5t-42 -88.5q24 24 62 24q42 0 75 -31.5t33 -72.5v-102q0 -38 -43.5 -75.5t-81.5 -37.5q-53 0 -89 31t-36 82v147q0 80 62.5 148.5t142.5 68.5h125l26 -3l16 -4l21 -7q34 -11 50 -22l40 23l40 13h33q217 0 217 -217v-69zM504 102v181 q0 42 -44 42q-46 0 -46 -42v-181q0 -18 13.5 -30.5t31.5 -12.5q45 0 45 43zM188 102v89q0 44 -47 44q-18 0 -31.5 -13.5t-13.5 -30.5v-89q0 -15 16 -31q10 -8 29 -14q14 0 30.5 15.5t16.5 29.5zM1531 0h-399v66q31 20 56 78q24 54 24 94q0 67 -28 119q-35 63 -97 63h-56 q-48 0 -86.5 -38.5t-38.5 -86.5q24 24 61 24q42 0 75.5 -31t33.5 -73v-102q0 -40 -42.5 -76.5t-82.5 -36.5q-53 0 -89 31t-36 82v147q0 84 61 150.5t144 66.5h68q95 0 147 -75q46 -65 46 -164q0 -101 -80 -181h239v420h80v-477zM998 102v89q0 22 -13 33.5t-32 11.5 q-47 0 -47 -45v-89q0 -44 45 -44q47 0 47 44z" />
<glyph unicode="&#xe2ea;" horiz-adv-x="1876" d="M649 0h-80v488q0 87 -72 143q-66 51 -155 51q-95 0 -164 -91q-64 -85 -64 -183q0 -131 48 -232q40 -84 112 -119l-16 37l-6 29l-2 23v69q0 46 29.5 79.5t74.5 33.5h33q47 0 80 -33t33 -80v-80q0 -135 -181 -135q-283 0 -283 408q0 143 81 234q84 96 225 96q131 0 213 -58 q94 -66 94 -192v-488zM422 102v125q0 41 -46 41q-45 0 -45 -41v-125q0 -44 45 -44q46 0 46 44zM1401 0h-399v66q31 20 56 78q24 54 24 94q0 67 -28 119q-35 63 -97 63h-56q-48 0 -86.5 -38.5t-38.5 -86.5q24 24 61 24q42 0 75.5 -31t33.5 -73v-102q0 -40 -42.5 -76.5 t-82.5 -36.5q-53 0 -89 31t-36 82v147q0 84 61 150.5t144 66.5h68q95 0 147 -75q46 -65 46 -164q0 -101 -80 -181h239v420h80v-477zM868 102v89q0 22 -13 33.5t-32 11.5q-47 0 -47 -45v-89q0 -44 45 -44q47 0 47 44zM1874 420h-137v-420h-78v420h-125v-420h-80v477h420v-57z " />
<glyph unicode="&#xe2eb;" horiz-adv-x="1774" d="M522 135q0 -60 -55 -101q-46 -34 -115 -34h-45q-112 0 -196 117q-77 107 -77 223v80q0 141 94 229.5t236 88.5h45q47 0 80 -35t33 -78v-47q0 -58 -27 -95q-30 -42 -86 -42h-34q-46 0 -74.5 32.5t-28.5 83.5v56q0 46 23 69q-85 -22 -135 -106q-46 -76 -46 -168v-68 q0 -90 53 -178q58 -94 140 -117q-6 6 -22 44l-13 57v69q0 46 29 79.5t74 33.5h34q47 0 80 -33t33 -80v-80zM444 545v90q0 19 -14 30.5t-33 11.5q-45 0 -45 -42v-90q0 -14 15.5 -28t29.5 -17q15 0 29.5 15t17.5 30zM444 102v125q0 41 -47 41q-45 0 -45 -41v-125q0 -44 45 -44 q47 0 47 44zM1281 0h-399v66q31 20 56 78q24 54 24 94q0 67 -28 119q-35 63 -97 63h-56q-48 0 -86.5 -38.5t-38.5 -86.5q24 24 61 24q42 0 75.5 -31t33.5 -73v-102q0 -40 -42.5 -76.5t-82.5 -36.5q-53 0 -89 31t-36 82v147q0 84 61 150.5t144 66.5h68q95 0 147 -75 q46 -65 46 -164q0 -101 -80 -181h239v420h80v-477zM748 102v89q0 22 -13 33.5t-32 11.5q-47 0 -47 -45v-89q0 -44 45 -44q47 0 47 44zM1769 420h-137v-420h-78v420h-125v-420h-80v477h420v-57z" />
<glyph unicode="&#xe2ec;" horiz-adv-x="2236" d="M2227 420h-136v-420h-78v420h-59q-29 0 -47.5 -19.5t-18.5 -48.5v-352h-81v328q0 28 -20 58q-21 34 -48 34h-68q-56 0 -90.5 -40t-34.5 -97q31 31 73 31q39 0 68 -30t29 -69v-102q0 -50 -37.5 -80t-89.5 -30t-86 29q-37 30 -37 81v147q0 82 62 149.5t143 67.5h56 q64 0 112 -57q39 57 105 57h283v-57zM1638 102v89q0 13 -15 31l-13 10q-8 6 -19 6q-15 0 -30 -16t-15 -31v-89q0 -44 45 -44q47 0 47 44zM629 0h-80v488q0 87 -72 143q-66 51 -155 51q-95 0 -164 -91q-64 -85 -64 -183q0 -131 48 -232q40 -84 112 -119l-16 37l-6 29l-2 23 v69q0 46 29.5 79.5t74.5 33.5h33q47 0 80 -33t33 -80v-80q0 -135 -181 -135q-283 0 -283 408q0 143 81 234q84 96 225 96q131 0 213 -58q94 -66 94 -192v-488zM402 102v125q0 41 -46 41q-45 0 -45 -41v-125q0 -44 45 -44q46 0 46 44zM1401 0h-399v66q31 20 56 78 q24 54 24 94q0 67 -28 119q-35 63 -97 63h-56q-48 0 -86.5 -38.5t-38.5 -86.5q24 24 61 24q42 0 75.5 -31t33.5 -73v-102q0 -40 -42.5 -76.5t-82.5 -36.5q-53 0 -89 31t-36 82v147q0 84 61 150.5t144 66.5h68q95 0 147 -75q46 -65 46 -164q0 -101 -80 -181h239v420h80v-477z M868 102v89q0 22 -13 33.5t-32 11.5q-47 0 -47 -45v-89q0 -44 45 -44q47 0 47 44z" />
<glyph unicode="&#xe2f0;" horiz-adv-x="633" d="M377 670q0 -31 -24 -58q-24 -21 -56 -21q-26 0 -55 21q-23 21 -23 58q0 31 24 58q22 19 54 19q33 0 56.5 -22.5t23.5 -54.5zM570 90q0 -90 -78 -90h-125q0 -53 22 -68h160v-57h-182q-18 -160 -205 -160q-53 0 -97 30q-51 33 -51 83v24q0 26 18 49q19 19 38 19l35 -45 l-11 -12q-10 -11 -10 -29q0 -19 25 -44q25 -19 53 -19q59 0 86 26q11 11 27 52t36 59q-24 24 -24 92h-273v477h80v-420h193v328q0 38 35.5 65t101.5 27q146 0 146 -161v-226zM492 113v203q0 104 -68 104q-21 0 -44 -21q-13 -16 -13 -36v-306h90q35 0 35 56z" />
<glyph unicode="&#xe2f1;" horiz-adv-x="633" d="M570 90q0 -90 -78 -90h-478v477h80v-420h193v328q0 38 35.5 65t101.5 27q146 0 146 -161v-226zM549 -125h-182q-18 -160 -205 -160q-53 0 -97 30q-51 33 -51 83v24q0 26 18 49q19 19 38 19l35 -45l-11 -12q-10 -11 -10 -29q0 -19 25 -44q25 -19 53 -19q59 0 86 26 q11 11 27 52t36 59q-24 24 -24 92h80q0 -53 22 -68h160v-57zM492 113v203q0 104 -68 104q-21 0 -44 -21q-13 -16 -13 -36v-306h90q35 0 35 56z" />
<glyph unicode="&#xe2f2;" horiz-adv-x="1061" d="M560 90q0 -90 -78 -90h-478v477h80v-420h193v328q0 38 35.5 65t101.5 27q146 0 146 -161v-226zM539 -125h-182q-18 -160 -205 -160q-53 0 -97 30q-51 33 -51 83v24q0 26 18 49q19 19 38 19l35 -45l-11 -12q-10 -11 -10 -29q0 -19 25 -44q25 -19 53 -19q59 0 86 26 q11 11 27 52t36 59q-24 24 -24 92h80q0 -53 22 -68h160v-57zM482 113v203q0 104 -68 104q-21 0 -44 -21q-13 -16 -13 -36v-306h90q35 0 35 56zM1054 420h-137v-420h-78v420h-125v-420h-80v477h420v-57z" />
<glyph unicode="&#xe2f3;" horiz-adv-x="795" d="M732 0h-80v500q0 170 -101 170h-35q-37 0 -73 -33q-29 -34 -29 -80v-24q0 -36 22 -58q136 0 136 -159v-226q0 -90 -78 -90h-125q0 -53 22 -68h160v-57h-182q-18 -160 -205 -160q-53 0 -97 30q-51 33 -51 83v24q0 26 18 49q19 19 38 19l35 -45l-11 -12q-10 -11 -10 -29 q0 -19 25 -44q25 -19 53 -19q59 0 86 26q11 11 27 52t36 59q-24 24 -24 92h-273v477h80v-420h193v328q0 49 68 80q-23 31 -23 68v24q0 75 53 122.5t129 47.5h35q87 0 137 -72q44 -64 44 -155v-500zM494 113v203q0 104 -68 104q-21 0 -44 -21q-13 -16 -13 -36v-306h90 q35 0 35 56z" />
<glyph unicode="&#xe2f4;" d="M686 602q0 -27 -27 -48t-54 -21h-44q-40 0 -65.5 27t-23.5 67l1 23l7 20q-28 0 -53 -26t-25 -54v-24q0 -45 34 -91q136 0 136 -159v-226q0 -38 -21.5 -64t-58.5 -26h-125q0 -53 24 -68h158v-57h-182q-18 -160 -205 -160q-53 0 -97 29q-49 33 -49 84v24q0 25 18 49 q19 19 38 19l33 -45l-11 -12q-10 -11 -10 -29q0 -19 25 -44q25 -19 53 -19q61 0 87 26q12 12 27.5 53t34.5 58q-24 24 -24 92h-271v477h78v-420h193v328q0 52 72 82q-9 14 -24 48l-13 51v36q0 56 53 92q47 33 105 33h63q54 0 93 -19q50 -25 50 -73v-33zM605 625v21 q0 32 -33 36q-27 0 -35 -36v-21q0 -35 34 -35t34 35zM492 113v203q0 104 -68 104q-21 0 -44 -21q-13 -16 -13 -36v-306h92q33 0 33 56z" />
<glyph unicode="&#xe2f5;" horiz-adv-x="865" d="M801 90q0 -38 -21.5 -64t-58.5 -26h-125v-92q35 35 92 35q89 0 89 -80q0 -82 -81 -131q-69 -41 -157 -41h-113q-166 0 -282 86q-128 95 -128 256q0 134 27 226q23 77 86 161l47 -35q-80 -143 -80 -352q0 -92 60 -161q53 -62 144 -97q65 -25 138 -25q259 0 259 102 q0 18 -14 29t-33 11q-34 0 -54 -29v-23h-80v160h-272v477h78v-420h194v328q0 32 36 65q36 27 100 27q149 0 149 -161v-226zM721 113v203q0 104 -69 104q-22 0 -43 -21q-13 -16 -13 -36v-306h92q33 0 33 56z" />
<glyph unicode="&#xe2f6;" horiz-adv-x="992" d="M926 90q0 -32 -18 -62q-22 -28 -62 -28h-125v-92q32 33 80 33h23q34 0 62 -22.5t28 -55.5v-23q0 -56 -74 -96.5t-186 -40.5h-136q-185 0 -336 117q-164 126 -164 305v33q0 101 31 183q42 112 127 112h45q80 -20 80 -90v-35q0 -39 -30 -80q-30 -33 -72 -33h-45 q-35 0 -58 23v-136q0 -129 145 -239q136 -103 298 -103h80q56 0 116 13q89 18 89 55v24q0 10 -8 21q-11 12 -27 12h-10q-36 0 -58 -22v-23h-78v160h-274v477h80v-420h194v328q0 44 48 71q40 21 88 21q147 0 147 -161v-226zM846 113v203q0 104 -67 104q-21 0 -44 -21 q-14 -17 -14 -36v-306h92q15 0 29 18l3 13zM221 316v47q0 32 -46 32q-44 0 -44 -32v-56q0 -34 37 -34q18 0 35.5 13t17.5 30z" />
<glyph unicode="&#xe2f7;" horiz-adv-x="1291" d="M649 0h-80v488q0 87 -72 143q-66 51 -155 51q-95 0 -164 -91q-64 -85 -64 -183q0 -131 48 -232q40 -84 112 -119l-16 37l-6 29l-2 23v69q0 46 29.5 79.5t74.5 33.5h33q47 0 80 -33t33 -80v-80q0 -135 -181 -135q-283 0 -283 408q0 143 81 234q84 96 225 96q131 0 213 -58 q94 -66 94 -192v-488zM422 102v125q0 41 -46 41q-45 0 -45 -41v-125q0 -44 45 -44q46 0 46 44zM1260 90q0 -90 -78 -90h-478v477h80v-420h193v328q0 38 35.5 65t101.5 27q146 0 146 -161v-226zM1239 -125h-182q-18 -160 -205 -160q-53 0 -97 30q-51 33 -51 83v24q0 26 18 49 q19 19 38 19l35 -45l-11 -12q-10 -11 -10 -29q0 -19 25 -44q25 -19 53 -19q59 0 86 26q11 11 27 52t36 59q-24 24 -24 92h80q0 -53 22 -68h160v-57zM1182 113v203q0 104 -68 104q-21 0 -44 -21q-13 -16 -13 -36v-306h90q35 0 35 56z" />
<glyph unicode="&#xe2f8;" horiz-adv-x="1158" d="M522 135q0 -60 -55 -101q-46 -34 -115 -34h-45q-112 0 -196 117q-77 107 -77 223v80q0 141 94 229.5t236 88.5h45q47 0 80 -35t33 -78v-47q0 -58 -27 -95q-30 -42 -86 -42h-34q-46 0 -74.5 32.5t-28.5 83.5v56q0 46 23 69q-85 -22 -135 -106q-46 -76 -46 -168v-68 q0 -90 53 -178q58 -94 140 -117q-6 6 -22 44l-13 57v69q0 46 29 79.5t74 33.5h34q47 0 80 -33t33 -80v-80zM444 545v90q0 19 -14 30.5t-33 11.5q-45 0 -45 -42v-90q0 -14 15.5 -28t29.5 -17q15 0 29.5 15t17.5 30zM444 102v125q0 41 -47 41q-45 0 -45 -41v-125q0 -44 45 -44 q47 0 47 44zM1130 90q0 -90 -78 -90h-478v477h80v-420h193v328q0 38 35.5 65t101.5 27q146 0 146 -161v-226zM1109 -125h-182q-18 -160 -205 -160q-53 0 -97 30q-51 33 -51 83v24q0 26 18 49q19 19 38 19l35 -45l-11 -12q-10 -11 -10 -29q0 -19 25 -44q25 -19 53 -19 q59 0 86 26q11 11 27 52t36 59q-24 24 -24 92h80q0 -53 22 -68h160v-57zM1052 113v203q0 104 -68 104q-21 0 -44 -21q-13 -16 -13 -36v-306h90q35 0 35 56z" />
<glyph unicode="&#xe2f9;" horiz-adv-x="1414" d="M799 191q0 -28 -7 -62q-5 -21 -22 -55q-28 -55 -72 -74q-19 0 -39 13.5t-20 31.5q33 22 56.5 61t23.5 76v89q0 39 -31 92q-35 57 -71 57h-11q-45 0 -69 -12q16 -16 41 -63l12 -38l4 -36v-158q0 -53 -39 -84q-35 -28 -87 -28q-54 0 -89 29.5t-35 82.5v158q0 69 68 137 q-23 12 -80 12h-90q-52 0 -94 -36.5t-42 -88.5q24 24 62 24q42 0 75 -31.5t33 -72.5v-102q0 -38 -43.5 -75.5t-81.5 -37.5q-53 0 -89 31t-36 82v147q0 80 62.5 148.5t142.5 68.5h125l26 -3l16 -4l21 -7q34 -11 50 -22l40 23l40 13h33q217 0 217 -217v-69zM514 102v181 q0 42 -44 42q-46 0 -46 -42v-181q0 -18 13.5 -30.5t31.5 -12.5q45 0 45 43zM198 102v89q0 44 -47 44q-18 0 -31.5 -13.5t-13.5 -30.5v-89q0 -15 16 -31q10 -8 29 -14q14 0 30.5 15.5t16.5 29.5zM1390 90q0 -90 -78 -90h-478v477h80v-420h193v328q0 38 35.5 65t101.5 27 q146 0 146 -161v-226zM1369 -125h-182q-18 -160 -205 -160q-53 0 -97 30q-51 33 -51 83v24q0 26 18 49q19 19 38 19l35 -45l-11 -12q-10 -11 -10 -29q0 -19 25 -44q25 -19 53 -19q59 0 86 26q11 11 27 52t36 59q-24 24 -24 92h80q0 -53 22 -68h160v-57zM1312 113v203 q0 104 -68 104q-21 0 -44 -21q-13 -16 -13 -36v-306h90q35 0 35 56z" />
<glyph unicode="&#xe2fa;" horiz-adv-x="1733" d="M649 0h-80v488q0 87 -72 143q-66 51 -155 51q-95 0 -164 -91q-64 -85 -64 -183q0 -131 48 -232q40 -84 112 -119l-16 37l-6 29l-2 23v69q0 46 29.5 79.5t74.5 33.5h33q47 0 80 -33t33 -80v-80q0 -135 -181 -135q-283 0 -283 408q0 143 81 234q84 96 225 96q131 0 213 -58 q94 -66 94 -192v-488zM422 102v125q0 41 -46 41q-45 0 -45 -41v-125q0 -44 45 -44q46 0 46 44zM1250 90q0 -90 -78 -90h-478v477h80v-420h193v328q0 38 35.5 65t101.5 27q146 0 146 -161v-226zM1229 -125h-182q-18 -160 -205 -160q-53 0 -97 30q-51 33 -51 83v24q0 26 18 49 q19 19 38 19l35 -45l-11 -12q-10 -11 -10 -29q0 -19 25 -44q25 -19 53 -19q59 0 86 26q11 11 27 52t36 59q-24 24 -24 92h80q0 -53 22 -68h160v-57zM1172 113v203q0 104 -68 104q-21 0 -44 -21q-13 -16 -13 -36v-306h90q35 0 35 56zM1739 420h-137v-420h-78v420h-125v-420 h-80v477h420v-57z" />
</font>
</defs>
</svg>
