<?xml version="1.0" standalone="no"?>
<!DOCTYPE svg PUBLIC "-//W3C//DTD SVG 1.1//EN" "http://www.w3.org/Graphics/SVG/1.1/DTD/svg11.dtd" >
<svg xmlns="http://www.w3.org/2000/svg">
<metadata></metadata>
<defs>
<font id="taun_elango_abiramiregular" horiz-adv-x="435" >
<font-face units-per-em="1000" ascent="800" descent="-200" />
<missing-glyph horiz-adv-x="500" />
<glyph unicode="&#xd;" horiz-adv-x="500" />
<glyph unicode=" "  horiz-adv-x="500" />
<glyph unicode="&#x09;" horiz-adv-x="500" />
<glyph unicode="&#xa0;" horiz-adv-x="500" />
<glyph unicode="!" horiz-adv-x="347" d="M333 586l-3 -33l-24 -217l-24 -178h-14l-10 97q0 26 -10 83l-12 68l-14 100l-4 79q-2 32 13 52.5t46 20.5q56 0 56 -72zM336 37q0 -16 -18 -33q-6 -6 -42 -14q-20 0 -41 13q-9 6 -17 34q0 20 19 34.5t40 14.5q23 0 41 -13.5t18 -35.5z" />
<glyph unicode="&#x22;" horiz-adv-x="355" d="M308 599l-23 -137h-53l-24 137v117h100v-117zM146 599l-22 -137h-54l-24 137v117h100v-117z" />
<glyph unicode="#" horiz-adv-x="359" d="M358 325l-7 -26h-76l-33 -122h77l-7 -26h-76l-40 -151h-44l42 151h-77l-40 -151h-43l41 151h-75l6 26h76l33 122h-76l6 26h76l42 151h43l-42 -151h76l40 151h43l-41 -151h76zM233 299h-76l-32 -122h75z" />
<glyph unicode="$" horiz-adv-x="439" d="M401 154q0 -28 -8 -49q-34 -87 -161 -105v-78h-30v78q-68 0 -128 27q-14 6 -35 18l-1 114h13q29 -135 151 -135v249q-86 51 -113 77q-44 42 -44 102q0 42 42 90q52 43 115 43v55h29v-55q91 0 142 -47v-98h-12q-13 79 -83 111q-22 10 -46 10v-217q86 -44 116 -71 q53 -48 53 -119zM201 359v202q-37 0 -63.5 -27.5t-26.5 -64.5q0 -57 90 -110zM332 134q0 39 -30 73q-5 6 -70 50v-233q100 17 100 110z" />
<glyph unicode="%" horiz-adv-x="730" d="M677 220q0 -78 -49 -146q-53 -75 -128 -75q-107 0 -107 121q0 76 57 141t132 65q95 0 95 -106zM555 594l-337 -607h-42l305 549l-48 -20l-42 -4q-43 0 -61 9l5 -21l1 -22q3 -71 -52 -150q-52 -74 -125 -74q-50 0 -78 34t-28 85q0 75 57 141.5t131 66.5q27 0 44 -7 q7 -2 18 -11l16 -14q7 -5 28 -13l36 -3q37 -3 88 24q24 12 50 37h34zM653 221q0 77 -63 77q-52 0 -93 -84q-37 -75 -37 -130q0 -26 15.5 -42t41.5 -16q53 0 98 72q38 61 38 123zM314 487q0 33 -14 41l-37 17l-17 10q-48 0 -90 -84q-36 -72 -36 -127q0 -60 54 -60 q60 0 103 74q37 64 37 129z" />
<glyph unicode="&#x26;" horiz-adv-x="672" d="M438 369h181v-20q-39 -3 -56 -15.5t-53.5 -79.5t-81.5 -124q37 -42 65 -59t58 -17q28 0 48 15t29 49l19 -15q-16 -61 -51.5 -89.5t-81.5 -28.5q-35 0 -70.5 18.5t-76.5 62.5q-50 -44 -93 -62.5t-90 -18.5q-71 0 -112 37.5t-41 89.5t37 102.5t136 104.5q-19 42 -26 70.5 t-7 53.5q0 73 54 112q41 29 94 29q51 0 83 -30t32 -74q0 -46 -31 -80t-106 -73q53 -92 108 -169q72 85 72 145q0 20 -11 33q-9 12 -28 13v20zM281 359q49 23 75 53.5t26 69.5q0 29 -18.5 48.5t-44.5 19.5q-36 0 -54 -25t-18 -48q0 -20 7 -45.5t27 -72.5zM343 93 q-55 75 -76 110t-47 84q-48 -27 -73 -62t-25 -74q0 -45 28.5 -78t76.5 -33q26 0 50.5 10t65.5 43z" />
<glyph unicode="'" horiz-adv-x="200" d="M173 581q0 -58 -44 -105l-15 -13l-21 -16l-47 -23v23l42 28l13 12l13 16l9 19l4 25q0 10 -2 14l-4 8l-6 6l-6 2l-7 -1l-7 -3l-12 -3l-9 -1l-19 3q-8 3 -16 11l-11 17l-4 20l3 21q7 18 30 29l31 7q16 0 27 -7l32 -21q13 -8 19 -31l5 -18z" />
<glyph unicode="(" horiz-adv-x="369" d="M314 -146l-13 -15q-60 26 -134 102q-119 123 -119 285q0 155 104 268q67 73 152 114l10 -14q-83 -60 -116 -110q-61 -93 -61 -247q0 -118 23 -188q43 -129 154 -195z" />
<glyph unicode=")" horiz-adv-x="369" d="M325 222q0 -205 -184 -338q-48 -35 -73 -45l-9 15q73 47 113 105q63 92 63 251q0 134 -34 218q-41 102 -142 166l13 14q77 -36 148 -117q105 -119 105 -269z" />
<glyph unicode="*" horiz-adv-x="429" d="M381 275q0 -12 -10 -23l-25 -10q-12 0 -57 43q-50 47 -63 54l-6 3l-1 -6q0 -50 13 -91l14 -44q0 -9 -11 -26q-6 -9 -26 -12q-13 0 -24 11q-6 11 -9 27l24 91l3 28l-1 16l-1 6l-65 -57q-47 -41 -62 -41q-11 0 -25 9q-7 8 -7 20q-1 31 46 44q78 22 109 39q-55 25 -110 41 q-45 13 -45 39q0 15 10 25l22 8q7 0 61 -44l68 -55v12q0 21 -12 64.5t-12 65.5q0 36 33 36t33 -37q0 -25 -12.5 -72.5t-12.5 -71.5l46 34l60 63q12 6 22 6q27 0 33 -34q0 -26 -42 -37q-75 -20 -112 -43l8 -5q34 -21 106 -36q40 -8 40 -40z" />
<glyph unicode="+" horiz-adv-x="456" d="M432 297h-176v-177h-55l-1 177h-176v56h176v176h56v-176h176v-56z" />
<glyph unicode="," horiz-adv-x="277" d="M219 12q0 -49 -35 -95q-33 -42 -81 -63l-11 19q86 48 86 113q0 6 -5 10l-4 1l-4 2l-35 -5q-22 0 -39.5 16t-17.5 38q0 18 16 41q12 18 47 18q24 0 46 -17q37 -29 37 -78z" />
<glyph unicode="-" horiz-adv-x="385" d="M347 273v-66h-306v66h306z" />
<glyph unicode="." horiz-adv-x="248" d="M186 53q0 -24 -18 -42t-42 -18q-26 0 -43 17t-17 43q0 25 17.5 42.5t42.5 17.5t42.5 -17.5t17.5 -42.5z" />
<glyph unicode="/" horiz-adv-x="440" d="M448 716l-416 -901h-76l415 901h77z" />
<glyph unicode="0" d="M416 293q0 -80 -27 -160q-48 -141 -172 -141q-99 0 -153 105q-42 81 -42 192q0 109 39 189q53 108 160 108q93 0 152 -103q43 -76 43 -190zM323 282q0 258 -104 258t-104 -262q0 -241 107 -241q82 0 98 157q3 30 3 88z" />
<glyph unicode="1" d="M364 0h-276l-1 13h16l24 2l27 7q28 12 28 54v395q0 41 -31 41q-17 0 -32 -5l-40 -13v11l181 80h6l2 -8v-513q0 -32 33 -46q14 -6 63 -6v-12z" />
<glyph unicode="2" d="M412 119l-47 -119h-340v30q158 161 205 227q52 73 52 136q0 52 -27.5 85t-78.5 33q-52 0 -87 -40q-12 -13 -35 -65l-27 7q14 77 57 123q48 52 123 52q67 0 114 -44.5t47 -111.5q0 -94 -94 -194l-152 -161h185q40 0 54.5 6.5t34.5 38.5z" />
<glyph unicode="3" d="M376 198q0 -95 -76 -152q-69 -52 -167 -52q-96 0 -96 48q0 11 6 25q12 14 35 14q17 0 55 -22.5t61 -22.5q74 0 100 72q8 22 8 46q0 39 -22 74q-33 53 -122 53h-11l-15 -1v33q137 45 137 129q0 39 -27 63.5t-66 24.5q-42 0 -76 -32q-12 -11 -38 -53l-24 3q18 64 62.5 103 t108.5 39q55 0 95.5 -32t40.5 -86q0 -62 -80 -120q111 -50 111 -154z" />
<glyph unicode="4" d="M411 145h-80v-145h-86v145h-236v56l272 384h49v-384h81v-56zM244 201v273l-191 -273h191z" />
<glyph unicode="5" d="M380 593l-34 -79q0 -6 -25 -6h-158l-36 -75q47 -6 95 -22q99 -33 135 -121l12 -40l4 -40q0 -98 -68.5 -158.5t-167.5 -60.5h-20q-15 0 -21 2l-26 6q-43 10 -43 47q3 19 15 34q12 9 29 9q15 0 55 -25.5t59 -25.5q53 0 85 44q28 39 28 94q0 90 -109 146q-48 25 -122 25 l-12 19l95 211h183q13 0 21 5l19 17z" />
<glyph unicode="6" d="M407 194q0 -82 -48 -141q-51 -62 -132 -62q-92 0 -148 85q-49 75 -49 172q0 152 119 258q101 90 238 90l10 -21q-140 -20 -219 -152q-8 -14 -31 -78l31 16q46 13 69 13q74 0 119 -54q41 -50 41 -126zM321 163q0 49 -17 92q-26 67 -93 67q-60 0 -81 -36q-11 -19 -11 -70 q0 -68 23 -119q30 -67 90 -67q89 0 89 133z" />
<glyph unicode="7" d="M390 563l-184 -571h-70l169 510h-169q-43 0 -60 -13q-12 -7 -39 -48l-20 8l51 128h322v-14z" />
<glyph unicode="8" d="M384 135q0 -66 -53 -107q-48 -37 -116 -37q-69 0 -116 35q-53 39 -53 105q0 50 35 95q20 26 78 64q-55 45 -77 73q-31 39 -31 90q0 64 53 101q47 33 114 33q62 0 103 -30q46 -33 46 -93q0 -55 -41 -90l-76 -52q63 -45 91 -78q43 -51 43 -109zM294 462q0 41 -26 64.5 t-67 23.5q-34 0 -58 -22t-24 -56q0 -61 100 -128l31 25l20 19q24 30 24 74zM315 116q0 41 -25 69q-22 24 -99 81q-65 -42 -65 -121q0 -56 26 -86t72 -30q91 0 91 87z" />
<glyph unicode="9" d="M402 330q0 -154 -119 -258q-103 -90 -238 -90l-10 21q141 20 219 152q5 8 31 78l-31 -16l-35 -11l-34 -3q-74 0 -119 54q-41 49 -41 127q0 82 49.5 142.5t130.5 60.5q92 0 148 -85q49 -75 49 -172zM313 362q0 68 -23 119q-30 67 -90 67q-89 0 -89 -133q0 -49 17 -92 q26 -67 93 -67q60 0 81 36q11 19 11 70z" />
<glyph unicode=":" horiz-adv-x="201" d="M169 290q0 -24 -18 -42.5t-42 -18.5q-19 0 -43 18q-17 19 -17 43q0 25 17.5 42.5t42.5 17.5t42.5 -17.5t17.5 -42.5zM169 50q0 -24 -18 -42.5t-42 -18.5q-19 0 -43 18q-17 19 -17 43q0 25 17.5 42.5t42.5 17.5t42.5 -17.5t17.5 -42.5z" />
<glyph unicode=";" horiz-adv-x="217" d="M196 14q0 -48 -37 -94q-33 -41 -80 -65l-11 20q51 24 67 59l14 31q6 13 6 23l-5 9l-9 3l-35 -5q-22 0 -39 15.5t-17 38.5q0 21 16 41q11 18 46 18t57 -25q27 -24 27 -69zM169 290q0 -24 -18 -42.5t-42 -18.5q-19 0 -43 18q-17 19 -17 43q0 25 17.5 42.5t42.5 17.5 t42.5 -17.5t17.5 -42.5z" />
<glyph unicode="&#x3c;" horiz-adv-x="456" d="M324 219l-38 -41l-168 167l164 164l40 -40l-125 -124z" />
<glyph unicode="=" horiz-adv-x="456" d="M428 306h-409l1 56h407zM428 143h-409v56h409v-56z" />
<glyph unicode="&#x3e;" horiz-adv-x="456" d="M390 345l-168 -167l-38 41l127 126l-125 124l40 40z" />
<glyph unicode="?" horiz-adv-x="396" d="M401 502q0 -45 -73 -158q-78 -121 -92 -184h-20l1 28q1 17 7 40l3 23q2 13 8 29q3 21 39 100q30 66 30 113q0 53 -23 84q-26 36 -77 36q-26 0 -52 -15q-30 -17 -30 -41q0 -8 17.5 -30t17.5 -37q0 -37 -44 -37q-25 0 -38 22q-11 18 -11 44q0 64 54 103q48 35 115 35 q72 0 120 -42t48 -113zM287 42q0 -43 -58 -56q-25 0 -41.5 15.5t-16.5 40.5q0 21 17 41q19 16 40 16q23 0 41 -17t18 -40z" />
<glyph unicode="@" horiz-adv-x="805" d="M605 409l-52 -176q-27 -94 -33 -119t-6 -39q0 -11 7.5 -18.5t18.5 -7.5q28 0 70 30t72 97t30 141q0 70 -33.5 129.5t-95.5 91.5t-137 32q-95 0 -177 -50.5t-130 -145.5t-48 -198q0 -95 42 -173t117.5 -117.5t163.5 -39.5q109 0 196.5 58t137.5 174h36 q-41 -125 -142 -197.5t-230 -72.5q-102 0 -188.5 48.5t-135 136t-48.5 193.5q0 113 53 210t148 152t202 55q88 0 159.5 -37t109 -107.5t37.5 -149.5q0 -77 -34.5 -154t-89 -112.5t-114.5 -35.5q-34 0 -52 16.5t-18 47.5q0 24 3 39q-48 -58 -86 -80.5t-69 -22.5 q-33 0 -57.5 28.5t-24.5 74.5q0 62 40 139.5t107 125.5q50 36 91 36q30 0 50 -16t23 -25l8 28zM449 379q-29 0 -60 -31q-46 -48 -79 -130q-25 -59 -25 -95q0 -24 13.5 -39t29.5 -15q22 0 48 17.5t55 55.5t41 76q24 66 24 107q0 25 -14 39.5t-33 14.5z" />
<glyph unicode="A" horiz-adv-x="690" d="M441 243h-253l-46 -116q-15 -40 -15 -61q0 -17 15.5 -31t58.5 -16v-17h-195v17q41 6 53 21q24 27 53 104l224 592h12l221 -600q28 -71 50.5 -93t60.5 -24v-17h-246v17q35 2 50 14.5t15 30.5q0 24 -19 73zM428 280l-112 301l-115 -301h227z" />
<glyph unicode="B" horiz-adv-x="632" d="M434 378q71 -20 104 -54q46 -51 46 -123q0 -53 -30 -103t-82 -73t-159 -23h-299v17h21q42 0 60 29q11 22 11 82v478q0 67 -14 88q-20 25 -57 25h-21v15h274q77 0 123 -13q69 -18 106 -67.5t37 -114.5q0 -54 -28.5 -98t-91.5 -65zM190 403q22 -2 44.5 -4.5t49.5 -2.5 q70 0 105.5 17.5t54 54t18.5 77.5q0 65 -47 111.5t-136 46.5q-46 0 -89 -12v-288zM190 51q57 -14 112 -14q87 0 132.5 44.5t45.5 110.5q0 44 -20 84t-67 63.5t-115 23.5q-30 0 -49.5 -1t-38.5 -1v-310z" />
<glyph unicode="C" horiz-adv-x="631" d="M573 736l15 -237h-8q-30 107 -85 155t-132 48q-65 0 -117.5 -37t-82.5 -114.5t-30 -192.5q0 -98 28.5 -168.5t85.5 -108.5t129 -38q63 0 111.5 30t104.5 114l9 -6q-48 -93 -110.5 -136.5t-150.5 -43.5q-155 0 -243 128q-65 98 -65 229q0 106 43 193.5t117.5 136 t162.5 48.5q69 0 137 -37q19 -12 28 -12q15 0 26 13q12 12 16 36h11z" />
<glyph unicode="D" horiz-adv-x="687" d="M15 2v17h21q43 0 60 31q11 18 11 80v478q0 68 -13 88q-21 25 -58 25h-21v15h259q141 0 215 -36.5t119.5 -124t45.5 -202.5q0 -155 -81 -256q-89 -115 -275 -115h-283zM191 51q63 -15 105 -15q110 0 183.5 89.5t73.5 241.5q0 154 -73 243t-189 89q-42 0 -100 -16v-632z " />
<glyph unicode="E" horiz-adv-x="579" d="M193 700v-296h145q56 0 78 20q23 26 26 87h11v-253h-13q-5 53 -12 67q-7 21 -28 32.5t-62 11.5h-145v-246q0 -50 4.5 -61.5t15 -17.5t37.5 -6h108q57 0 82 9.5t49 35.5q28 33 58 100h12l-54 -181h-487v17h19q24 0 45 13q15 8 21.5 25.5t6.5 72.5v480q0 71 -13 88 q-20 23 -60 23h-19v15h486l9 -158h-12q-10 57 -22.5 78.5t-36.5 35.5q-20 8 -69 8h-180z" />
<glyph unicode="F" horiz-adv-x="526" d="M189 700v-294h121q43 0 62 21t25 81h11v-247h-11q0 40 -9.5 61t-27 31.5t-50.5 10.5h-121v-234q0 -55 8 -73q4 -15 18 -25q25 -13 48 -13h19v-17h-268v17h19q43 0 60 28q13 17 13 83v478q0 55 -7 74q-6 16 -19 23q-24 16 -47 16h-19v15h471l5 -158h-10q-12 49 -28.5 73.5 t-41 36.5t-76.5 12h-145z" />
<glyph unicode="G" horiz-adv-x="689" d="M585 736l16 -219h-9q-26 82 -65 124q-58 62 -151 62q-125 0 -190 -106q-53 -93 -53 -217q0 -101 36 -184.5t95 -123t119 -39.5q36 0 69 9.5t66 30.5v204q0 54 -7.5 71t-23.5 26.5t-52 9.5v14h241v-14h-8q-41 0 -54 -30q-10 -19 -10 -77v-216q-53 -31 -105 -45.5 t-117 -14.5q-185 0 -279 130q-72 97 -72 227q0 93 40 177q49 101 134 157q67 44 163 44q34 0 62 -6t80 -28q27 -10 38 -10q10 0 17 9.5t9 34.5h11z" />
<glyph unicode="H" horiz-adv-x="689" d="M190 394h305v213q0 56 -5 75q-6 13 -21 23q-24 16 -46 16h-20v15h269v-15h-20q-24 0 -46 -13q-16 -10 -21.5 -28.5t-5.5 -72.5v-477q0 -55 5 -73q7 -15 21 -25q23 -13 47 -13h20v-17h-269v17h20q42 0 61 28q11 17 11 83v228h-305v-228q0 -55 8 -73q4 -15 18 -25 q23 -13 48 -13h19v-17h-268v17h19q43 0 60 28q13 17 13 83v477q0 56 -7 75q-6 16 -19 23q-24 16 -47 16h-19v15h268v-15h-19q-25 0 -48 -13q-14 -11 -20 -28.5t-6 -72.5v-213z" />
<glyph unicode="I" horiz-adv-x="311" d="M289 19v-17h-268v17h19q43 0 60 28q13 17 13 83v478q0 55 -7 74q-6 16 -19 23q-24 16 -47 16h-19v15h268v-15h-19q-43 0 -61 -30q-13 -17 -13 -83v-478q0 -55 8 -73q4 -15 18 -25q23 -13 48 -13h19z" />
<glyph unicode="J" horiz-adv-x="368" d="M95 721v15h267v-15h-19q-43 0 -61 -30q-11 -17 -11 -81v-354q0 -82 -16 -131.5t-54 -86.5t-91 -37q-42 0 -67 24t-25 54q0 27 12 41q13 14 33 14q12 0 23.5 -10.5t30.5 -58.5q12 -30 31 -30q15 0 26.5 18.5t11.5 62.5v494q0 53 -4 74q-8 15 -22 24q-22 13 -45 13h-20z " />
<glyph unicode="K" horiz-adv-x="691" d="M279 409l238 -271q59 -68 100.5 -92.5t80.5 -26.5v-17h-298v17q27 0 39.5 11.5t12.5 23.5q0 14 -4.5 24.5t-29.5 38.5l-229 259v-246q0 -55 8 -73q4 -15 18 -25q23 -13 48 -13h17v-17h-266v17h19q43 0 60 28q13 17 13 83v478q0 56 -7 76q-6 14 -19 21q-24 16 -47 16h-19 v15h266v-15h-17q-23 0 -48 -13q-14 -11 -20 -28t-6 -72v-189q-9 -55 71 31q141 149 171 197q13 22 13 40q0 13 -11.5 23.5t-35.5 10.5h-11v15h229v-15q-20 0 -36.5 -6.5t-41.5 -24t-63 -55.5q-10 -12 -96 -112z" />
<glyph unicode="L" horiz-adv-x="581" d="M553 201l10 -2l-55 -197h-490v17h21q43 0 62 30q9 19 9 83v476q0 68 -13 88q-21 25 -58 25h-21v15h284v-15q-50 1 -71.5 -12t-29 -30.5t-7.5 -82.5v-464q0 -46 8 -61q5 -13 19 -19.5t75 -6.5h47q75 0 106 12.5t55 45.5t49 98z" />
<glyph unicode="M" horiz-adv-x="850" d="M394 2l-253 636v-510q0 -67 13 -87q18 -22 57 -22h19v-17h-216v17h19q44 0 61 29q11 17 11 80v482q0 49 -10 71q-6 18 -25 29t-56 11v15h176l235 -583l230 583h177v-15h-18q-44 0 -62 -30q-11 -18 -11 -81v-482q0 -66 12 -87q20 -22 61 -22h18v-17h-266v17h20q43 0 61 28 q9 18 9 81v510l-251 -636h-11z" />
<glyph unicode="N" horiz-adv-x="693" d="M-11 736h168l397 -561v435q0 68 -14 86q-15 25 -57 25h-19v15h216v-15h-19q-43 0 -61 -30q-10 -17 -10 -81v-621h-11l-429 603v-464q0 -68 14 -86q19 -23 58 -23h19v-17h-216v17h19q44 0 62 29q8 18 8 80v513q-26 38 -41 49.5t-44 24.5q-14 6 -40 6v15z" />
<glyph unicode="O" horiz-adv-x="686" d="M348 754q122 0 212.5 -109.5t90.5 -270.5q0 -169 -91 -278.5t-220 -109.5q-130 0 -219.5 107.5t-89.5 277.5q0 176 103 287q91 96 214 96zM338 717q-89 0 -139 -74q-66 -92 -66 -269q0 -182 67 -278q51 -75 139 -75q91 0 151.5 81.5t60.5 256.5q0 190 -66 282 q-51 76 -147 76z" />
<glyph unicode="P" horiz-adv-x="527" d="M189 349v-219q0 -69 14 -86q20 -25 57 -25h22v-17h-268v17h21q43 0 62 30q9 19 9 81v478q0 68 -13 88q-21 25 -58 25h-21v15h232q85 0 134 -20t82.5 -68t33.5 -113q0 -91 -52 -147.5t-143 -56.5q-23 0 -49.5 4.5t-62.5 13.5zM189 375q27 -5 47.5 -8t34.5 -3q50 0 87 44.5 t37 114.5q0 48 -18 89.5t-49.5 63t-72.5 21.5q-24 0 -66 -13v-309z" />
<glyph unicode="Q" horiz-adv-x="687" d="M415 -10q49 -98 106 -142t128 -50v-13q-61 2 -135 28t-140 74t-113 103q-68 32 -110 65q-56 53 -88 128.5t-32 178.5q0 163 92.5 269.5t223.5 106.5q123 0 214.5 -106.5t91.5 -271.5q0 -133 -65 -233.5t-173 -136.5zM340 702q-87 0 -142 -71q-65 -87 -65 -269 q0 -176 67 -273q53 -75 140 -75q90 0 145 74q66 89 66 258q0 132 -35 218q-28 71 -73 104.5t-103 33.5z" />
<glyph unicode="R" horiz-adv-x="657" d="M646 2h-165l-216 346q-28 -1 -43 -1h-19.5t-12.5 -30v-187q0 -69 14 -86q20 -25 57 -25h22v-17h-268v17h21q43 0 62 30q9 19 9 81v478q0 68 -13 88q-21 25 -58 25h-21v15h230q101 0 148.5 -17.5t81.5 -62.5t34 -107q0 -68 -38 -118t-120 -72l132 -212q46 -74 79 -98 t84 -30v-17zM190 397q4 -21 15 -21h16q93 0 140.5 47t47.5 118q0 68 -38 113t-103 45q-27 0 -78 -11v-291z" />
<glyph unicode="S" horiz-adv-x="522" d="M431 736v-241h-11q-7 69 -29 110.5t-64 67.5t-86 26q-52 0 -84.5 -34.5t-32.5 -75.5q0 -34 21 -63q30 -38 141 -103q88 -53 121 -81t50 -66.5t17 -79.5q0 -80 -56 -138t-143 -58q-26 0 -51 4q-14 2 -60 19t-59 17q-15 0 -22.5 -8.5t-10.5 -31.5h-11v238h11 q12 -74 32.5 -112t64.5 -64t96 -26q61 0 96.5 35t35.5 82q0 29 -13 55.5t-42 49.5q-16 17 -99 67.5t-118 80t-52.5 66t-17.5 80.5q0 74 52.5 129t132.5 55q50 0 105 -27q29 -13 40 -13q13 0 22 8t13 32h11z" />
<glyph unicode="T" horiz-adv-x="578" d="M550 736l7 -169h-11q-5 44 -15 63q-14 34 -40 48.5t-65 14.5h-93v-565q0 -67 12 -86q18 -23 59 -23h19v-17h-265v17h20q43 0 58 29q13 17 13 80v565h-81q-45 0 -66 -7q-26 -11 -44 -41t-20 -78h-12l8 169h516z" />
<glyph unicode="U" horiz-adv-x="691" d="M461 721v15h220v-15h-21q-40 0 -61 -38q-10 -18 -10 -77v-294q0 -109 -19.5 -168t-74.5 -101.5t-150 -42.5q-102 0 -156 40.5t-75 109.5q-18 49 -18 178v282q0 67 -17 89t-54 22h-21v15h271v-15h-21q-42 0 -61 -31q-12 -18 -12 -80v-316q0 -41 7 -95t25 -85t53 -52 t86 -21q63 0 113.5 32.5t69 79.5t18.5 166v291q0 68 -13 87q-21 24 -59 24h-20z" />
<glyph unicode="V" horiz-adv-x="690" d="M679 736v-16q-32 -8 -50 -25q-27 -27 -47 -82l-222 -612h-12l-240 622q-18 47 -26 58q-12 18 -30.5 27t-44.5 12v16h255v-16q-43 -4 -57 -17.5t-14 -32.5q0 -27 23 -83l165 -434l156 428q21 62 21 85q0 18 -15 32t-49 22h-4v16h191z" />
<glyph unicode="W" horiz-adv-x="904" d="M898 736v-15q-22 0 -39 -10.5t-31 -40.5q-11 -17 -32 -88l-177 -581h-13l-149 470l-149 -470h-10l-189 598q-22 66 -30 79q-9 22 -25.5 32.5t-42.5 10.5v15h231v-15h-9q-25 0 -40 -13.5t-15 -33.5q0 -17 21 -85l130 -416l109 355l-18 61l-15 49q-12 26 -22 46 q-7 13 -17 19q-12 9 -23 13q-12 5 -28 5v15h243v-15h-13q-29 0 -41.5 -13.5t-12.5 -35.5q0 -26 19 -96l128 -403l127 409q18 66 18 92q0 13 -7 24.5t-18 13.5q-20 9 -45 9v15h185z" />
<glyph unicode="X" horiz-adv-x="690" d="M387 410l138 -239q57 -97 86 -123.5t69 -28.5v-17h-268v17q24 1 40 6q8 6 15.5 15.5t7.5 21.5t-4 24q-3 11 -26 50l-112 194l-137 -204q-23 -30 -27.5 -41t-4.5 -23q0 -17 14 -29t49 -14v-17h-221v17q22 2 41 12q28 14 55.5 38.5t59.5 72.5l154 221l-127 214 q-51 86 -87.5 114.5t-83.5 29.5v15h291v-15q-37 -2 -51.5 -15.5t-14.5 -30.5q0 -20 23 -57l101 -175l118 171q18 30 23 40.5t5 21.5q0 13 -5 22q-8 10 -19.5 16.5t-43.5 6.5v15h220v-15q-24 -1 -42 -11q-26 -13 -48 -34.5t-61 -78.5z" />
<glyph unicode="Y" horiz-adv-x="690" d="M460 736h217v-15h-8q-14 0 -38.5 -13t-44 -37t-48.5 -78l-154 -280v-185q0 -67 13 -87q20 -22 60 -22h17v-17h-265v17h19q44 0 62 28q10 18 10 81v173l-175 312q-33 53 -44.5 67.5t-44.5 32.5q-10 8 -28 8v15h267v-15h-10q-24 0 -43.5 -13t-19.5 -38q0 -20 29 -72 l137 -243l128 233q29 51 29 77q0 16 -6.5 28t-20.5 20t-38 8v15z" />
<glyph unicode="Z" horiz-adv-x="581" d="M548 736l-421 -693h267q61 0 94 32t59 121l10 -2l-31 -192h-515v19l413 676h-211q-51 0 -75.5 -13.5t-36.5 -38.5t-21 -90h-12l13 181h467z" />
<glyph unicode="[" horiz-adv-x="278" d="M262 -199h-194v915h194v-73h-106v-769h106v-73z" />
<glyph unicode="\" horiz-adv-x="278" d="M278 -12h-70l-208 740h71z" />
<glyph unicode="]" horiz-adv-x="278" d="M213 -199h-194v73h106v769h-106v73h194v-915z" />
<glyph unicode="^" horiz-adv-x="469" d="M443 337h-89l-120 291l-117 -291h-91l173 391h71z" />
<glyph unicode="_" horiz-adv-x="556" d="M567 -209h-582v64h582v-64z" />
<glyph unicode="`" horiz-adv-x="200" d="M24 520q0 58 44 105l15 13l21 16l47 23v-23l-42 -28l-13 -12l-13 -16l-9 -19l-4 -25q0 -10 2 -14l4 -8l6 -6l6 -2l7 1l7 3l12 3l9 1l19 -3q8 -3 16 -11l11 -17l4 -20l-3 -21q-7 -18 -30 -29l-31 -7q-16 0 -27 7l-32 21q-13 8 -19 31l-5 18z" />
<glyph unicode="a" horiz-adv-x="434" d="M277 58q-66 -49 -82 -56q-26 -13 -56 -13q-46 0 -75.5 31t-29.5 83q0 32 15 55q20 33 68 61t159 68v18q0 65 -20.5 88t-58.5 23q-29 0 -46 -15q-17 -17 -17 -36l1 -27q0 -24 -11.5 -36t-31.5 -12q-18 0 -30 12.5t-12 35.5q0 42 43 76t119 34q58 0 96 -18q27 -16 40 -48 q10 -20 10 -84v-148q0 -61 1.5 -75t7 -18t11.5 -4q7 0 13 3q9 6 41 38v-32q-54 -73 -103 -73q-25 0 -38.5 16.5t-13.5 52.5zM276 95v160q-69 -26 -89 -39q-37 -19 -53 -41.5t-16 -49.5q0 -33 19.5 -55t44.5 -22q36 0 94 47z" />
<glyph unicode="b" horiz-adv-x="490" d="M154 366q60 82 134 82q67 0 118 -57t51 -157q0 -117 -78 -187q-67 -63 -148 -63q-39 0 -78 14t-80 44v449q0 76 -4 91.5t-11 21t-17 5.5q-13 0 -35 -8l-8 21l131 53h25v-309zM154 328v-258q25 -22 49 -34.5t52 -12.5q43 0 79.5 46.5t36.5 137.5q0 83 -36.5 126.5 t-83.5 43.5q-26 0 -50 -13q-17 -9 -47 -36z" />
<glyph unicode="c" horiz-adv-x="434" d="M403 166q-19 -86 -70.5 -134t-114.5 -48q-74 0 -129.5 63t-55.5 169q0 104 61 168t148 64q64 0 106 -33.5t42 -72.5q0 -19 -12 -30t-34 -11q-30 0 -43 17q-9 11 -11.5 38.5t-18.5 43.5q-15 13 -45 13q-45 0 -75 -35q-37 -44 -37 -121q0 -76 37.5 -135t101.5 -59 q46 0 82 30q25 22 51 81z" />
<glyph unicode="d" horiz-adv-x="490" d="M337 43q-29 -29 -59.5 -44t-65.5 -15q-73 0 -126.5 60.5t-53.5 154.5q0 93 59 171.5t153 78.5q58 0 93 -35v77q0 76 -4 91.5t-10.5 21t-17.5 5.5q-12 0 -33 -8l-8 21l132 53h23v-503q0 -76 3 -93t10 -22.5t18 -5.5q13 0 36 8l6 -19l-132 -56h-23v59zM337 82v223 q-3 32 -16.5 58.5t-37.5 39.5t-45 13q-40 0 -73 -38q-43 -48 -43 -141q0 -96 42 -146t91 -50q42 0 82 41z" />
<glyph unicode="e" d="M107 269q0 -95 46 -148q48 -55 110 -55q43 0 73.5 23t53.5 82l18 -11q-12 -68 -59.5 -122t-121.5 -54q-78 0 -134.5 62t-56.5 165q0 113 57.5 175.5t145.5 62.5q74 0 121 -48.5t47 -131.5h-300zM106 300h197q-1 39 -8 56q-12 25 -35.5 40t-47.5 15q-38 0 -69 -30.5 t-37 -80.5z" />
<glyph unicode="f" horiz-adv-x="327" d="M203 398v-284q0 -59 13 -74q18 -21 45 -21h42v-21h-263v21h21q18 0 33.5 9.5t21 24.5t5.5 61v284h-84v38h84v27q0 65 21.5 110.5t63.5 73t98 27.5q50 0 93 -32q28 -21 28 -49q0 -16 -12.5 -29t-28.5 -13q-11 0 -23.5 8t-30 34.5t-31.5 34.5q-16 8 -32 8q-22 0 -36 -11 t-21 -35t-7 -125v-29h113v-38h-113z" />
<glyph unicode="g" horiz-adv-x="489" d="M144 157q-36 20 -58.5 54.5t-22.5 77.5q0 66 49 112.5t126 46.5q62 0 107 -30h92q21 0 25 -1t5 -6q3 -5 3 -15q0 -11 -2 -18q-2 -4 -6 -5.5t-25 -1.5h-51q23 -31 23 -85q0 -61 -47 -104.5t-125 -43.5q-32 0 -65 10q-21 -19 -28 -32t-7 -21t7.5 -15t29.5 -10q14 -2 66 -3 q98 -3 127 -7q45 -7 71.5 -33.5t26.5 -66.5q0 -54 -50 -102q-76 -70 -195 -70q-91 0 -155 42q-37 24 -37 51q0 11 6 24q8 17 33 48q3 5 46 50q-23 14 -33 26.5t-10 26.5q0 18 14 40.5t60 60.5zM230 422q-33 0 -57 -27t-24 -85q0 -74 31 -115q27 -30 62 -30t58 26t23 84 q0 75 -33 117q-24 30 -60 30zM143 -3q-21 -22 -32 -43t-11 -37q0 -22 25 -38q49 -29 137 -29q85 0 125 29t40 63q0 22 -24 34q-24 9 -97 11q-107 3 -163 10z" />
<glyph unicode="h" horiz-adv-x="490" d="M162 675v-314q50 55 81.5 71t62.5 16q38 0 64 -21t41 -63q8 -32 8 -113v-153q0 -40 7 -55q3 -11 14 -17.5t43 -6.5v-21h-216v21h12q28 0 39.5 9t15.5 25q3 7 3 45v153q0 72 -7 93t-23 32t-38 11q-24 0 -49 -12t-58 -49v-228q0 -44 5.5 -54.5t17.5 -17.5t48 -7v-21h-219 v21q31 0 46 9q8 6 14 18t6 52v393q0 76 -3.5 91.5t-10.5 21t-18 5.5q-9 0 -34 -8l-8 21l131 53h25z" />
<glyph unicode="i" horiz-adv-x="275" d="M145 675q19 0 34 -14t15 -35t-15.5 -36t-33.5 -15q-23 0 -37 15t-14 36t14.5 35t36.5 14zM185 448v-350q0 -40 5.5 -54t16 -19.5t44.5 -5.5v-21h-214v21q32 0 41.5 5t17 20t7.5 54v167q0 72 -6 91q-3 15 -10 20.5t-16 5.5q-15 0 -35 -8l-8 21l133 53h24z" />
<glyph unicode="j" horiz-adv-x="272" d="M142 676q22 0 36.5 -14.5t14.5 -35.5q0 -22 -14.5 -36.5t-36.5 -14.5q-20 0 -35 14.5t-15 36.5q0 21 15 35.5t35 14.5zM185 448v-438q0 -111 -47.5 -166.5t-125.5 -55.5q-42 0 -64 16.5t-22 33.5q0 18 12 30.5t29 12.5q13 0 26 -7q8 -3 31 -23.5t38 -20.5q11 0 20.5 8.5 t15.5 28.5t6 88v309q0 73 -5 91q-2 16 -9 21.5t-19 5.5q-13 0 -33 -8l-9 21l134 53h22z" />
<glyph unicode="k" horiz-adv-x="489" d="M162 675v-427l109 95q34 33 39 41q4 5 4 11q0 8 -7.5 14.5t-26.5 8.5v18h193v-19q-40 -1 -66 -12t-55 -38l-111 -101l111 -141q45 -57 63 -74q21 -21 37 -29q11 -3 43 -3v-21h-215v21q20 0 25.5 5t5.5 13q0 11 -19 33l-130 165v-137q0 -42 5.5 -55t16.5 -18.5t49 -5.5 v-21h-225v21q34 0 50 7q11 5 16 16q6 16 6 53v395q0 76 -3 92.5t-10 22t-19 5.5q-9 0 -30 -9l-10 20l131 54h23z" />
<glyph unicode="l" horiz-adv-x="273" d="M182 675v-577q0 -40 6 -53t18 -19.5t47 -6.5v-21h-217v21q32 0 42.5 5.5t16 19.5t5.5 54v394q0 75 -3 90.5t-10 21t-17 5.5q-13 0 -32 -8l-10 20l131 54h23z" />
<glyph unicode="m" horiz-adv-x="760" d="M165 359q44 44 52 50q20 20 44.5 29.5t52.5 9.5q40 0 70 -23.5t40 -65.5q46 54 80 71.5t71 17.5q34 0 60.5 -17.5t43.5 -59.5q12 -28 12 -87v-186q0 -41 4 -55q6 -11 17.5 -17.5t43.5 -6.5v-21h-218v21h11q27 0 40 11q12 7 16 23q3 7 3 45v186q0 53 -13 76q-20 28 -57 28 q-27 0 -51.5 -12.5t-59.5 -46.5v-5l1 -19v-207q0 -44 4.5 -54.5t17.5 -17.5t49 -7v-21h-223v21q36 0 49 8.5t17 23.5q5 8 5 47v186q0 54 -16 76q-22 29 -56 29q-27 0 -53 -15q-38 -19 -57 -43v-233q0 -42 5.5 -54.5t16 -18.5t49.5 -6v-21h-219v21q30 0 41 6t18 19.5t7 53.5 v166q0 73 -6 91q-3 16 -10 21.5t-16 5.5q-15 0 -35 -8l-8 21l133 53h24v-89z" />
<glyph unicode="n" horiz-adv-x="491" d="M162 360q72 88 144 88q34 0 60 -17.5t43 -59.5q10 -29 10 -88v-185q0 -40 5 -55q7 -12 17.5 -18t44.5 -6v-21h-218v21h11q27 0 39 9t16 24q4 8 4 46v177q0 59 -16 85t-50 26q-57 0 -110 -60v-228q0 -43 3 -53q8 -14 18.5 -20t49.5 -6v-21h-219v21h11q30 0 42.5 15.5 t12.5 63.5v161q0 80 -4 96t-11.5 21.5t-16.5 5.5q-15 0 -35 -8l-8 21l133 53h24v-88z" />
<glyph unicode="o" horiz-adv-x="489" d="M244 448q100 0 159 -75q52 -66 52 -148q0 -59 -28.5 -119t-77.5 -91t-110 -31q-98 0 -158 80q-49 67 -49 148q0 62 30 120.5t78.5 87t103.5 28.5zM229 414q-24 0 -49 -15t-40.5 -51.5t-15.5 -95.5q0 -93 37 -161.5t98 -68.5q44 0 74 37t30 129q0 116 -50 182 q-32 44 -84 44z" />
<glyph unicode="p" horiz-adv-x="489" d="M-2 392l137 54h20v-95q30 50 65 73.5t72 23.5q67 0 110 -50q54 -65 54 -165q0 -114 -65 -188q-52 -61 -135 -61q-35 0 -60 12q-19 6 -41 25v-128q0 -43 5.5 -55.5t18.5 -19t49 -6.5v-22h-231v22h14q25 0 45 10q7 6 12 17t5 57v410q0 42 -4 52.5t-11 16t-22 5.5 q-11 0 -30 -8zM155 314v-161q0 -53 4 -68q8 -27 32.5 -47t63.5 -20q47 0 76 35q37 48 37 135q0 99 -43 151q-30 37 -71 37q-21 0 -43 -12q-17 -8 -56 -50z" />
<glyph unicode="q" horiz-adv-x="489" d="M418 448v-560q0 -40 5.5 -52t17.5 -18t48 -6v-22h-223v22h11q26 0 39 7q10 4 15 17.5t5 51.5v183q-39 -48 -71.5 -67.5t-68.5 -19.5q-65 0 -114.5 58.5t-49.5 155.5q0 110 66 180t159 70q27 0 50 -6.5t40 -23.5q27 14 52 30h19zM336 105v203q0 35 -9 55t-32 34t-52 14 q-52 0 -89.5 -44t-37.5 -135q0 -87 38.5 -132t90.5 -45q28 0 49 12t42 38z" />
<glyph unicode="r" horiz-adv-x="327" d="M161 448v-92q52 92 110 92q27 0 44.5 -16t17.5 -38q0 -20 -12 -33t-32 -13q-16 0 -37 16.5t-31 16.5q-7 0 -16 -9q-21 -19 -44 -64v-207q0 -35 9 -53q6 -13 21.5 -21t45.5 -8v-21h-226v21q34 0 51 10q10 8 16 23q1 9 1 46v168q0 74 -2 89t-10.5 21t-20.5 6q-14 0 -34 -9 l-6 22l133 53h22z" />
<glyph unicode="s" horiz-adv-x="382" d="M314 448v-151h-19q-19 72 -46 96t-70 24q-33 0 -52.5 -17.5t-19.5 -36.5q0 -27 15 -45q14 -19 59 -42l69 -32q97 -48 97 -126q0 -61 -45.5 -97.5t-101.5 -36.5q-39 0 -93 16q-13 4 -23 4t-16 -13h-19v159h19q13 -69 50.5 -101t82.5 -32q31 0 51.5 18.5t20.5 45.5 q0 31 -22.5 52.5t-91.5 55.5t-90 63q-22 28 -22 69q0 54 37.5 90.5t96.5 36.5q25 0 63 -10q23 -7 31 -7t11.5 3t7.5 14h20z" />
<glyph unicode="t" horiz-adv-x="275" d="M159 578v-142h102v-37h-102v-280q0 -41 12.5 -55t29.5 -14q14 0 28.5 9.5t22.5 28.5h25q-20 -49 -51 -73t-63 -24q-23 0 -44 12t-31 35.5t-10 70.5v290h-69v19q27 11 54.5 35.5t47.5 56.5q12 20 30 68h18z" />
<glyph unicode="u" horiz-adv-x="489" d="M413 436v-265q0 -76 4.5 -92t11 -22t16.5 -6q14 0 34 8l8 -18l-132 -57h-23v91q-54 -59 -83 -75t-63 -16q-37 0 -64.5 22t-37.5 55.5t-10 94.5v193q0 30 -6.5 42t-19.5 18t-48 5v22h156v-292q0 -61 20.5 -79t49.5 -18q19 0 45 13t61 48v244q0 36 -13 48.5t-57 13.5v22 h151z" />
<glyph unicode="v" horiz-adv-x="489" d="M8 436h208v-22h-15q-18 0 -27 -8.5t-9 -22.5q0 -16 9 -39l100 -235l100 245q10 25 10 39q0 6 -3 9q-5 7 -12.5 9.5t-34.5 2.5v22h146v-21q-26 -3 -34 -10q-17 -14 -31 -46l-153 -375h-23l-154 368q-12 26 -21 36.5t-23 18.5q-10 3 -33 7v22z" />
<glyph unicode="w" horiz-adv-x="705" d="M6 436h186v-21q-26 -3 -33 -8t-7 -20t6 -36l94 -244l89 198l-24 64q-11 29 -29 37q-11 7 -39 8v22h209v-22q-35 -1 -48 -12q-9 -5 -9 -22q0 -9 3 -19l97 -244l91 234q8 26 8 41q0 10 -8.5 15.5t-37.5 6.5v22h142v-22q-43 -5 -62 -53l-144 -377h-23l-108 275l-124 -275 h-21l-138 367q-15 34 -28.5 46t-41.5 17v22z" />
<glyph unicode="x" horiz-adv-x="489" d="M13 436h208v-22q-22 0 -28.5 -6t-6.5 -16q0 -11 16 -34q6 -8 17 -23l29 -47l33 47q34 45 34 58q0 8 -7.5 14.5t-26.5 6.5v22h150v-21q-25 -2 -41 -13q-24 -16 -63 -69l-58 -79l108 -154q39 -57 55.5 -68.5t45.5 -12.5v-21h-209v21q23 0 34 9q8 7 8 16q0 11 -30 54l-62 91 l-67 -91q-33 -42 -33 -50q0 -10 10 -19t33 -11v-20h-146v21q18 2 31 11q18 16 60 70l89 120l-81 119q-34 50 -52.5 62.5t-49.5 12.5v22z" />
<glyph unicode="y" horiz-adv-x="489" d="M5 436h206v-22h-12q-21 0 -31 -9t-10 -21q0 -17 15 -50l104 -214l97 235q7 18 7 37q0 7 -3 10q-5 6 -11.5 9t-28.5 3v22h144v-22q-17 -2 -27.5 -6.5t-19.5 -22.5q-3 -6 -18 -35l-176 -431q-24 -65 -67 -98t-81 -33q-29 0 -47.5 16.5t-18.5 39.5q0 20 14 32.5t37 12.5 q15 0 42 -10q20 -7 25 -7q13 0 29 14t34 56l29 75l-154 326q-8 16 -24 37q-10 18 -18 22q-10 7 -36 13v21z" />
<glyph unicode="z" horiz-adv-x="433" d="M411 135l-5 -137h-387v19l286 382h-138q-46 0 -59.5 -5.5t-22.5 -23.5q-13 -23 -14 -59h-23l3 125h368v-20l-289 -382h154q48 0 66 8t27 29q9 13 14 64h20z" />
<glyph unicode="{" horiz-adv-x="334" d="M311 -210h-28q-44 0 -65 7q-27 8 -54 36q-13 14 -29 64q-6 39 -6 127q0 97 -8 122q-6 33 -32.5 53t-60.5 20v80q72 0 93 73l5 55l3 60l3 114q2 58 42 97q13 13 49 25l35 4l25 1h28v-77h-16q-48 0 -68 -19q-16 -18 -16 -81l-1 -139q0 -15 -4 -22q-9 -48 -32 -78 q-21 -26 -65 -53q66 -25 87 -90q13 -42 15 -130l2 -113q1 -30 20 -47l20 -8q22 -5 42 -5h16v-76z" />
<glyph unicode="|" horiz-adv-x="260" d="M168 -210h-76v938h76v-938z" />
<glyph unicode="}" horiz-adv-x="334" d="M306 219q-75 0 -94 -74l-5 -45l-2 -117q-1 -47 -3 -60q0 -37 -17 -64q-12 -24 -29 -41l-18 -11l-27 -12l-23 -4l-38 -1h-27v76h15q53 0 70 25q13 20 14 76l1 95l3 60q2 45 29 82t69 55q-65 29 -87 90q-15 41 -15 130v60l-3 61q-3 51 -81 51h-15v77h27q82 0 119 -43 q15 -17 29 -65l5 -51l2 -75q2 -77 7 -124q12 -48 60 -66l16 -4l18 -1v-80z" />
<glyph unicode="~" horiz-adv-x="584" d="M542 329q-30 -27 -62 -43q-46 -14 -73 -13l-28 1h-16l-11 4q-20 5 -90 36q-55 24 -92 24q-32 0 -59 -13l-30 -19l-13 -10l-26 -24v100q53 59 136 59q20 0 62 -9l142 -52l21 -5h13q42 0 94 39q15 11 32 28v-103z" />
<glyph unicode="&#xa3;" horiz-adv-x="475" d="M130 72q-9 6 -18 9t-17 3q-18 0 -28 -10t-10 -26q0 -14 8 -22.5t18 -8.5q14 0 26.5 12.5t20.5 42.5zM129 281h-84v40h83q0 4 -1 8l-3 42q-2 24 -2 36q0 52 21 95t58 66t80 23q54 0 81 -29t27 -58q0 -14 -10.5 -24.5t-22.5 -10.5q-17 0 -27 16q-5 8 -6.5 33.5t-14.5 37.5 q-14 12 -37 12q-34 0 -56 -26.5t-22 -93.5q0 -31 5 -77l4 -40v-10h110v-40h-110v-29q0 -41 -5.5 -75t-20.5 -79q84 -27 96 -29q22 -5 43 -5q36 0 58.5 16.5t32.5 51.5l15 -4q-9 -69 -44 -104.5t-79 -35.5q-29 0 -52.5 10.5t-86.5 58.5q-17 -34 -37 -51.5t-43 -17.5 q-21 0 -35.5 15t-14.5 41q0 28 19.5 47t50.5 19q8 0 16.5 -0.5t20.5 -2.5q0 11 0.5 19t0.5 14q0 32 -6 111z" />
<glyph unicode="&#xa9;" horiz-adv-x="759" d="M379 677q88 0 171 -44.5t129.5 -128t46.5 -173.5t-46 -172.5t-128.5 -128t-172.5 -45.5t-172 45.5t-128 128t-46 172.5t46.5 173.5t129.5 128t170 44.5zM379 632q-75 0 -147.5 -39t-112.5 -111t-40 -151q0 -78 39.5 -149.5t111 -111.5t149.5 -40t150 40t112 111.5 t40 149.5q0 79 -40.5 151t-113 111t-148.5 39zM551 554l9 -137h-19q-17 58 -55.5 86.5t-92.5 28.5q-40 0 -71 -16.5t-51 -44.5q-15 -21 -24.5 -55.5t-9.5 -73.5q0 -103 44 -152t117 -49q95 0 153 79l18 -10q-68 -99 -187 -99q-98 0 -162 63.5t-64 153.5q0 94 68 160t175 66 q22 0 37 -3t53 -15q12 -4 18 -4q8 0 13.5 4t10.5 18h20z" />
<glyph unicode="&#xad;" horiz-adv-x="380" d="M340 250l-10 -50h-290l10 50h290z" />
<glyph unicode="&#xae;" horiz-adv-x="759" d="M379 677q88 0 171 -44.5t129.5 -128t46.5 -173.5t-46 -172.5t-128.5 -128t-172.5 -45.5t-172 45.5t-128 128t-46 172.5t46.5 173.5t129.5 128t170 44.5zM188 544h188q71 0 108 -32t37 -77q0 -38 -25 -66t-83 -43l102 -145q18 -26 33 -36q9 -6 26 -7v-16h-90l-143 197h-37 v-151q2 -16 13 -23t44 -7v-16h-179v16q23 0 33 5.5t14 16.5q4 7 4 45v255q0 37 -2 43q-3 11 -12 17t-31 6v18zM304 340q57 0 83.5 11.5t41 31.5t14.5 46q0 40 -28 66.5t-70 26.5q-19 0 -41 -7v-175zM379 632q-75 0 -147.5 -39t-112.5 -111t-40 -151q0 -78 39.5 -149.5 t111 -111.5t149.5 -40t150 40t112 111.5t40 149.5q0 79 -40.5 151t-113 111t-148.5 39z" />
<glyph unicode="&#xb0;" horiz-adv-x="295" d="M249 514q0 -45 -31 -76t-75 -31q-45 0 -76 31t-31 76q0 44 31 75t76 31q44 0 75 -31t31 -75zM199 514q0 23 -16.5 39.5t-39.5 16.5q-24 0 -40.5 -16.5t-16.5 -39.5q0 -24 16.5 -40.5t40.5 -16.5q23 0 39.5 16.5t16.5 40.5z" />
<glyph unicode="&#xb1;" horiz-adv-x="436" d="M375 320h-137v-137h-48v137h-138v47h138v139h47v-139h138v-47zM375 134v-46h-324v46h324z" />
<glyph unicode="&#xba;" horiz-adv-x="598" />
<glyph unicode="&#xbc;" horiz-adv-x="586" d="M397 585l-166 -587l-48 1l167 587zM547 73h-42v-76h-51v76h-124v34l144 203h30v-201h43v-36zM453 109v130l-91 -130h91zM210 264h-156l-1 13h12l12 1l15 4q13 5 13 26v215q0 19 -14 19q-9 0 -16 -2l-26 -8v11l100 45h7l2 -7v-279q0 -16 16 -22q7 -4 36 -4v-12z" />
<glyph unicode="&#xbd;" horiz-adv-x="587" d="M200 264h-156l-1 13h12l12 1l15 4q13 5 13 26v215q0 19 -14 19q-9 0 -16 -2l-26 -8v11l100 45h7l2 -7v-279q0 -16 16 -22q7 -4 36 -4v-12zM549 64l-27 -67h-183v20q84 85 109 120q26 37 26 69q0 26 -13.5 42.5t-39.5 16.5t-43 -20q-6 -7 -19 -36l-19 6q7 43 31 68 q26 28 66 28q37 0 62.5 -24t25.5 -60q0 -51 -50 -104l-75 -80h90q20 0 27 3t19 21zM387 585l-166 -587l-48 1l167 587z" />
<glyph unicode="&#xbe;" horiz-adv-x="586" d="M407 585l-166 -587l-48 1l167 587zM237 377q0 -52 -42 -84q-39 -29 -93 -29q-55 0 -55 29q0 7 3 15q9 9 22 9q10 0 31 -12.5t32 -12.5q38 0 51 37q5 12 5 24q0 21 -12 39q-17 27 -63 27h-6h-11v23q74 24 74 68q0 20 -13.5 32t-34.5 12t-39 -16q-6 -6 -20 -30l-19 3 q10 39 35.5 60.5t60.5 21.5q31 0 54 -18.5t23 -48.5q0 -36 -40 -64q57 -26 57 -85zM537 73h-42v-76h-51v76h-124v34l144 203h30v-201h43v-36zM443 109v130l-91 -130h91z" />
<glyph unicode="&#xd7;" horiz-adv-x="621" d="M506 200l-43 -43l-148 147l-148 -147l-43 43l147 148l-147 147l44 44l147 -147l147 147l44 -44l-147 -147z" />
<glyph unicode="&#xd8;" horiz-adv-x="778" d="M733 357q0 -103 -39 -186q-43 -93 -126.5 -138t-176.5 -45q-45 0 -86 10l-19 -64h-74l26 87q-100 48 -148 146q-42 85 -42 181q0 167 87 270q92 111 256 111q30 0 57 -4l31 100h73l-36 -117q108 -39 165 -139q52 -91 52 -212zM653 357q1 218 -156 287l-174 -585 q31 -8 67 -8q128 -1 199 91q63 82 64 215zM430 662q-19 3 -38 3q-134 1 -203 -95q-60 -83 -61 -223q-1 -125 67 -208q27 -33 62 -54z" />
<glyph unicode="&#xf7;" horiz-adv-x="611" d="M370 493q0 -22 -14.5 -38.5t-35.5 -16.5q-24 0 -42 13.5t-18 36.5t16 39t39 16q22 0 38.5 -14.5t16.5 -35.5zM526 315h-419v62h419v-62zM370 204q0 -22 -14.5 -38.5t-35.5 -16.5q-24 0 -42 13.5t-18 36.5t16 39t39 16q22 0 38.5 -14.5t16.5 -35.5z" />
<glyph unicode="&#xb82;" horiz-adv-x="247" d="M216 437q0 -37 -26.5 -63t-63.5 -26q-38 0 -64.5 25.5t-26.5 63.5t26.5 63.5t64.5 25.5q37 0 63.5 -26t26.5 -63zM184 437q0 25 -17 41.5t-42 16.5q-24 0 -41 -17t-17 -41t17 -41t41 -17q25 0 42 16.5t17 41.5z" />
<glyph unicode="&#xb83;" horiz-adv-x="644" d="M388 407q0 -39 -27.5 -67t-66.5 -28q-40 0 -67 27.5t-27 67.5q0 39 27.5 66.5t66.5 27.5t66.5 -27.5t27.5 -66.5zM598 107q0 -39 -27.5 -67t-66.5 -28q-40 0 -67 27.5t-27 67.5q0 39 27.5 66.5t66.5 27.5t66.5 -27.5t27.5 -66.5zM198 107q0 -39 -27.5 -67t-66.5 -28 q-40 0 -67 27.5t-27 67.5q0 39 27.5 66.5t66.5 27.5t66.5 -27.5t27.5 -66.5zM354 407q0 25 -17.5 42.5t-42.5 17.5q-24 0 -42 -18t-18 -42q0 -25 17.5 -43t42.5 -18t42.5 18t17.5 43zM564 107q0 25 -17.5 42.5t-42.5 17.5q-24 0 -42 -18t-18 -42q0 -25 17.5 -43t42.5 -18 t42.5 18t17.5 43zM164 107q0 25 -17.5 42.5t-42.5 17.5q-24 0 -42 -18t-18 -42q0 -25 17.5 -43t42.5 -18t42.5 18t17.5 43z" />
<glyph unicode="&#xb85;" horiz-adv-x="958" d="M917 -116h-86v194h-97q-42 -101 -155 -152q-94 -43 -217 -43q-141 0 -239 74q-87 65 -87 137q0 35 58 35h567l5 31l2 38q2 35 -11 75q-12 35 -37 64q-51 61 -137 59l-41 -1q35 0 61 -29.5t26 -64.5q0 -51 -33.5 -80.5t-85.5 -29.5q-51 0 -82 31t-31 82q0 65 61 106 q54 37 122 37q120 0 196 -64q81 -68 81 -186q0 -34 -7 -68h81v312h86v-557zM457 296q0 24 -15.5 40.5t-39.5 16.5q-32 0 -50 -34l-4 -23q0 -23 15.5 -40t38.5 -17q20 0 37.5 18.5t17.5 38.5zM645 78h-516q-22 0 -22 -16q-1 -60 96 -99q74 -30 147 -30q228 0 295 145z" />
<glyph unicode="&#xb86;" horiz-adv-x="1135" d="M1117 -66q0 -102 -84 -154q-71 -44 -179 -44q-74 0 -140 32q-82 40 -82 106q0 22 19 36t40 14h86v-50h-70l-8 -7q0 -40 58 -64q42 -17 92 -17q190 0 190 147q0 27 -18.5 44.5t-45.5 17.5q-26 0 -42 -19t-16 -45v-47h-86v194h-97q-42 -101 -155 -152q-94 -43 -217 -43 q-141 0 -239 74q-87 65 -87 137q0 35 58 35h567l5 31l2 38q2 35 -11 75q-12 35 -37 64q-51 61 -137 59l-41 -1q35 0 61 -29.5t26 -64.5q0 -51 -33.5 -80.5t-85.5 -29.5q-51 0 -82 31t-31 82q0 65 61 106q54 37 122 37q120 0 196 -64q81 -68 81 -186q0 -34 -7 -68h81v312h86 v-419q18 24 62 24q57 0 95 -27q43 -31 43 -85zM457 296q0 24 -15.5 40.5t-39.5 16.5q-32 0 -50 -34l-4 -23q0 -23 15.5 -40t38.5 -17q20 0 37.5 18.5t17.5 38.5zM645 78h-516q-22 0 -22 -16q-1 -60 96 -99q74 -30 147 -30q228 0 295 145z" />
<glyph unicode="&#xb87;" horiz-adv-x="856" d="M813 -124h-50v300q0 396 -325 396q-143 0 -230 -96q-83 -92 -83 -236q0 -81 27 -144q111 57 256 57h35q12 0 27 -2l46 -6l5 32l2 36q1 14 -1 38q-2 11 -6 35q-28 111 -125 111q-14 0 -32 -6q40 0 65 -27.5t25 -67.5q0 -48 -30.5 -74t-79.5 -26t-76.5 28t-27.5 76 q0 60 51 104q45 39 112 39q99 0 157 -66q55 -64 55 -164q0 -57 -11 -87q117 -42 117 -127t-80 -124q-63 -31 -155 -31q-88 0 -161 29q-80 -20 -155 -20q-143 0 -143 88q0 73 89 132q-33 78 -33 172q0 171 96 284q102 120 270 120q179 0 278 -127q91 -116 91 -299v-347z M360 300q0 51 -41 51q-18 0 -28.5 -17.5t-10.5 -36.5q0 -51 39 -51q41 0 41 54zM634 -2q0 46 -52 80q-54 -116 -197 -182q47 -12 96 -12q62 0 103 25q50 30 50 89zM505 103l-43 5l-54 2q-62 2 -123 -11q-57 -13 -115 -41q51 -93 151 -139q138 51 184 184zM262 -98 q-84 48 -132 132q-63 -42 -63 -89q0 -52 100 -52q44 0 95 9z" />
<glyph unicode="&#xb88;" horiz-adv-x="505" d="M472 219q0 -19 -12.5 -34t-31.5 -15q-17 0 -31 16t-14 33q0 20 12.5 34t32.5 14q17 0 30.5 -15.5t13.5 -32.5zM466 391h-126v-391h-86v391h-154v-391h-50v441h416v-50zM228 219q0 -19 -12.5 -34t-31.5 -15q-17 0 -31 16t-14 33q0 20 12.5 34t32.5 14q17 0 30.5 -15.5 t13.5 -32.5z" />
<glyph unicode="&#xb89;" horiz-adv-x="1038" d="M998 0h-879q-90 0 -90 72q0 71 73 71h134q165 0 165 129q0 134 -158 134q-28 0 -42 -7q38 -6 63.5 -33.5t25.5 -65.5q0 -50 -32 -77.5t-83 -27.5q-114 0 -114 111q0 70 61 112q54 37 127 37q240 0 240 -175q0 -82 -55 -132t-137 -50h-151q-30 0 -30 -24q0 -23 27 -23h855 v-51zM211 300q0 22 -13.5 38t-34.5 16q-20 0 -34.5 -17t-14.5 -37q0 -19 15 -36.5t34 -17.5q20 0 34 17t14 37z" />
<glyph unicode="&#xb8a;" horiz-adv-x="1153" d="M1111 391h-62v-307h-75v307h-80v-307h-75v160q0 151 -123 151q-46 0 -77 -37q-27 -33 -33 -81q31 29 64 29q60 0 90 -57q9 -17 9 -46q0 -49 -24 -84q-27 -40 -74 -40q-56 0 -84 60q-21 45 -21 109q0 78 44 136q48 64 123 64q99 0 133 -67v60h265v-50zM1100 0h-981 q-90 0 -90 72q0 71 73 71h134q165 0 165 129q0 134 -158 134q-28 0 -42 -7q38 -6 63.5 -33.5t25.5 -65.5q0 -50 -32 -77.5t-83 -27.5q-114 0 -114 111q0 70 61 112q54 37 127 37q240 0 240 -175q0 -82 -55 -132t-137 -50h-151q-30 0 -30 -24q0 -23 27 -23h957v-51zM685 192 q0 23 -10 42q-12 23 -33 23q-17 0 -30 -19l-7 -14q-6 -12 -6 -32q0 -23 10 -41q12 -23 33 -23q19 0 32 23q11 20 11 41zM211 300q0 22 -13.5 38t-34.5 16q-20 0 -34.5 -17t-14.5 -37q0 -19 15 -36.5t34 -17.5q20 0 34 17t14 37z" />
<glyph unicode="&#xb8e;" horiz-adv-x="623" d="M591 391h-89v-391h-86v391h-152q-67 0 -112 -43t-54 -110q5 9 26 22q30 18 70 18q53 0 91.5 -40t38.5 -93q0 -65 -33 -106q-36 -44 -100 -44q-77 0 -117 67q-33 55 -33 138q0 103 63.5 172t166.5 69h320v-50zM243 137q0 33 -18 58q-20 29 -51 29q-30 0 -49.5 -27.5 t-19.5 -59.5q0 -33 18 -58q20 -29 51 -29q32 0 52 28q17 26 17 59z" />
<glyph unicode="&#xb8f;" horiz-adv-x="630" d="M591 391h-89v-425l-260 -173v37l174 170v391h-152q-67 0 -112 -43t-54 -110q5 9 26 22q30 18 70 18q53 0 91.5 -40t38.5 -93q0 -65 -33 -106q-36 -44 -100 -44q-77 0 -117 67q-33 55 -33 138q0 103 63.5 172t166.5 69h320v-50zM243 137q0 33 -18 58q-20 29 -51 29 q-30 0 -49.5 -27.5t-19.5 -59.5q0 -33 18 -58q20 -29 51 -29q32 0 52 28q17 26 17 59z" />
<glyph unicode="&#xb90;" horiz-adv-x="790" d="M750 267q0 -104 -61.5 -158t-166.5 -54l-264 -1q-125 0 -125 -112q0 -48 30.5 -74t79.5 -26q60 0 96 39q27 30 27 60v85h94v-82q0 -100 104 -100q95 0 95 78q0 66 -57 66v41h13q55 0 88 -24q38 -28 38 -81q0 -61 -49 -98q-44 -33 -107 -33q-137 0 -176 101 q-30 -101 -179 -101q-79 0 -128 37q-55 41 -55 118q0 80 53 120q47 36 129 36h292q80 0 114 44q29 38 29 120q0 124 -102 124q-51 0 -77 -47q-22 -38 -22 -93v-96h-92v111q0 63 -57 104q-46 22 -87 22q-48 0 -76 -14q-8 -4 -31 -27q33 9 41 9q51 0 80.5 -31t29.5 -82 q0 -53 -32 -85.5t-84 -32.5t-83 45q-27 39 -27 94q0 79 51.5 127t130.5 48q167 0 210 -92q38 92 152 92q80 0 122 -51q39 -47 39 -126zM194 247q0 24 -12.5 44t-35.5 20q-22 0 -35 -20.5t-13 -43.5q0 -25 11 -43q14 -21 37 -21q22 0 36 22q12 19 12 42z" />
<glyph unicode="&#xb92;" horiz-adv-x="686" d="M653 194q0 -77 -28 -129q-35 -65 -106 -65q-45 0 -75 35q-33 39 -31 86l1 20q-12 -33 -12 -66q0 -56 29.5 -88.5t84.5 -32.5h37v-51h-16q-38 0 -47 -42q0 -59 -56 -94q-48 -31 -110 -31q-65 0 -108 30q-49 34 -49 96q0 48 30 72l38 -32q-15 -18 -15 -50t30 -51 q25 -16 60 -16q52 0 76 23q12 11 26 56q11 36 40 51q-47 12 -76 62q-25 45 -25 97q0 120 98 178l26 -35q-24 -32 -24 -93q0 -63 54 -63q66 0 66 127q0 95 -73 152q-67 53 -164 53h-23q-114 0 -179 -72q-47 -52 -47 -130q0 -45 12 -65v4l-1 4q0 49 24 79q26 34 73 34 q48 0 75 -36q23 -32 23 -82q0 -56 -30 -91t-85 -35q-66 0 -106 60q-35 52 -35 122q0 122 85 197q79 70 206 70h33q117 0 202 -70q92 -74 92 -188zM229 129q0 24 -10 42q-12 22 -34 22q-12 0 -32 -18l-7 -14q-6 -12 -6 -32q0 -23 11 -42q12 -22 34 -22q20 0 33 23 q11 19 11 41z" />
<glyph unicode="&#xb93;" horiz-adv-x="686" d="M653 194q0 -77 -28 -129q-35 -65 -106 -65q-45 0 -75 35q-33 39 -31 86l1 20q-12 -33 -12 -66q0 -56 29.5 -88.5t84.5 -32.5h37v-51h-16q-38 0 -47 -42q0 -60 -59 -95q-49 -30 -113 -30q-63 0 -106 26q-52 31 -52 90q0 48 32.5 76.5t81.5 28.5q60 0 94 -39q25 -29 25 -66 h-48q-18 52 -70 52q-62 0 -62 -57q0 -28 27 -47q22 -15 55 -15q66 0 92 22q10 8 23 50q6 38 42 58q-47 12 -76 62q-25 45 -25 97q0 120 98 178l26 -35q-24 -32 -24 -93q0 -63 54 -63q66 0 66 127q0 95 -73 152q-67 53 -164 53h-23q-114 0 -179 -72q-47 -52 -47 -130 q0 -45 12 -65v4l-1 4q0 49 24 79q26 34 73 34q48 0 75 -36q23 -32 23 -82q0 -56 -30 -91t-85 -35q-66 0 -106 60q-35 52 -35 122q0 122 85 197q79 70 206 70h33q117 0 202 -70q92 -74 92 -188zM229 129q0 24 -10 42q-12 22 -34 22q-12 0 -32 -18l-7 -14q-6 -12 -6 -32 q0 -23 11 -42q12 -22 34 -22q20 0 33 23q11 19 11 41z" />
<glyph unicode="&#xb94;" horiz-adv-x="1478" d="M653 194q0 -77 -28 -129q-35 -65 -106 -65q-45 0 -75 35q-33 39 -31 86l1 20q-12 -33 -12 -66q0 -56 29.5 -88.5t84.5 -32.5h37v-51h-16q-38 0 -47 -42q0 -59 -56 -94q-48 -31 -110 -31q-65 0 -108 30q-49 34 -49 96q0 48 30 72l38 -32q-15 -18 -15 -50t30 -51 q25 -16 60 -16q52 0 76 23q12 11 26 56q11 36 40 51q-47 12 -76 62q-25 45 -25 97q0 120 98 178l26 -35q-24 -32 -24 -93q0 -63 54 -63q66 0 66 127q0 95 -73 152q-67 53 -164 53h-23q-114 0 -179 -72q-47 -52 -47 -130q0 -45 12 -65v4l-1 4q0 49 24 79q26 34 73 34 q48 0 75 -36q23 -32 23 -82q0 -56 -30 -91t-85 -35q-66 0 -106 60q-35 52 -35 122q0 122 85 197q79 70 206 70h33q117 0 202 -70q92 -74 92 -188zM229 129q0 24 -10 42q-12 22 -34 22q-12 0 -32 -18l-7 -14q-6 -12 -6 -32q0 -23 11 -42q12 -22 34 -22q20 0 33 23 q11 19 11 41zM1440 391h-94v-391h-85v391h-129v-391h-85v198q0 193 -165 193q-61 0 -106 -48q-40 -42 -49 -108l26 23q32 20 70 20q56 0 94 -40t38 -96q0 -62 -34 -103q-36 -44 -97 -44q-62 0 -103 45q-49 54 -49 162q0 91 60 165q66 82 170 82q121 0 182 -79v71h356v-50z M873 137q0 33 -18 58q-20 29 -51 29q-30 0 -49.5 -27.5t-19.5 -59.5q0 -33 18 -58q20 -29 51 -29q32 0 52 28q17 26 17 59z" />
<glyph unicode="&#xb95;" horiz-adv-x="640" d="M605 140q0 -69 -52 -107q-45 -33 -117 -33q-69 0 -110 37q-52 -37 -136 -37q-63 0 -108 36q-49 39 -49 101q0 99 91 124v180h414v-50h-155v-125h84q62 0 100 -32.5t38 -93.5zM519 146q0 32 -19.5 50.5t-51.5 18.5h-65v-63q0 -43 -23 -78q22 -22 67 -22q39 0 65.5 27.5 t26.5 66.5zM297 266v125h-123v-125h123zM297 167v48h-131q-82 0 -82 -80q0 -36 29 -59t66 -23q52 0 85 31t33 83z" />
<glyph unicode="&#xb99;" horiz-adv-x="767" d="M723 0h-489v51h141q93 0 93 109q0 82 -87 82q-55 0 -73 -63v-71h-74v283h-134v-391h-50v441h414v-50h-156v-128q40 31 92 31q64 0 105 -36t41 -99q0 -32 -14 -62q-16 -34 -42 -46h147v390h86v-441z" />
<glyph unicode="&#xb9a;" horiz-adv-x="590" d="M557 215h-174v-63q0 -76 -61 -117q-52 -35 -132 -35q-63 0 -108 36q-49 39 -49 101q0 99 91 124v180h414v-50h-155v-125h174v-51zM297 266v125h-123v-125h123zM297 167v48h-131q-82 0 -82 -80q0 -36 29 -59t66 -23q52 0 85 31t33 83z" />
<glyph unicode="&#xb9c;" horiz-adv-x="794" d="M750 267q0 -104 -61.5 -158t-166.5 -54l-264 -1q-125 0 -125 -112q0 -48 30.5 -74t79.5 -26q54 0 78 17q31 22 56 80q43 99 187 99q177 0 177 -131q0 -54 -37 -83.5t-92 -29.5q-70 0 -95 68q-7 30 -7 46q0 60 28 82q-100 0 -126 -90q-17 -59 -74 -85q-48 -22 -108 -22 q-77 0 -127 38q-56 42 -56 117q0 80 53 120q47 36 129 36h292q80 0 114 44q29 38 29 120q0 124 -102 124q-51 0 -77 -47q-22 -38 -22 -93v-96h-92v111q0 63 -57 104q-46 22 -87 22q-48 0 -76 -14q-8 -4 -31 -27q33 9 41 9q51 0 80.5 -31t29.5 -82q0 -53 -32 -85.5t-84 -32.5 t-83 45q-27 39 -27 94q0 79 51.5 127t130.5 48q167 0 210 -92q38 92 152 92q80 0 122 -51q39 -47 39 -126zM656 -86q0 26 -11 45q-13 23 -37 23q-20 0 -34 -20q-13 -26 -13 -48q0 -25 11 -45q13 -24 36 -24q24 0 37 24q11 19 11 45zM194 247q0 24 -12.5 44t-35.5 20 q-22 0 -35 -20.5t-13 -43.5q0 -25 11 -43q14 -21 37 -21q22 0 36 22q12 19 12 42z" />
<glyph unicode="&#xb9e;" horiz-adv-x="907" d="M863 115q0 -167 -126 -251q-107 -71 -282 -71q-191 0 -302.5 106.5t-111.5 296.5q0 70 17 127q21 70 57 113l36 -36q-18 -15 -37 -70l-16 -65q-6 -24 -6 -66q0 -163 95 -257.5t259 -94.5q327 0 327 268q0 115 -64 115q-14 0 -38 -21q-17 -22 -17 -52v-157h-86v391h-156 q-67 0 -110 -42.5t-53 -110.5l25 19q28 17 63 17q120 0 135 -127q0 -64 -34 -107q-37 -46 -100 -46q-75 0 -113 70q-31 57 -31 138q0 103 63 171t166 68h300v-50h-69v-129q33 19 61 19q38 0 62 -8q21 -7 40 -25q46 -43 46 -133zM392 134q0 32 -17 58q-19 31 -49 31t-49 -31 q-16 -26 -16 -58q0 -33 16 -59q18 -30 49 -30q27 0 50 30q16 28 16 59z" />
<glyph unicode="&#xb9f;" horiz-adv-x="612" d="M568 0h-518v441h86v-390h432v-51z" />
<glyph unicode="&#xba3;" horiz-adv-x="1233" d="M1198 390h-82v-390h-86v390h-69q-54 0 -105 -24q78 -75 78 -181q0 -70 -25 -120q-32 -64 -95 -64t-94 64q-24 49 -24 120q0 102 66 174q-63 37 -118 37q-46 0 -109 -30q79 -73 79 -181q0 -70 -25 -120q-32 -64 -95 -64q-98 0 -117 150q-2 16 -2 34q0 93 66 173 q-62 39 -139 39q-76 0 -130 -43t-75 -117q36 41 97 41q57 0 94 -41t37 -98q0 -60 -36 -102t-95 -42q-78 0 -119 63q-34 52 -34 137q0 116 86 188q81 68 200 68q91 0 165 -50q71 47 157 47q91 0 164 -47q68 40 138 40h247v-51zM851 185q0 77 -51 140q-53 -56 -53 -140 q0 -120 53 -120q14 0 34 27q17 34 17 93zM531 185q0 76 -51 139q-53 -53 -53 -139q0 -120 53 -120q14 0 34 27q17 34 17 93zM243 137q0 33 -18 58q-20 29 -51 29q-30 0 -49.5 -27.5t-19.5 -59.5q0 -33 18 -58q20 -29 51 -29q32 0 52 28q17 26 17 59z" />
<glyph unicode="&#xba4;" horiz-adv-x="652" d="M609 96q0 -100 -80 -152q-50 -33 -114 -37l-47 -3h-194q-85 0 -85 -47q0 -29 34 -29q20 0 34 -12.5t14 -32.5q0 -19 -14.5 -33t-33.5 -14q-43 0 -67 28.5t-24 72.5q0 58 48 89q38 25 102 25h185q71 0 113.5 38t42.5 108q0 118 -106 118h-34v-63q0 -76 -61 -117 q-52 -35 -132 -35q-63 0 -108 36q-49 39 -49 101q0 99 91 124v180h414v-50h-155v-125h43q85 0 134 -43t49 -127zM297 266v125h-123v-125h123zM297 167v48h-131q-82 0 -82 -80q0 -36 29 -59t66 -23q52 0 85 31t33 83z" />
<glyph unicode="&#xba8;" horiz-adv-x="621" d="M571 96q0 -99 -80 -152q-61 -40 -160 -40h-174q-86 0 -86 -47q0 -29 34 -29q19 0 34 -13t15 -32q0 -20 -14.5 -33.5t-34.5 -13.5q-43 0 -67 28.5t-24 72.5q0 58 48 89q38 25 103 25h164q114 0 147 87q10 27 10 59q0 115 -95 115q-70 0 -70 -69v-143h-87v391h-134v-391 h-50v441h438v-50h-167v-158q25 37 100 37t114 -51q36 -46 36 -123z" />
<glyph unicode="&#xba9;" horiz-adv-x="914" d="M878 390h-82v-390h-86v390h-70q-48 0 -104 -24q78 -75 78 -181q0 -70 -25 -120q-32 -64 -95 -64q-98 0 -117 150q-2 16 -2 34q0 93 66 173q-62 39 -139 39q-76 0 -130 -43t-75 -117q36 41 97 41q57 0 94 -41t37 -98q0 -60 -36 -102t-95 -42q-78 0 -119 63q-34 52 -34 137 q0 116 86 188q81 68 200 68q87 0 165 -51q62 41 139 41h247v-51zM531 185q0 76 -51 139q-53 -53 -53 -139q0 -120 53 -120q14 0 34 27q17 34 17 93zM243 137q0 33 -18 58q-20 29 -51 29q-30 0 -49.5 -27.5t-19.5 -59.5q0 -33 18 -58q20 -29 51 -29q32 0 52 28q17 26 17 59z " />
<glyph unicode="&#xbaa;" horiz-adv-x="621" d="M566 0h-516v441h86v-390h344v390h86v-441z" />
<glyph unicode="&#xbae;" horiz-adv-x="713" d="M672 189q0 -88 -56 -138.5t-145 -50.5h-421v441h86v-390h166v271q0 122 130 122q96 0 168 -79t72 -176zM621 190q0 73 -53 136.5t-125 63.5q-54 0 -54 -60v-279h67q165 0 165 139z" />
<glyph unicode="&#xbaf;" horiz-adv-x="725" d="M683 0h-418v62q-29 -64 -101 -64q-114 0 -114 143v300h50v-301q0 -45 11 -65q15 -27 56 -27q49 0 76 70q22 56 22 111v212h86v-390h246v390h86v-441z" />
<glyph unicode="&#xbb0;" horiz-adv-x="470" d="M427 391h-106v-425l-261 -173v37l174 170v391h-134v-391h-50v441h377v-50z" />
<glyph unicode="&#xbb1;" horiz-adv-x="623" d="M584 190q0 -138 -76.5 -212t-215.5 -74h-135q-86 0 -86 -47q0 -29 34 -29q19 0 34 -13t15 -32q0 -20 -14.5 -33.5t-34.5 -13.5q-43 0 -67 28.5t-24 72.5q0 58 48 89q38 25 103 25h125q209 0 209 238q0 203 -106 203q-70 0 -70 -110v-282h-86v287q0 105 -70 105 q-67 0 -67 -105v-287h-50v294q0 76 37 115q33 34 84 34q102 0 120 -79q30 78 114 78q179 0 179 -252z" />
<glyph unicode="&#xbb2;" horiz-adv-x="794" d="M243 137q0 33 -18 58q-20 29 -51 29q-30 0 -49.5 -27.5t-19.5 -59.5q0 -33 18 -58q20 -29 51 -29q32 0 52 28q17 26 17 59zM330 381q-30 13 -69 13q-67 0 -111 -47q-38 -41 -53 -110q36 41 97 41q57 0 94 -41t37 -98q0 -60 -36 -102t-95 -42q-78 0 -119 63 q-34 52 -34 137q0 105 64 179.5t168 74.5q40 0 74 -9q51 -14 88 -49q62 -58 62 -158v-59q0 -63 10 -87q15 -36 64 -36q64 0 100 68q31 58 31 125q0 93 -47 143q-9 9 -65 34q-33 14 -33 49q0 21 30 21q13 0 22 -5q144 -78 144 -242q0 -95 -47 -166q-54 -82 -144 -82 q-152 0 -152 165v73q0 73 -37 116q-18 20 -43 31z" />
<glyph unicode="&#xbb3;" horiz-adv-x="839" d="M810 391h-94v-391h-85v391h-129v-391h-85v198q0 193 -165 193q-61 0 -106 -48q-40 -42 -49 -108l26 23q32 20 70 20q56 0 94 -40t38 -96q0 -62 -34 -103q-36 -44 -97 -44q-62 0 -103 45q-49 54 -49 162q0 91 60 165q66 82 170 82q121 0 182 -79v71h356v-50zM243 137 q0 33 -18 58q-20 29 -51 29q-30 0 -49.5 -27.5t-19.5 -59.5q0 -33 18 -58q20 -29 51 -29q32 0 52 28q17 26 17 59z" />
<glyph unicode="&#xbb4;" horiz-adv-x="703" d="M672 189q0 -88 -56 -138.5t-145 -50.5h-82v-32q0 -38 52 -38h65v-51h-77q-29 0 -49 -21l-16 -42q-30 -80 -157 -80q-62 0 -102 26q-47 31 -47 90q0 44 26.5 69t70.5 25q26 0 49.5 -14t23.5 -39q0 -29 -25 -29q-16 0 -23.5 15t-29.5 15q-40 0 -40 -41q0 -66 89 -66 q84 0 103 51l15 40q12 20 37 20q-52 8 -52 65v37h-252v441h86v-390h166v271q0 122 130 122q96 0 168 -79t72 -176zM621 190q0 73 -53 136.5t-125 63.5q-54 0 -54 -60v-279h67q165 0 165 139z" />
<glyph unicode="&#xbb5;" horiz-adv-x="774" d="M741 0h-360v36q49 64 49 173q0 81 -48 131.5t-129 50.5q-60 0 -105 -47q-41 -44 -51 -106l27 21q38 19 70 19q57 0 94 -40.5t37 -97.5q0 -60 -35 -101q-37 -44 -96 -44q-73 0 -116 63q-37 54 -37 132q0 108 63 181q66 78 172 78q103 0 171.5 -69.5t68.5 -173.5 q0 -93 -39 -155h178v390h86v-441zM243 137q0 33 -18 58q-20 29 -51 29q-30 0 -49.5 -27.5t-19.5 -59.5q0 -33 18 -58q20 -29 51 -29q32 0 52 28q17 26 17 59z" />
<glyph unicode="&#xbb6;" horiz-adv-x="1138" d="M886 393h-67v-279q0 -60 54 -60q72 0 125 63.5t53 136.5q0 139 -165 139zM566 393v-393h-516v441h86v-390h344v393h421q89 0 145 -50.5t56 -138.5q0 -97 -72 -176t-168 -79q-130 0 -130 122v271h-166z" />
<glyph unicode="&#xbb7;" horiz-adv-x="991" d="M953 0h-152l-76 -187h-77l76 187h-343v36q49 64 49 173q0 81 -48 131.5t-129 50.5q-60 0 -105 -47q-41 -44 -51 -106l27 21q38 19 70 19q57 0 94 -40.5t37 -97.5q0 -60 -35 -101q-37 -44 -96 -44q-73 0 -116 63q-37 54 -37 132q0 108 63 181q66 78 172 78 q103 0 171.5 -69.5t68.5 -173.5q0 -93 -39 -155h268l23 56l-21 -3q-56 0 -103 38q-61 49 -61 136q0 70 42 116.5t111 46.5q81 0 131 -45q43 -39 43 -95q0 -39 -8 -58l-27 -64l78 50v-229zM830 289q0 91 -107 91q-44 0 -67 -34q-19 -29 -19 -74q0 -55 38 -89q33 -29 77 -29 q22 0 38 8l33 87q7 18 7 40zM900 51v92l-50 -23l-28 -69h78zM243 137q0 33 -18 58q-20 29 -51 29q-30 0 -49.5 -27.5t-19.5 -59.5q0 -33 18 -58q20 -29 51 -29q32 0 52 28q17 26 17 59z" />
<glyph unicode="&#xbb8;" horiz-adv-x="1021" d="M986 244q0 -95 -47 -166q-54 -82 -144 -82q-152 0 -152 165v79q0 75 -11 104q-15 40 -56 40q-54 0 -69 -65q-6 -25 -6 -77v-243h-86v238q0 72 -42.5 113t-114.5 41q-61 0 -104 -48q-37 -42 -49 -106q33 41 96 41q54 0 92.5 -42t38.5 -97q0 -60 -36 -102t-95 -42 q-77 0 -118 64q-34 55 -34 136q0 103 60 176q64 78 165 78q147 0 200 -98q24 92 115 92q95 0 124 -65q16 -36 16 -136v-68q0 -62 11 -87q16 -36 64 -36q64 0 100 68q31 58 31 125q0 93 -47 143q-9 9 -65 34q-33 14 -33 49q0 21 30 21q13 0 22 -5q144 -78 144 -242zM251 137 q0 33 -18 58q-20 29 -51 29q-30 0 -49.5 -27.5t-19.5 -59.5q0 -33 18 -58q20 -29 51 -29q32 0 52 28q17 26 17 59z" />
<glyph unicode="&#xbb9;" horiz-adv-x="1163" d="M1122 190q0 -138 -76.5 -212t-215.5 -74h-636q-85 0 -85 -47q0 -29 33 -29q19 0 34 -13t15 -32q0 -20 -14.5 -33.5t-34.5 -13.5q-43 0 -67 28.5t-24 72.5q0 58 48 89q39 25 103 25h626q208 0 208 238q0 203 -105 203q-70 0 -70 -110v-282h-86v287q0 105 -70 105 q-67 0 -67 -105v-287h-262v36q49 64 49 173q0 81 -48 131.5t-129 50.5q-60 0 -105 -47q-41 -44 -51 -106l27 21q38 19 70 19q57 0 94 -40.5t37 -97.5q0 -60 -35 -101q-37 -44 -96 -44q-73 0 -116 63q-37 54 -37 132q0 108 63 181q66 78 172 78q103 0 171.5 -69.5 t68.5 -173.5q0 -93 -39 -155h116v243q0 76 37 115q33 34 84 34q102 0 120 -79q30 78 114 78q179 0 179 -252zM238 137q0 33 -18 58q-20 29 -51 29q-30 0 -49.5 -27.5t-19.5 -59.5q0 -34 17 -59q20 -28 52 -28t52 28q17 26 17 59z" />
<glyph unicode="&#xbbe;" horiz-adv-x="464" d="M446 391h-125v-391h-87v391h-134v-391h-50v441h396v-50z" />
<glyph unicode="&#xbbf;" horiz-adv-x="55" d="M48 0h-50v529q0 68 -39.5 113t-106.5 45q-59 0 -94.5 -37t-35.5 -96q0 -86 76 -113l-77 1q-54 45 -54 133q0 82 53 137t135 55q92 0 145 -70q48 -63 48 -158v-539z" />
<glyph unicode="&#xbc0;" horiz-adv-x="78" d="M60 658q0 -43 -29 -68.5t-73 -25.5q-41 0 -70 20q-33 23 -33 62q0 25 10 35q-37 -6 -58 -43q-17 -30 -17 -73q0 -41 29 -78.5t69 -47.5h-84q-68 48 -68 135q0 84 50.5 138.5t134.5 54.5q56 0 94 -26q45 -30 45 -83zM-2 646q0 10 -15 28q-15 12 -34 12q-16 0 -31.5 -12 t-17.5 -28q0 -16 16 -27.5t33 -11.5q22 0 36 11q7 8 13 28z" />
<glyph unicode="&#xbc1;" horiz-adv-x="380" d="M444 221h-284v193h-256v57h540v-250zM366 277v137h-125v-137h125z" />
<glyph unicode="&#xbc2;" horiz-adv-x="605" d="M674 290q0 -295 -342 -295q-71 0 -148 49q-72 45 -113 109l35 33q81 -125 226 -125q159 0 219 71q28 33 40 99l3 47v125q0 81 -50 146q-53 71 -132 71q-66 0 -113 -42t-47 -108h205v-250h-283v193h-268v57h268q0 106 74 163q68 53 176 53q107 0 178.5 -75.5t71.5 -183.5 v-137zM377 276v137h-125v-137h125z" />
<glyph unicode="&#xbc6;" horiz-adv-x="687" d="M656 0h-51v298q0 127 -56 207q-64 91 -186 91q-114 0 -184 -81q-64 -74 -64 -194q0 -147 71 -221q53 -55 121 -55q30 0 47 7q-66 26 -66 116q0 57 36 97.5t93 40.5q67 0 102 -46q28 -36 28 -79q0 -90 -77 -139q-67 -43 -160 -43q-132 0 -209 95q-72 88 -72 223 q0 165 107 260q91 80 209 80q146 0 231 -103q80 -96 80 -245v-309zM470 167q0 31 -17 57q-19 31 -48 31q-30 0 -49 -30q-17 -26 -17 -58q0 -34 16 -59q18 -30 50 -30q30 0 49 31q16 26 16 58z" />
<glyph unicode="&#xbc7;" horiz-adv-x="600" d="M567 181q0 -90 -71 -139q-63 -43 -155 -43q-156 0 -235 88q-77 84 -77 242t76 242q80 88 236 88q94 0 156 -43q70 -50 70 -140q0 -41 -29 -78q-37 -47 -102 -47q-57 0 -93 40.5t-36 98.5q0 93 70 114l-27 4q-118 0 -180 -83q-55 -74 -55 -196t55 -196q62 -83 180 -83 q19 0 27 4q-70 20 -70 114q0 57 36 97.5t93 40.5q54 0 92.5 -35.5t38.5 -89.5zM490 491q0 32 -17 58q-19 31 -49 31t-49 -31q-16 -26 -16 -58q0 -33 16 -59q18 -30 49 -30q27 0 50 30q16 28 16 59zM490 167q0 32 -17 58q-19 30 -49 30q-29 0 -47 -28.5t-18 -59.5 q0 -33 16 -59q18 -30 49 -30q27 0 50 30q16 28 16 59z" />
<glyph unicode="&#xbc8;" horiz-adv-x="891" d="M855 221q0 -85 -40 -144q-43 -63 -123 -82l-29 56q107 24 107 174q0 70 -43.5 117.5t-113.5 47.5q-43 0 -78 -23q79 -74 79 -182q0 -70 -25 -120q-32 -64 -95 -64q-98 0 -117 150q-2 16 -2 34q0 93 66 173q-62 39 -139 39q-76 0 -130 -43t-75 -117q36 41 97 41 q57 0 94 -41t37 -98q0 -60 -36 -102t-95 -42q-78 0 -119 63q-34 52 -34 137q0 116 86 188q81 68 200 68q90 0 164 -50q65 45 136 45q99 0 163.5 -63t64.5 -162zM531 185q0 76 -51 139q-53 -53 -53 -139q0 -120 53 -120q14 0 34 27q17 34 17 93zM243 137q0 33 -18 58 q-20 29 -51 29q-30 0 -49.5 -27.5t-19.5 -59.5q0 -33 18 -58q20 -29 51 -29q32 0 52 28q17 26 17 59z" />
<glyph unicode="&#xbca;" horiz-adv-x="1120" d="M656 0h-51v298q0 127 -56 207q-64 91 -186 91q-114 0 -184 -81q-64 -74 -64 -194q0 -147 71 -221q53 -55 121 -55q30 0 47 7q-66 26 -66 116q0 57 36 97.5t93 40.5q67 0 102 -46q28 -36 28 -79q0 -90 -77 -139q-67 -43 -160 -43q-132 0 -209 95q-72 88 -72 223 q0 165 107 260q91 80 209 80q146 0 231 -103q80 -96 80 -245v-309zM470 167q0 31 -17 57q-19 31 -48 31q-30 0 -49 -30q-17 -26 -17 -58q0 -34 16 -59q18 -30 50 -30q30 0 49 31q16 26 16 58zM1086 391h-125v-391h-87v391h-134v-391h-50v441h396v-50z" />
<glyph unicode="&#xbcb;" horiz-adv-x="1047" d="M567 181q0 -90 -71 -139q-63 -43 -155 -43q-156 0 -235 88q-77 84 -77 242t76 242q80 88 236 88q94 0 156 -43q70 -50 70 -140q0 -41 -29 -78q-37 -47 -102 -47q-57 0 -93 40.5t-36 98.5q0 93 70 114l-27 4q-118 0 -180 -83q-55 -74 -55 -196t55 -196q62 -83 180 -83 q19 0 27 4q-70 20 -70 114q0 57 36 97.5t93 40.5q54 0 92.5 -35.5t38.5 -89.5zM490 491q0 32 -17 58q-19 31 -49 31t-49 -31q-16 -26 -16 -58q0 -33 16 -59q18 -30 49 -30q27 0 50 30q16 28 16 59zM490 167q0 32 -17 58q-19 30 -49 30q-29 0 -47 -28.5t-18 -59.5 q0 -33 16 -59q18 -30 49 -30q27 0 50 30q16 28 16 59zM1006 391h-125v-391h-87v391h-134v-391h-50v441h396v-50z" />
<glyph unicode="&#xbcc;" horiz-adv-x="1500" d="M656 0h-51v298q0 127 -56 207q-64 91 -186 91q-114 0 -184 -81q-64 -74 -64 -194q0 -147 71 -221q53 -55 121 -55q30 0 47 7q-66 26 -66 116q0 57 36 97.5t93 40.5q67 0 102 -46q28 -36 28 -79q0 -90 -77 -139q-67 -43 -160 -43q-132 0 -209 95q-72 88 -72 223 q0 165 107 260q91 80 209 80q146 0 231 -103q80 -96 80 -245v-309zM470 167q0 31 -17 57q-19 31 -48 31q-30 0 -49 -30q-17 -26 -17 -58q0 -34 16 -59q18 -30 50 -30q30 0 49 31q16 26 16 58zM1460 391h-94v-391h-85v391h-129v-391h-85v198q0 193 -165 193q-61 0 -106 -48 q-40 -42 -49 -108l26 23q32 20 70 20q56 0 94 -40t38 -96q0 -62 -34 -103q-36 -44 -97 -44q-62 0 -103 45q-49 54 -49 162q0 91 60 165q66 82 170 82q121 0 182 -79v71h356v-50zM893 137q0 33 -18 58q-20 29 -51 29q-30 0 -49.5 -27.5t-19.5 -59.5q0 -33 18 -58 q20 -29 51 -29q32 0 52 28q17 26 17 59z" />
<glyph unicode="&#xbcd;" horiz-adv-x="10" d="M-286 597q0 -24 -18 -42.5t-42 -18.5q-19 0 -43 18q-17 19 -17 43q0 25 17.5 42.5t42.5 17.5t42.5 -17.5t17.5 -42.5z" />
<glyph unicode="&#xbd7;" horiz-adv-x="839" d="M810 391h-94v-391h-85v391h-129v-391h-85v198q0 193 -165 193q-61 0 -106 -48q-40 -42 -49 -108l26 23q32 20 70 20q56 0 94 -40t38 -96q0 -62 -34 -103q-36 -44 -97 -44q-62 0 -103 45q-49 54 -49 162q0 91 60 165q66 82 170 82q121 0 182 -79v71h356v-50zM243 137 q0 33 -18 58q-20 29 -51 29q-30 0 -49.5 -27.5t-19.5 -59.5q0 -33 18 -58q20 -29 51 -29q32 0 52 28q17 26 17 59z" />
<glyph unicode="&#xbe6;" horiz-adv-x="425" d="M398 220q0 -61 -26 -121q-46 -107 -164 -107q-94 0 -146 79q-40 62 -40 146q0 82 37 142q51 82 153 82q88 0 145 -78q41 -57 41 -143zM309 211q0 195 -99 195t-99 -198q0 -182 102 -182q78 0 93 119q3 22 3 66z" />
<glyph unicode="&#xbe7;" horiz-adv-x="640" d="M605 140q0 -69 -52 -107q-45 -33 -117 -33q-69 0 -110 37q-52 -37 -136 -37q-63 0 -108 36q-49 39 -49 101q0 99 91 124v180h414v-50h-155v-125h84q62 0 100 -32.5t38 -93.5zM519 146q0 32 -19.5 50.5t-51.5 18.5h-65v-63q0 -43 -23 -78q22 -22 67 -22q39 0 65.5 27.5 t26.5 66.5zM297 266v125h-123v-125h123zM297 167v48h-131q-82 0 -82 -80q0 -36 29 -59t66 -23q52 0 85 31t33 83z" />
<glyph unicode="&#xbe8;" horiz-adv-x="1038" d="M177 195h-2q-114 0 -114 111q0 70 61 112q54 37 127 37q240 0 240 -175q0 -82 -55 -132t-137 -50h-151q-30 0 -30 -24q0 -23 27 -23h855v-51h-879q-90 0 -90 72q0 71 73 71h134q165 0 165 129q0 134 -158 134q-28 0 -59 -16.5t-50.5 -43t-19.5 -46.5q0 -19 15 -36.5 t34 -17.5q7 0 14 2v-53z" />
<glyph unicode="&#xbe9;" horiz-adv-x="767" d="M723 0h-489v51h141q93 0 93 109q0 82 -87 82q-55 0 -73 -63v-71h-74v283h-134v-391h-50v441h414v-50h-156v-128q40 31 92 31q64 0 105 -36t41 -99q0 -32 -14 -62q-16 -34 -42 -46h233v-51z" />
<glyph unicode="&#xbea;" horiz-adv-x="753" d="M297 266v125h-123v-125h123zM297 167v48h-131q-82 0 -82 -80q0 -36 29 -59t66 -23q52 0 85 31t33 83zM571 266v175h86v-175h59v-51h-333v-63q0 -76 -61 -117q-52 -35 -132 -35q-63 0 -108 36q-49 39 -49 101q0 99 91 124v180h414v-50h-155v-125h188z" />
<glyph unicode="&#xbeb;" horiz-adv-x="829" d="M796 75q0 -148 -109 -246q-104 -93 -256 -93q-177 0 -286 104.5t-109 280.5q0 128 58 210l39 55q14 20 47 47l33 -39q-41 -33 -75 -89q-51 -85 -51 -184q0 -139 87.5 -233t225.5 -94q137 0 219 67q90 72 90 206q0 144 -83 144q-53 0 -53 -63v-148h-86v391h-134v-391h-51 v441h392v-50h-121v-149q27 24 68 24q75 0 117 -60q38 -53 38 -131z" />
<glyph unicode="&#xbec;" horiz-adv-x="826" d="M297 266v125h-123v-125h123zM297 167v48h-131q-82 0 -82 -80q0 -36 29 -59t66 -23q52 0 85 31t33 83zM550 215h-167v-63q0 -76 -61 -117q-52 -35 -132 -35q-63 0 -108 36q-49 39 -49 101q0 99 91 124v180h414v-50h-155v-125h406v-30h-76v-236h-52v236h-81v-236h-30v215z " />
<glyph unicode="&#xbed;" horiz-adv-x="623" d="M591 391h-89v-391h-86v391h-152q-67 0 -112 -43t-54 -110q5 9 26 22q30 18 70 18q53 0 91.5 -40t38.5 -93q0 -65 -33 -106q-36 -44 -100 -44q-77 0 -117 67q-33 55 -33 138q0 103 63.5 172t166.5 69h320v-50zM243 137q0 33 -18 58q-20 29 -51 29q-30 0 -49.5 -27.5 t-19.5 -59.5q0 -33 18 -58q20 -29 51 -29q32 0 52 28q17 26 17 59z" />
<glyph unicode="&#xbee;" horiz-adv-x="958" d="M917 -116h-86v194h-97q-42 -101 -155 -152q-94 -43 -217 -43q-141 0 -239 74q-87 65 -87 137q0 35 58 35h567l5 31l2 38q2 35 -11 75q-12 35 -37 64q-51 61 -137 59l-41 -1q35 0 61 -29.5t26 -64.5q0 -51 -33.5 -80.5t-85.5 -29.5q-51 0 -82 31t-31 82q0 65 61 106 q54 37 122 37q120 0 196 -64q81 -68 81 -186q0 -34 -7 -68h81v312h86v-557zM457 296q0 24 -15.5 40.5t-39.5 16.5q-32 0 -50 -34l-4 -23q0 -23 15.5 -40t38.5 -17q20 0 37.5 18.5t17.5 38.5zM645 78h-516q-22 0 -22 -16q-1 -60 96 -99q74 -30 147 -30q228 0 295 145z" />
<glyph unicode="&#xbef;" horiz-adv-x="922" d="M894 0h-194v7q44 46 44 129q0 47 -21 78q-24 36 -68 36q-88 0 -88 -122v-128h-69v125q0 40 -24 65t-64 25h-27v-63q0 -76 -61 -117q-52 -35 -132 -35q-63 0 -108 36q-49 39 -49 101q0 99 91 124v180h389v-50h-130v-125h43q26 0 58 -14t45 -35q12 27 39 53q36 34 86 34 q70 0 118 -36q53 -40 53 -107q0 -70 -26 -110h95v-51zM297 266v125h-123v-125h123zM297 167v48h-131q-82 0 -82 -80q0 -36 29 -59t66 -23q52 0 85 31t33 83z" />
<glyph unicode="&#xbf0;" horiz-adv-x="700" d="M597 441v8q-11 101 -121 101h-66l18 39h80q132 0 166 -109q6 -19 9 -39v-441h-418v62q-29 -64 -101 -64q-114 0 -114 143v300h50v-301q0 -45 11 -65q15 -27 56 -27q49 0 76 70q22 56 22 111v212h86v-390h246v390z" />
<glyph unicode="&#xbf1;" horiz-adv-x="839" d="M91 40q-49 54 -49 162q0 91 60 165q66 82 170 82q121 0 182 -79v71h356v-50h-94v-391h-85v391h-129v-391h-85v198q0 193 -165 193q-61 0 -106 -48q-40 -42 -49 -108q-7 -66 0.5 -98.5t25.5 -57.5q20 -29 51 -29l20 -55q-62 0 -103 45z" />
<glyph unicode="&#xbf2;" horiz-adv-x="832" d="M297 266v125h-123v-125h123zM600 76v31h-84q-53 0 -53 -51q0 -23 19 -38t42 -15q34 0 55 20t21 53zM297 167v48h-131q-82 0 -82 -80q0 -36 29 -59t66 -23q52 0 85 31t33 83zM489 215h-106v-63q0 -76 -61 -117q-52 -35 -132 -35q-63 0 -108 36q-49 39 -49 101q0 99 91 124 v180h414v-50h-155v-125h334v-51h-62v-75h28q54 0 85.5 -27.5t31.5 -81.5q0 -64 -51 -98q-32 -21 -73 -23l-31 -2h-124q-54 0 -54 -30q0 -19 21 -19q13 0 22 -8t9 -21q0 -12 -9 -21t-22 -9q-27 0 -42.5 18.5t-15.5 46.5q0 37 31 57q24 16 65 16h119q45 0 72.5 24.5t27.5 68.5 q0 76 -68 76h-22v-40q0 -49 -39 -75q-33 -23 -85 -23q-40 0 -69 23q-31 25 -31 65q0 64 58 80v78zM600 215h-79v-75h79v75z" />
<glyph unicode="&#xbf3;" horiz-adv-x="774" d="M243 137q0 33 -18 58q-20 29 -51 29q-30 0 -49.5 -27.5t-19.5 -59.5q0 -33 18 -58q20 -29 51 -29q32 0 52 28q17 26 17 59zM741 0h-360v36q49 64 49 173q0 81 -48 131.5t-129 50.5q-60 0 -105 -47q-41 -44 -51 -106l27 21q38 19 70 19q57 0 94 -40.5t37 -97.5 q0 -60 -35 -101q-37 -44 -96 -44q-73 0 -116 63q-37 54 -37 132q0 108 63 181q66 78 172 78q103 0 171.5 -69.5t68.5 -173.5q0 -93 -39 -155h264v-51z" />
<glyph unicode="&#xbf4;" horiz-adv-x="880" d="M621 190q0 73 -53 136.5t-125 63.5q-54 0 -54 -60v-279h67q165 0 165 139zM554 684q0 20 -11 35q-12 17 -30 17t-29.5 -16.5t-11.5 -35.5t11 -34q11 -17 30 -17t31 16q10 16 10 35zM439 675q-24 -10 -39 -37q-17 -31 -17 -73q0 -81 98 -127q83 -22 137 -92.5t54 -156.5 q0 -88 -56 -138.5t-145 -50.5h-421v441h86v-390h166v271q0 104 94 120q-66 45 -66 132q0 92 58 146q22 20 49 32q8 41 34 71q39 46 102 46q61 0 101.5 -41t40.5 -103q0 -55 -23 -92h157v-30h-214v21q29 38 29 103q0 48 -28 78t-76 30q-36 0 -63 -28q-18 -19 -26 -44 q16 3 32 4l-2 -3q13 4 24 4q33 0 55 -24t22 -58q0 -36 -20 -60q-22 -26 -57 -26q-44 0 -69 37q-12 17 -17 38z" />
<glyph unicode="&#xbf5;" horiz-adv-x="1526" d="M373 137q0 33 -18 58q-20 29 -51 29q-30 0 -49.5 -27.5t-19.5 -59.5q0 -33 18 -58q20 -29 51 -29q32 0 52 28q17 26 17 59zM1199 479q-90 63 -514 63q-438 0 -525 -94q-42 -45 -65 -137t-20.5 -176t47.5 -191q18 -30 43 -56q87 -94 425 -94q424 0 514 63q3 2 5 4 q90 72 90 206q0 144 -83 144q-53 0 -53 -63v-148h-86v391h-134v-391h-332v36q49 64 49 173q0 81 -48 131.5t-129 50.5q-60 0 -105 -47q-41 -44 -51 -106l27 21q38 19 70 19q57 0 94 -40.5t37 -97.5q0 -60 -35 -101q-37 -44 -96 -44q-73 0 -116 63q-37 54 -37 132 q0 108 63 181q66 78 172 78q103 0 171.5 -69.5t68.5 -173.5q0 -93 -39 -155h185v390h392v-50h-121v-149q27 24 68 24q75 0 117 -60q38 -53 38 -131q0 -128 -81 -218q-13 -14 -28 -28q-104 -93 -556 -93q-377 0 -486 104.5t-116.5 220t-7.5 154.5q10 176 119 280.5t586 104.5 q452 0 556 -93q15 -14 23 -28q33 -36 33 -95v-38q0 -40 6 -56q10 -23 42 -23q41 0 64 44q20 37 20 81q0 60 -30 92q-6 6 -42 22q-21 9 -21 31q0 14 19 14q8 0 14 -3q93 -51 93 -156q0 -62 -30 -108q-35 -52 -93 -52q-98 0 -98 106v47q-10 67 -73 94z" />
<glyph unicode="&#xbf6;" horiz-adv-x="725" d="M184 -174h81v74h-81v-74zM265 62q-29 -64 -101 -64q-114 0 -114 143v300h50v-301q0 -45 11 -65q15 -27 56 -27q49 0 76 70q22 56 22 111v212h86v-390h246v390h86v-441h-384v-220h-148v168h114v114z" />
<glyph unicode="&#xbf7;" horiz-adv-x="1282" d="M243 137q0 33 -18 58q-20 29 -51 29q-30 0 -49.5 -27.5t-19.5 -59.5q0 -33 18 -58q20 -29 51 -29q32 0 52 28q17 26 17 59zM695 207q0 15 -9.5 26t-24.5 11q-13 0 -23 -11.5t-10 -25.5q0 -13 10 -25t23 -12q14 0 24 11.5t10 25.5zM610 267q9 11 23 21q37 26 88 26 q165 0 165 -121q0 -56 -37.5 -90.5t-94.5 -34.5h-104q-21 0 -21 -17q0 -16 19 -16h590v-35h-607q-62 0 -62 50q0 49 50 49h93q114 0 114 89q0 92 -109 92q-20 0 -29 -5q26 -4 43.5 -23t17.5 -45q0 -34 -22 -53t-57 -19q-73 0 -79 65q-8 37 -29.5 58.5t-56.5 21.5h-3v-280 h-86v391h-152q-67 0 -112 -43t-54 -110q5 9 26 22q30 18 70 18q53 0 91.5 -40t38.5 -93q0 -65 -33 -106q-36 -44 -100 -44q-77 0 -117 67q-33 55 -33 138q0 103 63.5 172t166.5 69h320v-50h-89v-79q7 1 15 1q49 0 81 -32q7 -7 12 -14z" />
<glyph unicode="&#xbf8;" horiz-adv-x="1500" d="M470 167q0 31 -17 57q-19 31 -48 31q-30 0 -49 -30q-17 -26 -17 -58q0 -34 16 -59q18 -30 50 -30q30 0 49 31q16 26 16 58zM1350 289q0 91 -107 91q-44 0 -67 -34q-19 -29 -19 -74q0 -55 38 -89q33 -29 77 -29q22 0 38 8l33 87q7 18 7 40zM1420 51v92l-50 -23l-28 -69h78 zM824 360q21 -210 21 -220q0 -60 -35 -101q-37 -44 -96 -44q-73 0 -116 63q-37 54 -37 132q0 108 63 181q45 53 108 70q-13 35 -33 64q-64 91 -246 91q-204 0 -274 -81q-64 -74 -64 -194q0 -147 71 -221q53 -55 121 -55q30 0 47 7q-66 26 -66 116q0 57 36 97.5t93 40.5 q67 0 102 -46q28 -36 28 -79q0 -90 -77 -139q-67 -43 -160 -43q-132 0 -209 95q-72 88 -72 223q0 165 107 260q91 80 299 80q206 0 291 -103q39 -46 59 -105h11q103 0 171.5 -69.5t68.5 -173.5q0 -93 -39 -155h268l23 56l-21 -3q-56 0 -103 38q-61 49 -61 136q0 70 42 116.5 t111 46.5q81 0 131 -45q43 -39 43 -95q0 -39 -8 -58l-27 -64l78 50v-229h-152l-76 -187h-77l76 187h-343v36q49 64 49 173q0 81 -48 132q-40 41 -82 48zM737 389q-34 -8 -69 -45q-41 -44 -51 -106q-7 -52 -2 -101q10 -33 28 -58q20 -29 51 -29q32 0 52 28q17 26 17 59 q0 12 -22 223z" />
<glyph unicode="&#xbf9;" horiz-adv-x="1124" d="M327 -199q35 -7 73 -7q137 0 219 67q90 72 90 206q0 144 -83 144q-53 0 -53 -63v-148h-86v391h-134v-391h-51v441h392v-50h-121v-149q27 24 68 24q75 0 117 -60q38 -53 38 -131q0 -148 -109 -246q-104 -93 -256 -93q-55 0 -104 10q-107 23 -182 95q-109 104 -109 280 q0 128 38 210l43 102l1 -1q29 65 76 115q105 109 281 109q128 0 210 -58l45 -32q6 8 12 15q36 43 94 43q57 0 94 -38t37 -95q0 -51 -21 -84h144v-28h-196v19q26 35 26 95q0 44 -26 71.5t-70 27.5q-33 0 -58 -25q-8 -8 -13 -18q9 -9 39.5 -13.5t50.5 -27t20 -53.5 q0 -33 -19 -55q-20 -24 -52 -24q-40 0 -64 34q-20 30 -20 73q0 18 3 34q-23 19 -52 37q-85 51 -184 51q-139 0 -233 -87q-68 -64 -97 -153l-27 -70q-31 -75 -31 -174q0 -139 88 -233q63 -68 152 -87z" />
<glyph unicode="&#xbfa;" horiz-adv-x="930" d="M686 577q2 -18 -9 -40q-3 -7 -9 -14q-19 -23 -49 -23q-38 0 -60 32q-19 28 -19 68q0 42 18 73q-29 14 -65 14q-59 0 -94.5 -37t-35.5 -96q0 -86 75 -113h26v-50h-143v-158q25 37 100 37t114 -51q36 -46 36 -123q0 -99 -80 -152q-61 -40 -160 -40h-174q-86 0 -86 -47 q0 -29 34 -29q19 0 34 -13t15 -32q0 -20 -14.5 -33.5t-34.5 -13.5q-43 0 -67 28.5t-24 72.5q0 58 48 89q38 25 103 25h164q114 0 147 87q10 27 10 59q0 115 -95 115q-70 0 -70 -69v-143h-87v391h-134v-391h-50v441h310q-52 44 -52 134q0 82 53 137t135 55q72 0 119 -42 q21 8 46 8q52 0 87.5 -35.5t35.5 -89.5q0 -47 -20 -79h135v-26h-185v18q26 33 26 89q0 41 -25 67t-66 26q-7 0 -13 -1q2 -2 4 -5q33 -43 43 -102q3 -8 3 -18z" />
<glyph unicode="&#x200c;" horiz-adv-x="0" d="M180 700l-199 -995h-40l199 995h40z" />
<glyph unicode="&#x2013;" horiz-adv-x="0" />
<glyph unicode="&#x2014;" horiz-adv-x="900" d="M847 273v-66h-806v66h806z" />
<glyph unicode="&#x2018;" horiz-adv-x="200" d="M24 520q0 58 44 105l15 13l21 16l47 23v-23l-42 -28l-13 -12l-13 -16l-9 -19l-4 -25q0 -10 2 -14l4 -8l6 -6l6 -2l7 1l7 3l12 3l9 1l19 -3q8 -3 16 -11l11 -17l4 -20l-3 -21q-7 -18 -30 -29l-31 -7q-16 0 -27 7l-32 21q-13 8 -19 31l-5 18z" />
<glyph unicode="&#x2019;" horiz-adv-x="200" d="M173 581q0 -58 -44 -105l-15 -13l-21 -16l-47 -23v23l42 28l13 12l13 16l9 19l4 25q0 10 -2 14l-4 8l-6 6l-6 2l-7 -1l-7 -3l-12 -3l-9 -1l-19 3q-8 3 -16 11l-11 17l-4 20l3 21q7 18 30 29l31 7q16 0 27 -7l32 -21q13 -8 19 -31l5 -18z" />
<glyph unicode="&#x201c;" horiz-adv-x="400" d="M214 520q0 58 44 105l15 13l21 16l47 23v-23l-42 -28l-13 -12l-13 -16l-9 -19l-4 -25q0 -10 2 -14l4 -8l6 -6l6 -2l7 1l7 3l12 3l9 1l19 -3q8 -3 16 -11l11 -17l4 -20l-3 -21q-7 -18 -30 -29l-31 -7q-16 0 -27 7l-32 21q-13 8 -19 31l-5 18zM24 520q0 58 44 105l15 13 l21 16l47 23v-23l-42 -28l-13 -12l-13 -16l-9 -19l-4 -25q0 -10 2 -14l4 -8l6 -6l6 -2l7 1l7 3l12 3l9 1l19 -3q8 -3 16 -11l11 -17l4 -20l-3 -21q-7 -18 -30 -29l-31 -7q-16 0 -27 7l-32 21q-13 8 -19 31l-5 18z" />
<glyph unicode="&#x201d;" horiz-adv-x="400" d="M173 581q0 -58 -44 -105l-15 -13l-21 -16l-47 -23v23l42 28l13 12l13 16l9 19l4 25q0 10 -2 14l-4 8l-6 6l-6 2l-7 -1l-7 -3l-12 -3l-9 -1l-19 3q-8 3 -16 11l-11 17l-4 20l3 21q7 18 30 29l31 7q16 0 27 -7l32 -21q13 -8 19 -31l5 -18zM363 581q0 -58 -44 -105l-15 -13 l-21 -16l-47 -23v23l42 28l13 12l13 16l9 19l4 25q0 10 -2 14l-4 8l-6 6l-6 2l-7 -1l-7 -3l-12 -3l-9 -1l-19 3q-8 3 -16 11l-11 17l-4 20l3 21q7 18 30 29l31 7q16 0 27 -7l32 -21q13 -8 19 -31l5 -18z" />
<glyph unicode="&#x2026;" horiz-adv-x="823" d="M728 60q0 -20 -15 -35t-36 -15t-35.5 15t-14.5 35q0 21 14.5 36t35.5 15t36 -15t15 -36zM468 60q0 -20 -15 -35t-36 -15t-35.5 15t-14.5 35q0 21 14.5 36t35.5 15t36 -15t15 -36zM208 60q0 -20 -15 -35t-36 -15t-35.5 15t-14.5 35q0 21 14.5 36t35.5 15t36 -15t15 -36z " />
<glyph unicode="&#x20a4;" horiz-adv-x="475" d="M127 331h-82v40h79q-2 24 -2 36q0 52 21 95t58 66t80 23q54 0 81 -29t27 -58q0 -14 -10.5 -24.5t-22.5 -10.5q-17 0 -27 16q-5 8 -6.5 33.5t-14.5 37.5q-14 12 -37 12q-34 0 -56 -26.5t-22 -93.5q0 -31 5 -77h114v-40h-110v-40h110v-40h-110v1q0 -41 -5.5 -75t-20.5 -79 q84 -27 96 -29q22 -5 43 -5q36 0 58.5 16.5t32.5 51.5l15 -4q-9 -69 -44 -104.5t-79 -35.5q-29 0 -52.5 10.5t-86.5 58.5q-17 -34 -37 -51.5t-43 -17.5q-21 0 -35.5 15t-14.5 41q0 28 19.5 47t50.5 19q8 0 16.5 -0.5t20.5 -2.5q0 11 0.5 19t0.5 14q0 32 -6 111h-86v40h83v30 q0 5 -1 10zM130 72q-9 6 -18 9t-17 3q-18 0 -28 -10t-10 -26q0 -14 8 -22.5t18 -8.5q14 0 26.5 12.5t20.5 42.5z" />
<glyph unicode="&#x20a8;" horiz-adv-x="1000" d="M944 448v-151h-19q-19 72 -46 96t-70 24q-33 0 -52.5 -17.5t-19.5 -36.5q0 -27 15 -45q14 -19 59 -42l69 -32q97 -48 97 -126q0 -61 -45.5 -97.5t-101.5 -36.5q-39 0 -93 16q-13 4 -23 4t-16 -13h-19v159h19q13 -69 50.5 -101t82.5 -32q31 0 51.5 18.5t20.5 45.5 q0 31 -22.5 52.5t-91.5 55.5t-90 63q-22 28 -22 69q0 54 37.5 90.5t96.5 36.5q25 0 63 -10q23 -7 31 -7t11.5 3t7.5 14h20zM646 2h-165l-216 346q-28 -1 -43 -1h-19.5t-12.5 -30v-187q0 -69 14 -86q20 -25 57 -25h22v-17h-268v17h21q43 0 62 30q9 19 9 81v478q0 68 -13 88 q-21 25 -58 25h-21v15h230q101 0 148.5 -17.5t81.5 -62.5t34 -107q0 -68 -38 -118t-120 -72l132 -212q46 -74 79 -98t84 -30v-17zM190 397q4 -21 15 -21h16q93 0 140.5 47t47.5 118q0 68 -38 113t-103 45q-27 0 -78 -11v-291z" />
<glyph unicode="&#x20ac;" horiz-adv-x="500" d="M400 313h-245q-1 -18 -1 -35h236l-10 -34h-225q3 -90 36 -150q38 -70 102 -70q58 0 96 30q23 17 58 66l14 -8q-37 -58 -67 -83q-49 -41 -118 -41q-98 0 -152 82q-44 66 -52 174h-43l10 34h31v7q0 12 1 28h-42l10 34h36q14 101 69 166q63 76 160 76q73 0 146 -37v-128h-17 q-11 137 -129 137q-67 0 -106 -71q-31 -56 -40 -143h252z" />
<glyph unicode="&#x20b9;" horiz-adv-x="458" d="M38 556l3 32h380l-3 -32h-181v-3q63 -16 76 -79h97l-4 -33h-91v-11q-8 -69 -60 -110q-49 -41 -127 -46v-3q31 -18 55 -61l47 -86q51 -94 135 -105l-2 -19h-78q-83 0 -120 66l-74 134q-35 63 -81 74l2 20q93 -1 148 32q59 35 66 103v12h-200l4 33h195q-14 82 -119 82h-68z " />
<glyph unicode="&#x2122;" horiz-adv-x="573" d="M226 594l3 -82h-17q-3 23 -6 30q-5 12 -12 16.5t-20 4.5h-27v-220q0 -25 3 -30q5 -6 16 -6h14v-21h-111v21h14q12 0 16 7q3 6 3 29v220h-22q-15 0 -22 -3q-6 -3 -12 -13t-7 -35h-18l3 82h202zM377 286l-80 221v-164q0 -25 3 -30q5 -6 15 -6h14v-21h-92v21h13q12 0 17 8 q3 5 3 28v194q0 18 -3 25q-2 6 -6.5 9t-23.5 3v20h76l80 -220l80 220h76v-20h-14q-12 0 -16 -8q-4 -6 -4 -29v-194q0 -25 3 -30q5 -6 17 -6h14v-21h-111v21h14q11 0 16 7q2 6 2 29v164l-79 -221h-14z" />
<glyph unicode="&#x25cc;" horiz-adv-x="0" />
<glyph unicode="&#x25fc;" d="M0 435h435v-435h-435v435z" />
<glyph unicode="&#xe201;" horiz-adv-x="1081" d="M891 -116h-86v194h-97q-42 -101 -155 -152q-94 -43 -217 -43q-141 0 -239 74q-87 65 -87 137q0 35 58 35h567l5 31l2 38q2 35 -11 75q-12 35 -37 64q-51 61 -137 59l-41 -1q35 0 61 -29.5t26 -64.5q0 -51 -33.5 -80.5t-85.5 -29.5q-51 0 -82 31t-31 82q0 65 61 106 q54 37 122 37q120 0 196 -64q81 -68 81 -186q0 -34 -7 -68h81v312h86v-557zM431 296q0 24 -15.5 40.5t-39.5 16.5q-32 0 -50 -34l-4 -23q0 -23 15.5 -40t38.5 -17q20 0 37.5 18.5t17.5 38.5zM619 78h-516q-22 0 -22 -16q-1 -60 96 -99q74 -30 147 -30q228 0 295 145z" />
<glyph unicode="&#xe202;" horiz-adv-x="1081" d="M1091 -66q0 -102 -84 -154q-71 -44 -179 -44q-74 0 -140 32q-82 40 -82 106q0 22 19 36t40 14h86v-50h-70l-8 -7q0 -40 58 -64q42 -17 92 -17q190 0 190 147q0 27 -18.5 44.5t-45.5 17.5q-26 0 -42 -19t-16 -45v-47h-86v194h-97q-42 -101 -155 -152q-94 -43 -217 -43 q-141 0 -239 74q-87 65 -87 137q0 35 58 35h567l5 31l2 38q2 35 -11 75q-12 35 -37 64q-51 61 -137 59l-41 -1q35 0 61 -29.5t26 -64.5q0 -51 -33.5 -80.5t-85.5 -29.5q-51 0 -82 31t-31 82q0 65 61 106q54 37 122 37q120 0 196 -64q81 -68 81 -186q0 -34 -7 -68h81v312h86 v-419q18 24 62 24q57 0 95 -27q43 -31 43 -85zM431 296q0 24 -15.5 40.5t-39.5 16.5q-32 0 -50 -34l-4 -23q0 -23 15.5 -40t38.5 -17q20 0 37.5 18.5t17.5 38.5zM619 78h-516q-22 0 -22 -16q-1 -60 96 -99q74 -30 147 -30q228 0 295 145z" />
<glyph unicode="&#xe203;" horiz-adv-x="946" d="M764 -124h-50v300q0 396 -325 396q-143 0 -230 -96q-83 -92 -83 -236q0 -81 27 -144q111 57 256 57h35q12 0 27 -2l46 -6l5 32l2 36q1 14 -1 38q-2 11 -6 35q-28 111 -125 111q-14 0 -32 -6q40 0 65 -27.5t25 -67.5q0 -48 -30.5 -74t-79.5 -26t-76.5 28t-27.5 76 q0 60 51 104q45 39 112 39q99 0 157 -66q55 -64 55 -164q0 -57 -11 -87q117 -42 117 -127t-80 -124q-63 -31 -155 -31q-88 0 -161 29q-80 -20 -155 -20q-143 0 -143 88q0 73 89 132q-33 78 -33 172q0 171 96 284q102 120 270 120q179 0 278 -127q91 -116 91 -299v-347z M311 300q0 51 -41 51q-18 0 -28.5 -17.5t-10.5 -36.5q0 -51 39 -51q41 0 41 54zM585 -2q0 46 -52 80q-54 -116 -197 -182q47 -12 96 -12q62 0 103 25q50 30 50 89zM456 103l-43 5l-54 2q-62 2 -123 -11q-57 -13 -115 -41q51 -93 151 -139q138 51 184 184zM213 -98 q-84 48 -132 132q-63 -42 -63 -89q0 -52 100 -52q44 0 95 9z" />
<glyph unicode="&#xe204;" horiz-adv-x="618" d="M428 219q0 -19 -12.5 -34t-31.5 -15q-17 0 -31 16t-14 33q0 20 12.5 34t32.5 14q17 0 30.5 -15.5t13.5 -32.5zM422 391h-126v-391h-86v391h-154v-391h-50v441h416v-50zM184 219q0 -19 -12.5 -34t-31.5 -15q-17 0 -31 16t-14 33q0 20 12.5 34t32.5 14q17 0 30.5 -15.5 t13.5 -32.5z" />
<glyph unicode="&#xe205;" horiz-adv-x="782" d="M979 0h-879q-90 0 -90 72q0 71 73 71h134q165 0 165 129q0 134 -158 134q-28 0 -42 -7q38 -6 63.5 -33.5t25.5 -65.5q0 -50 -32 -77.5t-83 -27.5q-114 0 -114 111q0 70 61 112q54 37 127 37q240 0 240 -175q0 -82 -55 -132t-137 -50h-151q-30 0 -30 -24q0 -23 27 -23h855 v-51zM192 300q0 22 -13.5 38t-34.5 16q-20 0 -34.5 -17t-14.5 -37q0 -19 15 -36.5t34 -17.5q20 0 34 17t14 37z" />
<glyph unicode="&#xe206;" horiz-adv-x="1357" d="M1100 391h-62v-307h-75v307h-80v-307h-75v160q0 151 -123 151q-46 0 -77 -37q-27 -33 -33 -81q31 29 64 29q60 0 90 -57q9 -17 9 -46q0 -49 -24 -84q-27 -40 -74 -40q-56 0 -84 60q-21 45 -21 109q0 78 44 136q48 64 123 64q99 0 133 -67v60h265v-50zM1089 0h-981 q-90 0 -90 72q0 71 73 71h134q165 0 165 129q0 134 -158 134q-28 0 -42 -7q38 -6 63.5 -33.5t25.5 -65.5q0 -50 -32 -77.5t-83 -27.5q-114 0 -114 111q0 70 61 112q54 37 127 37q240 0 240 -175q0 -82 -55 -132t-137 -50h-151q-30 0 -30 -24q0 -23 27 -23h957v-51zM674 192 q0 23 -10 42q-12 23 -33 23q-17 0 -30 -19l-7 -14q-6 -12 -6 -32q0 -23 10 -41q12 -23 33 -23q19 0 32 23q11 20 11 41zM200 300q0 22 -13.5 38t-34.5 16q-20 0 -34.5 -17t-14.5 -37q0 -19 15 -36.5t34 -17.5q20 0 34 17t14 37z" />
<glyph unicode="&#xe207;" horiz-adv-x="780" d="M558 391h-89v-391h-86v391h-152q-67 0 -112 -43t-54 -110q5 9 26 22q30 18 70 18q53 0 91.5 -40t38.5 -93q0 -65 -33 -106q-36 -44 -100 -44q-77 0 -117 67q-33 55 -33 138q0 103 63.5 172t166.5 69h320v-50zM210 137q0 33 -18 58q-20 29 -51 29q-30 0 -49.5 -27.5 t-19.5 -59.5q0 -33 18 -58q20 -29 51 -29q32 0 52 28q17 26 17 59z" />
<glyph unicode="&#xe208;" horiz-adv-x="780" d="M558 391h-89v-425l-260 -173v37l174 170v391h-152q-67 0 -112 -43t-54 -110q5 9 26 22q30 18 70 18q53 0 91.5 -40t38.5 -93q0 -65 -33 -106q-36 -44 -100 -44q-77 0 -117 67q-33 55 -33 138q0 103 63.5 172t166.5 69h320v-50zM210 137q0 33 -18 58q-20 29 -51 29 q-30 0 -49.5 -27.5t-19.5 -59.5q0 -33 18 -58q20 -29 51 -29q32 0 52 28q17 26 17 59z" />
<glyph unicode="&#xe209;" horiz-adv-x="825" d="M654 267q0 -104 -61.5 -158t-166.5 -54l-264 -1q-125 0 -125 -112q0 -48 30.5 -74t79.5 -26q60 0 96 39q27 30 27 60v85h94v-82q0 -100 104 -100q95 0 95 78q0 66 -57 66v41h13q55 0 88 -24q38 -28 38 -81q0 -61 -49 -98q-44 -33 -107 -33q-137 0 -176 101 q-30 -101 -179 -101q-79 0 -128 37q-55 41 -55 118q0 80 53 120q47 36 129 36h292q80 0 114 44q29 38 29 120q0 124 -102 124q-51 0 -77 -47q-22 -38 -22 -93v-96h-92v111q0 63 -57 104q-46 22 -87 22q-48 0 -76 -14q-8 -4 -31 -27q33 9 41 9q51 0 80.5 -31t29.5 -82 q0 -53 -32 -85.5t-84 -32.5t-83 45q-27 39 -27 94q0 79 51.5 127t130.5 48q167 0 210 -92q38 92 152 92q80 0 122 -51q39 -47 39 -126zM98 247q0 24 -12.5 44t-35.5 20q-22 0 -35 -20.5t-13 -43.5q0 -25 11 -43q14 -21 37 -21q22 0 36 22q12 19 12 42z" />
<glyph unicode="&#xe20a;" horiz-adv-x="758" d="M632 194q0 -77 -28 -129q-35 -65 -106 -65q-45 0 -75 35q-33 39 -31 86l1 20q-12 -33 -12 -66q0 -56 29.5 -88.5t84.5 -32.5h37v-51h-16q-38 0 -47 -42q0 -59 -56 -94q-48 -31 -110 -31q-65 0 -108 30q-49 34 -49 96q0 48 30 72l38 -32q-15 -18 -15 -50t30 -51 q25 -16 60 -16q52 0 76 23q12 11 26 56q11 36 40 51q-47 12 -76 62q-25 45 -25 97q0 120 98 178l26 -35q-24 -32 -24 -93q0 -63 54 -63q66 0 66 127q0 95 -73 152q-67 53 -164 53h-23q-114 0 -179 -72q-47 -52 -47 -130q0 -45 12 -65v4l-1 4q0 49 24 79q26 34 73 34 q48 0 75 -36q23 -32 23 -82q0 -56 -30 -91t-85 -35q-66 0 -106 60q-35 52 -35 122q0 122 85 197q79 70 206 70h33q117 0 202 -70q92 -74 92 -188zM208 129q0 24 -10 42q-12 22 -34 22q-12 0 -32 -18l-7 -14q-6 -12 -6 -32q0 -23 11 -42q12 -22 34 -22q20 0 33 23 q11 19 11 41z" />
<glyph unicode="&#xe20b;" horiz-adv-x="758" d="M632 194q0 -77 -28 -129q-35 -65 -106 -65q-45 0 -75 35q-33 39 -31 86l1 20q-12 -33 -12 -66q0 -56 29.5 -88.5t84.5 -32.5h37v-51h-16q-38 0 -47 -42q0 -60 -59 -95q-49 -30 -113 -30q-63 0 -106 26q-52 31 -52 90q0 48 32.5 76.5t81.5 28.5q60 0 94 -39q25 -29 25 -66 h-48q-18 52 -70 52q-62 0 -62 -57q0 -28 27 -47q22 -15 55 -15q66 0 92 22q10 8 23 50q6 38 42 58q-47 12 -76 62q-25 45 -25 97q0 120 98 178l26 -35q-24 -32 -24 -93q0 -63 54 -63q66 0 66 127q0 95 -73 152q-67 53 -164 53h-23q-114 0 -179 -72q-47 -52 -47 -130 q0 -45 12 -65v4l-1 4q0 49 24 79q26 34 73 34q48 0 75 -36q23 -32 23 -82q0 -56 -30 -91t-85 -35q-66 0 -106 60q-35 52 -35 122q0 122 85 197q79 70 206 70h33q117 0 202 -70q92 -74 92 -188zM208 129q0 24 -10 42q-12 22 -34 22q-12 0 -32 -18l-7 -14q-6 -12 -6 -32 q0 -23 11 -42q12 -22 34 -22q20 0 33 23q11 19 11 41z" />
<glyph unicode="&#xe20c;" horiz-adv-x="1689" d="M632 194q0 -77 -28 -129q-35 -65 -106 -65q-45 0 -75 35q-33 39 -31 86l1 20q-12 -33 -12 -66q0 -56 29.5 -88.5t84.5 -32.5h37v-51h-16q-38 0 -47 -42q0 -59 -56 -94q-48 -31 -110 -31q-65 0 -108 30q-49 34 -49 96q0 48 30 72l38 -32q-15 -18 -15 -50t30 -51 q25 -16 60 -16q52 0 76 23q12 11 26 56q11 36 40 51q-47 12 -76 62q-25 45 -25 97q0 120 98 178l26 -35q-24 -32 -24 -93q0 -63 54 -63q66 0 66 127q0 95 -73 152q-67 53 -164 53h-23q-114 0 -179 -72q-47 -52 -47 -130q0 -45 12 -65v4l-1 4q0 49 24 79q26 34 73 34 q48 0 75 -36q23 -32 23 -82q0 -56 -30 -91t-85 -35q-66 0 -106 60q-35 52 -35 122q0 122 85 197q79 70 206 70h33q117 0 202 -70q92 -74 92 -188zM208 129q0 24 -10 42q-12 22 -34 22q-12 0 -32 -18l-7 -14q-6 -12 -6 -32q0 -23 11 -42q12 -22 34 -22q20 0 33 23 q11 19 11 41zM1419 391h-94v-391h-85v391h-129v-391h-85v198q0 193 -165 193q-61 0 -106 -48q-40 -42 -49 -108l26 23q32 20 70 20q56 0 94 -40t38 -96q0 -62 -34 -103q-36 -44 -97 -44q-62 0 -103 45q-49 54 -49 162q0 91 60 165q66 82 170 82q121 0 182 -79v71h356v-50z M852 137q0 33 -18 58q-20 29 -51 29q-30 0 -49.5 -27.5t-19.5 -59.5q0 -33 18 -58q20 -29 51 -29q32 0 52 28q17 26 17 59z" />
<glyph unicode="&#xe20d;" horiz-adv-x="770" d="M392 407q0 -39 -27.5 -67t-66.5 -28q-40 0 -67 27.5t-27 67.5q0 39 27.5 66.5t66.5 27.5t66.5 -27.5t27.5 -66.5zM602 107q0 -39 -27.5 -67t-66.5 -28q-40 0 -67 27.5t-27 67.5q0 39 27.5 66.5t66.5 27.5t66.5 -27.5t27.5 -66.5zM202 107q0 -39 -27.5 -67t-66.5 -28 q-40 0 -67 27.5t-27 67.5q0 39 27.5 66.5t66.5 27.5t66.5 -27.5t27.5 -66.5zM358 407q0 25 -17.5 42.5t-42.5 17.5q-24 0 -42 -18t-18 -42q0 -25 17.5 -43t42.5 -18t42.5 18t17.5 43zM568 107q0 25 -17.5 42.5t-42.5 17.5q-24 0 -42 -18t-18 -42q0 -25 17.5 -43t42.5 -18 t42.5 18t17.5 43zM168 107q0 25 -17.5 42.5t-42.5 17.5q-24 0 -42 -18t-18 -42q0 -25 17.5 -43t42.5 -18t42.5 18t17.5 43z" />
<glyph unicode="&#xe210;" horiz-adv-x="652" d="M375 597q0 -24 -18 -42.5t-42 -18.5q-19 0 -43 18q-17 19 -17 43q0 25 17.5 42.5t42.5 17.5t42.5 -17.5t17.5 -42.5zM586 140q0 -69 -52 -107q-45 -33 -117 -33q-69 0 -110 37q-52 -37 -136 -37q-63 0 -108 36q-49 39 -49 101q0 99 91 124v180h414v-50h-155v-125h84 q62 0 100 -32.5t38 -93.5zM500 146q0 32 -19.5 50.5t-51.5 18.5h-65v-63q0 -43 -23 -78q22 -22 67 -22q39 0 65.5 27.5t26.5 66.5zM278 266v125h-123v-125h123zM278 167v48h-131q-82 0 -82 -80q0 -36 29 -59t66 -23q52 0 85 31t33 83z" />
<glyph unicode="&#xe211;" horiz-adv-x="640" d="M586 140q0 -69 -52 -107q-45 -33 -117 -33q-69 0 -110 37q-52 -37 -136 -37q-63 0 -108 36q-49 39 -49 101q0 99 91 124v180h414v-50h-155v-125h84q62 0 100 -32.5t38 -93.5zM500 146q0 32 -19.5 50.5t-51.5 18.5h-65v-63q0 -43 -23 -78q22 -22 67 -22q39 0 65.5 27.5 t26.5 66.5zM278 266v125h-123v-125h123zM278 167v48h-131q-82 0 -82 -80q0 -36 29 -59t66 -23q52 0 85 31t33 83z" />
<glyph unicode="&#xe212;" horiz-adv-x="1236" d="M578 140q0 -69 -52 -107q-45 -33 -117 -33q-69 0 -110 37q-52 -37 -136 -37q-63 0 -108 36q-49 39 -49 101q0 99 91 124v180h414v-50h-155v-125h84q62 0 100 -32.5t38 -93.5zM492 146q0 32 -19.5 50.5t-51.5 18.5h-65v-63q0 -43 -23 -78q22 -22 67 -22q39 0 65.5 27.5 t26.5 66.5zM270 266v125h-123v-125h123zM270 167v48h-131q-82 0 -82 -80q0 -36 29 -59t66 -23q52 0 85 31t33 83zM1069 391h-125v-391h-87v391h-134v-391h-50v441h396v-50z" />
<glyph unicode="&#xe213;" horiz-adv-x="782" d="M709 0h-50v529q0 69 -39 113.5t-107 44.5q-59 0 -94.5 -37t-35.5 -96q0 -86 76 -113h60v-50h-155v-125h84q62 0 100 -32.5t38 -93.5q0 -69 -52 -107q-45 -33 -117 -33q-69 0 -110 37q-52 -37 -136 -37q-63 0 -108 36q-49 39 -49 101q0 99 91 124v180h275q-52 44 -52 134 q0 82 53 137t135 55q92 0 145 -70q48 -63 48 -158v-539zM500 146q0 32 -19.5 50.5t-51.5 18.5h-65v-63q0 -43 -23 -78q22 -22 67 -22q39 0 65.5 27.5t26.5 66.5zM278 266v125h-123v-125h123zM278 167v48h-131q-82 0 -82 -80q0 -36 29 -59t66 -23q52 0 85 31t33 83z" />
<glyph unicode="&#xe214;" horiz-adv-x="652" d="M605 658q0 -43 -29 -68.5t-73 -25.5q-43 0 -71 19q-32 22 -32 63q0 20 9 35q-38 -6 -58 -43q-17 -31 -17 -73q0 -90 103 -124h82v-50h-155v-125h84q62 0 100 -32.5t38 -93.5q0 -69 -52 -107q-45 -33 -117 -33q-69 0 -110 37q-52 -37 -136 -37q-63 0 -108 36 q-49 39 -49 101q0 99 91 124v180h242q-66 47 -66 133q0 92 58 146q51 47 127 47q56 0 94 -26q45 -30 45 -83zM543 646q0 10 -15 28q-15 12 -34 12q-14 0 -35 -12q-8 -7 -14 -28q0 -39 49 -39q40 0 49 39zM500 146q0 32 -19.5 50.5t-51.5 18.5h-65v-63q0 -43 -23 -78 q22 -22 67 -22q39 0 65.5 27.5t26.5 66.5zM278 266v125h-123v-125h123zM278 167v48h-131q-82 0 -82 -80q0 -36 29 -59t66 -23q52 0 85 31t33 83z" />
<glyph unicode="&#xe215;" horiz-adv-x="847" d="M778 75q0 -148 -109 -246q-104 -93 -256 -93q-177 0 -286 104.5t-109 280.5q0 128 58 210l39 55q14 20 47 47l33 -39q-41 -32 -75 -88q-51 -84 -51 -185q0 -139 87.5 -233t225.5 -94t220 66q89 73 89 207q0 58 -20 97q-26 51 -78 51h-50v-63q0 -76 -61 -117 q-52 -35 -132 -35q-63 0 -108 36q-49 39 -49 101q0 99 91 124v180h390v-50h-131v-125h68q80 0 125 -57q42 -52 42 -134zM457 266v125h-122v-125h122zM457 167v48h-131q-81 0 -81 -80q0 -38 27.5 -60t66.5 -22q52 0 85 31t33 83z" />
<glyph unicode="&#xe216;" horiz-adv-x="969" d="M879 0h-194v7q44 46 44 129q0 47 -21 78q-24 36 -68 36q-88 0 -88 -122v-128h-69v125q0 40 -24 65t-64 25h-27v-63q0 -76 -61 -117q-52 -35 -132 -35q-63 0 -108 36q-49 39 -49 101q0 99 91 124v180h389v-50h-130v-125h43q26 0 58 -14t45 -35q12 27 39 53q36 34 86 34 q70 0 118 -36q53 -40 53 -107q0 -70 -26 -110h95v-51zM282 266v125h-123v-125h123zM282 167v48h-131q-82 0 -82 -80q0 -36 29 -59t66 -23q52 0 85 31t33 83z" />
<glyph unicode="&#xe217;" horiz-adv-x="1350" d="M637 3h-51v298q0 127 -56 207q-64 91 -186 91q-114 0 -184 -81q-64 -74 -64 -194q0 -147 71 -221q53 -55 121 -55q30 0 47 7q-66 26 -66 116q0 57 36 97.5t93 40.5q67 0 102 -46q28 -36 28 -79q0 -90 -77 -139q-67 -43 -160 -43q-132 0 -209 95q-72 88 -72 223 q0 165 107 260q91 80 209 80q146 0 231 -103q80 -96 80 -245v-309zM451 170q0 31 -17 57q-19 31 -48 31q-30 0 -49 -30q-17 -26 -17 -58q0 -34 16 -59q18 -30 50 -30q30 0 49 31q16 26 16 58zM1316 132q0 -69 -52 -107q-45 -33 -117 -33q-69 0 -110 37q-52 -37 -136 -37 q-63 0 -108 36q-49 39 -49 101q0 99 91 124v180h414v-50h-155v-125h84q62 0 100 -32.5t38 -93.5zM1230 138q0 32 -19.5 50.5t-51.5 18.5h-65v-63q0 -43 -23 -78q22 -22 67 -22q39 0 65.5 27.5t26.5 66.5zM1008 258v125h-123v-125h123zM1008 159v48h-131q-82 0 -82 -80 q0 -36 29 -59t66 -23q52 0 85 31t33 83z" />
<glyph unicode="&#xe218;" horiz-adv-x="1322" d="M548 181q0 -90 -71 -139q-63 -43 -155 -43q-156 0 -235 88q-77 84 -77 242t76 242q80 88 236 88q94 0 156 -43q70 -50 70 -140q0 -41 -29 -78q-37 -47 -102 -47q-57 0 -93 40.5t-36 98.5q0 93 70 114l-27 4q-118 0 -180 -83q-55 -74 -55 -196t55 -196q62 -83 180 -83 q19 0 27 4q-70 20 -70 114q0 57 36 97.5t93 40.5q54 0 92.5 -35.5t38.5 -89.5zM471 491q0 32 -17 58q-19 31 -49 31t-49 -31q-16 -26 -16 -58q0 -33 16 -59q18 -30 49 -30q27 0 50 30q16 28 16 59zM471 167q0 32 -17 58q-19 30 -49 30q-29 0 -47 -28.5t-18 -59.5 q0 -33 16 -59q18 -30 49 -30q27 0 50 30q16 28 16 59zM1226 140q0 -69 -52 -107q-45 -33 -117 -33q-69 0 -110 37q-52 -37 -136 -37q-63 0 -108 36q-49 39 -49 101q0 99 91 124v180h414v-50h-155v-125h84q62 0 100 -32.5t38 -93.5zM1140 146q0 32 -19.5 50.5t-51.5 18.5h-65 v-63q0 -43 -23 -78q22 -22 67 -22q39 0 65.5 27.5t26.5 66.5zM918 266v125h-123v-125h123zM918 167v48h-131q-82 0 -82 -80q0 -36 29 -59t66 -23q52 0 85 31t33 83z" />
<glyph unicode="&#xe219;" horiz-adv-x="1528" d="M822 221q0 -85 -40 -144q-43 -63 -123 -82l-29 56q107 24 107 174q0 70 -43.5 117.5t-113.5 47.5q-43 0 -78 -23q79 -74 79 -182q0 -70 -25 -120q-32 -64 -95 -64q-98 0 -117 150q-2 16 -2 34q0 93 66 173q-62 39 -139 39q-76 0 -130 -43t-75 -117q36 41 97 41 q57 0 94 -41t37 -98q0 -60 -36 -102t-95 -42q-78 0 -119 63q-34 52 -34 137q0 116 86 188q81 68 200 68q90 0 164 -50q65 45 136 45q99 0 163.5 -63t64.5 -162zM498 185q0 76 -51 139q-53 -53 -53 -139q0 -120 53 -120q14 0 34 27q17 34 17 93zM210 137q0 33 -18 58 q-20 29 -51 29q-30 0 -49.5 -27.5t-19.5 -59.5q0 -33 18 -58q20 -29 51 -29q32 0 52 28q17 26 17 59zM1482 140q0 -69 -52 -107q-45 -33 -117 -33q-69 0 -110 37q-52 -37 -136 -37q-63 0 -108 36q-49 39 -49 101q0 99 91 124v180h414v-50h-155v-125h84q62 0 100 -32.5 t38 -93.5zM1396 146q0 32 -19.5 50.5t-51.5 18.5h-65v-63q0 -43 -23 -78q22 -22 67 -22q39 0 65.5 27.5t26.5 66.5zM1174 266v125h-123v-125h123zM1174 167v48h-131q-82 0 -82 -80q0 -36 29 -59t66 -23q52 0 85 31t33 83z" />
<glyph unicode="&#xe21a;" horiz-adv-x="1931" d="M637 3h-51v298q0 127 -56 207q-64 91 -186 91q-114 0 -184 -81q-64 -74 -64 -194q0 -147 71 -221q53 -55 121 -55q30 0 47 7q-66 26 -66 116q0 57 36 97.5t93 40.5q67 0 102 -46q28 -36 28 -79q0 -90 -77 -139q-67 -43 -160 -43q-132 0 -209 95q-72 88 -72 223 q0 165 107 260q91 80 209 80q146 0 231 -103q80 -96 80 -245v-309zM451 170q0 31 -17 57q-19 31 -48 31q-30 0 -49 -30q-17 -26 -17 -58q0 -34 16 -59q18 -30 50 -30q30 0 49 31q16 26 16 58zM1286 132q0 -69 -52 -107q-45 -33 -117 -33q-69 0 -110 37q-52 -37 -136 -37 q-63 0 -108 36q-49 39 -49 101q0 99 91 124v180h414v-50h-155v-125h84q62 0 100 -32.5t38 -93.5zM1200 138q0 32 -19.5 50.5t-51.5 18.5h-65v-63q0 -43 -23 -78q22 -22 67 -22q39 0 65.5 27.5t26.5 66.5zM978 258v125h-123v-125h123zM978 159v48h-131q-82 0 -82 -80 q0 -36 29 -59t66 -23q52 0 85 31t33 83zM1757 391h-125v-391h-87v391h-134v-391h-50v441h396v-50z" />
<glyph unicode="&#xe21b;" horiz-adv-x="1873" d="M548 181q0 -90 -71 -139q-63 -43 -155 -43q-156 0 -235 88q-77 84 -77 242t76 242q80 88 236 88q94 0 156 -43q70 -50 70 -140q0 -41 -29 -78q-37 -47 -102 -47q-57 0 -93 40.5t-36 98.5q0 93 70 114l-27 4q-118 0 -180 -83q-55 -74 -55 -196t55 -196q62 -83 180 -83 q19 0 27 4q-70 20 -70 114q0 57 36 97.5t93 40.5q54 0 92.5 -35.5t38.5 -89.5zM471 491q0 32 -17 58q-19 31 -49 31t-49 -31q-16 -26 -16 -58q0 -33 16 -59q18 -30 49 -30q27 0 50 30q16 28 16 59zM471 167q0 32 -17 58q-19 30 -49 30q-29 0 -47 -28.5t-18 -59.5 q0 -33 16 -59q18 -30 49 -30q27 0 50 30q16 28 16 59zM1216 140q0 -69 -52 -107q-45 -33 -117 -33q-69 0 -110 37q-52 -37 -136 -37q-63 0 -108 36q-49 39 -49 101q0 99 91 124v180h414v-50h-155v-125h84q62 0 100 -32.5t38 -93.5zM1130 146q0 32 -19.5 50.5t-51.5 18.5h-65 v-63q0 -43 -23 -78q22 -22 67 -22q39 0 65.5 27.5t26.5 66.5zM908 266v125h-123v-125h123zM908 167v48h-131q-82 0 -82 -80q0 -36 29 -59t66 -23q52 0 85 31t33 83zM1717 391h-125v-391h-87v391h-134v-391h-50v441h396v-50z" />
<glyph unicode="&#xe21c;" horiz-adv-x="2325" d="M637 3h-51v298q0 127 -56 207q-64 91 -186 91q-114 0 -184 -81q-64 -74 -64 -194q0 -147 71 -221q53 -55 121 -55q30 0 47 7q-66 26 -66 116q0 57 36 97.5t93 40.5q67 0 102 -46q28 -36 28 -79q0 -90 -77 -139q-67 -43 -160 -43q-132 0 -209 95q-72 88 -72 223 q0 165 107 260q91 80 209 80q146 0 231 -103q80 -96 80 -245v-309zM451 170q0 31 -17 57q-19 31 -48 31q-30 0 -49 -30q-17 -26 -17 -58q0 -34 16 -59q18 -30 50 -30q30 0 49 31q16 26 16 58zM1376 132q0 -69 -52 -107q-45 -33 -117 -33q-69 0 -110 37q-52 -37 -136 -37 q-63 0 -108 36q-49 39 -49 101q0 99 91 124v180h414v-50h-155v-125h84q62 0 100 -32.5t38 -93.5zM1290 138q0 32 -19.5 50.5t-51.5 18.5h-65v-63q0 -43 -23 -78q22 -22 67 -22q39 0 65.5 27.5t26.5 66.5zM1068 258v125h-123v-125h123zM1068 159v48h-131q-82 0 -82 -80 q0 -36 29 -59t66 -23q52 0 85 31t33 83zM2211 391h-94v-391h-85v391h-129v-391h-85v198q0 193 -165 193q-61 0 -106 -48q-40 -42 -49 -108l26 23q32 20 70 20q56 0 94 -40t38 -96q0 -62 -34 -103q-36 -44 -97 -44q-62 0 -103 45q-49 54 -49 162q0 91 60 165q66 82 170 82 q121 0 182 -79v71h356v-50zM1644 137q0 33 -18 58q-20 29 -51 29q-30 0 -49.5 -27.5t-19.5 -59.5q0 -33 18 -58q20 -29 51 -29q32 0 52 28q17 26 17 59z" />
<glyph unicode="&#xe220;" horiz-adv-x="790" d="M364 597q0 -24 -18 -42.5t-42 -18.5q-19 0 -43 18q-17 19 -17 43q0 25 17.5 42.5t42.5 17.5t42.5 -17.5t17.5 -42.5zM683 0h-489v51h141q93 0 93 109q0 82 -87 82q-55 0 -73 -63v-71h-74v283h-134v-391h-50v441h414v-50h-156v-128q40 31 92 31q64 0 105 -36t41 -99 q0 -32 -14 -62q-16 -34 -42 -46h147v390h86v-441z" />
<glyph unicode="&#xe221;" horiz-adv-x="790" d="M683 0h-489v51h141q93 0 93 109q0 82 -87 82q-55 0 -73 -63v-71h-74v283h-134v-391h-50v441h414v-50h-156v-128q40 31 92 31q64 0 105 -36t41 -99q0 -32 -14 -62q-16 -34 -42 -46h147v390h86v-441z" />
<glyph unicode="&#xe222;" horiz-adv-x="1301" d="M677 0h-489v51h141q93 0 93 109q0 82 -87 82q-55 0 -73 -63v-71h-74v283h-134v-391h-50v441h414v-50h-156v-128q40 31 92 31q64 0 105 -36t41 -99q0 -32 -14 -62q-16 -34 -42 -46h147v390h86v-441zM1116 391h-125v-391h-87v391h-134v-391h-50v441h396v-50z" />
<glyph unicode="&#xe223;" horiz-adv-x="936" d="M826 0h-50v445q0 107 -26 163q-37 79 -132 79q-61 0 -100 -50q-37 -46 -37 -108q0 -99 68 -136q22 -12 48 -12v60h86v-441h-489v51h141q93 0 93 109q0 82 -87 82q-55 0 -73 -63v-71h-74v283h-134v-391h-50v441h414v-50h-156v-128q40 31 92 31q64 0 105 -36t41 -99 q0 -32 -14 -62q-16 -34 -42 -46h147v287q-77 0 -124 64q-43 58 -43 137q0 91 49 156q53 72 141 72q206 0 206 -314v-453z" />
<glyph unicode="&#xe224;" horiz-adv-x="790" d="M775 658q0 -43 -29 -68.5t-73 -25.5q-43 0 -71 19q-32 22 -32 63q0 24 9 35q-43 -8 -72 -59q-26 -45 -26 -93q0 -99 68 -136q22 -12 48 -12v60h86v-441h-489v51h141q93 0 93 109q0 82 -87 82q-55 0 -73 -63v-71h-74v283h-134v-391h-50v441h414v-50h-156v-128q40 31 92 31 q64 0 105 -36t41 -99q0 -32 -14 -62q-16 -34 -42 -46h147v284q-78 0 -125 69q-42 61 -42 142q0 93 57.5 157t148.5 64q56 0 94 -26q45 -30 45 -83zM712 646q0 21 -31 36l-17 4q-38 0 -49 -40q0 -17 16 -28t33 -11q42 0 48 39z" />
<glyph unicode="&#xe225;" horiz-adv-x="790" d="M683 -196h-76v196h-413v51h141q93 0 93 109q0 82 -87 82q-55 0 -73 -63v-71h-74v283h-134v-391h-50v441h414v-50h-156v-128q40 31 92 31q64 0 105 -36t41 -99q0 -32 -14 -62q-16 -34 -42 -46h147v390h86v-637z" />
<glyph unicode="&#xe226;" horiz-adv-x="835" d="M825 -88q0 -103 -102 -151q-75 -35 -192 -35q-127 0 -213 54q-71 44 -71 101q0 62 100 62q57 0 104 -30l-17 -42q-33 24 -78 24q-49 0 -49 -23q0 -51 89 -79q66 -21 129 -21q223 0 223 133q0 49 -42 49q-30 0 -30 -33v-57h-86v136h-396v51h141q93 0 93 109q0 82 -87 82 q-55 0 -73 -63v-71h-74v283h-134v-391h-50v441h414v-50h-156v-128q40 31 92 31q64 0 105 -36t41 -99q0 -32 -14 -62q-16 -34 -42 -46h147v390h86v-443l18 6l31 4q41 0 67 -27.5t26 -68.5z" />
<glyph unicode="&#xe227;" horiz-adv-x="1536" d="M637 0h-51v298q0 127 -56 207q-64 91 -186 91q-114 0 -184 -81q-64 -74 -64 -194q0 -147 71 -221q53 -55 121 -55q30 0 47 7q-66 26 -66 116q0 57 36 97.5t93 40.5q67 0 102 -46q28 -36 28 -79q0 -90 -77 -139q-67 -43 -160 -43q-132 0 -209 95q-72 88 -72 223 q0 165 107 260q91 80 209 80q146 0 231 -103q80 -96 80 -245v-309zM451 167q0 31 -17 57q-19 31 -48 31q-30 0 -49 -30q-17 -26 -17 -58q0 -34 16 -59q18 -30 50 -30q30 0 49 31q16 26 16 58zM1478 0h-489v51h141q93 0 93 109q0 82 -87 82q-55 0 -73 -63v-71h-74v283h-134 v-391h-50v441h414v-50h-156v-128q40 31 92 31q64 0 105 -36t41 -99q0 -32 -14 -62q-16 -34 -42 -46h147v390h86v-441z" />
<glyph unicode="&#xe228;" horiz-adv-x="1366" d="M548 181q0 -90 -71 -139q-63 -43 -155 -43q-156 0 -235 88q-77 84 -77 242t76 242q80 88 236 88q94 0 156 -43q70 -50 70 -140q0 -41 -29 -78q-37 -47 -102 -47q-57 0 -93 40.5t-36 98.5q0 93 70 114l-27 4q-118 0 -180 -83q-55 -74 -55 -196t55 -196q62 -83 180 -83 q19 0 27 4q-70 20 -70 114q0 57 36 97.5t93 40.5q54 0 92.5 -35.5t38.5 -89.5zM471 491q0 32 -17 58q-19 31 -49 31t-49 -31q-16 -26 -16 -58q0 -33 16 -59q18 -30 49 -30q27 0 50 30q16 28 16 59zM471 167q0 32 -17 58q-19 30 -49 30q-29 0 -47 -28.5t-18 -59.5 q0 -33 16 -59q18 -30 49 -30q27 0 50 30q16 28 16 59zM1344 5h-489v51h141q93 0 93 109q0 82 -87 82q-55 0 -73 -63v-71h-74v283h-134v-391h-50v441h414v-50h-156v-128q40 31 92 31q64 0 105 -36t41 -99q0 -32 -14 -62q-16 -34 -42 -46h147v390h86v-441z" />
<glyph unicode="&#xe229;" horiz-adv-x="1693" d="M822 221q0 -85 -40 -144q-43 -63 -123 -82l-29 56q107 24 107 174q0 70 -43.5 117.5t-113.5 47.5q-43 0 -78 -23q79 -74 79 -182q0 -70 -25 -120q-32 -64 -95 -64q-98 0 -117 150q-2 16 -2 34q0 93 66 173q-62 39 -139 39q-76 0 -130 -43t-75 -117q36 41 97 41 q57 0 94 -41t37 -98q0 -60 -36 -102t-95 -42q-78 0 -119 63q-34 52 -34 137q0 116 86 188q81 68 200 68q90 0 164 -50q65 45 136 45q99 0 163.5 -63t64.5 -162zM498 185q0 76 -51 139q-53 -53 -53 -139q0 -120 53 -120q14 0 34 27q17 34 17 93zM210 137q0 33 -18 58 q-20 29 -51 29q-30 0 -49.5 -27.5t-19.5 -59.5q0 -33 18 -58q20 -29 51 -29q32 0 52 28q17 26 17 59zM1610 0h-489v51h141q93 0 93 109q0 82 -87 82q-55 0 -73 -63v-71h-74v283h-134v-391h-50v441h414v-50h-156v-128q40 31 92 31q64 0 105 -36t41 -99q0 -32 -14 -62 q-16 -34 -42 -46h147v390h86v-441z" />
<glyph unicode="&#xe22a;" horiz-adv-x="2081" d="M637 0h-51v298q0 127 -56 207q-64 91 -186 91q-114 0 -184 -81q-64 -74 -64 -194q0 -147 71 -221q53 -55 121 -55q30 0 47 7q-66 26 -66 116q0 57 36 97.5t93 40.5q67 0 102 -46q28 -36 28 -79q0 -90 -77 -139q-67 -43 -160 -43q-132 0 -209 95q-72 88 -72 223 q0 165 107 260q91 80 209 80q146 0 231 -103q80 -96 80 -245v-309zM451 167q0 31 -17 57q-19 31 -48 31q-30 0 -49 -30q-17 -26 -17 -58q0 -34 16 -59q18 -30 50 -30q30 0 49 31q16 26 16 58zM1429 0h-489v51h141q93 0 93 109q0 82 -87 82q-55 0 -73 -63v-71h-74v283h-134 v-391h-50v441h414v-50h-156v-128q40 31 92 31q64 0 105 -36t41 -99q0 -32 -14 -62q-16 -34 -42 -46h147v390h86v-441zM1897 391h-125v-391h-87v391h-134v-391h-50v441h396v-50z" />
<glyph unicode="&#xe22b;" horiz-adv-x="1951" d="M548 181q0 -90 -71 -139q-63 -43 -155 -43q-156 0 -235 88q-77 84 -77 242t76 242q80 88 236 88q94 0 156 -43q70 -50 70 -140q0 -41 -29 -78q-37 -47 -102 -47q-57 0 -93 40.5t-36 98.5q0 93 70 114l-27 4q-118 0 -180 -83q-55 -74 -55 -196t55 -196q62 -83 180 -83 q19 0 27 4q-70 20 -70 114q0 57 36 97.5t93 40.5q54 0 92.5 -35.5t38.5 -89.5zM471 491q0 32 -17 58q-19 31 -49 31t-49 -31q-16 -26 -16 -58q0 -33 16 -59q18 -30 49 -30q27 0 50 30q16 28 16 59zM471 167q0 32 -17 58q-19 30 -49 30q-29 0 -47 -28.5t-18 -59.5 q0 -33 16 -59q18 -30 49 -30q27 0 50 30q16 28 16 59zM1334 0h-489v51h141q93 0 93 109q0 82 -87 82q-55 0 -73 -63v-71h-74v283h-134v-391h-50v441h414v-50h-156v-128q40 31 92 31q64 0 105 -36t41 -99q0 -32 -14 -62q-16 -34 -42 -46h147v390h86v-441zM1793 388h-125v-391 h-87v391h-134v-391h-50v441h396v-50z" />
<glyph unicode="&#xe22c;" horiz-adv-x="2376" d="M637 0h-51v298q0 127 -56 207q-64 91 -186 91q-114 0 -184 -81q-64 -74 -64 -194q0 -147 71 -221q53 -55 121 -55q30 0 47 7q-66 26 -66 116q0 57 36 97.5t93 40.5q67 0 102 -46q28 -36 28 -79q0 -90 -77 -139q-67 -43 -160 -43q-132 0 -209 95q-72 88 -72 223 q0 165 107 260q91 80 209 80q146 0 231 -103q80 -96 80 -245v-309zM451 167q0 31 -17 57q-19 31 -48 31q-30 0 -49 -30q-17 -26 -17 -58q0 -34 16 -59q18 -30 50 -30q30 0 49 31q16 26 16 58zM1448 0h-489v51h141q93 0 93 109q0 82 -87 82q-55 0 -73 -63v-71h-74v283h-134 v-391h-50v441h414v-50h-156v-128q40 31 92 31q64 0 105 -36t41 -99q0 -32 -14 -62q-16 -34 -42 -46h147v390h86v-441zM2261 391h-94v-391h-85v391h-129v-391h-85v198q0 193 -165 193q-61 0 -106 -48q-40 -42 -49 -108l26 23q32 20 70 20q56 0 94 -40t38 -96q0 -62 -34 -103 q-36 -44 -97 -44q-62 0 -103 45q-49 54 -49 162q0 91 60 165q66 82 170 82q121 0 182 -79v71h356v-50zM1694 137q0 33 -18 58q-20 29 -51 29q-30 0 -49.5 -27.5t-19.5 -59.5q0 -33 18 -58q20 -29 51 -29q32 0 52 28q17 26 17 59z" />
<glyph unicode="&#xe230;" horiz-adv-x="640" d="M381 597q0 -24 -18 -42.5t-42 -18.5q-19 0 -43 18q-17 19 -17 43q0 25 17.5 42.5t42.5 17.5t42.5 -17.5t17.5 -42.5zM534 215h-174v-63q0 -76 -61 -117q-52 -35 -132 -35q-63 0 -108 36q-49 39 -49 101q0 99 91 124v180h414v-50h-155v-125h174v-51zM274 266v125h-123 v-125h123zM274 167v48h-131q-82 0 -82 -80q0 -36 29 -59t66 -23q52 0 85 31t33 83z" />
<glyph unicode="&#xe231;" horiz-adv-x="640" d="M534 215h-174v-63q0 -76 -61 -117q-52 -35 -132 -35q-63 0 -108 36q-49 39 -49 101q0 99 91 124v180h414v-50h-155v-125h174v-51zM274 266v125h-123v-125h123zM274 167v48h-131q-82 0 -82 -80q0 -36 29 -59t66 -23q52 0 85 31t33 83z" />
<glyph unicode="&#xe232;" horiz-adv-x="1225" d="M530 215h-174v-63q0 -76 -61 -117q-52 -35 -132 -35q-63 0 -108 36q-49 39 -49 101q0 99 91 124v180h414v-50h-155v-125h174v-51zM270 266v125h-123v-125h123zM270 167v48h-131q-82 0 -82 -80q0 -36 29 -59t66 -23q52 0 85 31t33 83zM1069 391h-125v-391h-87v391h-134 v-391h-50v441h396v-50z" />
<glyph unicode="&#xe233;" horiz-adv-x="770" d="M625 0h-49v529q0 69 -39 113.5t-107 44.5q-59 0 -94.5 -37t-35.5 -96q0 -86 76 -113h139v-50h-155v-125h138v-51h-138v-63q0 -76 -61 -117q-52 -35 -132 -35q-63 0 -108 36q-49 39 -49 101q0 99 91 124v180h196q-52 44 -52 134q0 82 53 137t135 55q92 0 144 -70 q48 -63 48 -158v-539zM274 266v125h-123v-125h123zM274 167v48h-131q-82 0 -82 -80q0 -36 29 -59t66 -23q52 0 85 31t33 83z" />
<glyph unicode="&#xe234;" horiz-adv-x="652" d="M570 658q0 -43 -29 -68.5t-73 -25.5q-43 0 -71 19q-32 22 -32 63q0 20 9 35q-38 -6 -58 -43q-17 -31 -17 -73q0 -93 104 -124h112v-50h-155v-125h138v-51h-138v-63q0 -76 -61 -117q-52 -35 -132 -35q-63 0 -108 36q-49 39 -49 101q0 99 91 124v180h211q-66 47 -66 133 q0 92 58 146q51 47 127 47q56 0 94 -26q45 -30 45 -83zM508 646q0 10 -15 28q-15 12 -34 12q-38 0 -49 -40q0 -17 16 -28t33 -11q40 0 49 39zM274 266v125h-123v-125h123zM274 167v48h-131q-82 0 -82 -80q0 -36 29 -59t66 -23q52 0 85 31t33 83z" />
<glyph unicode="&#xe235;" horiz-adv-x="716" d="M601 215h-43v-215h-86v215h-104v-63q0 -76 -61 -117q-52 -35 -132 -35q-63 0 -108 36q-49 39 -49 101q0 99 91 124v180h414v-50h-155v-125h233v-51zM282 266v125h-123v-125h123zM282 167v48h-131q-82 0 -82 -80q0 -36 29 -59t66 -23q52 0 85 31t33 83z" />
<glyph unicode="&#xe236;" horiz-adv-x="1096" d="M901 36q0 -129 -115 -213q-121 -88 -314 -88q-185 0 -304.5 114.5t-119.5 298.5q0 177 121 299l35 -37q-105 -102 -105 -262q0 -162 105.5 -261.5t267.5 -99.5q180 0 274 81q76 66 76 168q0 27 -14.5 49.5t-40.5 22.5q-50 0 -50 -45v-63h-87v215h-70v-63q0 -77 -60 -117 q-52 -35 -132 -35q-63 0 -108 36q-49 39 -49 101q0 99 91 124v180h389v-50h-131v-125h209v-51h-52v-73q22 25 62 25q53 0 87.5 -38.5t34.5 -92.5zM474 266v125h-122v-125h122zM474 167v48h-131q-81 0 -81 -80q0 -36 29 -59t66 -23q53 0 85 30.5t32 83.5z" />
<glyph unicode="&#xe237;" horiz-adv-x="1369" d="M637 0h-51v298q0 127 -56 207q-64 91 -186 91q-114 0 -184 -81q-64 -74 -64 -194q0 -147 71 -221q53 -55 121 -55q30 0 47 7q-66 26 -66 116q0 57 36 97.5t93 40.5q67 0 102 -46q28 -36 28 -79q0 -90 -77 -139q-67 -43 -160 -43q-132 0 -209 95q-72 88 -72 223 q0 165 107 260q91 80 209 80q146 0 231 -103q80 -96 80 -245v-309zM451 167q0 31 -17 57q-19 31 -48 31q-30 0 -49 -30q-17 -26 -17 -58q0 -34 16 -59q18 -30 50 -30q30 0 49 31q16 26 16 58zM1288 215h-174v-63q0 -76 -61 -117q-52 -35 -132 -35q-63 0 -108 36 q-49 39 -49 101q0 99 91 124v180h414v-50h-155v-125h174v-51zM1028 266v125h-123v-125h123zM1028 167v48h-131q-82 0 -82 -80q0 -36 29 -59t66 -23q52 0 85 31t33 83z" />
<glyph unicode="&#xe238;" horiz-adv-x="1306" d="M548 181q0 -90 -71 -139q-63 -43 -155 -43q-156 0 -235 88q-77 84 -77 242t76 242q80 88 236 88q94 0 156 -43q70 -50 70 -140q0 -41 -29 -78q-37 -47 -102 -47q-57 0 -93 40.5t-36 98.5q0 93 70 114l-27 4q-118 0 -180 -83q-55 -74 -55 -196t55 -196q62 -83 180 -83 q19 0 27 4q-70 20 -70 114q0 57 36 97.5t93 40.5q54 0 92.5 -35.5t38.5 -89.5zM471 491q0 32 -17 58q-19 31 -49 31t-49 -31q-16 -26 -16 -58q0 -33 16 -59q18 -30 49 -30q27 0 50 30q16 28 16 59zM471 167q0 32 -17 58q-19 30 -49 30q-29 0 -47 -28.5t-18 -59.5 q0 -33 16 -59q18 -30 49 -30q27 0 50 30q16 28 16 59zM1178 215h-174v-63q0 -76 -61 -117q-52 -35 -132 -35q-63 0 -108 36q-49 39 -49 101q0 99 91 124v180h414v-50h-155v-125h174v-51zM918 266v125h-123v-125h123zM918 167v48h-131q-82 0 -82 -80q0 -36 29 -59t66 -23 q52 0 85 31t33 83z" />
<glyph unicode="&#xe239;" horiz-adv-x="1610" d="M832 221q0 -85 -40 -144q-43 -63 -123 -82l-29 56q107 24 107 174q0 70 -43.5 117.5t-113.5 47.5q-43 0 -78 -23q79 -74 79 -182q0 -70 -25 -120q-32 -64 -95 -64q-98 0 -117 150q-2 16 -2 34q0 93 66 173q-62 39 -139 39q-76 0 -130 -43t-75 -117q36 41 97 41 q57 0 94 -41t37 -98q0 -60 -36 -102t-95 -42q-78 0 -119 63q-34 52 -34 137q0 116 86 188q81 68 200 68q90 0 164 -50q65 45 136 45q99 0 163.5 -63t64.5 -162zM508 185q0 76 -51 139q-53 -53 -53 -139q0 -120 53 -120q14 0 34 27q17 34 17 93zM220 137q0 33 -18 58 q-20 29 -51 29q-30 0 -49.5 -27.5t-19.5 -59.5q0 -33 18 -58q20 -29 51 -29q32 0 52 28q17 26 17 59zM1494 215h-174v-63q0 -76 -61 -117q-52 -35 -132 -35q-63 0 -108 36q-49 39 -49 101q0 99 91 124v180h414v-50h-155v-125h174v-51zM1234 266v125h-123v-125h123zM1234 167 v48h-131q-82 0 -82 -80q0 -36 29 -59t66 -23q52 0 85 31t33 83z" />
<glyph unicode="&#xe23a;" horiz-adv-x="1920" d="M637 0h-51v298q0 127 -56 207q-64 91 -186 91q-114 0 -184 -81q-64 -74 -64 -194q0 -147 71 -221q53 -55 121 -55q30 0 47 7q-66 26 -66 116q0 57 36 97.5t93 40.5q67 0 102 -46q28 -36 28 -79q0 -90 -77 -139q-67 -43 -160 -43q-132 0 -209 95q-72 88 -72 223 q0 165 107 260q91 80 209 80q146 0 231 -103q80 -96 80 -245v-309zM451 167q0 31 -17 57q-19 31 -48 31q-30 0 -49 -30q-17 -26 -17 -58q0 -34 16 -59q18 -30 50 -30q30 0 49 31q16 26 16 58zM1248 215h-174v-63q0 -76 -61 -117q-52 -35 -132 -35q-63 0 -108 36 q-49 39 -49 101q0 99 91 124v180h414v-50h-155v-125h174v-51zM988 266v125h-123v-125h123zM988 167v48h-131q-82 0 -82 -80q0 -36 29 -59t66 -23q52 0 85 31t33 83zM1741 391h-125v-391h-87v391h-134v-391h-50v441h396v-50z" />
<glyph unicode="&#xe23b;" horiz-adv-x="1870" d="M548 181q0 -90 -71 -139q-63 -43 -155 -43q-156 0 -235 88q-77 84 -77 242t76 242q80 88 236 88q94 0 156 -43q70 -50 70 -140q0 -41 -29 -78q-37 -47 -102 -47q-57 0 -93 40.5t-36 98.5q0 93 70 114l-27 4q-118 0 -180 -83q-55 -74 -55 -196t55 -196q62 -83 180 -83 q19 0 27 4q-70 20 -70 114q0 57 36 97.5t93 40.5q54 0 92.5 -35.5t38.5 -89.5zM471 491q0 32 -17 58q-19 31 -49 31t-49 -31q-16 -26 -16 -58q0 -33 16 -59q18 -30 49 -30q27 0 50 30q16 28 16 59zM471 167q0 32 -17 58q-19 30 -49 30q-29 0 -47 -28.5t-18 -59.5 q0 -33 16 -59q18 -30 49 -30q27 0 50 30q16 28 16 59zM1168 215h-174v-63q0 -76 -61 -117q-52 -35 -132 -35q-63 0 -108 36q-49 39 -49 101q0 99 91 124v180h414v-50h-155v-125h174v-51zM908 266v125h-123v-125h123zM908 167v48h-131q-82 0 -82 -80q0 -36 29 -59t66 -23 q52 0 85 31t33 83zM1707 391h-125v-391h-87v391h-134v-391h-50v441h396v-50z" />
<glyph unicode="&#xe23c;" horiz-adv-x="2285" d="M637 0h-51v298q0 127 -56 207q-64 91 -186 91q-114 0 -184 -81q-64 -74 -64 -194q0 -147 71 -221q53 -55 121 -55q30 0 47 7q-66 26 -66 116q0 57 36 97.5t93 40.5q67 0 102 -46q28 -36 28 -79q0 -90 -77 -139q-67 -43 -160 -43q-132 0 -209 95q-72 88 -72 223 q0 165 107 260q91 80 209 80q146 0 231 -103q80 -96 80 -245v-309zM451 167q0 31 -17 57q-19 31 -48 31q-30 0 -49 -30q-17 -26 -17 -58q0 -34 16 -59q18 -30 50 -30q30 0 49 31q16 26 16 58zM1328 215h-174v-63q0 -76 -61 -117q-52 -35 -132 -35q-63 0 -108 36 q-49 39 -49 101q0 99 91 124v180h414v-50h-155v-125h174v-51zM1068 266v125h-123v-125h123zM1068 167v48h-131q-82 0 -82 -80q0 -36 29 -59t66 -23q52 0 85 31t33 83zM2181 391h-94v-391h-85v391h-129v-391h-85v198q0 193 -165 193q-61 0 -106 -48q-40 -42 -49 -108l26 23 q32 20 70 20q56 0 94 -40t38 -96q0 -62 -34 -103q-36 -44 -97 -44q-62 0 -103 45q-49 54 -49 162q0 91 60 165q66 82 170 82q121 0 182 -79v71h356v-50zM1614 137q0 33 -18 58q-20 29 -51 29q-30 0 -49.5 -27.5t-19.5 -59.5q0 -33 18 -58q20 -29 51 -29q32 0 52 28 q17 26 17 59z" />
<glyph unicode="&#xe240;" horiz-adv-x="1023" d="M497 597q0 -24 -18 -42.5t-42 -18.5q-19 0 -43 18q-17 19 -17 43q0 25 17.5 42.5t42.5 17.5t42.5 -17.5t17.5 -42.5zM836 115q0 -167 -126 -251q-107 -71 -282 -71q-191 0 -302.5 106.5t-111.5 296.5q0 70 17 127q21 70 57 113l36 -36q-18 -15 -37 -70l-16 -65 q-6 -24 -6 -66q0 -163 95 -257.5t259 -94.5q327 0 327 268q0 115 -64 115q-14 0 -38 -21q-17 -22 -17 -52v-157h-86v391h-156q-67 0 -110 -42.5t-53 -110.5l25 19q28 17 63 17q120 0 135 -127q0 -64 -34 -107q-37 -46 -100 -46q-75 0 -113 70q-31 57 -31 138q0 103 63 171 t166 68h300v-50h-69v-129q33 19 61 19q38 0 62 -8q21 -7 40 -25q46 -43 46 -133zM365 134q0 32 -17 58q-19 31 -49 31t-49 -31q-16 -26 -16 -58q0 -33 16 -59q18 -30 49 -30q27 0 50 30q16 28 16 59z" />
<glyph unicode="&#xe241;" horiz-adv-x="1023" d="M836 115q0 -167 -126 -251q-107 -71 -282 -71q-191 0 -302.5 106.5t-111.5 296.5q0 70 17 127q21 70 57 113l36 -36q-18 -15 -37 -70l-16 -65q-6 -24 -6 -66q0 -163 95 -257.5t259 -94.5q327 0 327 268q0 115 -64 115q-14 0 -38 -21q-17 -22 -17 -52v-157h-86v391h-156 q-67 0 -110 -42.5t-53 -110.5l25 19q28 17 63 17q120 0 135 -127q0 -64 -34 -107q-37 -46 -100 -46q-75 0 -113 70q-31 57 -31 138q0 103 63 171t166 68h300v-50h-69v-129q33 19 61 19q38 0 62 -8q21 -7 40 -25q46 -43 46 -133zM365 134q0 32 -17 58q-19 31 -49 31t-49 -31 q-16 -26 -16 -58q0 -33 16 -59q18 -30 49 -30q27 0 50 30q16 28 16 59z" />
<glyph unicode="&#xe242;" horiz-adv-x="1552" d="M830 115q0 -167 -126 -251q-107 -71 -282 -71q-191 0 -302.5 106.5t-111.5 296.5q0 70 17 127q21 70 57 113l36 -36q-18 -15 -37 -70l-16 -65q-6 -24 -6 -66q0 -163 95 -257.5t259 -94.5q327 0 327 268q0 115 -64 115q-14 0 -38 -21q-17 -22 -17 -52v-157h-86v391h-156 q-67 0 -110 -42.5t-53 -110.5l25 19q28 17 63 17q120 0 135 -127q0 -64 -34 -107q-37 -46 -100 -46q-75 0 -113 70q-31 57 -31 138q0 103 63 171t166 68h300v-50h-69v-129q33 19 61 19q38 0 62 -8q21 -7 40 -25q46 -43 46 -133zM359 134q0 32 -17 58q-19 31 -49 31t-49 -31 q-16 -26 -16 -58q0 -33 16 -59q18 -30 49 -30q27 0 50 30q16 28 16 59zM1373 391h-125v-391h-87v391h-134v-391h-50v441h396v-50z" />
<glyph unicode="&#xe243;" horiz-adv-x="1180" d="M906 2h-50v529q0 67 -38 112q-41 46 -107 46q-59 0 -94.5 -37t-35.5 -96q0 -93 77 -115h38v-50h-69v-129q33 19 61 19q38 0 62 -8q21 -7 40 -25q46 -43 46 -133q0 -167 -126 -251q-107 -71 -282 -71q-191 0 -302.5 106.5t-111.5 296.5q0 70 17 127q21 70 57 113l36 -36 q-18 -15 -37 -70l-16 -65q-6 -24 -6 -66q0 -163 95 -257.5t259 -94.5q327 0 327 268q0 115 -64 115q-14 0 -38 -21q-17 -22 -17 -52v-157h-86v391h-156q-67 0 -110 -42.5t-53 -110.5l25 19q28 17 63 17q120 0 135 -127q0 -64 -34 -107q-37 -46 -100 -46q-75 0 -113 70 q-31 57 -31 138q0 103 63 171t166 68h185q-55 46 -55 136q0 82 53 137t135 55q92 0 144 -70q48 -63 48 -158v-539zM365 134q0 32 -17 58q-19 31 -49 31t-49 -31q-16 -26 -16 -58q0 -33 16 -59q18 -30 49 -30q27 0 50 30q16 28 16 59z" />
<glyph unicode="&#xe244;" horiz-adv-x="1023" d="M836 115q0 -167 -126 -251q-107 -71 -282 -71q-191 0 -302.5 106.5t-111.5 296.5q0 70 17 127q21 70 57 113l36 -36q-18 -15 -37 -70l-16 -65q-6 -24 -6 -66q0 -163 95 -257.5t259 -94.5q327 0 327 268q0 115 -64 115q-14 0 -38 -21q-17 -22 -17 -52v-157h-86v391h-156 q-67 0 -110 -42.5t-53 -110.5l25 19q28 17 63 17q120 0 135 -127q0 -64 -34 -107q-37 -46 -100 -46q-75 0 -113 70q-31 57 -31 138q0 103 63 171t166 68h139q-65 45 -65 131q0 136 113 180q33 13 72 13q56 0 94 -26q45 -30 45 -83q0 -43 -29 -68.5t-73 -25.5q-46 0 -74.5 24 t-28.5 58q0 20 9 35q-37 -6 -58 -43q-17 -32 -17 -73q0 -92 103 -122h70v-50h-69v-129q33 19 61 19q38 0 62 -8q21 -7 40 -25q46 -43 46 -133zM732 644q0 10 -15 28q-15 12 -34 12q-18 0 -33.5 -11.5t-15.5 -28.5q0 -39 49 -39q40 0 49 39zM365 134q0 32 -17 58 q-19 31 -49 31t-49 -31q-16 -26 -16 -58q0 -33 16 -59q18 -30 49 -30q27 0 50 30q16 28 16 59z" />
<glyph unicode="&#xe245;" horiz-adv-x="1081" d="M793 -87h-201q-87 -153 -318 -153q-80 0 -153 37q-89 45 -89 117q0 46 48 46h452q19 73 19 138q0 132 -65 132q-14 0 -38 -21q-17 -22 -17 -52v-157h-86v391h-156q-67 0 -110 -42.5t-53 -110.5l25 19q28 17 63 17q120 0 135 -127q0 -64 -34 -107q-37 -46 -100 -46 q-75 0 -113 70q-31 57 -31 138q0 103 63 171t166 68h300v-50h-69v-129q33 19 61 19q75 0 114 -56q35 -49 35 -127q0 -60 -27 -138h103v490h76v-537zM169 134q0 32 -17 58q-19 31 -49 31t-49 -31q-16 -26 -16 -58q0 -33 16 -59q18 -30 49 -30q27 0 50 30q16 28 16 59z M510 -87h-387q-35 0 -35 -22q0 -39 76 -67q57 -21 109 -21q175 0 237 110z" />
<glyph unicode="&#xe246;" horiz-adv-x="1367" d="M1023 404h-81v-391h-86v391h-84v-487h-179q-89 -153 -318 -153q-80 0 -153 37q-89 45 -89 117q0 46 48 46h452q18 59 18 141q0 125 -65 125q-14 0 -38 -21q-17 -22 -17 -52v-157h-86v391h-156q-67 0 -110 -42.5t-53 -110.5l25 19q28 17 63 17q120 0 135 -127 q0 -64 -34 -107q-37 -46 -100 -46q-75 0 -113 70q-31 57 -31 138q0 103 63 171t166 68h300v-50h-69v-129q33 19 61 19q75 0 114 -54q35 -48 35 -125q0 -73 -26 -138h107v490h301v-50zM169 134q0 32 -17 58q-19 31 -49 31t-49 -31q-16 -26 -16 -58q0 -33 16 -59 q18 -30 49 -30q27 0 50 30q16 28 16 59zM511 -83h-387q-35 0 -35 -22q0 -41 76 -68q57 -20 109 -20q175 0 237 110z" />
<glyph unicode="&#xe247;" horiz-adv-x="1689" d="M637 0h-51v298q0 127 -56 207q-64 91 -186 91q-114 0 -184 -81q-64 -74 -64 -194q0 -147 71 -221q53 -55 121 -55q30 0 47 7q-66 26 -66 116q0 57 36 97.5t93 40.5q67 0 102 -46q28 -36 28 -79q0 -90 -77 -139q-67 -43 -160 -43q-132 0 -209 95q-72 88 -72 223 q0 165 107 260q91 80 209 80q146 0 231 -103q80 -96 80 -245v-309zM451 167q0 31 -17 57q-19 31 -48 31q-30 0 -49 -30q-17 -26 -17 -58q0 -34 16 -59q18 -30 50 -30q30 0 49 31q16 26 16 58zM1575 115q0 -167 -126 -251q-107 -71 -282 -71q-191 0 -302.5 106.5 t-111.5 296.5q0 70 17 127q21 70 57 113l36 -36q-18 -15 -37 -70l-16 -65q-6 -24 -6 -66q0 -163 95 -257.5t259 -94.5q327 0 327 268q0 115 -64 115q-14 0 -38 -21q-17 -22 -17 -52v-157h-86v391h-156q-67 0 -110 -42.5t-53 -110.5l25 19q28 17 63 17q120 0 135 -127 q0 -64 -34 -107q-37 -46 -100 -46q-75 0 -113 70q-31 57 -31 138q0 103 63 171t166 68h300v-50h-69v-129q33 19 61 19q38 0 62 -8q21 -7 40 -25q46 -43 46 -133zM1104 134q0 32 -17 58q-19 31 -49 31t-49 -31q-16 -26 -16 -58q0 -33 16 -59q18 -30 49 -30q27 0 50 30 q16 28 16 59z" />
<glyph unicode="&#xe248;" horiz-adv-x="1616" d="M572 181q0 -90 -71 -139q-63 -43 -155 -43q-156 0 -235 88q-77 84 -77 242t76 242q80 88 236 88q94 0 156 -43q70 -50 70 -140q0 -41 -29 -78q-37 -47 -102 -47q-57 0 -93 40.5t-36 98.5q0 93 70 114l-27 4q-118 0 -180 -83q-55 -74 -55 -196t55 -196q62 -83 180 -83 q19 0 27 4q-70 20 -70 114q0 57 36 97.5t93 40.5q54 0 92.5 -35.5t38.5 -89.5zM495 491q0 32 -17 58q-19 31 -49 31t-49 -31q-16 -26 -16 -58q0 -33 16 -59q18 -30 49 -30q27 0 50 30q16 28 16 59zM495 167q0 32 -17 58q-19 30 -49 30q-29 0 -47 -28.5t-18 -59.5 q0 -33 16 -59q18 -30 49 -30q27 0 50 30q16 28 16 59zM1518 115q0 -167 -126 -251q-107 -71 -282 -71q-191 0 -302.5 106.5t-111.5 296.5q0 70 17 127q21 70 57 113l36 -36q-18 -15 -37 -70l-16 -65q-6 -24 -6 -66q0 -163 95 -257.5t259 -94.5q327 0 327 268q0 115 -64 115 q-14 0 -38 -21q-17 -22 -17 -52v-157h-86v391h-156q-67 0 -110 -42.5t-53 -110.5l25 19q28 17 63 17q120 0 135 -127q0 -64 -34 -107q-37 -46 -100 -46q-75 0 -113 70q-31 57 -31 138q0 103 63 171t166 68h300v-50h-69v-129q33 19 61 19q38 0 62 -8q21 -7 40 -25 q46 -43 46 -133zM1047 134q0 32 -17 58q-19 31 -49 31t-49 -31q-16 -26 -16 -58q0 -33 16 -59q18 -30 49 -30q27 0 50 30q16 28 16 59z" />
<glyph unicode="&#xe249;" horiz-adv-x="1960" d="M857 221q0 -85 -40 -144q-43 -63 -123 -82l-29 56q107 24 107 174q0 70 -43.5 117.5t-113.5 47.5q-43 0 -78 -23q79 -74 79 -182q0 -70 -25 -120q-32 -64 -95 -64q-98 0 -117 150q-2 16 -2 34q0 93 66 173q-62 39 -139 39q-76 0 -130 -43t-75 -117q36 41 97 41 q57 0 94 -41t37 -98q0 -60 -36 -102t-95 -42q-78 0 -119 63q-34 52 -34 137q0 116 86 188q81 68 200 68q90 0 164 -50q65 45 136 45q99 0 163.5 -63t64.5 -162zM533 185q0 76 -51 139q-53 -53 -53 -139q0 -120 53 -120q14 0 34 27q17 34 17 93zM245 137q0 33 -18 58 q-20 29 -51 29q-30 0 -49.5 -27.5t-19.5 -59.5q0 -33 18 -58q20 -29 51 -29q32 0 52 28q17 26 17 59zM1835 115q0 -167 -126 -251q-107 -71 -282 -71q-191 0 -302.5 106.5t-111.5 296.5q0 70 17 127q21 70 57 113l36 -36q-18 -15 -37 -70l-16 -65q-6 -24 -6 -66 q0 -163 95 -257.5t259 -94.5q327 0 327 268q0 115 -64 115q-14 0 -38 -21q-17 -22 -17 -52v-157h-86v391h-156q-67 0 -110 -42.5t-53 -110.5l25 19q28 17 63 17q120 0 135 -127q0 -64 -34 -107q-37 -46 -100 -46q-75 0 -113 70q-31 57 -31 138q0 103 63 171t166 68h300v-50 h-69v-129q33 19 61 19q38 0 62 -8q21 -7 40 -25q46 -43 46 -133zM1364 134q0 32 -17 58q-19 31 -49 31t-49 -31q-16 -26 -16 -58q0 -33 16 -59q18 -30 49 -30q27 0 50 30q16 28 16 59z" />
<glyph unicode="&#xe24a;" horiz-adv-x="2326" d="M637 0h-51v298q0 127 -56 207q-64 91 -186 91q-114 0 -184 -81q-64 -74 -64 -194q0 -147 71 -221q53 -55 121 -55q30 0 47 7q-66 26 -66 116q0 57 36 97.5t93 40.5q67 0 102 -46q28 -36 28 -79q0 -90 -77 -139q-67 -43 -160 -43q-132 0 -209 95q-72 88 -72 223 q0 165 107 260q91 80 209 80q146 0 231 -103q80 -96 80 -245v-309zM451 167q0 31 -17 57q-19 31 -48 31q-30 0 -49 -30q-17 -26 -17 -58q0 -34 16 -59q18 -30 50 -30q30 0 49 31q16 26 16 58zM1604 115q0 -167 -126 -251q-107 -71 -282 -71q-191 0 -302.5 106.5 t-111.5 296.5q0 70 17 127q21 70 57 113l36 -36q-18 -15 -37 -70l-16 -65q-6 -24 -6 -66q0 -163 95 -257.5t259 -94.5q327 0 327 268q0 115 -64 115q-14 0 -38 -21q-17 -22 -17 -52v-157h-86v391h-156q-67 0 -110 -42.5t-53 -110.5l25 19q28 17 63 17q120 0 135 -127 q0 -64 -34 -107q-37 -46 -100 -46q-75 0 -113 70q-31 57 -31 138q0 103 63 171t166 68h300v-50h-69v-129q33 19 61 19q38 0 62 -8q21 -7 40 -25q46 -43 46 -133zM1133 134q0 32 -17 58q-19 31 -49 31t-49 -31q-16 -26 -16 -58q0 -33 16 -59q18 -30 49 -30q27 0 50 30 q16 28 16 59zM2152 391h-125v-391h-87v391h-134v-391h-50v441h396v-50z" />
<glyph unicode="&#xe24b;" horiz-adv-x="2186" d="M548 181q0 -90 -71 -139q-63 -43 -155 -43q-156 0 -235 88q-77 84 -77 242t76 242q80 88 236 88q94 0 156 -43q70 -50 70 -140q0 -41 -29 -78q-37 -47 -102 -47q-57 0 -93 40.5t-36 98.5q0 93 70 114l-27 4q-118 0 -180 -83q-55 -74 -55 -196t55 -196q62 -83 180 -83 q19 0 27 4q-70 20 -70 114q0 57 36 97.5t93 40.5q54 0 92.5 -35.5t38.5 -89.5zM471 491q0 32 -17 58q-19 31 -49 31t-49 -31q-16 -26 -16 -58q0 -33 16 -59q18 -30 49 -30q27 0 50 30q16 28 16 59zM471 167q0 32 -17 58q-19 30 -49 30q-29 0 -47 -28.5t-18 -59.5 q0 -33 16 -59q18 -30 49 -30q27 0 50 30q16 28 16 59zM1484 115q0 -167 -126 -251q-107 -71 -282 -71q-191 0 -302.5 106.5t-111.5 296.5q0 70 17 127q21 70 57 113l36 -36q-18 -15 -37 -70l-16 -65q-6 -24 -6 -66q0 -163 95 -257.5t259 -94.5q327 0 327 268q0 115 -64 115 q-14 0 -38 -21q-17 -22 -17 -52v-157h-86v391h-156q-67 0 -110 -42.5t-53 -110.5l25 19q28 17 63 17q120 0 135 -127q0 -64 -34 -107q-37 -46 -100 -46q-75 0 -113 70q-31 57 -31 138q0 103 63 171t166 68h300v-50h-69v-129q33 19 61 19q38 0 62 -8q21 -7 40 -25 q46 -43 46 -133zM1013 134q0 32 -17 58q-19 31 -49 31t-49 -31q-16 -26 -16 -58q0 -33 16 -59q18 -30 49 -30q27 0 50 30q16 28 16 59zM2027 391h-125v-391h-87v391h-134v-391h-50v441h396v-50z" />
<glyph unicode="&#xe24c;" horiz-adv-x="2626" d="M637 0h-51v298q0 127 -56 207q-64 91 -186 91q-114 0 -184 -81q-64 -74 -64 -194q0 -147 71 -221q53 -55 121 -55q30 0 47 7q-66 26 -66 116q0 57 36 97.5t93 40.5q67 0 102 -46q28 -36 28 -79q0 -90 -77 -139q-67 -43 -160 -43q-132 0 -209 95q-72 88 -72 223 q0 165 107 260q91 80 209 80q146 0 231 -103q80 -96 80 -245v-309zM451 167q0 31 -17 57q-19 31 -48 31q-30 0 -49 -30q-17 -26 -17 -58q0 -34 16 -59q18 -30 50 -30q30 0 49 31q16 26 16 58zM1584 115q0 -167 -126 -251q-107 -71 -282 -71q-191 0 -302.5 106.5 t-111.5 296.5q0 70 17 127q21 70 57 113l36 -36q-18 -15 -37 -70l-16 -65q-6 -24 -6 -66q0 -163 95 -257.5t259 -94.5q327 0 327 268q0 115 -64 115q-14 0 -38 -21q-17 -22 -17 -52v-157h-86v391h-156q-67 0 -110 -42.5t-53 -110.5l25 19q28 17 63 17q120 0 135 -127 q0 -64 -34 -107q-37 -46 -100 -46q-75 0 -113 70q-31 57 -31 138q0 103 63 171t166 68h300v-50h-69v-129q33 19 61 19q38 0 62 -8q21 -7 40 -25q46 -43 46 -133zM1113 134q0 32 -17 58q-19 31 -49 31t-49 -31q-16 -26 -16 -58q0 -33 16 -59q18 -30 49 -30q27 0 50 30 q16 28 16 59zM2511 391h-94v-391h-85v391h-129v-391h-85v198q0 193 -165 193q-61 0 -106 -48q-40 -42 -49 -108l26 23q32 20 70 20q56 0 94 -40t38 -96q0 -62 -34 -103q-36 -44 -97 -44q-62 0 -103 45q-49 54 -49 162q0 91 60 165q66 82 170 82q121 0 182 -79v71h356v-50z M1944 137q0 33 -18 58q-20 29 -51 29q-30 0 -49.5 -27.5t-19.5 -59.5q0 -33 18 -58q20 -29 51 -29q32 0 52 28q17 26 17 59z" />
<glyph unicode="&#xe250;" horiz-adv-x="914" d="M352 597q0 -24 -18 -42.5t-42 -18.5q-19 0 -43 18q-17 19 -17 43q0 25 17.5 42.5t42.5 17.5t42.5 -17.5t17.5 -42.5zM526 0h-518v441h86v-390h432v-51z" />
<glyph unicode="&#xe251;" horiz-adv-x="925" d="M526 0h-518v441h86v-390h432v-51z" />
<glyph unicode="&#xe252;" horiz-adv-x="1471" d="M506 0h-518v441h86v-390h432v-51zM1274 391h-125v-391h-87v391h-134v-391h-50v441h396v-50z" />
<glyph unicode="&#xe253;" horiz-adv-x="914" d="M599 0h-110l-48 -206h-88l47 206h-392v441h86v-390h223q-42 17 -71 71q-25 48 -25 100q0 84 48 143q51 64 133 64q65 0 107 -35t42 -99q0 -22 -6 -48l-45 -196h99v-51zM466 304q0 32 -20 53t-52 21q-53 0 -89 -51q-33 -46 -33 -101q0 -78 55 -126q38 -33 86 -40l49 211z " />
<glyph unicode="&#xe254;" horiz-adv-x="914" d="M600 0h-592v441h86v-390h221q-23 7 -53 45q-41 52 -41 129q0 85 50 144.5t134 59.5q66 0 116 -54q44 -48 44 -108q0 -59 -25 -97q-30 -45 -86 -45q-52 0 -84.5 35.5t-32.5 88.5q0 47 23 80q26 38 71 38q-13 11 -40 11q-51 0 -87 -51q-32 -45 -32 -99q0 -146 169 -177h159 v-51zM491 253q-6 65 -60 65q-18 0 -33 -25l-8 -23l-2 -29q6 -65 59 -65q18 0 34 25l8 23z" />
<glyph unicode="&#xe255;" horiz-adv-x="857" d="M723 0h-52v158q0 164 -67 266q-79 121 -234 121q-142 0 -223 -96q-76 -91 -76 -235q0 -136 48 -230q63 -124 184 -124q103 0 159 62t56 166q0 126 -87 126q-23 0 -42 -16t-19 -39v-159h-87v441h87v-213q3 15 35 28q23 9 45 9q77 0 123 -59q42 -54 42 -133 q0 -127 -84 -201q-80 -71 -209 -71q-156 0 -238 136q-68 112 -68 279q0 169 90 281q97 120 264 120q180 0 273 -139q80 -120 80 -307v-171z" />
<glyph unicode="&#xe256;" horiz-adv-x="790" d="M635 419q0 -105 -85 -105q-30 0 -57 27q-6 6 -19 30l-8 36q0 84 44 99q-63 39 -148 39q-142 0 -223 -96q-76 -91 -76 -235q0 -136 48 -230q63 -124 184 -124q103 0 159 62t56 166q0 126 -87 126q-23 0 -42 -16t-19 -39v-159h-87v441h87v-213q3 15 35 28q23 9 45 9 q77 0 123 -59q42 -54 42 -133q0 -127 -84 -201q-80 -71 -209 -71q-156 0 -238 136q-68 112 -68 279q0 169 90 281q97 120 264 120q129 0 209 -73q64 -59 64 -125zM581 403q0 25 -10 43q-12 22 -35 22q-25 0 -25 -46q0 -23 11.5 -42t33.5 -19q25 5 25 42z" />
<glyph unicode="&#xe257;" horiz-adv-x="1613" d="M649 0h-51v298q0 127 -56 207q-64 91 -186 91q-114 0 -184 -81q-64 -74 -64 -194q0 -147 71 -221q53 -55 121 -55q30 0 47 7q-66 26 -66 116q0 57 36 97.5t93 40.5q67 0 102 -46q28 -36 28 -79q0 -90 -77 -139q-67 -43 -160 -43q-132 0 -209 95q-72 88 -72 223 q0 165 107 260q91 80 209 80q146 0 231 -103q80 -96 80 -245v-309zM463 167q0 31 -17 57q-19 31 -48 31q-30 0 -49 -30q-17 -26 -17 -58q0 -34 16 -59q18 -30 50 -30q30 0 49 31q16 26 16 58zM1293 0h-518v441h86v-390h432v-51z" />
<glyph unicode="&#xe258;" horiz-adv-x="1514" d="M558 181q0 -90 -71 -139q-63 -43 -155 -43q-156 0 -235 88q-77 84 -77 242t76 242q80 88 236 88q94 0 156 -43q70 -50 70 -140q0 -41 -29 -78q-37 -47 -102 -47q-57 0 -93 40.5t-36 98.5q0 93 70 114l-27 4q-118 0 -180 -83q-55 -74 -55 -196t55 -196q62 -83 180 -83 q19 0 27 4q-70 20 -70 114q0 57 36 97.5t93 40.5q54 0 92.5 -35.5t38.5 -89.5zM481 491q0 32 -17 58q-19 31 -49 31t-49 -31q-16 -26 -16 -58q0 -33 16 -59q18 -30 49 -30q27 0 50 30q16 28 16 59zM481 167q0 32 -17 58q-19 30 -49 30q-29 0 -47 -28.5t-18 -59.5 q0 -33 16 -59q18 -30 49 -30q27 0 50 30q16 28 16 59zM1201 0h-518v441h86v-390h432v-51z" />
<glyph unicode="&#xe259;" horiz-adv-x="1810" d="M822 221q0 -85 -40 -144q-43 -63 -123 -82l-29 56q107 24 107 174q0 70 -43.5 117.5t-113.5 47.5q-43 0 -78 -23q79 -74 79 -182q0 -70 -25 -120q-32 -64 -95 -64q-98 0 -117 150q-2 16 -2 34q0 93 66 173q-62 39 -139 39q-76 0 -130 -43t-75 -117q36 41 97 41 q57 0 94 -41t37 -98q0 -60 -36 -102t-95 -42q-78 0 -119 63q-34 52 -34 137q0 116 86 188q81 68 200 68q90 0 164 -50q65 45 136 45q99 0 163.5 -63t64.5 -162zM498 185q0 76 -51 139q-53 -53 -53 -139q0 -120 53 -120q14 0 34 27q17 34 17 93zM210 137q0 33 -18 58 q-20 29 -51 29q-30 0 -49.5 -27.5t-19.5 -59.5q0 -33 18 -58q20 -29 51 -29q32 0 52 28q17 26 17 59zM1455 0h-518v441h86v-390h432v-51z" />
<glyph unicode="&#xe25a;" horiz-adv-x="2219" d="M637 0h-51v298q0 127 -56 207q-64 91 -186 91q-114 0 -184 -81q-64 -74 -64 -194q0 -147 71 -221q53 -55 121 -55q30 0 47 7q-66 26 -66 116q0 57 36 97.5t93 40.5q67 0 102 -46q28 -36 28 -79q0 -90 -77 -139q-67 -43 -160 -43q-132 0 -209 95q-72 88 -72 223 q0 165 107 260q91 80 209 80q146 0 231 -103q80 -96 80 -245v-309zM451 167q0 31 -17 57q-19 31 -48 31q-30 0 -49 -30q-17 -26 -17 -58q0 -34 16 -59q18 -30 50 -30q30 0 49 31q16 26 16 58zM1259 0h-518v441h86v-390h432v-51zM2047 391h-125v-391h-87v391h-134v-391h-50 v441h396v-50z" />
<glyph unicode="&#xe25b;" horiz-adv-x="2081" d="M548 181q0 -90 -71 -139q-63 -43 -155 -43q-156 0 -235 88q-77 84 -77 242t76 242q80 88 236 88q94 0 156 -43q70 -50 70 -140q0 -41 -29 -78q-37 -47 -102 -47q-57 0 -93 40.5t-36 98.5q0 93 70 114l-27 4q-118 0 -180 -83q-55 -74 -55 -196t55 -196q62 -83 180 -83 q19 0 27 4q-70 20 -70 114q0 57 36 97.5t93 40.5q54 0 92.5 -35.5t38.5 -89.5zM471 491q0 32 -17 58q-19 31 -49 31t-49 -31q-16 -26 -16 -58q0 -33 16 -59q18 -30 49 -30q27 0 50 30q16 28 16 59zM471 167q0 32 -17 58q-19 30 -49 30q-29 0 -47 -28.5t-18 -59.5 q0 -33 16 -59q18 -30 49 -30q27 0 50 30q16 28 16 59zM1179 0h-518v441h86v-390h432v-51zM1933 391h-125v-391h-87v391h-134v-391h-50v441h396v-50z" />
<glyph unicode="&#xe25c;" horiz-adv-x="2459" d="M637 0h-51v298q0 127 -56 207q-64 91 -186 91q-114 0 -184 -81q-64 -74 -64 -194q0 -147 71 -221q53 -55 121 -55q30 0 47 7q-66 26 -66 116q0 57 36 97.5t93 40.5q67 0 102 -46q28 -36 28 -79q0 -90 -77 -139q-67 -43 -160 -43q-132 0 -209 95q-72 88 -72 223 q0 165 107 260q91 80 209 80q146 0 231 -103q80 -96 80 -245v-309zM451 167q0 31 -17 57q-19 31 -48 31q-30 0 -49 -30q-17 -26 -17 -58q0 -34 16 -59q18 -30 50 -30q30 0 49 31q16 26 16 58zM1246 0h-518v441h86v-390h432v-51zM2351 391h-94v-391h-85v391h-129v-391h-85 v198q0 193 -165 193q-61 0 -106 -48q-40 -42 -49 -108l26 23q32 20 70 20q56 0 94 -40t38 -96q0 -62 -34 -103q-36 -44 -97 -44q-62 0 -103 45q-49 54 -49 162q0 91 60 165q66 82 170 82q121 0 182 -79v71h356v-50zM1784 137q0 33 -18 58q-20 29 -51 29q-30 0 -49.5 -27.5 t-19.5 -59.5q0 -33 18 -58q20 -29 51 -29q32 0 52 28q17 26 17 59z" />
<glyph unicode="&#xe260;" horiz-adv-x="1357" d="M679 597q0 -24 -18 -42.5t-42 -18.5q-19 0 -43 18q-17 19 -17 43q0 25 17.5 42.5t42.5 17.5t42.5 -17.5t17.5 -42.5zM1173 390h-82v-390h-86v390h-69q-54 0 -105 -24q78 -75 78 -181q0 -70 -25 -120q-32 -64 -95 -64t-94 64q-24 49 -24 120q0 102 66 174q-63 37 -118 37 q-46 0 -109 -30q79 -73 79 -181q0 -70 -25 -120q-32 -64 -95 -64q-98 0 -117 150q-2 16 -2 34q0 93 66 173q-62 39 -139 39q-76 0 -130 -43t-75 -117q36 41 97 41q57 0 94 -41t37 -98q0 -60 -36 -102t-95 -42q-78 0 -119 63q-34 52 -34 137q0 116 86 188q81 68 200 68 q91 0 165 -50q71 47 157 47q91 0 164 -47q68 40 138 40h247v-51zM826 185q0 77 -51 140q-53 -56 -53 -140q0 -120 53 -120q14 0 34 27q17 34 17 93zM506 185q0 76 -51 139q-53 -53 -53 -139q0 -120 53 -120q14 0 34 27q17 34 17 93zM218 137q0 33 -18 58q-20 29 -51 29 q-30 0 -49.5 -27.5t-19.5 -59.5q0 -33 18 -58q20 -29 51 -29q32 0 52 28q17 26 17 59z" />
<glyph unicode="&#xe261;" horiz-adv-x="1357" d="M1173 390h-82v-390h-86v390h-69q-54 0 -105 -24q78 -75 78 -181q0 -70 -25 -120q-32 -64 -95 -64t-94 64q-24 49 -24 120q0 102 66 174q-63 37 -118 37q-46 0 -109 -30q79 -73 79 -181q0 -70 -25 -120q-32 -64 -95 -64q-98 0 -117 150q-2 16 -2 34q0 93 66 173 q-62 39 -139 39q-76 0 -130 -43t-75 -117q36 41 97 41q57 0 94 -41t37 -98q0 -60 -36 -102t-95 -42q-78 0 -119 63q-34 52 -34 137q0 116 86 188q81 68 200 68q91 0 165 -50q71 47 157 47q91 0 164 -47q68 40 138 40h247v-51zM826 185q0 77 -51 140q-53 -56 -53 -140 q0 -120 53 -120q14 0 34 27q17 34 17 93zM506 185q0 76 -51 139q-53 -53 -53 -139q0 -120 53 -120q14 0 34 27q17 34 17 93zM218 137q0 33 -18 58q-20 29 -51 29q-30 0 -49.5 -27.5t-19.5 -59.5q0 -33 18 -58q20 -29 51 -29q32 0 52 28q17 26 17 59z" />
<glyph unicode="&#xe262;" horiz-adv-x="1931" d="M1200 390h-82v-390h-86v390h-69q-54 0 -105 -24q78 -75 78 -181q0 -70 -25 -120q-32 -64 -95 -64t-94 64q-24 49 -24 120q0 102 66 174q-63 37 -118 37q-46 0 -109 -30q79 -73 79 -181q0 -70 -25 -120q-32 -64 -95 -64q-98 0 -117 150q-2 16 -2 34q0 93 66 173 q-62 39 -139 39q-76 0 -130 -43t-75 -117q36 41 97 41q57 0 94 -41t37 -98q0 -60 -36 -102t-95 -42q-78 0 -119 63q-34 52 -34 137q0 116 86 188q81 68 200 68q91 0 165 -50q71 47 157 47q91 0 164 -47q68 40 138 40h247v-51zM853 185q0 77 -51 140q-53 -56 -53 -140 q0 -120 53 -120q14 0 34 27q17 34 17 93zM533 185q0 76 -51 139q-53 -53 -53 -139q0 -120 53 -120q14 0 34 27q17 34 17 93zM245 137q0 33 -18 58q-20 29 -51 29q-30 0 -49.5 -27.5t-19.5 -59.5q0 -33 18 -58q20 -29 51 -29q32 0 52 28q17 26 17 59zM1778 391h-125v-391h-87 v391h-134v-391h-50v441h396v-50z" />
<glyph unicode="&#xe263;" horiz-adv-x="1511" d="M1275 0h-50v529q0 63 -33 108q-37 50 -98 50q-59 0 -94 -37t-35 -96q0 -86 75 -113h132v-51h-81v-390h-86v390h-69q-54 0 -105 -24q78 -75 78 -181q0 -70 -25 -120q-32 -64 -95 -64t-94 64q-24 49 -24 120q0 102 66 174q-63 37 -118 37q-46 0 -109 -30q79 -73 79 -181 q0 -70 -25 -120q-32 -64 -95 -64q-98 0 -117 150q-2 16 -2 34q0 93 66 173q-62 39 -139 39q-76 0 -130 -43t-75 -117q36 41 97 41q57 0 94 -41t37 -98q0 -60 -36 -102t-95 -42q-78 0 -119 63q-34 52 -34 137q0 116 86 188q81 68 200 68q91 0 165 -50q71 47 157 47 q91 0 164 -47q68 40 138 40h35q-52 44 -52 134q0 81 51.5 136.5t132.5 55.5q87 0 137 -73q45 -65 45 -155v-539zM826 185q0 77 -51 140q-53 -56 -53 -140q0 -120 53 -120q14 0 34 27q17 34 17 93zM506 185q0 76 -51 139q-53 -53 -53 -139q0 -120 53 -120q14 0 34 27 q17 34 17 93zM218 137q0 33 -18 58q-20 29 -51 29q-30 0 -49.5 -27.5t-19.5 -59.5q0 -33 18 -58q20 -29 51 -29q32 0 52 28q17 26 17 59z" />
<glyph unicode="&#xe264;" horiz-adv-x="1369" d="M1233 658q0 -43 -29 -68.5t-73 -25.5q-43 0 -71 19q-32 22 -32 63q0 20 9 35q-38 -6 -58 -43q-17 -31 -17 -73q0 -90 103 -124h107v-51h-81v-390h-86v390h-69q-54 0 -105 -24q78 -75 78 -181q0 -70 -25 -120q-32 -64 -95 -64t-94 64q-24 49 -24 120q0 102 66 174 q-63 37 -118 37q-46 0 -109 -30q79 -73 79 -181q0 -70 -25 -120q-32 -64 -95 -64q-98 0 -117 150q-2 16 -2 34q0 93 66 173q-62 39 -139 39q-76 0 -130 -43t-75 -117q36 41 97 41q57 0 94 -41t37 -98q0 -60 -36 -102t-95 -42q-78 0 -119 63q-34 52 -34 137q0 116 86 188 q81 68 200 68q91 0 165 -50q71 47 157 47q91 0 164 -47q68 40 138 40h49q-66 47 -66 133q0 92 58 146q51 47 127 47q56 0 94 -26q45 -30 45 -83zM1171 646q0 10 -15 28q-15 12 -34 12q-14 0 -35 -12q-8 -7 -14 -28q0 -39 49 -39q40 0 49 39zM826 185q0 77 -51 140 q-53 -56 -53 -140q0 -120 53 -120q14 0 34 27q17 34 17 93zM506 185q0 76 -51 139q-53 -53 -53 -139q0 -120 53 -120q14 0 34 27q17 34 17 93zM218 137q0 33 -18 58q-20 29 -51 29q-30 0 -49.5 -27.5t-19.5 -59.5q0 -33 18 -58q20 -29 51 -29q32 0 52 28q17 26 17 59z" />
<glyph unicode="&#xe265;" horiz-adv-x="1497" d="M1292 -96h-254q-173 -168 -611 -168q-205 0 -335 66q-105 53 -105 123q0 26 26 26h969q74 85 74 208v16q0 91 -43 149q-47 65 -135 65q-42 0 -84 -23q78 -75 78 -181q0 -70 -25 -120q-32 -64 -95 -64t-94 64q-24 49 -24 120q0 102 66 174q-63 37 -118 37q-46 0 -109 -30 q79 -73 79 -181q0 -70 -25 -120q-32 -64 -95 -64q-98 0 -117 150q-2 16 -2 34q0 93 66 173q-62 39 -139 39q-76 0 -130 -43t-75 -117q36 41 97 41q57 0 94 -41t37 -98q0 -60 -36 -102t-95 -42q-78 0 -119 63q-34 52 -34 137q0 116 86 188q81 68 200 68q91 0 165 -50 q71 47 157 47q91 0 164 -47q68 44 134 44q120 0 189 -74q66 -73 66 -194v-21q0 -119 -61 -205h137v490h76v-537zM789 185q0 77 -51 140q-53 -56 -53 -140q0 -120 53 -120q14 0 34 27q17 34 17 93zM469 185q0 76 -51 139q-53 -53 -53 -139q0 -120 53 -120q14 0 34 27 q17 34 17 93zM931 -96l-875 -1l-1 -9q18 -41 112 -75q60 -22 118 -30q69 -10 141 -10q343 0 505 125zM181 137q0 33 -18 58q-20 29 -51 29q-30 0 -49.5 -27.5t-19.5 -59.5q0 -33 18 -58q20 -29 51 -29q32 0 52 28q17 26 17 59z" />
<glyph unicode="&#xe266;" horiz-adv-x="1788" d="M1603 391h-117v-391h-86v391h-134v-487h-228q-173 -168 -611 -168q-205 0 -335 66q-105 53 -105 123q0 26 26 26h969q74 85 74 208v16q0 91 -43 149q-47 65 -135 65q-42 0 -84 -23q78 -75 78 -181q0 -70 -25 -120q-32 -64 -95 -64t-94 64q-24 49 -24 120q0 102 66 174 q-63 37 -118 37q-46 0 -109 -30q79 -73 79 -181q0 -70 -25 -120q-32 -64 -95 -64q-98 0 -117 150q-2 16 -2 34q0 93 66 173q-62 39 -139 39q-76 0 -130 -43t-75 -117q36 41 97 41q57 0 94 -41t37 -98q0 -60 -36 -102t-95 -42q-78 0 -119 63q-34 52 -34 137q0 116 86 188 q81 68 200 68q91 0 165 -50q71 47 157 47q91 0 164 -47q68 44 134 44q120 0 189 -74q66 -73 66 -194v-21q0 -119 -61 -205h137v490h387v-50zM789 185q0 77 -51 140q-53 -56 -53 -140q0 -120 53 -120q14 0 34 27q17 34 17 93zM469 185q0 76 -51 139q-53 -53 -53 -139 q0 -120 53 -120q14 0 34 27q17 34 17 93zM931 -96l-875 -1l-1 -9q18 -41 112 -75q60 -22 118 -30q69 -10 141 -10q343 0 505 125zM181 137q0 33 -18 58q-20 29 -51 29q-30 0 -49.5 -27.5t-19.5 -59.5q0 -33 18 -58q20 -29 51 -29q32 0 52 28q17 26 17 59z" />
<glyph unicode="&#xe267;" horiz-adv-x="2047" d="M637 0h-51v298q0 127 -56 207q-64 91 -186 91q-114 0 -184 -81q-64 -74 -64 -194q0 -147 71 -221q53 -55 121 -55q30 0 47 7q-66 26 -66 116q0 57 36 97.5t93 40.5q67 0 102 -46q28 -36 28 -79q0 -90 -77 -139q-67 -43 -160 -43q-132 0 -209 95q-72 88 -72 223 q0 165 107 260q91 80 209 80q146 0 231 -103q80 -96 80 -245v-309zM451 167q0 31 -17 57q-19 31 -48 31q-30 0 -49 -30q-17 -26 -17 -58q0 -34 16 -59q18 -30 50 -30q30 0 49 31q16 26 16 58zM1914 390h-82v-390h-86v390h-69q-54 0 -105 -24q78 -75 78 -181q0 -70 -25 -120 q-32 -64 -95 -64t-94 64q-24 49 -24 120q0 102 66 174q-63 37 -118 37q-46 0 -109 -30q79 -73 79 -181q0 -70 -25 -120q-32 -64 -95 -64q-98 0 -117 150q-2 16 -2 34q0 93 66 173q-62 39 -139 39q-76 0 -130 -43t-75 -117q36 41 97 41q57 0 94 -41t37 -98q0 -60 -36 -102 t-95 -42q-78 0 -119 63q-34 52 -34 137q0 116 86 188q81 68 200 68q91 0 165 -50q71 47 157 47q91 0 164 -47q68 40 138 40h247v-51zM1567 185q0 77 -51 140q-53 -56 -53 -140q0 -120 53 -120q14 0 34 27q17 34 17 93zM1247 185q0 76 -51 139q-53 -53 -53 -139 q0 -120 53 -120q14 0 34 27q17 34 17 93zM959 137q0 33 -18 58q-20 29 -51 29q-30 0 -49.5 -27.5t-19.5 -59.5q0 -33 18 -58q20 -29 51 -29q32 0 52 28q17 26 17 59z" />
<glyph unicode="&#xe268;" horiz-adv-x="2008" d="M548 181q0 -90 -71 -139q-63 -43 -155 -43q-156 0 -235 88q-77 84 -77 242t76 242q80 88 236 88q94 0 156 -43q70 -50 70 -140q0 -41 -29 -78q-37 -47 -102 -47q-57 0 -93 40.5t-36 98.5q0 93 70 114l-27 4q-118 0 -180 -83q-55 -74 -55 -196t55 -196q62 -83 180 -83 q19 0 27 4q-70 20 -70 114q0 57 36 97.5t93 40.5q54 0 92.5 -35.5t38.5 -89.5zM471 491q0 32 -17 58q-19 31 -49 31t-49 -31q-16 -26 -16 -58q0 -33 16 -59q18 -30 49 -30q27 0 50 30q16 28 16 59zM471 167q0 32 -17 58q-19 30 -49 30q-29 0 -47 -28.5t-18 -59.5 q0 -33 16 -59q18 -30 49 -30q27 0 50 30q16 28 16 59zM1839 390h-82v-390h-86v390h-69q-54 0 -105 -24q78 -75 78 -181q0 -70 -25 -120q-32 -64 -95 -64t-94 64q-24 49 -24 120q0 102 66 174q-63 37 -118 37q-46 0 -109 -30q79 -73 79 -181q0 -70 -25 -120q-32 -64 -95 -64 q-98 0 -117 150q-2 16 -2 34q0 93 66 173q-62 39 -139 39q-76 0 -130 -43t-75 -117q36 41 97 41q57 0 94 -41t37 -98q0 -60 -36 -102t-95 -42q-78 0 -119 63q-34 52 -34 137q0 116 86 188q81 68 200 68q91 0 165 -50q71 47 157 47q91 0 164 -47q68 40 138 40h247v-51z M1492 185q0 77 -51 140q-53 -56 -53 -140q0 -120 53 -120q14 0 34 27q17 34 17 93zM1172 185q0 76 -51 139q-53 -53 -53 -139q0 -120 53 -120q14 0 34 27q17 34 17 93zM884 137q0 33 -18 58q-20 29 -51 29q-30 0 -49.5 -27.5t-19.5 -59.5q0 -33 18 -58q20 -29 51 -29 q32 0 52 28q17 26 17 59z" />
<glyph unicode="&#xe269;" horiz-adv-x="2315" d="M832 221q0 -85 -40 -144q-43 -63 -123 -82l-29 56q107 24 107 174q0 70 -43.5 117.5t-113.5 47.5q-43 0 -78 -23q79 -74 79 -182q0 -70 -25 -120q-32 -64 -95 -64q-98 0 -117 150q-2 16 -2 34q0 93 66 173q-62 39 -139 39q-76 0 -130 -43t-75 -117q36 41 97 41 q57 0 94 -41t37 -98q0 -60 -36 -102t-95 -42q-78 0 -119 63q-34 52 -34 137q0 116 86 188q81 68 200 68q90 0 164 -50q65 45 136 45q99 0 163.5 -63t64.5 -162zM508 185q0 76 -51 139q-53 -53 -53 -139q0 -120 53 -120q14 0 34 27q17 34 17 93zM220 137q0 33 -18 58 q-20 29 -51 29q-30 0 -49.5 -27.5t-19.5 -59.5q0 -33 18 -58q20 -29 51 -29q32 0 52 28q17 26 17 59zM2135 390h-82v-390h-86v390h-69q-54 0 -105 -24q78 -75 78 -181q0 -70 -25 -120q-32 -64 -95 -64t-94 64q-24 49 -24 120q0 102 66 174q-63 37 -118 37q-46 0 -109 -30 q79 -73 79 -181q0 -70 -25 -120q-32 -64 -95 -64q-98 0 -117 150q-2 16 -2 34q0 93 66 173q-62 39 -139 39q-76 0 -130 -43t-75 -117q36 41 97 41q57 0 94 -41t37 -98q0 -60 -36 -102t-95 -42q-78 0 -119 63q-34 52 -34 137q0 116 86 188q81 68 200 68q91 0 165 -50 q71 47 157 47q91 0 164 -47q68 40 138 40h247v-51zM1788 185q0 77 -51 140q-53 -56 -53 -140q0 -120 53 -120q14 0 34 27q17 34 17 93zM1468 185q0 76 -51 139q-53 -53 -53 -139q0 -120 53 -120q14 0 34 27q17 34 17 93zM1180 137q0 33 -18 58q-20 29 -51 29 q-30 0 -49.5 -27.5t-19.5 -59.5q0 -33 18 -58q20 -29 51 -29q32 0 52 28q17 26 17 59z" />
<glyph unicode="&#xe26a;" horiz-adv-x="2669" d="M637 0h-51v298q0 127 -56 207q-64 91 -186 91q-114 0 -184 -81q-64 -74 -64 -194q0 -147 71 -221q53 -55 121 -55q30 0 47 7q-66 26 -66 116q0 57 36 97.5t93 40.5q67 0 102 -46q28 -36 28 -79q0 -90 -77 -139q-67 -43 -160 -43q-132 0 -209 95q-72 88 -72 223 q0 165 107 260q91 80 209 80q146 0 231 -103q80 -96 80 -245v-309zM451 167q0 31 -17 57q-19 31 -48 31q-30 0 -49 -30q-17 -26 -17 -58q0 -34 16 -59q18 -30 50 -30q30 0 49 31q16 26 16 58zM1899 390h-82v-390h-86v390h-69q-54 0 -105 -24q78 -75 78 -181q0 -70 -25 -120 q-32 -64 -95 -64t-94 64q-24 49 -24 120q0 102 66 174q-63 37 -118 37q-46 0 -109 -30q79 -73 79 -181q0 -70 -25 -120q-32 -64 -95 -64q-98 0 -117 150q-2 16 -2 34q0 93 66 173q-62 39 -139 39q-76 0 -130 -43t-75 -117q36 41 97 41q57 0 94 -41t37 -98q0 -60 -36 -102 t-95 -42q-78 0 -119 63q-34 52 -34 137q0 116 86 188q81 68 200 68q91 0 165 -50q71 47 157 47q91 0 164 -47q68 40 138 40h247v-51zM1552 185q0 77 -51 140q-53 -56 -53 -140q0 -120 53 -120q14 0 34 27q17 34 17 93zM1232 185q0 76 -51 139q-53 -53 -53 -139 q0 -120 53 -120q14 0 34 27q17 34 17 93zM944 137q0 33 -18 58q-20 29 -51 29q-30 0 -49.5 -27.5t-19.5 -59.5q0 -33 18 -58q20 -29 51 -29q32 0 52 28q17 26 17 59zM2467 391h-125v-391h-87v391h-134v-391h-50v441h396v-50z" />
<glyph unicode="&#xe26b;" horiz-adv-x="2565" d="M548 181q0 -90 -71 -139q-63 -43 -155 -43q-156 0 -235 88q-77 84 -77 242t76 242q80 88 236 88q94 0 156 -43q70 -50 70 -140q0 -41 -29 -78q-37 -47 -102 -47q-57 0 -93 40.5t-36 98.5q0 93 70 114l-27 4q-118 0 -180 -83q-55 -74 -55 -196t55 -196q62 -83 180 -83 q19 0 27 4q-70 20 -70 114q0 57 36 97.5t93 40.5q54 0 92.5 -35.5t38.5 -89.5zM471 491q0 32 -17 58q-19 31 -49 31t-49 -31q-16 -26 -16 -58q0 -33 16 -59q18 -30 49 -30q27 0 50 30q16 28 16 59zM471 167q0 32 -17 58q-19 30 -49 30q-29 0 -47 -28.5t-18 -59.5 q0 -33 16 -59q18 -30 49 -30q27 0 50 30q16 28 16 59zM1823 390h-82v-390h-86v390h-69q-54 0 -105 -24q78 -75 78 -181q0 -70 -25 -120q-32 -64 -95 -64t-94 64q-24 49 -24 120q0 102 66 174q-63 37 -118 37q-46 0 -109 -30q79 -73 79 -181q0 -70 -25 -120q-32 -64 -95 -64 q-98 0 -117 150q-2 16 -2 34q0 93 66 173q-62 39 -139 39q-76 0 -130 -43t-75 -117q36 41 97 41q57 0 94 -41t37 -98q0 -60 -36 -102t-95 -42q-78 0 -119 63q-34 52 -34 137q0 116 86 188q81 68 200 68q91 0 165 -50q71 47 157 47q91 0 164 -47q68 40 138 40h247v-51z M1476 185q0 77 -51 140q-53 -56 -53 -140q0 -120 53 -120q14 0 34 27q17 34 17 93zM1156 185q0 76 -51 139q-53 -53 -53 -139q0 -120 53 -120q14 0 34 27q17 34 17 93zM868 137q0 33 -18 58q-20 29 -51 29q-30 0 -49.5 -27.5t-19.5 -59.5q0 -33 18 -58q20 -29 51 -29 q32 0 52 28q17 26 17 59zM2407 391h-125v-391h-87v391h-134v-391h-50v441h396v-50z" />
<glyph unicode="&#xe26c;" horiz-adv-x="2942" d="M637 0h-51v298q0 127 -56 207q-64 91 -186 91q-114 0 -184 -81q-64 -74 -64 -194q0 -147 71 -221q53 -55 121 -55q30 0 47 7q-66 26 -66 116q0 57 36 97.5t93 40.5q67 0 102 -46q28 -36 28 -79q0 -90 -77 -139q-67 -43 -160 -43q-132 0 -209 95q-72 88 -72 223 q0 165 107 260q91 80 209 80q146 0 231 -103q80 -96 80 -245v-309zM451 167q0 31 -17 57q-19 31 -48 31q-30 0 -49 -30q-17 -26 -17 -58q0 -34 16 -59q18 -30 50 -30q30 0 49 31q16 26 16 58zM1911 390h-82v-390h-86v390h-69q-54 0 -105 -24q78 -75 78 -181q0 -70 -25 -120 q-32 -64 -95 -64t-94 64q-24 49 -24 120q0 102 66 174q-63 37 -118 37q-46 0 -109 -30q79 -73 79 -181q0 -70 -25 -120q-32 -64 -95 -64q-98 0 -117 150q-2 16 -2 34q0 93 66 173q-62 39 -139 39q-76 0 -130 -43t-75 -117q36 41 97 41q57 0 94 -41t37 -98q0 -60 -36 -102 t-95 -42q-78 0 -119 63q-34 52 -34 137q0 116 86 188q81 68 200 68q91 0 165 -50q71 47 157 47q91 0 164 -47q68 40 138 40h247v-51zM1564 185q0 77 -51 140q-53 -56 -53 -140q0 -120 53 -120q14 0 34 27q17 34 17 93zM1244 185q0 76 -51 139q-53 -53 -53 -139 q0 -120 53 -120q14 0 34 27q17 34 17 93zM956 137q0 33 -18 58q-20 29 -51 29q-30 0 -49.5 -27.5t-19.5 -59.5q0 -33 18 -58q20 -29 51 -29q32 0 52 28q17 26 17 59zM2841 391h-94v-391h-85v391h-129v-391h-85v198q0 193 -165 193q-61 0 -106 -48q-40 -42 -49 -108l26 23 q32 20 70 20q56 0 94 -40t38 -96q0 -62 -34 -103q-36 -44 -97 -44q-62 0 -103 45q-49 54 -49 162q0 91 60 165q66 82 170 82q121 0 182 -79v71h356v-50zM2274 137q0 33 -18 58q-20 29 -51 29q-30 0 -49.5 -27.5t-19.5 -59.5q0 -33 18 -58q20 -29 51 -29q32 0 52 28 q17 26 17 59z" />
<glyph unicode="&#xe270;" horiz-adv-x="671" d="M358 597q0 -24 -18 -42.5t-42 -18.5q-19 0 -43 18q-17 19 -17 43q0 25 17.5 42.5t42.5 17.5t42.5 -17.5t17.5 -42.5zM563 96q0 -100 -80 -152q-50 -33 -114 -37l-47 -3h-194q-85 0 -85 -47q0 -29 34 -29q20 0 34 -12.5t14 -32.5q0 -19 -14.5 -33t-33.5 -14 q-43 0 -67 28.5t-24 72.5q0 58 48 89q38 25 102 25h185q71 0 113.5 38t42.5 108q0 118 -106 118h-34v-63q0 -76 -61 -117q-52 -35 -132 -35q-63 0 -108 36q-49 39 -49 101q0 99 91 124v180h414v-50h-155v-125h43q85 0 134 -43t49 -127zM251 266v125h-123v-125h123zM251 167 v48h-131q-82 0 -82 -80q0 -36 29 -59t66 -23q52 0 85 31t33 83z" />
<glyph unicode="&#xe271;" horiz-adv-x="671" d="M563 96q0 -100 -80 -152q-50 -33 -114 -37l-47 -3h-194q-85 0 -85 -47q0 -29 34 -29q20 0 34 -12.5t14 -32.5q0 -19 -14.5 -33t-33.5 -14q-43 0 -67 28.5t-24 72.5q0 58 48 89q38 25 102 25h185q71 0 113.5 38t42.5 108q0 118 -106 118h-34v-63q0 -76 -61 -117 q-52 -35 -132 -35q-63 0 -108 36q-49 39 -49 101q0 99 91 124v180h414v-50h-155v-125h43q85 0 134 -43t49 -127zM251 266v125h-123v-125h123zM251 167v48h-131q-82 0 -82 -80q0 -36 29 -59t66 -23q52 0 85 31t33 83z" />
<glyph unicode="&#xe272;" horiz-adv-x="1225" d="M539 96q0 -100 -80 -152q-50 -33 -114 -37l-47 -3h-194q-85 0 -85 -47q0 -29 34 -29q20 0 34 -12.5t14 -32.5q0 -19 -14.5 -33t-33.5 -14q-43 0 -67 28.5t-24 72.5q0 58 48 89q38 25 102 25h185q71 0 113.5 38t42.5 108q0 118 -106 118h-34v-63q0 -76 -61 -117 q-52 -35 -132 -35q-63 0 -108 36q-49 39 -49 101q0 99 91 124v180h414v-50h-155v-125h43q85 0 134 -43t49 -127zM227 266v125h-123v-125h123zM227 167v48h-131q-82 0 -82 -80q0 -36 29 -59t66 -23q52 0 85 31t33 83zM1021 391h-125v-391h-87v391h-134v-391h-50v441h396v-50z " />
<glyph unicode="&#xe273;" horiz-adv-x="827" d="M687 0h-50v529q0 69 -39 113.5t-107 44.5q-59 0 -94.5 -37t-35.5 -96q0 -86 76 -113h55v-50h-155v-125h43q85 0 134 -43t49 -127q0 -100 -80 -152q-50 -33 -114 -37l-47 -3h-194q-85 0 -85 -47q0 -29 34 -29q20 0 34 -12.5t14 -32.5q0 -19 -14.5 -33t-33.5 -14 q-43 0 -67 28.5t-24 72.5q0 58 48 89q38 25 102 25h185q71 0 113.5 38t42.5 108q0 118 -106 118h-34v-63q0 -76 -61 -117q-52 -35 -132 -35q-63 0 -108 36q-49 39 -49 101q0 99 91 124v180h280q-52 44 -52 134q0 82 53 137t135 55q92 0 145 -70q48 -63 48 -158v-539z M251 266v125h-123v-125h123zM251 167v48h-131q-82 0 -82 -80q0 -36 29 -59t66 -23q52 0 85 31t33 83z" />
<glyph unicode="&#xe274;" horiz-adv-x="671" d="M578 658q0 -43 -29 -68.5t-73 -25.5q-43 0 -71 19q-32 22 -32 63q0 20 9 35q-38 -6 -58 -43q-17 -31 -17 -73q0 -90 103 -124h82v-50h-155v-125h43q85 0 134 -43t49 -127q0 -100 -80 -152q-50 -33 -114 -37l-47 -3h-194q-85 0 -85 -47q0 -29 34 -29q20 0 34 -12.5 t14 -32.5q0 -19 -14.5 -33t-33.5 -14q-43 0 -67 28.5t-24 72.5q0 58 48 89q38 25 102 25h185q71 0 113.5 38t42.5 108q0 118 -106 118h-34v-63q0 -76 -61 -117q-52 -35 -132 -35q-63 0 -108 36q-49 39 -49 101q0 99 91 124v180h242q-66 47 -66 133q0 92 58 146q51 47 127 47 q56 0 94 -26q45 -30 45 -83zM516 646q0 10 -15 28q-15 12 -34 12q-14 0 -35 -12q-8 -7 -14 -28q0 -39 49 -39q40 0 49 39zM251 266v125h-123v-125h123zM251 167v48h-131q-82 0 -82 -80q0 -36 29 -59t66 -23q52 0 85 31t33 83z" />
<glyph unicode="&#xe275;" horiz-adv-x="859" d="M604 -96h-201q-90 -153 -318 -153q-80 0 -154 37q-89 44 -89 117q0 46 49 46h452q16 67 16 115q0 149 -118 149h-22v-63q0 -76 -61 -117q-52 -35 -132 -35q-63 0 -108 36q-49 39 -49 101q0 99 91 124v180h414v-50h-155v-125h43q82 0 134 -60q49 -58 49 -141 q0 -61 -19 -114h102v490h76v-537zM132 266v125h-122v-125h122zM132 167v48h-131q-81 0 -81 -80q0 -36 29 -59t66 -23q53 0 85 30.5t32 83.5zM322 -96h-388q-36 0 -36 -22q0 -39 76 -67q57 -21 109 -21q174 0 239 110z" />
<glyph unicode="&#xe276;" horiz-adv-x="1158" d="M939 391h-135v-391h-86v391h-134v-487h-175q-90 -153 -318 -153q-80 0 -154 37q-89 44 -89 117q0 46 49 46h452q16 67 16 115q0 149 -118 149h-22v-63q0 -76 -61 -117q-52 -35 -132 -35q-63 0 -108 36q-49 39 -49 101q0 99 91 124v180h414v-50h-155v-125h43q82 0 134 -60 q49 -58 49 -141q0 -61 -19 -114h102v490h405v-50zM138 266v125h-122v-125h122zM138 167v48h-131q-81 0 -81 -80q0 -36 29 -59t66 -23q53 0 85 30.5t32 83.5zM328 -96h-388q-36 0 -36 -22q0 -39 76 -67q57 -21 109 -21q174 0 239 110z" />
<glyph unicode="&#xe277;" horiz-adv-x="1375" d="M637 0h-51v298q0 127 -56 207q-64 91 -186 91q-114 0 -184 -81q-64 -74 -64 -194q0 -147 71 -221q53 -55 121 -55q30 0 47 7q-66 26 -66 116q0 57 36 97.5t93 40.5q67 0 102 -46q28 -36 28 -79q0 -90 -77 -139q-67 -43 -160 -43q-132 0 -209 95q-72 88 -72 223 q0 165 107 260q91 80 209 80q146 0 231 -103q80 -96 80 -245v-309zM451 167q0 31 -17 57q-19 31 -48 31q-30 0 -49 -30q-17 -26 -17 -58q0 -34 16 -59q18 -30 50 -30q30 0 49 31q16 26 16 58zM1320 96q0 -100 -80 -152q-50 -33 -114 -37l-47 -3h-194q-85 0 -85 -47 q0 -29 34 -29q20 0 34 -12.5t14 -32.5q0 -19 -14.5 -33t-33.5 -14q-43 0 -67 28.5t-24 72.5q0 58 48 89q38 25 102 25h185q71 0 113.5 38t42.5 108q0 118 -106 118h-34v-63q0 -76 -61 -117q-52 -35 -132 -35q-63 0 -108 36q-49 39 -49 101q0 99 91 124v180h414v-50h-155 v-125h43q85 0 134 -43t49 -127zM1008 266v125h-123v-125h123zM1008 167v48h-131q-82 0 -82 -80q0 -36 29 -59t66 -23q52 0 85 31t33 83z" />
<glyph unicode="&#xe278;" horiz-adv-x="1304" d="M548 181q0 -90 -71 -139q-63 -43 -155 -43q-156 0 -235 88q-77 84 -77 242t76 242q80 88 236 88q94 0 156 -43q70 -50 70 -140q0 -41 -29 -78q-37 -47 -102 -47q-57 0 -93 40.5t-36 98.5q0 93 70 114l-27 4q-118 0 -180 -83q-55 -74 -55 -196t55 -196q62 -83 180 -83 q19 0 27 4q-70 20 -70 114q0 57 36 97.5t93 40.5q54 0 92.5 -35.5t38.5 -89.5zM471 491q0 32 -17 58q-19 31 -49 31t-49 -31q-16 -26 -16 -58q0 -33 16 -59q18 -30 49 -30q27 0 50 30q16 28 16 59zM471 167q0 32 -17 58q-19 30 -49 30q-29 0 -47 -28.5t-18 -59.5 q0 -33 16 -59q18 -30 49 -30q27 0 50 30q16 28 16 59zM1240 96q0 -100 -80 -152q-50 -33 -114 -37l-47 -3h-194q-85 0 -85 -47q0 -29 34 -29q20 0 34 -12.5t14 -32.5q0 -19 -14.5 -33t-33.5 -14q-43 0 -67 28.5t-24 72.5q0 58 48 89q38 25 102 25h185q71 0 113.5 38 t42.5 108q0 118 -106 118h-34v-63q0 -76 -61 -117q-52 -35 -132 -35q-63 0 -108 36q-49 39 -49 101q0 99 91 124v180h414v-50h-155v-125h43q85 0 134 -43t49 -127zM928 266v125h-123v-125h123zM928 167v48h-131q-82 0 -82 -80q0 -36 29 -59t66 -23q52 0 85 31t33 83z" />
<glyph unicode="&#xe279;" horiz-adv-x="1625" d="M832 221q0 -85 -40 -144q-43 -63 -123 -82l-29 56q107 24 107 174q0 70 -43.5 117.5t-113.5 47.5q-43 0 -78 -23q79 -74 79 -182q0 -70 -25 -120q-32 -64 -95 -64q-98 0 -117 150q-2 16 -2 34q0 93 66 173q-62 39 -139 39q-76 0 -130 -43t-75 -117q36 41 97 41 q57 0 94 -41t37 -98q0 -60 -36 -102t-95 -42q-78 0 -119 63q-34 52 -34 137q0 116 86 188q81 68 200 68q90 0 164 -50q65 45 136 45q99 0 163.5 -63t64.5 -162zM508 185q0 76 -51 139q-53 -53 -53 -139q0 -120 53 -120q14 0 34 27q17 34 17 93zM220 137q0 33 -18 58 q-20 29 -51 29q-30 0 -49.5 -27.5t-19.5 -59.5q0 -33 18 -58q20 -29 51 -29q32 0 52 28q17 26 17 59zM1546 96q0 -100 -80 -152q-50 -33 -114 -37l-47 -3h-194q-85 0 -85 -47q0 -29 34 -29q20 0 34 -12.5t14 -32.5q0 -19 -14.5 -33t-33.5 -14q-43 0 -67 28.5t-24 72.5 q0 58 48 89q38 25 102 25h185q71 0 113.5 38t42.5 108q0 118 -106 118h-34v-63q0 -76 -61 -117q-52 -35 -132 -35q-63 0 -108 36q-49 39 -49 101q0 99 91 124v180h414v-50h-155v-125h43q85 0 134 -43t49 -127zM1234 266v125h-123v-125h123zM1234 167v48h-131q-82 0 -82 -80 q0 -36 29 -59t66 -23q52 0 85 31t33 83z" />
<glyph unicode="&#xe27a;" horiz-adv-x="1954" d="M637 0h-51v298q0 127 -56 207q-64 91 -186 91q-114 0 -184 -81q-64 -74 -64 -194q0 -147 71 -221q53 -55 121 -55q30 0 47 7q-66 26 -66 116q0 57 36 97.5t93 40.5q67 0 102 -46q28 -36 28 -79q0 -90 -77 -139q-67 -43 -160 -43q-132 0 -209 95q-72 88 -72 223 q0 165 107 260q91 80 209 80q146 0 231 -103q80 -96 80 -245v-309zM451 167q0 31 -17 57q-19 31 -48 31q-30 0 -49 -30q-17 -26 -17 -58q0 -34 16 -59q18 -30 50 -30q30 0 49 31q16 26 16 58zM1290 96q0 -100 -80 -152q-50 -33 -114 -37l-47 -3h-194q-85 0 -85 -47 q0 -29 34 -29q20 0 34 -12.5t14 -32.5q0 -19 -14.5 -33t-33.5 -14q-43 0 -67 28.5t-24 72.5q0 58 48 89q38 25 102 25h185q71 0 113.5 38t42.5 108q0 118 -106 118h-34v-63q0 -76 -61 -117q-52 -35 -132 -35q-63 0 -108 36q-49 39 -49 101q0 99 91 124v180h414v-50h-155 v-125h43q85 0 134 -43t49 -127zM978 266v125h-123v-125h123zM978 167v48h-131q-82 0 -82 -80q0 -36 29 -59t66 -23q52 0 85 31t33 83zM1777 391h-125v-391h-87v391h-134v-391h-50v441h396v-50z" />
<glyph unicode="&#xe27b;" horiz-adv-x="1870" d="M548 181q0 -90 -71 -139q-63 -43 -155 -43q-156 0 -235 88q-77 84 -77 242t76 242q80 88 236 88q94 0 156 -43q70 -50 70 -140q0 -41 -29 -78q-37 -47 -102 -47q-57 0 -93 40.5t-36 98.5q0 93 70 114l-27 4q-118 0 -180 -83q-55 -74 -55 -196t55 -196q62 -83 180 -83 q19 0 27 4q-70 20 -70 114q0 57 36 97.5t93 40.5q54 0 92.5 -35.5t38.5 -89.5zM471 491q0 32 -17 58q-19 31 -49 31t-49 -31q-16 -26 -16 -58q0 -33 16 -59q18 -30 49 -30q27 0 50 30q16 28 16 59zM471 167q0 32 -17 58q-19 30 -49 30q-29 0 -47 -28.5t-18 -59.5 q0 -33 16 -59q18 -30 49 -30q27 0 50 30q16 28 16 59zM1230 96q0 -100 -80 -152q-50 -33 -114 -37l-47 -3h-194q-85 0 -85 -47q0 -29 34 -29q20 0 34 -12.5t14 -32.5q0 -19 -14.5 -33t-33.5 -14q-43 0 -67 28.5t-24 72.5q0 58 48 89q38 25 102 25h185q71 0 113.5 38 t42.5 108q0 118 -106 118h-34v-63q0 -76 -61 -117q-52 -35 -132 -35q-63 0 -108 36q-49 39 -49 101q0 99 91 124v180h414v-50h-155v-125h43q85 0 134 -43t49 -127zM918 266v125h-123v-125h123zM918 167v48h-131q-82 0 -82 -80q0 -36 29 -59t66 -23q52 0 85 31t33 83z M1707 391h-125v-391h-87v391h-134v-391h-50v441h396v-50z" />
<glyph unicode="&#xe27c;" horiz-adv-x="2287" d="M637 0h-51v298q0 127 -56 207q-64 91 -186 91q-114 0 -184 -81q-64 -74 -64 -194q0 -147 71 -221q53 -55 121 -55q30 0 47 7q-66 26 -66 116q0 57 36 97.5t93 40.5q67 0 102 -46q28 -36 28 -79q0 -90 -77 -139q-67 -43 -160 -43q-132 0 -209 95q-72 88 -72 223 q0 165 107 260q91 80 209 80q146 0 231 -103q80 -96 80 -245v-309zM451 167q0 31 -17 57q-19 31 -48 31q-30 0 -49 -30q-17 -26 -17 -58q0 -34 16 -59q18 -30 50 -30q30 0 49 31q16 26 16 58zM1300 96q0 -100 -80 -152q-50 -33 -114 -37l-47 -3h-194q-85 0 -85 -47 q0 -29 34 -29q20 0 34 -12.5t14 -32.5q0 -19 -14.5 -33t-33.5 -14q-43 0 -67 28.5t-24 72.5q0 58 48 89q38 25 102 25h185q71 0 113.5 38t42.5 108q0 118 -106 118h-34v-63q0 -76 -61 -117q-52 -35 -132 -35q-63 0 -108 36q-49 39 -49 101q0 99 91 124v180h414v-50h-155 v-125h43q85 0 134 -43t49 -127zM988 266v125h-123v-125h123zM988 167v48h-131q-82 0 -82 -80q0 -36 29 -59t66 -23q52 0 85 31t33 83zM2151 391h-94v-391h-85v391h-129v-391h-85v198q0 193 -165 193q-61 0 -106 -48q-40 -42 -49 -108l26 23q32 20 70 20q56 0 94 -40t38 -96 q0 -62 -34 -103q-36 -44 -97 -44q-62 0 -103 45q-49 54 -49 162q0 91 60 165q66 82 170 82q121 0 182 -79v71h356v-50zM1584 137q0 33 -18 58q-20 29 -51 29q-30 0 -49.5 -27.5t-19.5 -59.5q0 -33 18 -58q20 -29 51 -29q32 0 52 28q17 26 17 59z" />
<glyph unicode="&#xe280;" horiz-adv-x="573" d="M323 597q0 -24 -18 -42.5t-42 -18.5q-19 0 -43 18q-17 19 -17 43q0 25 17.5 42.5t42.5 17.5t42.5 -17.5t17.5 -42.5zM530 96q0 -99 -80 -152q-61 -40 -160 -40h-174q-86 0 -86 -47q0 -29 34 -29q19 0 34 -13t15 -32q0 -20 -14.5 -33.5t-34.5 -13.5q-43 0 -67 28.5 t-24 72.5q0 58 48 89q38 25 103 25h164q114 0 147 87q10 27 10 59q0 115 -95 115q-70 0 -70 -69v-143h-87v391h-134v-391h-50v441h438v-50h-167v-158q25 37 100 37t114 -51q36 -46 36 -123z" />
<glyph unicode="&#xe281;" horiz-adv-x="563" d="M530 96q0 -99 -80 -152q-61 -40 -160 -40h-174q-86 0 -86 -47q0 -29 34 -29q19 0 34 -13t15 -32q0 -20 -14.5 -33.5t-34.5 -13.5q-43 0 -67 28.5t-24 72.5q0 58 48 89q38 25 103 25h164q114 0 147 87q10 27 10 59q0 115 -95 115q-70 0 -70 -69v-143h-87v391h-134v-391 h-50v441h438v-50h-167v-158q25 37 100 37t114 -51q36 -46 36 -123z" />
<glyph unicode="&#xe282;" horiz-adv-x="1139" d="M534 96q0 -99 -80 -152q-61 -40 -160 -40h-174q-86 0 -86 -47q0 -29 34 -29q19 0 34 -13t15 -32q0 -20 -14.5 -33.5t-34.5 -13.5q-43 0 -67 28.5t-24 72.5q0 58 48 89q38 25 103 25h164q114 0 147 87q10 27 10 59q0 115 -95 115q-70 0 -70 -69v-143h-87v391h-134v-391 h-50v441h438v-50h-167v-158q25 37 100 37t114 -51q36 -46 36 -123zM949 391h-125v-391h-87v391h-134v-391h-50v441h396v-50z" />
<glyph unicode="&#xe283;" horiz-adv-x="716" d="M647 0h-50v529q0 67 -38 112q-41 46 -107 46q-59 0 -94.5 -37t-35.5 -96q0 -86 75 -113h26v-50h-143v-158q25 37 100 37t114 -51q36 -46 36 -123q0 -99 -80 -152q-61 -40 -160 -40h-174q-86 0 -86 -47q0 -29 34 -29q19 0 34 -13t15 -32q0 -20 -14.5 -33.5t-34.5 -13.5 q-43 0 -67 28.5t-24 72.5q0 58 48 89q38 25 103 25h164q114 0 147 87q10 27 10 59q0 115 -95 115q-70 0 -70 -69v-143h-87v391h-134v-391h-50v441h310q-52 44 -52 134q0 82 53 137t135 55q92 0 144 -70q48 -63 48 -158v-539z" />
<glyph unicode="&#xe284;" horiz-adv-x="573" d="M543 658q0 -43 -29 -68.5t-73 -25.5q-43 0 -71 19q-32 22 -32 63q0 20 9 35q-38 -6 -58 -43q-17 -31 -17 -73q0 -93 104 -124h71v-50h-167v-158q25 37 100 37t114 -51q36 -46 36 -123q0 -99 -80 -152q-61 -40 -160 -40h-174q-86 0 -86 -47q0 -29 34 -29q19 0 34 -13 t15 -32q0 -20 -14.5 -33.5t-34.5 -13.5q-43 0 -67 28.5t-24 72.5q0 58 48 89q38 25 103 25h164q114 0 147 87q10 27 10 59q0 115 -95 115q-70 0 -70 -69v-143h-87v391h-134v-391h-50v441h276q-66 47 -66 133q0 92 58 146q51 47 127 47q56 0 94 -26q45 -30 45 -83zM481 646 q0 10 -15 28q-15 12 -34 12q-14 0 -35 -12q-8 -7 -14 -28q0 -39 49 -39q40 0 49 39z" />
<glyph unicode="&#xe285;" horiz-adv-x="782" d="M585 -96h-201q-89 -153 -318 -153q-80 0 -153 37q-89 45 -89 117q0 46 48 46h452q16 70 16 123q0 138 -92 138q-73 0 -73 -85v-127h-86v391h-134v-391h-50v441h428v-50h-158v-158q28 37 100 37q77 0 117 -63q34 -53 34 -134q0 -74 -20 -122h103v490h76v-537zM302 -96 h-387q-35 0 -35 -22q0 -39 76 -67q57 -21 109 -21q175 0 237 110z" />
<glyph unicode="&#xe286;" horiz-adv-x="1081" d="M926 391h-131v-391h-86v391h-134v-487h-179q-89 -153 -318 -153q-80 0 -153 37q-89 45 -89 117q0 46 48 46h452q16 70 16 123q0 138 -92 138q-73 0 -73 -85v-127h-86v391h-134v-391h-50v441h428v-50h-158v-158q28 37 100 37q77 0 117 -63q34 -53 34 -134q0 -74 -20 -122 h107v490h401v-50zM314 -96h-387q-35 0 -35 -22q0 -39 76 -67q57 -21 109 -21q175 0 237 110z" />
<glyph unicode="&#xe287;" horiz-adv-x="1316" d="M637 0h-51v298q0 127 -56 207q-64 91 -186 91q-114 0 -184 -81q-64 -74 -64 -194q0 -147 71 -221q53 -55 121 -55q30 0 47 7q-66 26 -66 116q0 57 36 97.5t93 40.5q67 0 102 -46q28 -36 28 -79q0 -90 -77 -139q-67 -43 -160 -43q-132 0 -209 95q-72 88 -72 223 q0 165 107 260q91 80 209 80q146 0 231 -103q80 -96 80 -245v-309zM451 167q0 31 -17 57q-19 31 -48 31q-30 0 -49 -30q-17 -26 -17 -58q0 -34 16 -59q18 -30 50 -30q30 0 49 31q16 26 16 58zM1342 96q0 -99 -80 -152q-61 -40 -160 -40h-174q-86 0 -86 -47q0 -29 34 -29 q19 0 34 -13t15 -32q0 -20 -14.5 -33.5t-34.5 -13.5q-43 0 -67 28.5t-24 72.5q0 58 48 89q38 25 103 25h164q114 0 147 87q10 27 10 59q0 115 -95 115q-70 0 -70 -69v-143h-87v391h-134v-391h-50v441h438v-50h-167v-158q25 37 100 37t114 -51q36 -46 36 -123z" />
<glyph unicode="&#xe288;" horiz-adv-x="1195" d="M548 181q0 -90 -71 -139q-63 -43 -155 -43q-156 0 -235 88q-77 84 -77 242t76 242q80 88 236 88q94 0 156 -43q70 -50 70 -140q0 -41 -29 -78q-37 -47 -102 -47q-57 0 -93 40.5t-36 98.5q0 93 70 114l-27 4q-118 0 -180 -83q-55 -74 -55 -196t55 -196q62 -83 180 -83 q19 0 27 4q-70 20 -70 114q0 57 36 97.5t93 40.5q54 0 92.5 -35.5t38.5 -89.5zM471 491q0 32 -17 58q-19 31 -49 31t-49 -31q-16 -26 -16 -58q0 -33 16 -59q18 -30 49 -30q27 0 50 30q16 28 16 59zM471 167q0 32 -17 58q-19 30 -49 30q-29 0 -47 -28.5t-18 -59.5 q0 -33 16 -59q18 -30 49 -30q27 0 50 30q16 28 16 59zM1202 96q0 -99 -80 -152q-61 -40 -160 -40h-174q-86 0 -86 -47q0 -29 34 -29q19 0 34 -13t15 -32q0 -20 -14.5 -33.5t-34.5 -13.5q-43 0 -67 28.5t-24 72.5q0 58 48 89q38 25 103 25h164q114 0 147 87q10 27 10 59 q0 115 -95 115q-70 0 -70 -69v-143h-87v391h-134v-391h-50v441h438v-50h-167v-158q25 37 100 37t114 -51q36 -46 36 -123z" />
<glyph unicode="&#xe289;" horiz-adv-x="1528" d="M832 221q0 -85 -40 -144q-43 -63 -123 -82l-29 56q107 24 107 174q0 70 -43.5 117.5t-113.5 47.5q-43 0 -78 -23q79 -74 79 -182q0 -70 -25 -120q-32 -64 -95 -64q-98 0 -117 150q-2 16 -2 34q0 93 66 173q-62 39 -139 39q-76 0 -130 -43t-75 -117q36 41 97 41 q57 0 94 -41t37 -98q0 -60 -36 -102t-95 -42q-78 0 -119 63q-34 52 -34 137q0 116 86 188q81 68 200 68q90 0 164 -50q65 45 136 45q99 0 163.5 -63t64.5 -162zM508 185q0 76 -51 139q-53 -53 -53 -139q0 -120 53 -120q14 0 34 27q17 34 17 93zM220 137q0 33 -18 58 q-20 29 -51 29q-30 0 -49.5 -27.5t-19.5 -59.5q0 -33 18 -58q20 -29 51 -29q32 0 52 28q17 26 17 59zM1518 96q0 -99 -80 -152q-61 -40 -160 -40h-174q-86 0 -86 -47q0 -29 34 -29q19 0 34 -13t15 -32q0 -20 -14.5 -33.5t-34.5 -13.5q-43 0 -67 28.5t-24 72.5q0 58 48 89 q38 25 103 25h164q114 0 147 87q10 27 10 59q0 115 -95 115q-70 0 -70 -69v-143h-87v391h-134v-391h-50v441h438v-50h-167v-158q25 37 100 37t114 -51q36 -46 36 -123z" />
<glyph unicode="&#xe28a;" horiz-adv-x="1836" d="M637 0h-51v298q0 127 -56 207q-64 91 -186 91q-114 0 -184 -81q-64 -74 -64 -194q0 -147 71 -221q53 -55 121 -55q30 0 47 7q-66 26 -66 116q0 57 36 97.5t93 40.5q67 0 102 -46q28 -36 28 -79q0 -90 -77 -139q-67 -43 -160 -43q-132 0 -209 95q-72 88 -72 223 q0 165 107 260q91 80 209 80q146 0 231 -103q80 -96 80 -245v-309zM451 167q0 31 -17 57q-19 31 -48 31q-30 0 -49 -30q-17 -26 -17 -58q0 -34 16 -59q18 -30 50 -30q30 0 49 31q16 26 16 58zM1252 96q0 -99 -80 -152q-61 -40 -160 -40h-174q-86 0 -86 -47q0 -29 34 -29 q19 0 34 -13t15 -32q0 -20 -14.5 -33.5t-34.5 -13.5q-43 0 -67 28.5t-24 72.5q0 58 48 89q38 25 103 25h164q114 0 147 87q10 27 10 59q0 115 -95 115q-70 0 -70 -69v-143h-87v391h-134v-391h-50v441h438v-50h-167v-158q25 37 100 37t114 -51q36 -46 36 -123zM1657 387h-125 v-391h-87v391h-134v-391h-50v441h396v-50z" />
<glyph unicode="&#xe28b;" horiz-adv-x="1795" d="M548 181q0 -90 -71 -139q-63 -43 -155 -43q-156 0 -235 88q-77 84 -77 242t76 242q80 88 236 88q94 0 156 -43q70 -50 70 -140q0 -41 -29 -78q-37 -47 -102 -47q-57 0 -93 40.5t-36 98.5q0 93 70 114l-27 4q-118 0 -180 -83q-55 -74 -55 -196t55 -196q62 -83 180 -83 q19 0 27 4q-70 20 -70 114q0 57 36 97.5t93 40.5q54 0 92.5 -35.5t38.5 -89.5zM471 491q0 32 -17 58q-19 31 -49 31t-49 -31q-16 -26 -16 -58q0 -33 16 -59q18 -30 49 -30q27 0 50 30q16 28 16 59zM471 167q0 32 -17 58q-19 30 -49 30q-29 0 -47 -28.5t-18 -59.5 q0 -33 16 -59q18 -30 49 -30q27 0 50 30q16 28 16 59zM1202 96q0 -99 -80 -152q-61 -40 -160 -40h-174q-86 0 -86 -47q0 -29 34 -29q19 0 34 -13t15 -32q0 -20 -14.5 -33.5t-34.5 -13.5q-43 0 -67 28.5t-24 72.5q0 58 48 89q38 25 103 25h164q114 0 147 87q10 27 10 59 q0 115 -95 115q-70 0 -70 -69v-143h-87v391h-134v-391h-50v441h438v-50h-167v-158q25 37 100 37t114 -51q36 -46 36 -123zM1617 391h-125v-391h-87v391h-134v-391h-50v441h396v-50z" />
<glyph unicode="&#xe28c;" horiz-adv-x="2159" d="M637 0h-51v298q0 127 -56 207q-64 91 -186 91q-114 0 -184 -81q-64 -74 -64 -194q0 -147 71 -221q53 -55 121 -55q30 0 47 7q-66 26 -66 116q0 57 36 97.5t93 40.5q67 0 102 -46q28 -36 28 -79q0 -90 -77 -139q-67 -43 -160 -43q-132 0 -209 95q-72 88 -72 223 q0 165 107 260q91 80 209 80q146 0 231 -103q80 -96 80 -245v-309zM451 167q0 31 -17 57q-19 31 -48 31q-30 0 -49 -30q-17 -26 -17 -58q0 -34 16 -59q18 -30 50 -30q30 0 49 31q16 26 16 58zM1272 101q0 -99 -80 -152q-61 -40 -160 -40h-174q-86 0 -86 -47q0 -29 34 -29 q19 0 34 -13t15 -32q0 -20 -14.5 -33.5t-34.5 -13.5q-43 0 -67 28.5t-24 72.5q0 58 48 89q38 25 103 25h164q114 0 147 87q10 27 10 59q0 115 -95 115q-70 0 -70 -69v-143h-87v391h-134v-391h-50v441h438v-50h-167v-158q25 37 100 37t114 -51q36 -46 36 -123zM2056 391h-94 v-391h-85v391h-129v-391h-85v198q0 193 -165 193q-61 0 -106 -48q-40 -42 -49 -108l26 23q32 20 70 20q56 0 94 -40t38 -96q0 -62 -34 -103q-36 -44 -97 -44q-62 0 -103 45q-49 54 -49 162q0 91 60 165q66 82 170 82q121 0 182 -79v71h356v-50zM1489 137q0 33 -18 58 q-20 29 -51 29q-30 0 -49.5 -27.5t-19.5 -59.5q0 -33 18 -58q20 -29 51 -29q32 0 52 28q17 26 17 59z" />
<glyph unicode="&#xe290;" horiz-adv-x="716" d="M352 597q0 -24 -18 -42.5t-42 -18.5q-19 0 -43 18q-17 19 -17 43q0 25 17.5 42.5t42.5 17.5t42.5 -17.5t17.5 -42.5zM534 0h-516v441h86v-390h344v390h86v-441z" />
<glyph unicode="&#xe291;" horiz-adv-x="727" d="M534 0h-516v441h86v-390h344v390h86v-441z" />
<glyph unicode="&#xe292;" horiz-adv-x="1245" d="M514 0h-516v441h86v-390h344v390h86v-441zM1067 391h-125v-391h-87v391h-134v-391h-50v441h396v-50z" />
<glyph unicode="&#xe293;" horiz-adv-x="857" d="M666 0h-51v445q0 107 -26 163q-37 79 -131 79q-64 0 -101 -46.5t-37 -111.5q0 -64 30 -104q34 -44 96 -44v60h86v-441h-516v441h86v-390h344v287q-81 0 -130 61q-47 58 -47 140q0 91 49 156q54 72 142 72q206 0 206 -314v-453z" />
<glyph unicode="&#xe294;" horiz-adv-x="716" d="M606 658q0 -43 -29 -68.5t-73 -25.5q-43 0 -71 19q-32 22 -32 63q0 20 9 35q-43 -8 -72 -59q-26 -45 -26 -93q0 -64 30 -104q34 -44 96 -44v60h86v-441h-516v441h86v-390h344v287q-65 0 -114 43q-63 56 -63 165q0 93 57.5 157t148.5 64q56 0 94 -26q45 -30 45 -83z M544 646q0 10 -15 28q-15 12 -34 12q-14 0 -35 -12q-8 -7 -14 -28q0 -39 49 -39q40 0 49 39z" />
<glyph unicode="&#xe295;" horiz-adv-x="716" d="M534 -206h-87v206h-429v441h86v-390h343v390h87v-647z" />
<glyph unicode="&#xe296;" horiz-adv-x="758" d="M637 -78q0 -103 -102 -151q-75 -35 -192 -35q-127 0 -213 54q-71 44 -71 101q0 62 100 62q57 0 104 -30l-17 -42q-33 24 -78 24q-48 0 -48 -23q0 -51 88 -79q66 -21 129 -21q223 0 223 133q0 49 -42 49q-29 0 -29 -33v-57h-87v126h-429v441h86v-390h343v390h87v-449 q9 23 51 23q43 0 70 -25t27 -68z" />
<glyph unicode="&#xe297;" horiz-adv-x="1386" d="M637 0h-51v298q0 127 -56 207q-64 91 -186 91q-114 0 -184 -81q-64 -74 -64 -194q0 -147 71 -221q53 -55 121 -55q30 0 47 7q-66 26 -66 116q0 57 36 97.5t93 40.5q67 0 102 -46q28 -36 28 -79q0 -90 -77 -139q-67 -43 -160 -43q-132 0 -209 95q-72 88 -72 223 q0 165 107 260q91 80 209 80q146 0 231 -103q80 -96 80 -245v-309zM451 167q0 31 -17 57q-19 31 -48 31q-30 0 -49 -30q-17 -26 -17 -58q0 -34 16 -59q18 -30 50 -30q30 0 49 31q16 26 16 58zM1267 0h-516v441h86v-390h344v390h86v-441z" />
<glyph unicode="&#xe298;" horiz-adv-x="1318" d="M548 181q0 -90 -71 -139q-63 -43 -155 -43q-156 0 -235 88q-77 84 -77 242t76 242q80 88 236 88q94 0 156 -43q70 -50 70 -140q0 -41 -29 -78q-37 -47 -102 -47q-57 0 -93 40.5t-36 98.5q0 93 70 114l-27 4q-118 0 -180 -83q-55 -74 -55 -196t55 -196q62 -83 180 -83 q19 0 27 4q-70 20 -70 114q0 57 36 97.5t93 40.5q54 0 92.5 -35.5t38.5 -89.5zM471 491q0 32 -17 58q-19 31 -49 31t-49 -31q-16 -26 -16 -58q0 -33 16 -59q18 -30 49 -30q27 0 50 30q16 28 16 59zM471 167q0 32 -17 58q-19 30 -49 30q-29 0 -47 -28.5t-18 -59.5 q0 -33 16 -59q18 -30 49 -30q27 0 50 30q16 28 16 59zM1187 0h-516v441h86v-390h344v390h86v-441z" />
<glyph unicode="&#xe299;" horiz-adv-x="1586" d="M822 221q0 -85 -40 -144q-43 -63 -123 -82l-29 56q107 24 107 174q0 70 -43.5 117.5t-113.5 47.5q-43 0 -78 -23q79 -74 79 -182q0 -70 -25 -120q-32 -64 -95 -64q-98 0 -117 150q-2 16 -2 34q0 93 66 173q-62 39 -139 39q-76 0 -130 -43t-75 -117q36 41 97 41 q57 0 94 -41t37 -98q0 -60 -36 -102t-95 -42q-78 0 -119 63q-34 52 -34 137q0 116 86 188q81 68 200 68q90 0 164 -50q65 45 136 45q99 0 163.5 -63t64.5 -162zM498 185q0 76 -51 139q-53 -53 -53 -139q0 -120 53 -120q14 0 34 27q17 34 17 93zM210 137q0 33 -18 58 q-20 29 -51 29q-30 0 -49.5 -27.5t-19.5 -59.5q0 -33 18 -58q20 -29 51 -29q32 0 52 28q17 26 17 59zM1423 0h-516v441h86v-390h344v390h86v-441z" />
<glyph unicode="&#xe29a;" horiz-adv-x="1914" d="M637 0h-51v298q0 127 -56 207q-64 91 -186 91q-114 0 -184 -81q-64 -74 -64 -194q0 -147 71 -221q53 -55 121 -55q30 0 47 7q-66 26 -66 116q0 57 36 97.5t93 40.5q67 0 102 -46q28 -36 28 -79q0 -90 -77 -139q-67 -43 -160 -43q-132 0 -209 95q-72 88 -72 223 q0 165 107 260q91 80 209 80q146 0 231 -103q80 -96 80 -245v-309zM451 167q0 31 -17 57q-19 31 -48 31q-30 0 -49 -30q-17 -26 -17 -58q0 -34 16 -59q18 -30 50 -30q30 0 49 31q16 26 16 58zM1237 0h-516v441h86v-390h344v390h86v-441zM1747 391h-125v-391h-87v391h-134 v-391h-50v441h396v-50z" />
<glyph unicode="&#xe29b;" horiz-adv-x="1876" d="M548 181q0 -90 -71 -139q-63 -43 -155 -43q-156 0 -235 88q-77 84 -77 242t76 242q80 88 236 88q94 0 156 -43q70 -50 70 -140q0 -41 -29 -78q-37 -47 -102 -47q-57 0 -93 40.5t-36 98.5q0 93 70 114l-27 4q-118 0 -180 -83q-55 -74 -55 -196t55 -196q62 -83 180 -83 q19 0 27 4q-70 20 -70 114q0 57 36 97.5t93 40.5q54 0 92.5 -35.5t38.5 -89.5zM471 491q0 32 -17 58q-19 31 -49 31t-49 -31q-16 -26 -16 -58q0 -33 16 -59q18 -30 49 -30q27 0 50 30q16 28 16 59zM471 167q0 32 -17 58q-19 30 -49 30q-29 0 -47 -28.5t-18 -59.5 q0 -33 16 -59q18 -30 49 -30q27 0 50 30q16 28 16 59zM1187 0h-516v441h86v-390h344v390h86v-441zM1697 391h-125v-391h-87v391h-134v-391h-50v441h396v-50z" />
<glyph unicode="&#xe29c;" horiz-adv-x="2270" d="M637 0h-51v298q0 127 -56 207q-64 91 -186 91q-114 0 -184 -81q-64 -74 -64 -194q0 -147 71 -221q53 -55 121 -55q30 0 47 7q-66 26 -66 116q0 57 36 97.5t93 40.5q67 0 102 -46q28 -36 28 -79q0 -90 -77 -139q-67 -43 -160 -43q-132 0 -209 95q-72 88 -72 223 q0 165 107 260q91 80 209 80q146 0 231 -103q80 -96 80 -245v-309zM451 167q0 31 -17 57q-19 31 -48 31q-30 0 -49 -30q-17 -26 -17 -58q0 -34 16 -59q18 -30 50 -30q30 0 49 31q16 26 16 58zM1277 0h-516v441h86v-390h344v390h86v-441zM2171 391h-94v-391h-85v391h-129 v-391h-85v198q0 193 -165 193q-61 0 -106 -48q-40 -42 -49 -108l26 23q32 20 70 20q56 0 94 -40t38 -96q0 -62 -34 -103q-36 -44 -97 -44q-62 0 -103 45q-49 54 -49 162q0 91 60 165q66 82 170 82q121 0 182 -79v71h356v-50zM1604 137q0 33 -18 58q-20 29 -51 29 q-30 0 -49.5 -27.5t-19.5 -59.5q0 -33 18 -58q20 -29 51 -29q32 0 52 28q17 26 17 59z" />
<glyph unicode="&#xe2a0;" horiz-adv-x="770" d="M358 597q0 -24 -18 -42.5t-42 -18.5q-19 0 -43 18q-17 19 -17 43q0 25 17.5 42.5t42.5 17.5t42.5 -17.5t17.5 -42.5zM636 189q0 -88 -56 -138.5t-145 -50.5h-421v441h86v-390h166v271q0 122 130 122q96 0 168 -79t72 -176zM585 190q0 73 -53 136.5t-125 63.5 q-54 0 -54 -60v-279h67q165 0 165 139z" />
<glyph unicode="&#xe2a1;" horiz-adv-x="770" d="M636 189q0 -88 -56 -138.5t-145 -50.5h-421v441h86v-390h166v271q0 122 130 122q96 0 168 -79t72 -176zM585 190q0 73 -53 136.5t-125 63.5q-54 0 -54 -60v-279h67q165 0 165 139z" />
<glyph unicode="&#xe2a2;" horiz-adv-x="1290" d="M626 189q0 -88 -56 -138.5t-145 -50.5h-421v441h86v-390h166v271q0 122 130 122q96 0 168 -79t72 -176zM575 190q0 73 -53 136.5t-125 63.5q-54 0 -54 -60v-279h67q165 0 165 139zM1110 391h-125v-391h-87v391h-134v-391h-50v441h396v-50z" />
<glyph unicode="&#xe2a3;" horiz-adv-x="902" d="M750 0h-50v529q0 71 -40.5 114.5t-111.5 43.5q-61 0 -99.5 -39.5t-38.5 -100.5q0 -48 16 -75q10 -17 44 -41q71 -26 118.5 -95.5t47.5 -146.5q0 -88 -56 -138.5t-145 -50.5h-421v441h86v-390h166v271q0 122 125 122q-32 35 -32 111q0 89 51 149q55 63 142 63 q95 0 149 -68q49 -62 49 -160v-539zM585 190q0 73 -53 136.5t-125 63.5q-54 0 -54 -60v-279h67q165 0 165 139z" />
<glyph unicode="&#xe2a4;" horiz-adv-x="770" d="M636 189q0 -88 -56 -138.5t-145 -50.5h-421v441h86v-390h166v271q0 104 94 120q-66 45 -66 132q0 92 58 146q51 47 127 47q56 0 94 -26q45 -30 45 -83q0 -43 -29 -68.5t-73 -25.5q-43 0 -71 19q-32 22 -32 63q0 20 9 35q-38 -6 -58 -43q-17 -31 -17 -73q0 -81 98 -127 q83 -22 137 -92.5t54 -156.5zM556 646q0 10 -15 28q-15 12 -34 12q-14 0 -35 -12q-8 -7 -14 -28q0 -39 49 -39q40 0 49 39zM585 190q0 73 -53 136.5t-125 63.5q-54 0 -54 -60v-279h67q165 0 165 139z" />
<glyph unicode="&#xe2a5;" horiz-adv-x="1046" d="M950 189q0 -90 -55.5 -139.5t-146.5 -49.5h-82q0 -127 -101 -199q-90 -65 -221 -65q-158 0 -250 120q-84 108 -84 271q0 109 59 202q48 75 116 115l26 -44q-71 -39 -112 -116q-38 -73 -38 -157q0 -143 68 -236q77 -104 215 -104q124 0 186 70q50 57 50 143h-253v441h87 v-390h166v271q0 122 129 122q97 0 169 -78.5t72 -176.5zM898 190q0 73 -53 136.5t-125 63.5q-54 0 -54 -60v-279h67q165 0 165 139z" />
<glyph unicode="&#xe2a6;" horiz-adv-x="1059" d="M948 189q0 -90 -55.5 -139.5t-146.5 -49.5h-84q0 -125 -101 -198q-90 -66 -219 -66q-158 0 -251 123q-83 110 -83 274q0 118 47.5 205.5t109.5 87.5q37 0 59 -28.5t22 -66.5q0 -49 -27 -83q-30 -37 -77 -37q-18 0 -41 13t-23 30q-19 -54 -19 -121q0 -142 69 -238 q77 -108 214 -108q105 0 168 53q67 56 67 160h-252v441h87v-390h166v271q0 122 129 122q97 0 169 -78.5t72 -176.5zM896 190q0 73 -53 136.5t-125 63.5q-54 0 -54 -60v-279h67q165 0 165 139zM189 309q0 52 -39 52q-31 0 -43 -51q-3 -14 6 -38l7 -9l21 -7q38 0 48 53z" />
<glyph unicode="&#xe2a7;" horiz-adv-x="1411" d="M637 0h-51v298q0 127 -56 207q-64 91 -186 91q-114 0 -184 -81q-64 -74 -64 -194q0 -147 71 -221q53 -55 121 -55q30 0 47 7q-66 26 -66 116q0 57 36 97.5t93 40.5q67 0 102 -46q28 -36 28 -79q0 -90 -77 -139q-67 -43 -160 -43q-132 0 -209 95q-72 88 -72 223 q0 165 107 260q91 80 209 80q146 0 231 -103q80 -96 80 -245v-309zM451 167q0 31 -17 57q-19 31 -48 31q-30 0 -49 -30q-17 -26 -17 -58q0 -34 16 -59q18 -30 50 -30q30 0 49 31q16 26 16 58zM1363 189q0 -88 -56 -138.5t-145 -50.5h-421v441h86v-390h166v271q0 122 130 122 q96 0 168 -79t72 -176zM1312 190q0 73 -53 136.5t-125 63.5q-54 0 -54 -60v-279h67q165 0 165 139z" />
<glyph unicode="&#xe2a8;" horiz-adv-x="1338" d="M548 181q0 -90 -71 -139q-63 -43 -155 -43q-156 0 -235 88q-77 84 -77 242t76 242q80 88 236 88q94 0 156 -43q70 -50 70 -140q0 -41 -29 -78q-37 -47 -102 -47q-57 0 -93 40.5t-36 98.5q0 93 70 114l-27 4q-118 0 -180 -83q-55 -74 -55 -196t55 -196q62 -83 180 -83 q19 0 27 4q-70 20 -70 114q0 57 36 97.5t93 40.5q54 0 92.5 -35.5t38.5 -89.5zM471 491q0 32 -17 58q-19 31 -49 31t-49 -31q-16 -26 -16 -58q0 -33 16 -59q18 -30 49 -30q27 0 50 30q16 28 16 59zM471 167q0 32 -17 58q-19 30 -49 30q-29 0 -47 -28.5t-18 -59.5 q0 -33 16 -59q18 -30 49 -30q27 0 50 30q16 28 16 59zM1303 189q0 -88 -56 -138.5t-145 -50.5h-421v441h86v-390h166v271q0 122 130 122q96 0 168 -79t72 -176zM1252 190q0 73 -53 136.5t-125 63.5q-54 0 -54 -60v-279h67q165 0 165 139z" />
<glyph unicode="&#xe2a9;" horiz-adv-x="1647" d="M822 221q0 -85 -40 -144q-43 -63 -123 -82l-29 56q107 24 107 174q0 70 -43.5 117.5t-113.5 47.5q-43 0 -78 -23q79 -74 79 -182q0 -70 -25 -120q-32 -64 -95 -64q-98 0 -117 150q-2 16 -2 34q0 93 66 173q-62 39 -139 39q-76 0 -130 -43t-75 -117q36 41 97 41 q57 0 94 -41t37 -98q0 -60 -36 -102t-95 -42q-78 0 -119 63q-34 52 -34 137q0 116 86 188q81 68 200 68q90 0 164 -50q65 45 136 45q99 0 163.5 -63t64.5 -162zM498 185q0 76 -51 139q-53 -53 -53 -139q0 -120 53 -120q14 0 34 27q17 34 17 93zM210 137q0 33 -18 58 q-20 29 -51 29q-30 0 -49.5 -27.5t-19.5 -59.5q0 -33 18 -58q20 -29 51 -29q32 0 52 28q17 26 17 59zM1559 189q0 -88 -56 -138.5t-145 -50.5h-421v441h86v-390h166v271q0 122 130 122q96 0 168 -79t72 -176zM1508 190q0 73 -53 136.5t-125 63.5q-54 0 -54 -60v-279h67 q165 0 165 139z" />
<glyph unicode="&#xe2aa;" horiz-adv-x="2055" d="M637 0h-51v298q0 127 -56 207q-64 91 -186 91q-114 0 -184 -81q-64 -74 -64 -194q0 -147 71 -221q53 -55 121 -55q30 0 47 7q-66 26 -66 116q0 57 36 97.5t93 40.5q67 0 102 -46q28 -36 28 -79q0 -90 -77 -139q-67 -43 -160 -43q-132 0 -209 95q-72 88 -72 223 q0 165 107 260q91 80 209 80q146 0 231 -103q80 -96 80 -245v-309zM451 167q0 31 -17 57q-19 31 -48 31q-30 0 -49 -30q-17 -26 -17 -58q0 -34 16 -59q18 -30 50 -30q30 0 49 31q16 26 16 58zM1353 189q0 -88 -56 -138.5t-145 -50.5h-421v441h86v-390h166v271q0 122 130 122 q96 0 168 -79t72 -176zM1302 190q0 73 -53 136.5t-125 63.5q-54 0 -54 -60v-279h67q165 0 165 139zM1887 391h-125v-391h-87v391h-134v-391h-50v441h396v-50z" />
<glyph unicode="&#xe2ab;" horiz-adv-x="1928" d="M548 181q0 -90 -71 -139q-63 -43 -155 -43q-156 0 -235 88q-77 84 -77 242t76 242q80 88 236 88q94 0 156 -43q70 -50 70 -140q0 -41 -29 -78q-37 -47 -102 -47q-57 0 -93 40.5t-36 98.5q0 93 70 114l-27 4q-118 0 -180 -83q-55 -74 -55 -196t55 -196q62 -83 180 -83 q19 0 27 4q-70 20 -70 114q0 57 36 97.5t93 40.5q54 0 92.5 -35.5t38.5 -89.5zM471 491q0 32 -17 58q-19 31 -49 31t-49 -31q-16 -26 -16 -58q0 -33 16 -59q18 -30 49 -30q27 0 50 30q16 28 16 59zM471 167q0 32 -17 58q-19 30 -49 30q-29 0 -47 -28.5t-18 -59.5 q0 -33 16 -59q18 -30 49 -30q27 0 50 30q16 28 16 59zM1293 189q0 -88 -56 -138.5t-145 -50.5h-421v441h86v-390h166v271q0 122 130 122q96 0 168 -79t72 -176zM1242 190q0 73 -53 136.5t-125 63.5q-54 0 -54 -60v-279h67q165 0 165 139zM1758 391h-125v-391h-87v391h-134 v-391h-50v441h396v-50z" />
<glyph unicode="&#xe2ac;" horiz-adv-x="2316" d="M637 0h-51v298q0 127 -56 207q-64 91 -186 91q-114 0 -184 -81q-64 -74 -64 -194q0 -147 71 -221q53 -55 121 -55q30 0 47 7q-66 26 -66 116q0 57 36 97.5t93 40.5q67 0 102 -46q28 -36 28 -79q0 -90 -77 -139q-67 -43 -160 -43q-132 0 -209 95q-72 88 -72 223 q0 165 107 260q91 80 209 80q146 0 231 -103q80 -96 80 -245v-309zM451 167q0 31 -17 57q-19 31 -48 31q-30 0 -49 -30q-17 -26 -17 -58q0 -34 16 -59q18 -30 50 -30q30 0 49 31q16 26 16 58zM1363 189q0 -88 -56 -138.5t-145 -50.5h-421v441h86v-390h166v271q0 122 130 122 q96 0 168 -79t72 -176zM1312 190q0 73 -53 136.5t-125 63.5q-54 0 -54 -60v-279h67q165 0 165 139zM2221 391h-94v-391h-85v391h-129v-391h-85v198q0 193 -165 193q-61 0 -106 -48q-40 -42 -49 -108l26 23q32 20 70 20q56 0 94 -40t38 -96q0 -62 -34 -103q-36 -44 -97 -44 q-62 0 -103 45q-49 54 -49 162q0 91 60 165q66 82 170 82q121 0 182 -79v71h356v-50zM1654 137q0 33 -18 58q-20 29 -51 29q-30 0 -49.5 -27.5t-19.5 -59.5q0 -33 18 -58q20 -29 51 -29q32 0 52 28q17 26 17 59z" />
<glyph unicode="&#xe2b0;" horiz-adv-x="758" d="M338 597q0 -24 -18 -42.5t-42 -18.5q-19 0 -43 18q-17 19 -17 43q0 25 17.5 42.5t42.5 17.5t42.5 -17.5t17.5 -42.5zM647 0h-418v62q-29 -64 -101 -64q-114 0 -114 143v300h50v-301q0 -45 11 -65q15 -27 56 -27q49 0 76 70q22 56 22 111v212h86v-390h246v390h86v-441z " />
<glyph unicode="&#xe2b1;" horiz-adv-x="770" d="M647 0h-418v62q-29 -64 -101 -64q-114 0 -114 143v300h50v-301q0 -45 11 -65q15 -27 56 -27q49 0 76 70q22 56 22 111v212h86v-390h246v390h86v-441z" />
<glyph unicode="&#xe2b2;" horiz-adv-x="1285" d="M637 0h-418v62q-29 -64 -101 -64q-114 0 -114 143v300h50v-301q0 -45 11 -65q15 -27 56 -27q49 0 76 70q22 56 22 111v212h86v-390h246v390h86v-441zM1093 391h-125v-391h-87v391h-134v-391h-50v441h396v-50z" />
<glyph unicode="&#xe2b3;" horiz-adv-x="902" d="M780 0h-50v445q0 107 -26 163q-37 79 -132 79q-61 0 -100 -50q-37 -46 -37 -108q0 -64 30 -104q34 -44 96 -44v60h86v-441h-418v62q-29 -64 -101 -64q-114 0 -114 143v300h50v-301q0 -45 11 -65q15 -27 56 -27q49 0 76 70q22 56 22 111v212h86v-390h246v287 q-81 0 -130 61q-47 58 -47 140q0 91 49 156q53 72 141 72q206 0 206 -314v-453z" />
<glyph unicode="&#xe2b4;" horiz-adv-x="770" d="M729 658q0 -43 -29 -68.5t-73 -25.5q-43 0 -71 19q-32 22 -32 63q0 24 9 35q-43 -8 -72 -59q-26 -45 -26 -93q0 -64 30 -104q34 -44 96 -44v60h86v-441h-418v62q-29 -64 -101 -64q-114 0 -114 143v300h50v-301q0 -45 11 -65q15 -27 56 -27q49 0 76 70q22 56 22 111v212 h86v-390h246v287q-65 0 -114 43q-63 56 -63 165q0 93 57.5 157t148.5 64q56 0 94 -26q45 -30 45 -83zM666 646q0 21 -31 36l-17 4q-38 0 -49 -40q0 -17 16 -28t33 -11q42 0 48 39z" />
<glyph unicode="&#xe2b5;" horiz-adv-x="758" d="M647 -206h-86v206h-332v62q-29 -64 -101 -64q-114 0 -114 143v300h50v-301q0 -45 11 -65q15 -27 56 -27q49 0 76 70q22 56 22 111v212h86v-390h246v390h86v-647z" />
<glyph unicode="&#xe2b6;" horiz-adv-x="812" d="M795 -78q0 -103 -102 -151q-75 -35 -192 -35q-127 0 -213 54q-71 44 -71 101q0 62 100 62q57 0 104 -30l-17 -42q-33 24 -77 24q-49 0 -49 -23q0 -51 89 -79q66 -21 129 -21q222 0 222 133q0 49 -42 49q-29 0 -29 -33v-57h-86v126h-332v62q-29 -64 -101 -64 q-114 0 -114 143v300h50v-301q0 -45 11 -65q15 -27 56 -27q49 0 76 70q22 56 22 111v212h86v-390h246v390h86v-449q12 23 51 23q43 0 70 -25t27 -68z" />
<glyph unicode="&#xe2b7;" horiz-adv-x="1443" d="M637 0h-51v298q0 127 -56 207q-64 91 -186 91q-114 0 -184 -81q-64 -74 -64 -194q0 -147 71 -221q53 -55 121 -55q30 0 47 7q-66 26 -66 116q0 57 36 97.5t93 40.5q67 0 102 -46q28 -36 28 -79q0 -90 -77 -139q-67 -43 -160 -43q-132 0 -209 95q-72 88 -72 223 q0 165 107 260q91 80 209 80q146 0 231 -103q80 -96 80 -245v-309zM451 167q0 31 -17 57q-19 31 -48 31q-30 0 -49 -30q-17 -26 -17 -58q0 -34 16 -59q18 -30 50 -30q30 0 49 31q16 26 16 58zM1374 0h-418v62q-29 -64 -101 -64q-114 0 -114 143v300h50v-301q0 -45 11 -65 q15 -27 56 -27q49 0 76 70q22 56 22 111v212h86v-390h246v390h86v-441z" />
<glyph unicode="&#xe2b8;" horiz-adv-x="1359" d="M548 181q0 -90 -71 -139q-63 -43 -155 -43q-156 0 -235 88q-77 84 -77 242t76 242q80 88 236 88q94 0 156 -43q70 -50 70 -140q0 -41 -29 -78q-37 -47 -102 -47q-57 0 -93 40.5t-36 98.5q0 93 70 114l-27 4q-118 0 -180 -83q-55 -74 -55 -196t55 -196q62 -83 180 -83 q19 0 27 4q-70 20 -70 114q0 57 36 97.5t93 40.5q54 0 92.5 -35.5t38.5 -89.5zM471 491q0 32 -17 58q-19 31 -49 31t-49 -31q-16 -26 -16 -58q0 -33 16 -59q18 -30 49 -30q27 0 50 30q16 28 16 59zM471 167q0 32 -17 58q-19 30 -49 30q-29 0 -47 -28.5t-18 -59.5 q0 -33 16 -59q18 -30 49 -30q27 0 50 30q16 28 16 59zM1306 0h-418v62q-29 -64 -101 -64q-114 0 -114 143v300h50v-301q0 -45 11 -65q15 -27 56 -27q49 0 76 70q22 56 22 111v212h86v-390h246v390h86v-441z" />
<glyph unicode="&#xe2b9;" horiz-adv-x="1636" d="M822 221q0 -85 -40 -144q-43 -63 -123 -82l-29 56q107 24 107 174q0 70 -43.5 117.5t-113.5 47.5q-43 0 -78 -23q79 -74 79 -182q0 -70 -25 -120q-32 -64 -95 -64q-98 0 -117 150q-2 16 -2 34q0 93 66 173q-62 39 -139 39q-76 0 -130 -43t-75 -117q36 41 97 41 q57 0 94 -41t37 -98q0 -60 -36 -102t-95 -42q-78 0 -119 63q-34 52 -34 137q0 116 86 188q81 68 200 68q90 0 164 -50q65 45 136 45q99 0 163.5 -63t64.5 -162zM498 185q0 76 -51 139q-53 -53 -53 -139q0 -120 53 -120q14 0 34 27q17 34 17 93zM210 137q0 33 -18 58 q-20 29 -51 29q-30 0 -49.5 -27.5t-19.5 -59.5q0 -33 18 -58q20 -29 51 -29q32 0 52 28q17 26 17 59zM1550 0h-418v62q-29 -64 -101 -64q-114 0 -114 143v300h50v-301q0 -45 11 -65q15 -27 56 -27q49 0 76 70q22 56 22 111v212h86v-390h246v390h86v-441z" />
<glyph unicode="&#xe2ba;" horiz-adv-x="2020" d="M637 0h-51v298q0 127 -56 207q-64 91 -186 91q-114 0 -184 -81q-64 -74 -64 -194q0 -147 71 -221q53 -55 121 -55q30 0 47 7q-66 26 -66 116q0 57 36 97.5t93 40.5q67 0 102 -46q28 -36 28 -79q0 -90 -77 -139q-67 -43 -160 -43q-132 0 -209 95q-72 88 -72 223 q0 165 107 260q91 80 209 80q146 0 231 -103q80 -96 80 -245v-309zM451 167q0 31 -17 57q-19 31 -48 31q-30 0 -49 -30q-17 -26 -17 -58q0 -34 16 -59q18 -30 50 -30q30 0 49 31q16 26 16 58zM1374 0h-418v62q-29 -64 -101 -64q-114 0 -114 143v300h50v-301q0 -45 11 -65 q15 -27 56 -27q49 0 76 70q22 56 22 111v212h86v-390h246v390h86v-441zM1847 391h-125v-391h-87v391h-134v-391h-50v441h396v-50z" />
<glyph unicode="&#xe2bb;" horiz-adv-x="1904" d="M548 181q0 -90 -71 -139q-63 -43 -155 -43q-156 0 -235 88q-77 84 -77 242t76 242q80 88 236 88q94 0 156 -43q70 -50 70 -140q0 -41 -29 -78q-37 -47 -102 -47q-57 0 -93 40.5t-36 98.5q0 93 70 114l-27 4q-118 0 -180 -83q-55 -74 -55 -196t55 -196q62 -83 180 -83 q19 0 27 4q-70 20 -70 114q0 57 36 97.5t93 40.5q54 0 92.5 -35.5t38.5 -89.5zM471 491q0 32 -17 58q-19 31 -49 31t-49 -31q-16 -26 -16 -58q0 -33 16 -59q18 -30 49 -30q27 0 50 30q16 28 16 59zM471 167q0 32 -17 58q-19 30 -49 30q-29 0 -47 -28.5t-18 -59.5 q0 -33 16 -59q18 -30 49 -30q27 0 50 30q16 28 16 59zM1309 0h-418v62q-29 -64 -101 -64q-114 0 -114 143v300h50v-301q0 -45 11 -65q15 -27 56 -27q49 0 76 70q22 56 22 111v212h86v-390h246v390h86v-441zM1737 391h-125v-391h-87v391h-134v-391h-50v441h396v-50z" />
<glyph unicode="&#xe2bc;" horiz-adv-x="2320" d="M637 0h-51v298q0 127 -56 207q-64 91 -186 91q-114 0 -184 -81q-64 -74 -64 -194q0 -147 71 -221q53 -55 121 -55q30 0 47 7q-66 26 -66 116q0 57 36 97.5t93 40.5q67 0 102 -46q28 -36 28 -79q0 -90 -77 -139q-67 -43 -160 -43q-132 0 -209 95q-72 88 -72 223 q0 165 107 260q91 80 209 80q146 0 231 -103q80 -96 80 -245v-309zM451 167q0 31 -17 57q-19 31 -48 31q-30 0 -49 -30q-17 -26 -17 -58q0 -34 16 -59q18 -30 50 -30q30 0 49 31q16 26 16 58zM1394 0h-418v62q-29 -64 -101 -64q-114 0 -114 143v300h50v-301q0 -45 11 -65 q15 -27 56 -27q49 0 76 70q22 56 22 111v212h86v-390h246v390h86v-441zM2216 391h-94v-391h-85v391h-129v-391h-85v198q0 193 -165 193q-61 0 -106 -48q-40 -42 -49 -108l26 23q32 20 70 20q56 0 94 -40t38 -96q0 -62 -34 -103q-36 -44 -97 -44q-62 0 -103 45 q-49 54 -49 162q0 91 60 165q66 82 170 82q121 0 182 -79v71h356v-50zM1649 137q0 33 -18 58q-20 29 -51 29q-30 0 -49.5 -27.5t-19.5 -59.5q0 -33 18 -58q20 -29 51 -29q32 0 52 28q17 26 17 59z" />
<glyph unicode="&#xe2c0;" horiz-adv-x="618" d="M220 597q0 -24 -18 -42.5t-42 -18.5q-23 0 -42 19t-19 42q0 25 18 42.5t43 17.5t42.5 -17.5t17.5 -42.5zM357 391h-106v-425l-261 -173v37l174 170v391h-134v-391h-50v441h377v-50z" />
<glyph unicode="&#xe2c1;" horiz-adv-x="618" d="M357 391h-106v-425l-261 -173v37l174 170v391h-134v-391h-50v441h377v-50z" />
<glyph unicode="&#xe2c2;" horiz-adv-x="1131" d="M347 391h-106v-425l-261 -173v37l174 170v391h-134v-391h-50v441h377v-50zM910 387h-125v-391h-87v391h-134v-391h-50v441h396v-50z" />
<glyph unicode="&#xe2c3;" horiz-adv-x="727" d="M149 441q-52 44 -52 134q0 81 51.5 136.5t132.5 55.5q87 0 137 -73q45 -65 45 -155v-543h-50v533q0 63 -33 108q-37 50 -98 50q-59 0 -94 -37t-35 -96q0 -86 75 -113h129v-50h-106v-425l-261 -173v37l174 170v391h-134v-391h-50v441h169z" />
<glyph unicode="&#xe2c4;" horiz-adv-x="618" d="M323 646q0 10 -15 28q-15 12 -34 12q-13 0 -34 -12q-8 -7 -14 -28q0 -17 16 -28t32 -11q40 0 49 39zM128 441q-66 45 -66 133q0 92 58 146q51 47 126 47q56 0 94 -26q45 -30 45 -83q0 -43 -29 -68.5t-73 -25.5q-43 0 -71 19q-32 22 -32 63q0 25 10 35q-38 -8 -58 -44 q-17 -30 -17 -72q0 -90 103 -124h139v-50h-106v-425l-261 -173v37l174 170v391h-134v-391h-50v441h148z" />
<glyph unicode="&#xe2c5;" horiz-adv-x="835" d="M686 131q-16 80 -78 80q-53 0 -53 -63v-148h-86v391h-134v-391h-51v441h392v-50h-121v-149q27 24 68 24q75 0 117 -60q23 -33 32 -75q6 -26 6 -56q0 -148 -109 -246q-104 -93 -256 -93q-177 0 -286 104.5t-109 280.5q0 128 58 210l39 55q14 20 47 47l33 -39 q-41 -33 -75 -89q-51 -85 -51 -184q0 -139 87.5 -233t225.5 -94q137 0 219 67q90 72 90 206q0 37 -5 64z" />
<glyph unicode="&#xe2c6;" horiz-adv-x="857" d="M788 75q0 -152 -118 -249q-109 -90 -266 -90q-176 0 -283 105t-107 280q0 84 43 183q51 118 127 118q75 0 75 -91q0 -49 -27 -83q-30 -37 -77 -37q-17 0 -41 12q-14 10 -25 30q-24 -62 -24 -132q0 -153 91.5 -240t245.5 -87q131 0 213 70q87 74 87 203q0 144 -84 144 q-53 0 -53 -63v-148h-86v391h-134v-391h-50v441h391v-50h-121v-149q27 24 68 24q75 0 117 -60q38 -53 38 -131zM202 306l-3 20q-5 32 -36 32q-16 0 -28 -16.5t-15 -34.5q-3 -19 6 -35q9 -19 28 -19t33.5 17t14.5 36z" />
<glyph unicode="&#xe2c7;" horiz-adv-x="1304" d="M647 0h-51v298q0 127 -56 207q-64 91 -186 91q-114 0 -184 -81q-64 -74 -64 -194q0 -147 71 -221q53 -55 121 -55q30 0 47 7q-66 26 -66 116q0 57 36 97.5t93 40.5q67 0 102 -46q28 -36 28 -79q0 -90 -77 -139q-67 -43 -160 -43q-132 0 -209 95q-72 88 -72 223 q0 165 107 260q91 80 209 80q146 0 231 -103q80 -96 80 -245v-309zM461 167q0 31 -17 57q-19 31 -48 31q-30 0 -49 -30q-17 -26 -17 -58q0 -34 16 -59q18 -30 50 -30q30 0 49 31q16 26 16 58zM1118 391h-106v-425l-261 -173v37l174 170v391h-134v-391h-50v441h377v-50z" />
<glyph unicode="&#xe2c8;" horiz-adv-x="1258" d="M561 181q0 -90 -71 -139q-63 -43 -155 -43q-156 0 -235 88q-77 84 -77 242t76 242q80 88 236 88q94 0 156 -43q70 -50 70 -140q0 -41 -29 -78q-37 -47 -102 -47q-57 0 -93 40.5t-36 98.5q0 93 70 114l-27 4q-118 0 -180 -83q-55 -74 -55 -196t55 -196q62 -83 180 -83 q19 0 27 4q-70 20 -70 114q0 57 36 97.5t93 40.5q54 0 92.5 -35.5t38.5 -89.5zM484 491q0 32 -17 58q-19 31 -49 31t-49 -31q-16 -26 -16 -58q0 -33 16 -59q18 -30 49 -30q27 0 50 30q16 28 16 59zM484 167q0 32 -17 58q-19 30 -49 30q-29 0 -47 -28.5t-18 -59.5 q0 -33 16 -59q18 -30 49 -30q27 0 50 30q16 28 16 59zM1078 391h-106v-425l-261 -173v37l174 170v391h-134v-391h-50v441h377v-50z" />
<glyph unicode="&#xe2c9;" horiz-adv-x="1500" d="M822 221q0 -85 -40 -144q-43 -63 -123 -82l-29 56q107 24 107 174q0 70 -43.5 117.5t-113.5 47.5q-43 0 -78 -23q79 -74 79 -182q0 -70 -25 -120q-32 -64 -95 -64q-98 0 -117 150q-2 16 -2 34q0 93 66 173q-62 39 -139 39q-76 0 -130 -43t-75 -117q36 41 97 41 q57 0 94 -41t37 -98q0 -60 -36 -102t-95 -42q-78 0 -119 63q-34 52 -34 137q0 116 86 188q81 68 200 68q90 0 164 -50q65 45 136 45q99 0 163.5 -63t64.5 -162zM498 185q0 76 -51 139q-53 -53 -53 -139q0 -120 53 -120q14 0 34 27q17 34 17 93zM210 137q0 33 -18 58 q-20 29 -51 29q-30 0 -49.5 -27.5t-19.5 -59.5q0 -33 18 -58q20 -29 51 -29q32 0 52 28q17 26 17 59zM1304 391h-106v-425l-261 -173v37l174 170v391h-134v-391h-50v441h377v-50z" />
<glyph unicode="&#xe2ca;" horiz-adv-x="1875" d="M650 0h-51v298q0 127 -56 207q-64 91 -186 91q-114 0 -184 -81q-64 -74 -64 -194q0 -147 71 -221q53 -55 121 -55q30 0 47 7q-66 26 -66 116q0 57 36 97.5t93 40.5q67 0 102 -46q28 -36 28 -79q0 -90 -77 -139q-67 -43 -160 -43q-132 0 -209 95q-72 88 -72 223 q0 165 107 260q91 80 209 80q146 0 231 -103q80 -96 80 -245v-309zM464 167q0 31 -17 57q-19 31 -48 31q-30 0 -49 -30q-17 -26 -17 -58q0 -34 16 -59q18 -30 50 -30q30 0 49 31q16 26 16 58zM1143 396h-106v-425l-261 -173v37l174 170v391h-134v-391h-50v441h377v-50z M1717 391h-125v-391h-87v391h-134v-391h-50v441h396v-50z" />
<glyph unicode="&#xe2cb;" horiz-adv-x="1809" d="M558 181q0 -90 -71 -139q-63 -43 -155 -43q-156 0 -235 88q-77 84 -77 242t76 242q80 88 236 88q94 0 156 -43q70 -50 70 -140q0 -41 -29 -78q-37 -47 -102 -47q-57 0 -93 40.5t-36 98.5q0 93 70 114l-27 4q-118 0 -180 -83q-55 -74 -55 -196t55 -196q62 -83 180 -83 q19 0 27 4q-70 20 -70 114q0 57 36 97.5t93 40.5q54 0 92.5 -35.5t38.5 -89.5zM481 491q0 32 -17 58q-19 31 -49 31t-49 -31q-16 -26 -16 -58q0 -33 16 -59q18 -30 49 -30q27 0 50 30q16 28 16 59zM481 167q0 32 -17 58q-19 30 -49 30q-29 0 -47 -28.5t-18 -59.5 q0 -33 16 -59q18 -30 49 -30q27 0 50 30q16 28 16 59zM1058 391h-106v-425l-261 -173v37l174 170v391h-134v-391h-50v441h377v-50zM1647 391h-125v-391h-87v391h-134v-391h-50v441h396v-50z" />
<glyph unicode="&#xe2cc;" horiz-adv-x="2066" d="M637 0h-51v298q0 127 -56 207q-64 91 -186 91q-114 0 -184 -81q-64 -74 -64 -194q0 -147 71 -221q53 -55 121 -55q30 0 47 7q-66 26 -66 116q0 57 36 97.5t93 40.5q67 0 102 -46q28 -36 28 -79q0 -90 -77 -139q-67 -43 -160 -43q-132 0 -209 95q-72 88 -72 223 q0 165 107 260q91 80 209 80q146 0 231 -103q80 -96 80 -245v-309zM451 167q0 31 -17 57q-19 31 -48 31q-30 0 -49 -30q-17 -26 -17 -58q0 -34 16 -59q18 -30 50 -30q30 0 49 31q16 26 16 58zM1108 391h-106v-425l-261 -173v37l174 170v391h-134v-391h-50v441h377v-50z M1971 391h-94v-391h-85v391h-129v-391h-85v198q0 193 -165 193q-61 0 -106 -48q-40 -42 -49 -108l26 23q32 20 70 20q56 0 94 -40t38 -96q0 -62 -34 -103q-36 -44 -97 -44q-62 0 -103 45q-49 54 -49 162q0 91 60 165q66 82 170 82q121 0 182 -79v71h356v-50zM1404 137 q0 33 -18 58q-20 29 -51 29q-30 0 -49.5 -27.5t-19.5 -59.5q0 -33 18 -58q20 -29 51 -29q32 0 52 28q17 26 17 59z" />
<glyph unicode="&#xe2d0;" horiz-adv-x="847" d="M441 597q0 -24 -18 -42.5t-42 -18.5q-19 0 -43 18q-17 19 -17 43q0 25 17.5 42.5t42.5 17.5t42.5 -17.5t17.5 -42.5zM730 244q0 -95 -47 -166q-54 -82 -144 -82q-152 0 -152 165v73q0 73 -37 116q-40 44 -112 44q-67 0 -111 -47q-38 -41 -53 -110q36 41 97 41 q57 0 94 -41t37 -98q0 -60 -36 -102t-95 -42q-78 0 -119 63q-34 52 -34 137q0 105 64 179.5t168 74.5q100 0 162 -58t62 -158v-59q0 -63 10 -87q15 -36 64 -36q64 0 100 68q31 58 31 125q0 93 -47 143q-9 9 -65 34q-33 14 -33 49q0 21 30 21q13 0 22 -5q144 -78 144 -242z M220 137q0 33 -18 58q-20 29 -51 29q-30 0 -49.5 -27.5t-19.5 -59.5q0 -33 18 -58q20 -29 51 -29q32 0 52 28q17 26 17 59z" />
<glyph unicode="&#xe2d1;" horiz-adv-x="835" d="M220 137q0 33 -18 58q-20 29 -51 29q-30 0 -49.5 -27.5t-19.5 -59.5q0 -33 18 -58q20 -29 51 -29q32 0 52 28q17 26 17 59zM307 381q-30 13 -69 13q-67 0 -111 -47q-38 -41 -53 -110q36 41 97 41q57 0 94 -41t37 -98q0 -60 -36 -102t-95 -42q-78 0 -119 63 q-34 52 -34 137q0 105 64 179.5t168 74.5q40 0 74 -9q51 -14 88 -49q62 -58 62 -158v-59q0 -63 10 -87q15 -36 64 -36q64 0 100 68q31 58 31 125q0 93 -47 143q-9 9 -65 34q-33 14 -33 49q0 21 30 21q13 0 22 -5q144 -78 144 -242q0 -95 -47 -166q-54 -82 -144 -82 q-152 0 -152 165v73q0 73 -37 116q-18 20 -43 31z" />
<glyph unicode="&#xe2d2;" horiz-adv-x="1414" d="M204 137q0 33 -18 58q-20 29 -51 29q-30 0 -49.5 -27.5t-19.5 -59.5q0 -33 18 -58q20 -29 51 -29q32 0 52 28q17 26 17 59zM291 381q-30 13 -69 13q-67 0 -111 -47q-38 -41 -53 -110q36 41 97 41q57 0 94 -41t37 -98q0 -60 -36 -102t-95 -42q-78 0 -119 63 q-34 52 -34 137q0 105 64 179.5t168 74.5q40 0 74 -9q51 -14 88 -49q62 -58 62 -158v-59q0 -63 10 -87q15 -36 64 -36q64 0 100 68q31 58 31 125q0 93 -47 143q-9 9 -65 34q-33 14 -33 49q0 21 30 21q13 0 22 -5q144 -78 144 -242q0 -95 -47 -166q-54 -82 -144 -82 q-152 0 -152 165v73q0 73 -37 116q-18 20 -43 31zM1247 391h-125v-391h-87v391h-134v-391h-50v441h396v-50z" />
<glyph unicode="&#xe2d3;" horiz-adv-x="959" d="M822 0h-50v445q0 107 -26 163q-37 79 -132 79q-61 0 -100 -50q-37 -46 -37 -108q0 -63 30 -103q34 -45 95 -45q19 0 31 4q-13 16 -66 36q-33 13 -33 49q0 21 30 21q13 0 22 -5q144 -78 144 -242q0 -95 -47 -166q-54 -82 -144 -82q-152 0 -152 165v73q0 73 -37 116 q-40 44 -112 44q-67 0 -111 -47q-38 -41 -53 -110q36 41 97 41q57 0 94 -41t37 -98q0 -60 -36 -102t-95 -42q-78 0 -119 63q-34 52 -34 137q0 105 64 179.5t168 74.5q100 0 162 -58t62 -158v-59q0 -63 10 -87q15 -36 64 -36q64 0 100 68q31 58 31 125q0 64 -22 105 q-25 -11 -55 -11q-63 0 -113 43q-63 54 -63 158q0 92 48 156q53 72 142 72q206 0 206 -314v-453zM220 137q0 33 -18 58q-20 29 -51 29q-30 0 -49.5 -27.5t-19.5 -59.5q0 -33 18 -58q20 -29 51 -29q32 0 52 28q17 26 17 59z" />
<glyph unicode="&#xe2d4;" horiz-adv-x="847" d="M762 658q0 -43 -29 -68.5t-73 -25.5q-43 0 -71 19q-32 22 -32 63q0 25 10 35q-45 -8 -73 -58q-25 -44 -25 -94q0 -63 30 -103q34 -45 95 -45l31 4q-13 16 -66 36q-33 13 -33 49q0 21 30 21q13 0 22 -5q144 -78 144 -242q0 -95 -47 -166q-54 -82 -144 -82q-152 0 -152 165 v73q0 160 -149 160q-67 0 -111 -47q-38 -41 -53 -110q36 41 97 41q57 0 94 -41t37 -98q0 -60 -36 -102t-95 -42q-78 0 -119 63q-34 52 -34 137q0 105 64 179.5t168 74.5q100 0 162 -58t62 -158v-59q0 -63 10 -87q15 -36 64 -36q64 0 100 68q31 58 31 125q0 61 -22 105 q-25 -11 -55 -11q-63 0 -113 42q-63 52 -63 166q0 95 55.5 158t149.5 63q56 0 94 -26q45 -30 45 -83zM700 646q0 10 -15 28q-15 12 -34 12q-14 0 -35 -12q-8 -7 -14 -28q0 -16 16 -27.5t33 -11.5q40 0 49 39zM212 137q0 33 -18 58q-20 29 -51 29q-30 0 -49.5 -27.5 t-19.5 -59.5q0 -33 18 -58q20 -29 51 -29q32 0 52 28q17 26 17 59z" />
<glyph unicode="&#xe2d5;" horiz-adv-x="1046" d="M768 -96h-318q-86 -153 -326 -153q-78 0 -150 41q-81 46 -81 113q0 46 48 46h450l10 46q-129 12 -129 164v73q0 73 -37 116q-40 44 -112 44q-67 0 -111 -47q-38 -41 -53 -110q36 41 97 41q57 0 94 -41t37 -98q0 -60 -36 -102t-95 -42q-78 0 -119 63q-34 52 -34 137 q0 105 64 179.5t168 74.5q100 0 162 -58t62 -158v-59q0 -62 11 -87q16 -36 63 -36q63 0 101 68q31 56 31 125q0 90 -48 143q-12 13 -65 34q-33 13 -33 49q0 21 30 21q13 0 22 -5q144 -78 144 -242q0 -174 -130 -236q0 -18 -5 -28l-9 -29h221v490h76v-537zM105 137 q0 33 -18 58q-20 29 -51 29q-30 0 -49.5 -27.5t-19.5 -59.5q0 -33 18 -58q20 -29 51 -29q32 0 52 28q17 26 17 59zM368 -96h-383q-36 0 -36 -22q0 -36 71 -65q56 -23 102 -23q179 0 246 110z" />
<glyph unicode="&#xe2d6;" horiz-adv-x="1345" d="M1083 391h-120v-391h-87v391h-134v-487h-292q-86 -153 -326 -153q-78 0 -150 41q-81 46 -81 113q0 46 48 46h450l10 46q-129 12 -129 164v73q0 73 -37 116q-40 44 -112 44q-67 0 -111 -47q-38 -41 -53 -110q36 41 97 41q57 0 94 -41t37 -98q0 -60 -36 -102t-95 -42 q-78 0 -119 63q-34 52 -34 137q0 105 64 179.5t168 74.5q100 0 162 -58t62 -158v-59q0 -62 11 -87q16 -36 63 -36q63 0 101 68q31 56 31 125q0 90 -48 143q-12 13 -65 34q-33 13 -33 49q0 21 30 21q13 0 22 -5q144 -78 144 -242q0 -174 -130 -236q0 -18 -5 -28l-9 -29h221 v490h391v-50zM105 137q0 33 -18 58q-20 29 -51 29q-30 0 -49.5 -27.5t-19.5 -59.5q0 -33 18 -58q20 -29 51 -29q32 0 52 28q17 26 17 59zM368 -96h-383q-36 0 -36 -22q0 -36 71 -65q56 -23 102 -23q179 0 246 110z" />
<glyph unicode="&#xe2d7;" horiz-adv-x="1499" d="M637 0h-51v298q0 127 -56 207q-64 91 -186 91q-114 0 -184 -81q-64 -74 -64 -194q0 -147 71 -221q53 -55 121 -55q30 0 47 7q-66 26 -66 116q0 57 36 97.5t93 40.5q67 0 102 -46q28 -36 28 -79q0 -90 -77 -139q-67 -43 -160 -43q-132 0 -209 95q-72 88 -72 223 q0 165 107 260q91 80 209 80q146 0 231 -103q80 -96 80 -245v-309zM451 167q0 31 -17 57q-19 31 -48 31q-30 0 -49 -30q-17 -26 -17 -58q0 -34 16 -59q18 -30 50 -30q30 0 49 31q16 26 16 58zM934 137q0 33 -18 58q-20 29 -51 29q-30 0 -49.5 -27.5t-19.5 -59.5 q0 -33 18 -58q20 -29 51 -29q32 0 52 28q17 26 17 59zM1021 381q-30 13 -69 13q-67 0 -111 -47q-38 -41 -53 -110q36 41 97 41q57 0 94 -41t37 -98q0 -60 -36 -102t-95 -42q-78 0 -119 63q-34 52 -34 137q0 105 64 179.5t168 74.5q40 0 74 -9q51 -14 88 -49q62 -58 62 -158 v-59q0 -63 10 -87q15 -36 64 -36q64 0 100 68q31 58 31 125q0 93 -47 143q-9 9 -65 34q-33 14 -33 49q0 21 30 21q13 0 22 -5q144 -78 144 -242q0 -95 -47 -166q-54 -82 -144 -82q-152 0 -152 165v73q0 73 -37 116q-18 20 -43 31z" />
<glyph unicode="&#xe2d8;" horiz-adv-x="1445" d="M548 181q0 -90 -71 -139q-63 -43 -155 -43q-156 0 -235 88q-77 84 -77 242t76 242q80 88 236 88q94 0 156 -43q70 -50 70 -140q0 -41 -29 -78q-37 -47 -102 -47q-57 0 -93 40.5t-36 98.5q0 93 70 114l-27 4q-118 0 -180 -83q-55 -74 -55 -196t55 -196q62 -83 180 -83 q19 0 27 4q-70 20 -70 114q0 57 36 97.5t93 40.5q54 0 92.5 -35.5t38.5 -89.5zM471 491q0 32 -17 58q-19 31 -49 31t-49 -31q-16 -26 -16 -58q0 -33 16 -59q18 -30 49 -30q27 0 50 30q16 28 16 59zM471 167q0 32 -17 58q-19 30 -49 30q-29 0 -47 -28.5t-18 -59.5 q0 -33 16 -59q18 -30 49 -30q27 0 50 30q16 28 16 59zM866 137q0 33 -18 58q-20 29 -51 29q-30 0 -49.5 -27.5t-19.5 -59.5q0 -33 18 -58q20 -29 51 -29q32 0 52 28q17 26 17 59zM953 381q-30 13 -69 13q-67 0 -111 -47q-38 -41 -53 -110q36 41 97 41q57 0 94 -41t37 -98 q0 -60 -36 -102t-95 -42q-78 0 -119 63q-34 52 -34 137q0 105 64 179.5t168 74.5q40 0 74 -9q51 -14 88 -49q62 -58 62 -158v-59q0 -63 10 -87q15 -36 64 -36q64 0 100 68q31 58 31 125q0 93 -47 143q-9 9 -65 34q-33 14 -33 49q0 21 30 21q13 0 22 -5q144 -78 144 -242 q0 -95 -47 -166q-54 -82 -144 -82q-152 0 -152 165v73q0 73 -37 116q-18 20 -43 31z" />
<glyph unicode="&#xe2d9;" horiz-adv-x="1768" d="M822 221q0 -85 -40 -144q-43 -63 -123 -82l-29 56q107 24 107 174q0 70 -43.5 117.5t-113.5 47.5q-43 0 -78 -23q79 -74 79 -182q0 -70 -25 -120q-32 -64 -95 -64q-98 0 -117 150q-2 16 -2 34q0 93 66 173q-62 39 -139 39q-76 0 -130 -43t-75 -117q36 41 97 41 q57 0 94 -41t37 -98q0 -60 -36 -102t-95 -42q-78 0 -119 63q-34 52 -34 137q0 116 86 188q81 68 200 68q90 0 164 -50q65 45 136 45q99 0 163.5 -63t64.5 -162zM498 185q0 76 -51 139q-53 -53 -53 -139q0 -120 53 -120q14 0 34 27q17 34 17 93zM210 137q0 33 -18 58 q-20 29 -51 29q-30 0 -49.5 -27.5t-19.5 -59.5q0 -33 18 -58q20 -29 51 -29q32 0 52 28q17 26 17 59zM1140 137q0 33 -18 58q-20 29 -51 29q-30 0 -49.5 -27.5t-19.5 -59.5q0 -33 18 -58q20 -29 51 -29q32 0 52 28q17 26 17 59zM1227 381q-30 13 -69 13q-67 0 -111 -47 q-38 -41 -53 -110q36 41 97 41q57 0 94 -41t37 -98q0 -60 -36 -102t-95 -42q-78 0 -119 63q-34 52 -34 137q0 105 64 179.5t168 74.5q40 0 74 -9q51 -14 88 -49q62 -58 62 -158v-59q0 -63 10 -87q15 -36 64 -36q64 0 100 68q31 58 31 125q0 93 -47 143q-9 9 -65 34 q-33 14 -33 49q0 21 30 21q13 0 22 -5q144 -78 144 -242q0 -95 -47 -166q-54 -82 -144 -82q-152 0 -152 165v73q0 73 -37 116q-18 20 -43 31z" />
<glyph unicode="&#xe2da;" horiz-adv-x="2097" d="M710 427l-3 -41l-4 -29l-76 -359h-39l81 407q4 95 -85 163q-78 59 -189 59q-143 0 -241 -82q-105 -87 -105 -227q0 -103 71 -186q72 -86 173 -95q-19 22 -23 54q-2 14 -2 61q0 66 36 111q44 55 104 55q53 0 84 -37.5t31 -91.5q0 -93 -71 -145q-63 -46 -159 -46 q-121 0 -204 101q-79 96 -79 219q0 156 114 263.5t271 107.5q146 0 231 -74q92 -82 84 -188zM447 189l-4 27l-12 28q-18 24 -36 24q-48 0 -69 -40q-14 -27 -21 -76v-24q0 -79 27 -79q49 0 84 46q31 43 31 94zM1504 262q0 -107 -57 -181q-64 -83 -164 -83q-132 0 -132 129 q0 39 17 102q5 13 5 34q0 50 -38 85t-82 35q-107 0 -178 -55q-80 -62 -80 -164q0 -30 23 -62q30 -33 55 -39q-19 32 -19 73q0 47 28 81q37 37 92 37q38 0 64 -34t26 -81q0 -53 -37.5 -97t-89.5 -44q-70 0 -124.5 48.5t-54.5 117.5q0 121 95.5 193t199.5 65l42 -3l37 -7 q32 -6 61 -30q51 -42 51 -114l-16 -103l-6 -27l-1 -31q-1 -32 17.5 -51t56.5 -19q78 0 127 66q44 60 44 141q0 41 -18 83q-19 47 -50 68q-12 15 -12 23q6 36 34 36q11 -1 17 -7q35 -35 50 -83q12 -27 12 -40l5 -31v-31zM1000 139q0 76 -37 76q-31 0 -54.5 -28.5t-23.5 -59.5 q0 -20 10 -55q14 -23 29 -23q31 0 53.5 29t22.5 61zM2077 383h-157l-82 -383h-71l79 383h-199l-80 -383h-37l85 422h462v-39z" />
<glyph unicode="&#xe2db;" horiz-adv-x="2069" d="M548 181q0 -90 -71 -139q-63 -43 -155 -43q-156 0 -235 88q-77 84 -77 242t76 242q80 88 236 88q94 0 156 -43q70 -50 70 -140q0 -41 -29 -78q-37 -47 -102 -47q-57 0 -93 40.5t-36 98.5q0 93 70 114l-27 4q-118 0 -180 -83q-55 -74 -55 -196t55 -196q62 -83 180 -83 q19 0 27 4q-70 20 -70 114q0 57 36 97.5t93 40.5q54 0 92.5 -35.5t38.5 -89.5zM471 491q0 32 -17 58q-19 31 -49 31t-49 -31q-16 -26 -16 -58q0 -33 16 -59q18 -30 49 -30q27 0 50 30q16 28 16 59zM471 167q0 32 -17 58q-19 30 -49 30q-29 0 -47 -28.5t-18 -59.5 q0 -33 16 -59q18 -30 49 -30q27 0 50 30q16 28 16 59zM864 137q0 33 -18 58q-20 29 -51 29q-30 0 -49.5 -27.5t-19.5 -59.5q0 -33 18 -58q20 -29 51 -29q32 0 52 28q17 26 17 59zM951 381q-30 13 -69 13q-67 0 -111 -47q-38 -41 -53 -110q36 41 97 41q57 0 94 -41t37 -98 q0 -60 -36 -102t-95 -42q-78 0 -119 63q-34 52 -34 137q0 105 64 179.5t168 74.5q40 0 74 -9q51 -14 88 -49q62 -58 62 -158v-59q0 -63 10 -87q15 -36 64 -36q64 0 100 68q31 58 31 125q0 93 -47 143q-9 9 -65 34q-33 14 -33 49q0 21 30 21q13 0 22 -5q144 -78 144 -242 q0 -95 -47 -166q-54 -82 -144 -82q-152 0 -152 165v73q0 73 -37 116q-18 20 -43 31zM1912 391h-125v-391h-87v391h-134v-391h-50v441h396v-50z" />
<glyph unicode="&#xe2dc;" horiz-adv-x="2418" d="M637 0h-51v298q0 127 -56 207q-64 91 -186 91q-114 0 -184 -81q-64 -74 -64 -194q0 -147 71 -221q53 -55 121 -55q30 0 47 7q-66 26 -66 116q0 57 36 97.5t93 40.5q67 0 102 -46q28 -36 28 -79q0 -90 -77 -139q-67 -43 -160 -43q-132 0 -209 95q-72 88 -72 223 q0 165 107 260q91 80 209 80q146 0 231 -103q80 -96 80 -245v-309zM451 167q0 31 -17 57q-19 31 -48 31q-30 0 -49 -30q-17 -26 -17 -58q0 -34 16 -59q18 -30 50 -30q30 0 49 31q16 26 16 58zM944 137q0 33 -18 58q-20 29 -51 29q-30 0 -49.5 -27.5t-19.5 -59.5 q0 -33 18 -58q20 -29 51 -29q32 0 52 28q17 26 17 59zM1031 381q-30 13 -69 13q-67 0 -111 -47q-38 -41 -53 -110q36 41 97 41q57 0 94 -41t37 -98q0 -60 -36 -102t-95 -42q-78 0 -119 63q-34 52 -34 137q0 105 64 179.5t168 74.5q40 0 74 -9q51 -14 88 -49q62 -58 62 -158 v-59q0 -63 10 -87q15 -36 64 -36q64 0 100 68q31 58 31 125q0 93 -47 143q-9 9 -65 34q-33 14 -33 49q0 21 30 21q13 0 22 -5q144 -78 144 -242q0 -95 -47 -166q-54 -82 -144 -82q-152 0 -152 165v73q0 73 -37 116q-18 20 -43 31zM2321 391h-94v-391h-85v391h-129v-391h-85 v198q0 193 -165 193q-61 0 -106 -48q-40 -42 -49 -108l26 23q32 20 70 20q56 0 94 -40t38 -96q0 -62 -34 -103q-36 -44 -97 -44q-62 0 -103 45q-49 54 -49 162q0 91 60 165q66 82 170 82q121 0 182 -79v71h356v-50zM1754 137q0 33 -18 58q-20 29 -51 29q-30 0 -49.5 -27.5 t-19.5 -59.5q0 -33 18 -58q20 -29 51 -29q32 0 52 28q17 26 17 59z" />
<glyph unicode="&#xe2e0;" horiz-adv-x="857" d="M509 597q0 -24 -18 -42.5t-42 -18.5q-19 0 -43 18q-17 19 -17 43q0 25 17.5 42.5t42.5 17.5t42.5 -17.5t17.5 -42.5zM716 0h-360v36q49 64 49 173q0 81 -48 131.5t-129 50.5q-60 0 -105 -47q-41 -44 -51 -106l27 21q38 19 70 19q57 0 94 -40.5t37 -97.5q0 -60 -35 -101 q-37 -44 -96 -44q-73 0 -116 63q-37 54 -37 132q0 108 63 181q66 78 172 78q103 0 171.5 -69.5t68.5 -173.5q0 -93 -39 -155h178v390h86v-441zM218 137q0 33 -18 58q-20 29 -51 29q-30 0 -49.5 -27.5t-19.5 -59.5q0 -33 18 -58q20 -29 51 -29q32 0 52 28q17 26 17 59z" />
<glyph unicode="&#xe2e1;" horiz-adv-x="869" d="M716 0h-360v36q49 64 49 173q0 81 -48 131.5t-129 50.5q-60 0 -105 -47q-41 -44 -51 -106l27 21q38 19 70 19q57 0 94 -40.5t37 -97.5q0 -60 -35 -101q-37 -44 -96 -44q-73 0 -116 63q-37 54 -37 132q0 108 63 181q66 78 172 78q103 0 171.5 -69.5t68.5 -173.5 q0 -93 -39 -155h178v390h86v-441zM218 137q0 33 -18 58q-20 29 -51 29q-30 0 -49.5 -27.5t-19.5 -59.5q0 -33 18 -58q20 -29 51 -29q32 0 52 28q17 26 17 59z" />
<glyph unicode="&#xe2e2;" horiz-adv-x="1424" d="M706 0h-360v36q49 64 49 173q0 81 -48 131.5t-129 50.5q-60 0 -105 -47q-41 -44 -51 -106l27 21q38 19 70 19q57 0 94 -40.5t37 -97.5q0 -60 -35 -101q-37 -44 -96 -44q-73 0 -116 63q-37 54 -37 132q0 108 63 181q66 78 172 78q103 0 171.5 -69.5t68.5 -173.5 q0 -93 -39 -155h178v390h86v-441zM208 137q0 33 -18 58q-20 29 -51 29q-30 0 -49.5 -27.5t-19.5 -59.5q0 -33 18 -58q20 -29 51 -29q32 0 52 28q17 26 17 59zM1257 391h-125v-391h-87v391h-134v-391h-50v441h396v-50z" />
<glyph unicode="&#xe2e3;" horiz-adv-x="1002" d="M850 0h-50v445q0 107 -26 163q-37 79 -132 79q-61 0 -100 -50q-37 -46 -37 -108q0 -63 30 -103q34 -45 95 -45v60h86v-441h-360v36q49 64 49 173q0 81 -48 131.5t-129 50.5q-60 0 -105 -47q-41 -44 -51 -106l27 21q38 19 70 19q57 0 94 -40.5t37 -97.5q0 -60 -35 -101 q-37 -44 -96 -44q-73 0 -116 63q-37 54 -37 132q0 108 63 181q66 78 172 78q103 0 171.5 -69.5t68.5 -173.5q0 -93 -39 -155h178v287q-63 0 -113 43q-63 54 -63 158q0 92 48 156q53 72 142 72q206 0 206 -314v-453zM218 137q0 33 -18 58q-20 29 -51 29q-30 0 -49.5 -27.5 t-19.5 -59.5q0 -33 18 -58q20 -29 51 -29q32 0 52 28q17 26 17 59z" />
<glyph unicode="&#xe2e4;" horiz-adv-x="869" d="M798 658q0 -43 -29 -68.5t-73 -25.5q-43 0 -71 19q-32 22 -32 63q0 25 10 35q-45 -8 -73 -58q-25 -44 -25 -94q0 -63 30 -103q34 -45 95 -45v60h86v-441h-360v36q49 64 49 173q0 81 -48 131.5t-129 50.5q-60 0 -105 -47q-41 -44 -51 -106l27 21q38 19 70 19 q57 0 94 -40.5t37 -97.5q0 -60 -35 -101q-37 -44 -96 -44q-73 0 -116 63q-37 54 -37 132q0 108 63 181q66 78 172 78q103 0 171.5 -69.5t68.5 -173.5q0 -93 -39 -155h178v287q-85 0 -133 63q-43 58 -43 145q0 95 55.5 158t149.5 63q56 0 94 -26q45 -30 45 -83zM736 646 q0 10 -15 28q-15 12 -34 12q-13 0 -34 -12q-8 -7 -14 -28q0 -17 16 -28t32 -11q40 0 49 39zM218 137q0 33 -18 58q-20 29 -51 29q-30 0 -49.5 -27.5t-19.5 -59.5q0 -33 18 -58q20 -29 51 -29q32 0 52 28q17 26 17 59z" />
<glyph unicode="&#xe2e5;" horiz-adv-x="869" d="M218 137q0 33 -18 58q-20 29 -51 29q-30 0 -49.5 -27.5t-19.5 -59.5q0 -34 17 -59q20 -28 52 -28t52 28q17 26 17 59zM630 0h-274v36q49 64 49 173q0 81 -48 131.5t-129 50.5q-60 0 -105 -47q-41 -44 -51 -106l27 21q38 19 70 19q57 0 94 -40.5t37 -97.5q0 -60 -35 -101 q-37 -44 -96 -44q-73 0 -116 63q-37 54 -37 132q0 108 63 181q66 78 172 78q103 0 171.5 -69.5t68.5 -173.5q0 -93 -39 -155h178v390h86v-647h-86v206z" />
<glyph unicode="&#xe2e6;" horiz-adv-x="902" d="M218 137q0 33 -18 58q-20 29 -51 29q-30 0 -49.5 -27.5t-19.5 -59.5q0 -34 17 -59q20 -28 52 -28t52 28q17 26 17 59zM630 0h-274v36q49 64 49 173q0 81 -48 131.5t-129 50.5q-60 0 -105 -47q-41 -44 -51 -106l27 21q38 19 70 19q57 0 94 -40.5t37 -97.5q0 -60 -35 -101 q-37 -44 -96 -44q-73 0 -116 63q-37 54 -37 132q0 108 63 181q66 78 172 78q103 0 171.5 -69.5t68.5 -173.5q0 -93 -39 -155h178v390h86v-449q12 23 52 23q43 0 70 -25t27 -68q0 -103 -102 -151q-75 -35 -192 -35q-127 0 -213 54q-71 44 -71 101q0 62 100 62q57 0 104 -30 l-17 -42q-33 24 -78 24q-49 0 -49 -23q0 -51 89 -79q66 -21 129 -21q223 0 223 133q0 49 -42 49q-30 0 -30 -33v-57h-86v126z" />
</font>
</defs>
</svg>
